<svg id="Layer_1" data-name="Layer 1" xmlns="http://www.w3.org/2000/svg" viewBox="0 0 163.92 224.9"><defs><style>.cls-1,.cls-5{fill:none;stroke-linecap:round;stroke-miterlimit:10;stroke-width:3.33px;}.cls-1{stroke:#ffbc42;}.cls-2{fill:#e5e276;}.cls-3{fill:#f4ee7f;}.cls-4{fill:#ffff82;}.cls-5{stroke:#f6921e;}.cls-6{fill:#fff275;}.cls-7{fill:#ffbc42;}.cls-8{opacity:0.1;}.cls-9{fill:#fdfffc;}.cls-10{fill:#273043;}</style></defs><title>forwird</title><polyline class="cls-1" points="129.22 176.32 130.37 185.2 133.6 194.94"/><polyline class="cls-1" points="123.61 194.94 130.37 185.2 141.48 191.16"/><path class="cls-2" d="M46.64,61.31c-0.78,1.35-10.45,10.79-25.11,8.57,4.22-.2,9.56-4.37,13-7.31,6-5.06,10.89-10.53,22-13.5a53.56,53.56,0,0,1,22.31-1.26c-7.52,1.37-16,3.19-25.67,13.26a15.31,15.31,0,0,1-10.86,5.21C45.12,65.44,47.88,63.18,46.64,61.31Z"/><path class="cls-3" d="M39.71,57.73C38.93,59.08,29.26,68.53,14.6,66.3c4.22-.2,9.56-4.37,13-7.31,6-5.06,10.89-10.53,22-13.5a53.56,53.56,0,0,1,22.31-1.26c-7.52,1.37-16,3.19-25.67,13.26a15.31,15.31,0,0,1-10.86,5.21C38.19,61.86,41,59.6,39.71,57.73Z"/><path class="cls-4" d="M38.53,51.08C37.47,52.23,26,59.3,12.15,53.9c4.16,0.74,10.29-2.15,14.27-4.26,7-3.6,13-7.87,24.4-8.32a53.56,53.56,0,0,1,22,3.69c-7.63-.32-16.35-0.43-28,7.26A15.31,15.31,0,0,1,33.15,55C36.13,54.77,39.33,53.18,38.53,51.08Z"/><path class="cls-4" d="M69.74,47.64q-1.6-2.26-3.18-4.54a44.34,44.34,0,0,0-5.38-.71,23.56,23.56,0,0,0-5,.44A14.34,14.34,0,0,0,54,44.35c-4.18,3.59-2.93,7.72-2.1,12.9a10.43,10.43,0,0,1-1.53,7.17,9.43,9.43,0,0,1-7,4.19c6.55,3,15.12-2.33,13-8.16a4.65,4.65,0,0,1,.12,5.08c-4,8.53-19.7,2-20.54,13.08,1.14-3,5.11-3.57,8.21-3.35l-0.38,0a10.54,10.54,0,0,0-4.89,3c-3,3.06-2.65,6-2.16,10a5.39,5.39,0,0,1-1.68,4.88,9.89,9.89,0,0,1-2.83,1.52A7.26,7.26,0,0,0,38,92.32c1.79-2.24,1.18-5.67,3.14-7.54s5.14-.85,5.34,1.71c0.17,2.18-3,4.33-4.89,5.44-5.07,2.93-7.35,6.62-7.22,11.52,0.22,8.3,9,21.14-2.73,25.14,4.28-.31,9.91-2.76,12.29-6.06,2.23-3.37,1.89-6.9,1.29-10.71-0.55-3.46-1.65-8.42,1-11,3.58-3.5,8.38.12,8.44,4.36,0.17,3.47-3,6.33-5.75,8.19l0.22-.08c6.42-2.58,12-6.3,12.38-13.28s-4.85-13.24-5.91-20.28C55,76,56.47,73.46,59,71.19c-1.73,3.74-.86,7.14.73,10.34C60.92,83.92,64,88,66.64,89L66.86,89a12.72,12.72,0,0,1-4.35-8c-0.5-5.55,2.91-8.77,6.71-12.34,2.7-2.52,6.15-6.18,6-10.49A19.24,19.24,0,0,0,73.13,53,59.73,59.73,0,0,0,69.74,47.64Z"/><path class="cls-4" d="M67.93,79.59q-2.26-1.6-4.51-3.23a44.34,44.34,0,0,0-5.31,1.11,23.56,23.56,0,0,0-4.58,2.08A14.34,14.34,0,0,0,52,81.7c-2.75,4.78-.2,8.25,2.3,12.87a10.43,10.43,0,0,1,.94,7.27A9.43,9.43,0,0,1,50,108.12c7.18,0.65,13.49-7.22,9.6-12a4.65,4.65,0,0,1,1.8,4.75c-1,9.38-17.9,8.46-15,19.16,0.09-3.18,3.63-5.06,6.63-5.89l-0.35.14A10.54,10.54,0,0,0,49,118.71c-1.85,3.89-.52,6.51,1.3,10.19a5.39,5.39,0,0,1,0,5.16,9.89,9.89,0,0,1-2.16,2.37,7.26,7.26,0,0,0,4.59-4.15c0.95-2.7-.77-5.74.46-8.15,1.32-2.58,4.57-2.5,5.6-.15,0.88,2-1.36,5.06-2.81,6.75-3.81,4.45-4.73,8.68-3,13.26,3,7.75,15.53,16.95,5.76,24.62,3.93-1.71,8.43-5.89,9.59-9.8,1-3.92-.51-7.14-2.34-10.53-1.66-3.08-4.35-7.4-2.69-10.69,2.22-4.49,7.94-2.67,9.41,1.32,1.31,3.22-.71,7-2.71,9.63l0.18-.15c5.2-4.56,9.19-9.91,7.27-16.64-1.91-6.88-9-10.88-12.31-17.16-1.8-3.39-1.26-6.25.42-9.24-0.4,4.1,1.56,7,4.12,9.51,1.87,1.87,6.17,4.72,9,4.79l0.18-.15a12.72,12.72,0,0,1-6.77-6.12c-2.31-5.07-.16-9.23,2.23-13.87,1.71-3.27,3.75-7.87,2.19-11.89a19.24,19.24,0,0,0-3.66-4.11A59.73,59.73,0,0,0,67.93,79.59Z"/><path class="cls-4" d="M109.39,181c-3.6,3.07-9.34,1.63-13-.23-10.64-5.32-18.12-13.67-29.27-11.64C53.13,171.67,53.63,182,43,185.35c4.65,0.66,9.42-4.65,13.68-5.42,4.44-.81,9.13-0.42,11.16,2.69-2.69-2.69-6.86-2.16-10.29-1.51-5.28.9-8.47,4.47-12.92,7a12.89,12.89,0,0,1-7.24,1.43c-3.57-.11-7.64-2.51-7.68-5.51-0.53,5.5,5.73,10.1,8.64,11,4.92,1.59,10.28,1.48,14.67-1.2l0.12-.26c-2.94,3.68-7.76,5-12.45,4.63-4.87-.32-9.55-1.46-14.37-2.24-4.9-1-8.64-.09-13.16,1.78C6.93,200.28-3.26,211.78,1,224.9c0.67-13.44,15.79-21.55,31.37-17.54-7.31,2.78-9.9,9.71-8.7,16.35-0.77-5.52,5.88-10.81,13.45-11.93,6.36-.88,13.2,2.36,19.44,1.73,5.68-.41,9-4.24,12.6-7.95,2.89-3.23,10.77-7.41,11.92-.39,1.08,6.55-9.57,9.61-14.27,6.86,7.39,4.72,19,1.05,20.36-6.77a9.35,9.35,0,0,1-5.29,7.79c-9.78,5.6-24.46-2.44-30.46,10.35,4.75-5.58,11.48-4.13,18.1-3.18C79.89,221.94,92,223.76,100,215c4.14-4.55,6.63-10.55,8.2-16.73a65.49,65.49,0,0,0,1.87-17.73Z"/><path class="cls-5" d="M132.55,160.57"/><path class="cls-5" d="M147.7,139.39"/><path class="cls-4" d="M52.56,101C46.82,66.39,71.33,26.15,106.71,0c-1.2,12.26,38.56,28.61,48.94,52.19s24.52,87.7-52,149.49C103.64,201.68,60.71,150.26,52.56,101Z"/><path class="cls-6" d="M153.36,140.85c17.8-39.12,9.21-72.92,2.28-88.66a48.4,48.4,0,0,0-8.8-12.87C136.06,69.82,143.4,116.12,153.36,140.85Z"/><path class="cls-6" d="M61.63,52.27c3.85,22.38,21.29,39.2,42.87-7.74,0,0,22.77,24.42,38-9.6C127.08,20.25,105.82,9,106.71,0,87.38,14.29,71.31,32.79,61.63,52.27Z"/><path class="cls-7" d="M120.38,16.84c-8.1-6.4-14.16-11.95-13.68-16.84A163,163,0,0,0,84.3,20C93.69,25.67,107.25,27.5,120.38,16.84Z"/><path class="cls-7" d="M120.38,16.84c-8.1-6.4-14.16-11.95-13.68-16.84-6.34,8.85-7.76,16.12-6.54,24.53C106.59,24.54,113.54,22.4,120.38,16.84Z"/><path class="cls-8" d="M120.38,16.84c-8.1-6.4-14.16-11.95-13.68-16.84-6.34,8.85-7.76,16.12-6.54,24.53C106.59,24.54,113.54,22.4,120.38,16.84Z"/><path class="cls-9" d="M94.31,50.29a10.37,10.37,0,0,1-4.47,3.2c-4.35,1.66-9.57,2-13.74-.32a10.32,10.32,0,0,1-5.26-10.24c0.71-4.4,5.56-7.63,9.72-8.4a14.61,14.61,0,0,1,12.26,3.76C96.91,41.84,97.06,46.82,94.31,50.29Z"/><path class="cls-10" d="M79.81,44.81c0,1.76,3.27,1.89,4.44,1.75s2.39-.81,2.46-1.93a2.09,2.09,0,0,0-1.67-2C83.66,42.29,79.8,42.76,79.81,44.81Z"/><path class="cls-6" d="M85.52,152.87S69.65,181,65.84,178s14.53-43,14.36-61.17,9-43.32,26-53.14,28.19,16.63,20.12,46.68-27.45,54.09-30.08,53.39,8.68-20.68,8.68-20.68S80.85,177.37,77.6,176.49,85.52,152.87,85.52,152.87Z"/><polyline class="cls-1" points="115.57 182.38 116.72 191.26 119.95 201"/><polyline class="cls-1" points="109.96 201 116.72 191.26 127.83 197.22"/></svg>