<svg id="Layer_1" data-name="Layer 1" xmlns="http://www.w3.org/2000/svg" viewBox="0 0 551.5 152.08"><defs><style>.cls-1,.cls-3{isolation:isolate;font-family:Hinwil;}.cls-1{font-size:200px;}.cls-1,.cls-2{fill:#f1ce08;}.cls-3{font-size:100px;}.cls-4{font-size:150px;font-family:Yanone Kaffeesatz;}</style></defs><title>iintrinsic</title><text class="cls-1" transform="translate(0 147.6)">ii</text><path class="cls-2" d="M50,64a30.56,30.56,0,0,0,19-5.35c4.87-3.49,8.17-10,9.75-15.61,2.61-9.31-11.86-13.29-14.46-4-0.73,2.62-2.21,6.1-4.42,7.74C57.22,48.72,53,49.27,50,49c-9.63-.75-9.58,14.25,0,15h0Z"/><path class="cls-2" d="M140.94,65.2a173.47,173.47,0,0,1,25.52.79c4,0.42,7.5-3.75,7.5-7.5,0-4.41-3.45-7.08-7.5-7.5a173.47,173.47,0,0,0-25.52-.79c-9.62.41-9.67,15.41,0,15h0Z"/><text class="cls-3" transform="translate(60.7 141.98)">2</text><text class="cls-4" transform="translate(173.96 147.6)">ntrinsic</text></svg>