<svg id="Layer_1" data-name="Layer 1" xmlns="http://www.w3.org/2000/svg" viewBox="0 0 543.3 146.97"><defs><style>.cls-1{isolation:isolate;}.cls-2{fill:#f1ce08;}</style></defs><title>iintrinsic</title><g class="cls-1"><path class="cls-2" d="M62.6,148.8q-18.8-1.8-42-1.8a7.6,7.6,0,1,1,0-15.2q5.8,0,11.4.2,0-7.2-.2-24.4T31.6,81q0-2,.2-5.6a44.42,44.42,0,0,1,.6-5.2,36.57,36.57,0,0,0,0-5.4q-4.4.6-6.2,0.8-12.4,1.2-17,.2a7.08,7.08,0,0,1-4.9-3.3A7.67,7.67,0,0,1,6.7,51.9a7,7,0,0,1,5.7-.9q2.2,0.4,12.2-.6l7.2-.8a21.44,21.44,0,0,0,2.6-.4h1.2a6,6,0,0,1,3.4.6,9.07,9.07,0,0,1,1.6.8A7.52,7.52,0,0,1,45,49.2a7.51,7.51,0,0,1,7.6,7.6q0,51.4,2,76l9.6,0.8a7.64,7.64,0,0,1,5,2.8,7.21,7.21,0,0,1,1.7,5.5,7.32,7.32,0,0,1-2.7,5.1A7.71,7.71,0,0,1,62.6,148.8ZM31.2,4q9.2-2.8,14.4-1.4,9.4,2.6,10,14.8a9.59,9.59,0,0,1-.6,3.4,9,9,0,0,1,1.2,2.8,7.54,7.54,0,0,1-1.5,5.7,7.93,7.93,0,0,1-4.9,3.1,54.83,54.83,0,0,1-9.6.6,13,13,0,0,1-8.8-3.4,18.64,18.64,0,0,1-4.2-7.2q-0.2-1-.9-3.5L25.2,15a7.11,7.11,0,0,1,1.4-7A7.24,7.24,0,0,1,31.2,4Z" transform="translate(-3.09 -2.13)"/><path class="cls-2" d="M153.6,148.8q-18.8-1.8-42-1.8a7.6,7.6,0,1,1,0-15.2q5.8,0,11.4.2,0-7.2-.2-24.4T122.6,81q0-2,.2-5.6a44.42,44.42,0,0,1,.6-5.2,36.57,36.57,0,0,0,0-5.4q-4.4.6-6.2,0.8-12.4,1.2-17,.2a7.08,7.08,0,0,1-4.9-3.3,7.67,7.67,0,0,1,2.4-10.6,7,7,0,0,1,5.7-.9q2.2,0.4,12.2-.6l7.2-.8a21.44,21.44,0,0,0,2.6-.4h1.2a6,6,0,0,1,3.4.6,9.07,9.07,0,0,1,1.6.8,7.52,7.52,0,0,1,4.4-1.4,7.51,7.51,0,0,1,7.6,7.6q0,51.4,2,76l9.6,0.8a7.64,7.64,0,0,1,5,2.8,7.21,7.21,0,0,1,1.7,5.5,7.32,7.32,0,0,1-2.7,5.1A7.71,7.71,0,0,1,153.6,148.8ZM122.2,4q9.2-2.8,14.4-1.4,9.4,2.6,10,14.8a9.59,9.59,0,0,1-.6,3.4,9,9,0,0,1,1.2,2.8,7.54,7.54,0,0,1-1.5,5.7,7.93,7.93,0,0,1-4.9,3.1,54.83,54.83,0,0,1-9.6.6,13,13,0,0,1-8.8-3.4,18.64,18.64,0,0,1-4.2-7.2q-0.2-1-.9-3.5L116.2,15a7.11,7.11,0,0,1,1.4-7A7.24,7.24,0,0,1,122.2,4Z" transform="translate(-3.09 -2.13)"/></g><path class="cls-2" d="M50,64a30.56,30.56,0,0,0,19-5.35c4.87-3.49,8.17-10,9.75-15.61,2.61-9.31-11.86-13.29-14.46-4-0.73,2.62-2.21,6.1-4.42,7.74C57.22,48.72,53,49.27,50,49c-9.63-.75-9.58,14.25,0,15h0Z" transform="translate(-3.09 -2.13)"/><path class="cls-2" d="M140.94,65.2a173.47,173.47,0,0,1,25.52.79c4,0.42,7.5-3.75,7.5-7.5,0-4.41-3.45-7.08-7.5-7.5a173.47,173.47,0,0,0-25.52-.79c-9.62.41-9.67,15.41,0,15h0Z" transform="translate(-3.09 -2.13)"/><g class="cls-1"><path d="M109.6,138.88q-5.6,1.4-17.2,1.1t-16,.5a3.22,3.22,0,0,1-1.6,0l-0.8.9a3.37,3.37,0,0,1-2.5,1.35,3.78,3.78,0,0,1-2.8-.8,3.53,3.53,0,0,1-1.35-2.55,3.67,3.67,0,0,1,.85-2.8A50.61,50.61,0,0,1,73,131.23q2.75-2.65,4.85-4.4t5.75-4.3q3.65-2.55,5.25-3.6t6-3.75q4.4-2.7,5.4-3.4a2.66,2.66,0,0,1-.2-1q-0.1-1.9-.2-5.45t-0.1-4.65a105.8,105.8,0,0,1-14.1.4,50.75,50.75,0,0,1-4.1,5.1q-4.2,4.7-4.8,5.4a3.72,3.72,0,0,1-2.55,1.5,3.43,3.43,0,0,1-2.75-.8,0.29,0.29,0,0,0-.2-0.1,3.71,3.71,0,0,1-2.9-.4,3.64,3.64,0,0,1-1.8-2.3,3.71,3.71,0,0,1,.4-2.9,60.33,60.33,0,0,1,4.8-6.5q1.5-1.8,2.3-2.9a4.51,4.51,0,0,1,0-1.9,3.87,3.87,0,0,1,1.75-2.35,3.47,3.47,0,0,1,2.85-.45,41.4,41.4,0,0,0,8.7,1,81.34,81.34,0,0,0,8.8-.15q3.7-.3,9.4-0.9a4,4,0,0,1,2.8.85,3.71,3.71,0,0,1,1.4,2.55,3.84,3.84,0,0,1-.4,2.1,32.62,32.62,0,0,1,.3,4.6q0,2.5-.1,5.45t-0.1,4a6.84,6.84,0,0,1-2.1,4.2q-2.6,1.7-8,5t-9.15,5.85q-3.8,2.55-7,5.15,2.6,0,9.3.1,10.5,0.3,15-.9a3.78,3.78,0,0,1,2.95.4A3.83,3.83,0,0,1,109.6,138.88Z" transform="translate(-3.09 -2.13)"/></g><g class="cls-1"><path d="M184,76.5c8.1-3.3,15.9-5.4,24.75-5.4,16.8,0,20.1,7.65,20.1,21.3v53.7c0,1.5,0,1.5-3.6,1.5V93c0-12.45-2.85-18.3-16.35-18.3-5.7,0-15.15,1.35-21.3,4.35v67c0,1.5-.15,1.5-3.6,1.5V76.5Z" transform="translate(-3.09 -2.13)"/><path d="M242.66,76.2c0-3.15.15-3.6,1.2-3.6h11.25V47.85c0-2.25.3-2.25,3.6-2.25v27h21.15c0,3.15,0,3.6-.9,3.6H258.71v48.9c0,11.85.3,20.4,8.7,20.4,5,0,7.2-1,10.65-2.7a6,6,0,0,1,.45,2.25c0,2.25-5.25,4-11.4,4-12,0-12-10.65-12-24.45V76.2H242.66Z" transform="translate(-3.09 -2.13)"/><path d="M293.06,77.7a34.39,34.39,0,0,1,19.65-6.6c6.9,0,11.25,2,11.25,4a3.54,3.54,0,0,1-.9,2.4,19.08,19.08,0,0,0-10-2.85A25.73,25.73,0,0,0,296.66,80V146.1c0,1.5-.45,1.5-3.6,1.5V77.7Z" transform="translate(-3.09 -2.13)"/><path d="M339,47.1c1.8,0,2.7,1.35,2.7,3.9,0,3-.75,4.5-3,4.5q-2.7-.22-2.7-3.6C336,48.6,337,47.1,339,47.1Zm1.65,99c0,1.5,0,1.5-3.6,1.5V74.85c0-2.25.75-2.25,3.6-2.25v73.5Z" transform="translate(-3.09 -2.13)"/><path d="M361.3,76.5c8.1-3.3,15.9-5.4,24.75-5.4,16.8,0,20.1,7.65,20.1,21.3v53.7c0,1.5,0,1.5-3.6,1.5V93c0-12.45-2.85-18.3-16.35-18.3-5.7,0-15.15,1.35-21.3,4.35v67c0,1.5-.15,1.5-3.6,1.5V76.5Z" transform="translate(-3.09 -2.13)"/><path d="M433.9,103.05c-9.75-5.7-11.25-9.75-11.25-15.75,0-10.5,10.8-16.2,24.15-16.2,12.75,0,19.5,4.8,19.5,6.45a4.54,4.54,0,0,1-1.35,2.7A29.64,29.64,0,0,0,446.8,74.7c-11.4,0-20.55,4.35-20.55,12.45,0,4.5,1.65,7.8,9,12.3l19,11.55c7.5,5.25,11.55,11,11.55,18.6,0,13-8.85,19.5-24.15,19.5-12.6,0-19.65-3.15-19.65-5.25a2.89,2.89,0,0,1,1.2-2.7c4.65,3,9.6,4.35,18.3,4.35,12.3,0,20.7-4.35,20.7-14.55,0-7.65-3.6-12.75-11.1-17.85Z" transform="translate(-3.09 -2.13)"/><path d="M486.4,47.1c1.8,0,2.7,1.35,2.7,3.9,0,3-.75,4.5-3,4.5q-2.7-.22-2.7-3.6C483.4,48.6,484.45,47.1,486.4,47.1Zm1.65,99c0,1.5,0,1.5-3.6,1.5V74.85c0-2.25.75-2.25,3.6-2.25v73.5Z" transform="translate(-3.09 -2.13)"/><path d="M545.2,78.9a20.26,20.26,0,0,0-12.75-4.2c-9.75,0-22.65,3.75-22.65,37.8,0,28.35,8.4,33.15,19.65,33.15,7.8,0,13.35-3.15,16-6a4.49,4.49,0,0,1,.9,2.7c0,2.4-7.2,6.75-17.55,6.75-12.3,0-22.65-4.5-22.65-37.35,0-36,15.15-40.65,27.3-40.65,6.45,0,12.6,2.7,12.6,5.1A5.24,5.24,0,0,1,545.2,78.9Z" transform="translate(-3.09 -2.13)"/></g></svg>