<svg id="Layer_1" data-name="Layer 1" xmlns="http://www.w3.org/2000/svg" viewBox="0 0 67.79 11.19"><defs><style>.cls-1{isolation:isolate;}.cls-2{fill:#f1ce09;}</style></defs><title>iintrinsic-tagline</title><g class="cls-1"><g class="cls-1"><path d="M6.07,4.32c0-.12,0-0.12.34-0.12L4.94,10.31H4.79S4.7,10,4.59,9.62L4.37,8.79c-0.46-1.68-.84-3.12-1-3.68-0.13.56-.47,2-0.9,3.69L2.1,10.31H1.93s-0.07-.23-0.16-0.59C1.4,8.16.4,4.32,0.4,4.32a0.51,0.51,0,0,0,0-.06c0-.06.06-0.06,0.29-0.06L1.28,6.66c0.41,1.67.73,3,.73,3H2c0.06-.28.18-0.78,0.31-1.34s0.29-1.2.41-1.73L3.21,4.56a0.13,0.13,0,0,1,.12-0.12H3.51L4.09,6.69c0.42,1.62.77,3,.77,3h0c0.08-.49.38-1.85,0.66-3Z" transform="translate(-0.38 -1.39)"/></g><g class="cls-1"><path d="M7.59,1.56c0-.18.06-0.18,0.29-0.18V4.65a2.9,2.9,0,0,1,1.73-.56c1.25,0,1.52.65,1.52,1.64v4.35c0,0.12,0,.12-0.29.12V5.73A1.12,1.12,0,0,0,9.58,4.37,2.48,2.48,0,0,0,7.88,5v5c0,0.12,0,.12-0.29.12V1.56Z" transform="translate(-0.38 -1.39)"/></g><g class="cls-1"><path d="M16,9.59a0.53,0.53,0,0,1,.06.23,2,2,0,0,1-1.58.5c-1.16,0-2-.3-2-2.77,0-3.18,1.24-3.47,2.16-3.47,1.09,0,1.5.78,1.5,1.87A8.39,8.39,0,0,1,16,7.25a16.94,16.94,0,0,1-2.89.22h-0.4V7.6c0,2.23.77,2.43,1.73,2.43A2.56,2.56,0,0,0,16,9.59ZM12.76,7.18h0.48A14.59,14.59,0,0,0,15.79,7a8.36,8.36,0,0,0,0-.9c0-1.06-.26-1.73-1.2-1.73C13.9,4.37,12.86,4.48,12.76,7.18Z" transform="translate(-0.38 -1.39)"/></g><g class="cls-1"><path d="M17.38,4.61A2.75,2.75,0,0,1,19,4.08a0.85,0.85,0,0,1,.9.32,0.28,0.28,0,0,1-.07.19A1.52,1.52,0,0,0,19,4.37a2.06,2.06,0,0,0-1.31.42v5.29c0,0.12,0,.12-0.29.12V4.61Z" transform="translate(-0.38 -1.39)"/></g><g class="cls-1"><path d="M23.92,9.59a0.53,0.53,0,0,1,.06.23,2,2,0,0,1-1.58.5c-1.16,0-2-.3-2-2.77,0-3.18,1.24-3.47,2.16-3.47,1.09,0,1.5.78,1.5,1.87a8.39,8.39,0,0,1-.08,1.3,16.94,16.94,0,0,1-2.89.22h-0.4V7.6c0,2.23.77,2.43,1.73,2.43A2.56,2.56,0,0,0,23.92,9.59ZM20.67,7.18h0.48A14.59,14.59,0,0,0,23.7,7a8.36,8.36,0,0,0,0-.9c0-1.06-.26-1.73-1.2-1.73C21.81,4.37,20.77,4.48,20.67,7.18Z" transform="translate(-0.38 -1.39)"/></g><g class="cls-1"><path class="cls-2" d="M28.32,6.64a1.31,1.31,0,0,1-.9-1.26c0-.84.86-1.29,1.93-1.29a1.77,1.77,0,0,1,1.56.52,0.36,0.36,0,0,1-.11.22,2.37,2.37,0,0,0-1.45-.44c-0.91,0-1.64.35-1.64,1a1.09,1.09,0,0,0,.72,1l1.52,0.92a1.78,1.78,0,0,1,.92,1.49c0,1-.71,1.56-1.93,1.56-1,0-1.57-.25-1.57-0.42a0.23,0.23,0,0,1,.1-0.22,2.46,2.46,0,0,0,1.46.35c1,0,1.66-.35,1.66-1.16a1.64,1.64,0,0,0-.89-1.43Z" transform="translate(-0.38 -1.39)"/><path class="cls-2" d="M31.94,4.49c0-.25,0-0.29.1-0.29h0.9v-2C32.94,2,33,2,33.22,2V4.2h1.69c0,0.25,0,.29-0.07.29H33.22V8.4c0,0.95,0,1.63.7,1.63a1.65,1.65,0,0,0,.85-0.22,0.47,0.47,0,0,1,0,.18,0.92,0.92,0,0,1-.91.32c-1,0-1-.85-1-2V4.49h-1Z" transform="translate(-0.38 -1.39)"/><path class="cls-2" d="M39.09,6.33c0,1.37,0,2.58-.07,3.54a2.67,2.67,0,0,1-1.57.46c-0.85,0-1.74-.12-1.74-1.74a1.7,1.7,0,0,1,2-1.94,4.15,4.15,0,0,1,1.09.12V5.58a1,1,0,0,0-1.19-1.21,4.63,4.63,0,0,0-1.87.31,0.27,0.27,0,0,1,0-.16,0.15,0.15,0,0,1,.06-0.16,5.42,5.42,0,0,1,1.92-.29,1.24,1.24,0,0,1,1.42,1.45V6.33Zm-1.32.58C36.87,6.9,36,7,36,8.57S36.75,10,37.53,10a2.13,2.13,0,0,0,1.2-.35C38.78,9,38.8,8,38.8,7A4.34,4.34,0,0,0,37.77,6.9Z" transform="translate(-0.38 -1.39)"/><path class="cls-2" d="M40.57,4.61a2.75,2.75,0,0,1,1.57-.53,0.85,0.85,0,0,1,.9.32A0.28,0.28,0,0,1,43,4.6a1.52,1.52,0,0,0-.8-0.23,2.05,2.05,0,0,0-1.31.42v5.29c0,0.12,0,.12-0.29.12V4.61Z" transform="translate(-0.38 -1.39)"/><path class="cls-2" d="M44.78,6.64a1.31,1.31,0,0,1-.9-1.26c0-.84.86-1.29,1.93-1.29a1.78,1.78,0,0,1,1.56.52,0.37,0.37,0,0,1-.11.22,2.37,2.37,0,0,0-1.45-.44c-0.91,0-1.64.35-1.64,1a1.09,1.09,0,0,0,.72,1l1.52,0.92a1.78,1.78,0,0,1,.92,1.49c0,1-.71,1.56-1.93,1.56-1,0-1.57-.25-1.57-0.42a0.23,0.23,0,0,1,.1-0.22,2.46,2.46,0,0,0,1.46.35c1,0,1.65-.35,1.65-1.16a1.64,1.64,0,0,0-.89-1.43Z" transform="translate(-0.38 -1.39)"/></g><g class="cls-1"><path d="M54.17,6.33c0,1.37,0,2.58-.07,3.54a2.67,2.67,0,0,1-1.57.46c-0.85,0-1.74-.12-1.74-1.74a1.7,1.7,0,0,1,2-1.94,4.16,4.16,0,0,1,1.09.12V5.58A1,1,0,0,0,52.7,4.37a4.63,4.63,0,0,0-1.87.31,0.27,0.27,0,0,1,0-.16,0.15,0.15,0,0,1,.06-0.16,5.42,5.42,0,0,1,1.92-.29,1.24,1.24,0,0,1,1.42,1.45V6.33Zm-1.32.58c-0.9,0-1.78.12-1.78,1.67S51.83,10,52.61,10a2.12,2.12,0,0,0,1.2-.35C53.86,9,53.88,8,53.88,7A4.34,4.34,0,0,0,52.85,6.9Z" transform="translate(-0.38 -1.39)"/><path d="M56,10.08c0,0.12,0,.12-0.29.12V1.56c0-.18.07-0.18,0.29-0.18v8.69Z" transform="translate(-0.38 -1.39)"/><path d="M57.83,2.16C58,2.16,58,2.27,58,2.48s-0.06.36-.24,0.36a0.24,0.24,0,0,1-.22-0.29C57.59,2.28,57.68,2.16,57.83,2.16ZM58,10.08c0,0.12,0,.12-0.29.12V4.38c0-.18.06-0.18,0.29-0.18v5.88Z" transform="translate(-0.38 -1.39)"/><path d="M63.53,4.14a0.21,0.21,0,0,1,0,.11c0,0.1,0,.16-0.19.16l-0.91,0A1.56,1.56,0,0,1,63.36,6c0,1.21-.55,2.35-1.94,2.35a2.39,2.39,0,0,1-.83-0.13,1.68,1.68,0,0,0-.74.89c0,0.26.91,0.48,2.12,0.61,0.82,0.1,1.61.29,1.61,1.24,0,0.78-.77,1.62-2.34,1.62s-1.88-.6-1.88-1.25a2.36,2.36,0,0,1,1.07-1.59,0.94,0.94,0,0,1-.86-0.6,1.84,1.84,0,0,1,.78-1,2,2,0,0,1-.79-1.88,2,2,0,0,1,1.94-2.13,3.68,3.68,0,0,1,.53.06h1.51ZM63.29,11c0-.78-0.7-0.91-1.34-1-0.43,0-.84-0.11-1.19-0.18a2.29,2.29,0,0,0-1.12,1.52c0,0.53.24,1,1.6,1S63.29,11.64,63.29,11Zm-1.83-2.9A1.82,1.82,0,0,0,63.08,6a1.45,1.45,0,0,0-1.58-1.63,1.66,1.66,0,0,0-1.66,1.87C59.84,7.12,60,8.07,61.46,8.07Z" transform="translate(-0.38 -1.39)"/><path d="M64.59,4.52a5.09,5.09,0,0,1,2-.43c1.34,0,1.61.61,1.61,1.7v4.29c0,0.12,0,.12-0.29.12V5.83c0-1-.23-1.46-1.31-1.46a4.47,4.47,0,0,0-1.7.35v5.36c0,0.12,0,.12-0.29.12V4.52Z" transform="translate(-0.38 -1.39)"/></g></g></svg>