<svg id="_1" data-name=" 1" xmlns="http://www.w3.org/2000/svg" xmlns:xlink="http://www.w3.org/1999/xlink" viewBox="0 0 422.93 609"><defs><style>.cls-1{fill:#28537e;}.cls-2,.cls-34{fill:#fff;}.cls-3{fill:#1e263b;}.cls-4{fill:#459db2;}.cls-5{fill:url(#radial-gradient);}.cls-6{fill:#4f6ca6;}.cls-7{fill:#000006;}.cls-8{fill:#0c6087;}.cls-9{fill:#363333;}.cls-10{fill:#385fab;}.cls-11{fill:#8ca6d1;}.cls-12{fill:#bd0006;}.cls-13{fill:url(#linear-gradient);}.cls-14{fill:url(#linear-gradient-2);}.cls-15{fill:url(#linear-gradient-3);}.cls-16{fill:url(#linear-gradient-4);}.cls-17{fill:url(#linear-gradient-5);}.cls-18{fill:url(#linear-gradient-6);}.cls-19{fill:url(#linear-gradient-7);}.cls-20{fill:url(#linear-gradient-8);}.cls-21{fill:url(#linear-gradient-9);}.cls-22{fill:url(#linear-gradient-10);}.cls-23{fill:url(#linear-gradient-11);}.cls-24{fill:url(#linear-gradient-12);}.cls-25{fill:#8a000b;}.cls-26{fill:url(#radial-gradient-2);}.cls-27{fill:url(#radial-gradient-3);}.cls-28{fill:url(#linear-gradient-13);}.cls-29{fill:url(#linear-gradient-14);}.cls-30{fill:#d73426;}.cls-31{fill:#d71b2a;}.cls-32{fill:#a31c25;}.cls-33{fill:#442b69;}.cls-34{stroke:#434d5b;stroke-width:0.05px;}.cls-35{fill:#d8000c;}.cls-36{fill:#f3da19;}.cls-37{fill:#141313;}.cls-38{fill:#1b4c88;}.cls-39{fill:#e6d896;}.cls-40{fill:#30301f;}.cls-41{fill:#ecc50d;}.cls-42{fill:#1a1718;}.cls-43{fill:#ddc6b1;}.cls-44,.cls-46{fill:#fdf7e6;}.cls-45{fill:url(#linear-gradient-15);}.cls-46{opacity:0.65;isolation:isolate;}.cls-47{fill:#48751e;}.cls-48{fill:#149840;}.cls-49{fill:#fbe622;}.cls-50{fill:#e4001c;}.cls-51{fill:#1396d5;}.cls-52{fill:#0d6ebd;}.cls-53{fill:#e2122e;}.cls-54{fill:#e30079;}.cls-55{fill:#711d79;}.cls-56{fill:#329cdb;}.cls-57{fill:#273a88;}.cls-58{fill:#8d2057;}.cls-59{fill:#f28429;}.cls-60{fill:#d0841f;}.cls-61{fill:#e61d6d;}.cls-62{fill:#e61c2c;}.cls-63{fill:#cddc2c;}.cls-64{fill:#f9c421;}.cls-65{fill:#e72729;}.cls-66{fill:#e40068;}.cls-67{fill:#ac1521;}.cls-68{fill:#51c76d;}.cls-69{fill:#478970;}.cls-70{fill:#b01422;}.cls-71{fill:#c53437;}</style><radialGradient id="radial-gradient" cx="972.13" cy="4425.76" r="100.15" gradientTransform="matrix(-0.44, 0.14, -0.14, -0.44, 1393.6, 2335.9)" gradientUnits="userSpaceOnUse"><stop offset="0" stop-color="#fff"/><stop offset="0.5" stop-color="#3c5784"/><stop offset="1" stop-color="#1a1718"/></radialGradient><linearGradient id="linear-gradient" x1="2029.05" y1="480.52" x2="2029.01" y2="480.44" gradientTransform="matrix(192.69, 63.67, -63.62, 192.54, -360293.54, -221426.34)" gradientUnits="userSpaceOnUse"><stop offset="0" stop-color="#f65f44"/><stop offset="0.41" stop-color="#d91318"/><stop offset="0.99" stop-color="#840004"/><stop offset="1" stop-color="#840004"/></linearGradient><linearGradient id="linear-gradient-2" x1="2003.03" y1="477.45" x2="2002.85" y2="477.39" gradientTransform="matrix(57.26, 18.92, -35.07, 106.13, -97830.93, -88305.63)" gradientUnits="userSpaceOnUse"><stop offset="0" stop-color="#720605"/><stop offset="0.99" stop-color="#7d040a"/><stop offset="1" stop-color="#7d040a"/></linearGradient><linearGradient id="linear-gradient-3" x1="2028.25" y1="449.87" x2="2028.19" y2="449.53" gradientTransform="matrix(178.81, 59.08, -6.9, 20.88, -359458.51, -128945.86)" xlink:href="#linear-gradient-2"/><linearGradient id="linear-gradient-4" x1="2007.76" y1="476.27" x2="2007.79" y2="476.38" gradientTransform="matrix(61.93, 20.46, -30.46, 92.2, -109740.71, -84741.19)" gradientUnits="userSpaceOnUse"><stop offset="0" stop-color="#fff"/><stop offset="0.23" stop-color="#db5c41"/><stop offset="0.46" stop-color="#d22519"/><stop offset="0.99" stop-color="#920007"/><stop offset="1" stop-color="#920007"/></linearGradient><linearGradient id="linear-gradient-5" x1="2019.32" y1="477.52" x2="2019.33" y2="477.62" gradientTransform="matrix(100, 33.04, -33.51, 101.43, -185823.77, -114908.18)" gradientUnits="userSpaceOnUse"><stop offset="0" stop-color="#fff"/><stop offset="0.23" stop-color="#da5b3e"/><stop offset="0.56" stop-color="#ad030d"/><stop offset="0.99" stop-color="#940004"/><stop offset="1" stop-color="#940004"/></linearGradient><linearGradient id="linear-gradient-6" x1="2016.23" y1="474.76" x2="2016.25" y2="474.88" gradientTransform="matrix(89.56, 29.59, -20.84, 63.07, -170559.86, -89365.54)" gradientUnits="userSpaceOnUse"><stop offset="0" stop-color="#fff"/><stop offset="0.18" stop-color="#da4c33"/><stop offset="0.4" stop-color="#b8100f"/><stop offset="0.99" stop-color="#940004"/><stop offset="1" stop-color="#940004"/></linearGradient><linearGradient id="linear-gradient-7" x1="2008.73" y1="460.85" x2="2008.84" y2="460.68" gradientTransform="matrix(67.19, 22.2, -7.62, 23.07, -131340.32, -54990.86)" gradientUnits="userSpaceOnUse"><stop offset="0" stop-color="#fff"/><stop offset="0.54" stop-color="#b80a10"/><stop offset="0.99" stop-color="#ae0009"/><stop offset="1" stop-color="#ae0009"/></linearGradient><linearGradient id="linear-gradient-8" x1="1927.02" y1="474.23" x2="1927.06" y2="474.33" gradientTransform="matrix(17.26, 5.7, -22.79, 68.98, -22365.51, -43452.83)" gradientUnits="userSpaceOnUse"><stop offset="0" stop-color="#fff"/><stop offset="0.31" stop-color="#d22a1c"/><stop offset="0.99" stop-color="#ae000c"/><stop offset="1" stop-color="#ae000c"/></linearGradient><linearGradient id="linear-gradient-9" x1="2026.2" y1="479.94" x2="2026.4" y2="479.74" gradientTransform="matrix(150.18, 49.62, -49.55, 149.96, -280431.97, -172259.55)" gradientUnits="userSpaceOnUse"><stop offset="0" stop-color="#ac0010"/><stop offset="0.07" stop-color="#fff"/><stop offset="0.17" stop-color="#fff"/><stop offset="0.27" stop-color="#b81b16"/><stop offset="0.33" stop-color="#6d0004"/><stop offset="0.46" stop-color="#8f0605"/><stop offset="0.72" stop-color="#a10006"/><stop offset="0.99" stop-color="#de0c0c"/><stop offset="1" stop-color="#de0c0c"/></linearGradient><linearGradient id="linear-gradient-10" x1="2022.88" y1="476.38" x2="2022.81" y2="476.35" gradientTransform="matrix(120.66, 39.87, -30.56, 92.49, -229418.61, -124445.19)" gradientUnits="userSpaceOnUse"><stop offset="0" stop-color="#780005"/><stop offset="0.54" stop-color="#840004"/><stop offset="0.99" stop-color="#94000e"/><stop offset="1" stop-color="#94000e"/></linearGradient><linearGradient id="linear-gradient-11" x1="2016.23" y1="477.49" x2="2016.14" y2="477.42" gradientTransform="matrix(89.26, 29.49, -33.13, 100.27, -164033.2, -107084.59)" gradientUnits="userSpaceOnUse"><stop offset="0" stop-color="#69070b"/><stop offset="0.99" stop-color="#8a0004"/><stop offset="1" stop-color="#8a0004"/></linearGradient><linearGradient id="linear-gradient-12" x1="2011.85" y1="476.71" x2="2011.8" y2="476.66" gradientTransform="matrix(75.68, 25, -25.66, 77.66, -139898.9, -87074.22)" gradientUnits="userSpaceOnUse"><stop offset="0" stop-color="#640a0c"/><stop offset="0.99" stop-color="#8a000c"/><stop offset="1" stop-color="#8a000c"/></linearGradient><radialGradient id="radial-gradient-2" cx="2015.93" cy="470.65" r="0.11" gradientTransform="matrix(88.41, 29.21, -15.26, 46.2, -170932.45, -80382.22)" gradientUnits="userSpaceOnUse"><stop offset="0" stop-color="#940004"/><stop offset="0.99" stop-color="#69030a"/><stop offset="1" stop-color="#69030a"/></radialGradient><radialGradient id="radial-gradient-3" cx="2017.56" cy="474.37" r="0.14" gradientTransform="matrix(92.52, 30.57, -23.8, 72.02, -175271.72, -95580.86)" gradientUnits="userSpaceOnUse"><stop offset="0" stop-color="#8f0004"/><stop offset="0.99" stop-color="#6b020a"/><stop offset="1" stop-color="#6b020a"/></radialGradient><linearGradient id="linear-gradient-13" x1="1988.22" y1="474.89" x2="1988.14" y2="474.75" gradientTransform="matrix(38.11, 12.59, -25.46, 77.05, -63594.85, -61359.59)" gradientUnits="userSpaceOnUse"><stop offset="0" stop-color="#771411"/><stop offset="0.43" stop-color="#8a000b"/><stop offset="0.99" stop-color="#a1000d"/><stop offset="1" stop-color="#a1000d"/></linearGradient><linearGradient id="linear-gradient-14" x1="2011.16" y1="466.59" x2="2011.25" y2="466.69" gradientTransform="matrix(74.16, 24.5, -10.24, 30.98, -144249.58, -63493.57)" gradientUnits="userSpaceOnUse"><stop offset="0" stop-color="#a10005"/><stop offset="0.44" stop-color="#7d000a"/><stop offset="0.99" stop-color="#64120f"/><stop offset="1" stop-color="#64120f"/></linearGradient><linearGradient id="linear-gradient-15" x1="2029.7" y1="470.91" x2="2029.72" y2="471.17" gradientTransform="translate(-382230.28 -42725.83) scale(188.46 91.07)" gradientUnits="userSpaceOnUse"><stop offset="0" stop-color="#fc8524"/><stop offset="0.64" stop-color="#fb3324"/><stop offset="1" stop-color="#d81923"/></linearGradient></defs><title>toolbox-mobile</title><path d="M145.6,449.9a1.64,1.64,0,0,0-1.4-1.1,4.1,4.1,0,0,0-1.1.1,9.85,9.85,0,0,1-1.7.2,35.66,35.66,0,0,0,3.5-8.3c1.1-4.5.5-6.5-.2-7.4a10.25,10.25,0,0,0-8-3.8,15.23,15.23,0,0,0-4.2.6,19.42,19.42,0,0,0-2.4-.2,8,8,0,0,0-4.3,1c-1-.3-2-0.6-3-0.8-2.9-.5-5.3-0.1-7,1.1-2.1,1.5-3.1,4.1-2.9,7.6a42.79,42.79,0,0,0,1.7,7.9,38,38,0,0,0,1.8,4.7,6,6,0,0,0,3,3.1,3.06,3.06,0,0,0,2.9-.6,2.65,2.65,0,0,0,.6.5,5.36,5.36,0,0,0,1.1.5,6.12,6.12,0,0,0,4-.2v1.4a17.52,17.52,0,0,0,.5,4l0.1,0.2a4.45,4.45,0,0,0,1.2,2.1,3.38,3.38,0,0,0,2.5.9,4.87,4.87,0,0,0,1.2-.1,5.52,5.52,0,0,0,3.7-2.2c1-1.4,1.5-3.5,1.5-6.8v-0.5H139a8.3,8.3,0,0,0,3.8-.7c0.9-.2,3.4-1.5,2.8-3.2"/><path class="cls-1" d="M143.4,450.3c-3.8.8-4.1-.5-4.1-0.5,4-6,5.7-13.6,4.3-15.5-4-5.1-10.9-2.7-11-2.6h0a10.9,10.9,0,0,0-2.6-.3,6.49,6.49,0,0,0-4,1.2s-12.3-5-11.8,6.4c0.1,2.4,3.5,18.4,7.5,13.6,1.5-1.8,2.9-3.2,2.9-3.2a3.48,3.48,0,0,0,2.4.6l0.1-.1v0.7c-1,1.1-.7,1.4-2.8,1.8s-0.9,1.2-.1,1.4a4.23,4.23,0,0,0,4.7-1.5l-0.1.2c0.4,0.3.7,2.1,0.6,3.7a10.92,10.92,0,0,0,.2,3.6c0.3,0.9.6,2.8,3.4,2.2a4.06,4.06,0,0,0,3.6-3.9c0.1-1.5.4-1.3,0.4-2.6l0.2-.6c0.2-2,0-2.7,1.4-2.4h0.3a8.59,8.59,0,0,0,3.2-.5c1.9-.8,2.9-2.1,1.3-1.7h0"/><path class="cls-2" d="M126.7,440.1a1.06,1.06,0,0,0-.8.1c-0.1,0-.1.1-0.1,0.2a0.6,0.6,0,0,0,.1.4,1,1,0,0,0,.7.4h0.1a0.76,0.76,0,0,0,.8-0.6,0.75,0.75,0,0,0-.8-0.5"/><path class="cls-2" d="M138.1,440.1h0a1.09,1.09,0,0,0-1.5.1l-0.1.1a0.79,0.79,0,0,0,.8.5h0.1a0.86,0.86,0,0,0,.6-0.3,2.27,2.27,0,0,0,.1-0.4"/><path class="cls-2" d="M144.6,450.2c-0.1-.4-0.6-0.6-1.4-0.4-2.3.5-3.1,0.1-3.4,0a33.9,33.9,0,0,0,4.1-9.1,13.2,13.2,0,0,0,.6-3.9,4.31,4.31,0,0,0-.6-2.7,9.09,9.09,0,0,0-7.3-3.4,12,12,0,0,0-4.2.7,9.86,9.86,0,0,0-2.4-.3,6.69,6.69,0,0,0-4.1,1.1,20.24,20.24,0,0,0-3.3-.9c-2.7-.4-4.8-0.1-6.3,1-1.8,1.3-2.7,3.6-2.5,6.8a40.75,40.75,0,0,0,1.7,7.7c1.3,4.2,2.7,6.6,4.2,7.1a1.27,1.27,0,0,0,.6.1,2.14,2.14,0,0,0,1.9-1.1c1.1-1.4,2.2-2.5,2.6-3a4.14,4.14,0,0,0,1.9.5h0l-0.3.4c-0.4.6-.6,0.7-2,1-0.4.1-1.5,0.3-1.5,1.1s1.3,1.2,1.4,1.2a7.72,7.72,0,0,0,1.5.2,4.62,4.62,0,0,0,3-1.1c0,3,.1,6,0.5,6.9a3.42,3.42,0,0,0,3.3,2.5,4.1,4.1,0,0,0,1.1-.1,4.18,4.18,0,0,0,3.8-3.9c0.2-1.2.6-4.2,0.8-5.8a5.85,5.85,0,0,0,1.3.2,8,8,0,0,0,3-.6c0.7-.4,2.2-1.4,2-2.2h0ZM139,439.5c0,0.4-.1.9-0.1,1.3s-0.1,1-.2,1.6a10.87,10.87,0,0,0,.1,1.8,5.55,5.55,0,0,1-.3,3.6,1.06,1.06,0,0,1-.2-0.5l-0.4-.8c-0.8-1.5-2.8-4.9-1.8-6.4,0.3-.5,1-0.9,2.9-0.6h0Zm-2.3-8a7.6,7.6,0,0,1,6.4,3c1.2,1.5-.1,8.4-3.9,14.3l-0.1-.1v-0.1a6.63,6.63,0,0,0,.6-4.6,8.6,8.6,0,0,1-.1-1.6,7.72,7.72,0,0,1,.2-1.5,5.46,5.46,0,0,0,.1-1.8v-0.2a11,11,0,0,0-2.3-4.4,11.33,11.33,0,0,0-3.7-2.8,9,9,0,0,1,2.8-.2h0Zm-15.4,20.7a1.49,1.49,0,0,1-1.5.7c-1.1-.4-2.4-2.8-3.6-6.5a37,37,0,0,1-1.6-7.5q-0.15-4.35,2.1-6c2.5-1.8,6.6-.7,8.2-0.2l-0.1.1c-2.7,2.7-2.6,7.4-2.6,7.7V441a17,17,0,0,1-.1,3.9,5.11,5.11,0,0,0,1.3,4.1l0.3,0.3a26.6,26.6,0,0,1-2.4,2.9h0Zm2.9-3.9a4,4,0,0,1-1-3.3,18.75,18.75,0,0,0,.1-4.1v-0.3a5,5,0,0,1,3.5-1,1.38,1.38,0,0,1,1.1,1.2c0.8,3.6.1,5.1-.4,6.3-0.1.2-.2,0.5-0.3,0.7l-0.1.2a6.47,6.47,0,0,0-.4,1.3,3.11,3.11,0,0,1-2.5-1h0Zm0.2,4.9a1.69,1.69,0,0,1-.6-0.3,1.45,1.45,0,0,1,.7-0.2c1.7-.4,2-0.6,2.6-1.3a2.65,2.65,0,0,1,.5-0.6h0a0.57,0.57,0,0,1,.7-0.2h0a1.47,1.47,0,0,1,.5.6,0.66,0.66,0,0,1-.1.6,4.06,4.06,0,0,1-4.3,1.4h0Zm9,8.4a2.56,2.56,0,0,1-3.3-1.6c0-.1-0.1-0.2-0.1-0.3a38.83,38.83,0,0,1-.4-8.3v-0.1a0.37,0.37,0,0,0-.1-0.3,1.72,1.72,0,0,0-1-1.2,1.18,1.18,0,0,0-1-.1c0.1-.4.3-0.8,0.4-1.2l0.1-.2a4.88,4.88,0,0,0,.3-0.7c0.6-1.3,1.4-3,.5-6.9a2.47,2.47,0,0,0-2.8-2h-0.2a6.15,6.15,0,0,0-2.3.7l-0.3.1a10.09,10.09,0,0,1,2.3-6,5.64,5.64,0,0,1,4.3-1.6,9,9,0,0,1,7,3.3,10.91,10.91,0,0,1,1.9,3.3c-1.8-.2-3,0.2-3.6,1-1.3,1.9.7,5.6,1.7,7.4,0.2,0.3.3,0.6,0.4,0.7a5.85,5.85,0,0,0,1,1.7l0.2,0.3c-0.5.1-1.5,0.5-1.4,2.3-0.1.9-.6,5.1-0.8,6.6-0.1,1.9-.8,2.6-2.8,3.1h0Zm8.7-10a5.93,5.93,0,0,1-2.3.5,3,3,0,0,1-1.6-.2,1.11,1.11,0,0,1,.8-1.4l0.2-.1,0.1,0.1c0.8,0.5,2.1.6,4.1,0.2h0a14.63,14.63,0,0,1-1.3.9h0Z"/><path class="cls-3" d="M102.4,164.2a0.55,0.55,0,0,1-.4.6,5.5,5.5,0,0,0-2.2-.2c-0.8.1-1.5,0.4-1.4,1s1,0.9,2.4.6c3.5-.5,3.3-2.9,8.5-3.7,4-.6,6.4.5,6.8,2,0.3,1.2-.6,2.4-3.5,2.8-2.6.4-4.2-.2-4.3-0.9-0.1-.4.1-0.9,1.3-1.1,0.2,0.6.9,1.1,2.6,0.9,1.2-.2,2.2-0.7,2-1.4s-1.5-1-3.5-.7c-4.1.6-5,3-8.5,3.5-2.5.4-4.6-.4-4.9-1.7-0.1-.5-0.2-1.7,2.4-2.1,1.4-.2,2.5-0.1,2.7.4h0Zm-12.3,15a7.16,7.16,0,0,0-1.3,4.9,5.61,5.61,0,0,0,2.4,3.9,5.54,5.54,0,0,0,4.5.8,11.92,11.92,0,0,0,2-.8,5.42,5.42,0,0,1-3.7-1.1,5.47,5.47,0,0,1-2.5-3.6,4.71,4.71,0,0,1,.6-4,5.1,5.1,0,0,1,3.5-2.2,6.43,6.43,0,0,1,4.3,1,12,12,0,0,0-1.2-1.1,5.56,5.56,0,0,0-4.7-.6,6.52,6.52,0,0,0-3.9,2.8h0Zm17.6-8.9a51.59,51.59,0,0,1-11.1-.4c-3.1-.6-4.7-1.3-4.8-2.3a1.71,1.71,0,0,1,.7-1.3c-1.8.9-2.8,1.5-2.8,2.5s1.9,2,5.4,2.6a52.19,52.19,0,0,0,12.5.5,51,51,0,0,0,12.3-2c3.4-1,5-2.2,4.9-3.2,0-.7-0.8-1.4-2.2-1.9a1.15,1.15,0,0,1,.6.9c0.1,1-1.4,2-4.5,2.9a56.12,56.12,0,0,1-11,1.7h0Zm12.6,2.1a57.4,57.4,0,0,1-12.3,2,59.11,59.11,0,0,1-12.6-.5c-3-.6-4.6-1.3-5.2-2.1a29.68,29.68,0,0,0,4.1,9.9c1.4,1.8,2.7,3.4,4.1,5.1a12,12,0,0,1,1.3,3.1,6.32,6.32,0,0,0,3.6,2.1,15.05,15.05,0,0,0,5.6.5h0.2a14.23,14.23,0,0,0,5.7-1.2,6.56,6.56,0,0,0,3.2-2.5h0.1a9,9,0,0,1,.9-3.2c1.1-1.9,2.3-3.6,3.4-5.6a34.13,34.13,0,0,0,2.8-10.4c-0.6,1.1-2.1,2-4.9,2.8h0Z"/><path class="cls-4" d="M159,559.6a22.8,22.8,0,1,0,12.8,29.6h0A22.83,22.83,0,0,0,159,559.6h0Zm-15.2,38.5A18.65,18.65,0,1,1,168,587.6v0.1a18.78,18.78,0,0,1-24.2,10.4h0Zm2.2-12.5-3.9-8.2,8.6-3.4,2.2-5.5-16.4,6.6,7.5,16Zm11.3-15.3-2.1,5.5,3.9,8.3-8.5,3.3-2.2,5.5,16.4-6.5Z"/><path class="cls-5" d="M330.2,503.5c18.6-5.9,36.2-2.8,39.3,7s-9.4,22.5-28,28.4-36.2,2.8-39.3-7S311.7,509.4,330.2,503.5Z"/><ellipse class="cls-6" cx="335.87" cy="521.12" rx="33.9" ry="17.2" transform="translate(-142.11 126.27) rotate(-17.64)"/><path class="cls-2" d="M327.6,517.9l1,8.8c0.2,2,1,3.3,2.2,3.8s2.9,0.5,5.2-.3l2.8-.9,0.5,4.3a0.52,0.52,0,0,0,.2.4,0.75,0.75,0,0,0,.5.1l3.8-1.2a0.55,0.55,0,0,0,.4-0.6l-1.1-9.3a4.73,4.73,0,0,0,2,2.2c1.5,0.9,3.5,1,5.9.3l7.4-2.3a0.55,0.55,0,0,0,.4-0.6l-2.2-18.9a0.52,0.52,0,0,0-.2-0.4,0.75,0.75,0,0,0-.5-0.1l-3.9,1.2a0.55,0.55,0,0,0-.4.6l0.5,4.5-2.9.9a11.9,11.9,0,0,0-3.6,1.7,7.51,7.51,0,0,0-2.2,2.5,7.71,7.71,0,0,0-1,2.5l-0.4-3.8a0.52,0.52,0,0,0-.2-0.4,0.75,0.75,0,0,0-.5-0.1l-3.8,1.2a0.55,0.55,0,0,0-.4.6l1.2,10.3-2.6.8a2.26,2.26,0,0,1-1.6.2,2.35,2.35,0,0,1-.5-1.3l-1-8.3a0.52,0.52,0,0,0-.2-0.4,0.75,0.75,0,0,0-.5-0.1L328,517A1.63,1.63,0,0,0,327.6,517.9Zm20,1.2a4.88,4.88,0,0,1,.5-3.1,5.94,5.94,0,0,1,2.9-1.8l1.7-.5,0.8,6.8-2.2.7c-1.6.5-2.4,0.4-2.8,0.2a3.17,3.17,0,0,1-.9-2.3h0Z"/><path class="cls-2" d="M314.9,534.9c1.5,0.9,3.5,1,5.9.3l7.4-2.4a0.55,0.55,0,0,0,.4-0.6l-2.2-18.8a0.52,0.52,0,0,0-.2-0.4,0.75,0.75,0,0,0-.5-0.1l-3.9,1.2a0.55,0.55,0,0,0-.4.6l0.5,4.5-2.9.9a11.9,11.9,0,0,0-3.6,1.7,7.51,7.51,0,0,0-2.2,2.5,8.25,8.25,0,0,0-1,2.6,8.78,8.78,0,0,0-.1,2.8C312.5,532.2,313.4,533.9,314.9,534.9Zm2.5-6.2a4.88,4.88,0,0,1,.5-3.1,5.94,5.94,0,0,1,2.9-1.8l1.7-.5,0.8,6.8-2.2.7c-1.6.5-2.4,0.4-2.8,0.2A3.17,3.17,0,0,1,317.4,528.7Z"/><path class="cls-7" d="M351.4,521.7c-1.5.5-2.5,0.5-3.2,0.1s-1.1-1.3-1.2-2.7a5,5,0,0,1,.6-3.4,5.69,5.69,0,0,1,3.2-2l2.3-.7,0.9,7.9Zm4.7-17.9-3.9,1.2,0.6,5-3.3,1a15.76,15.76,0,0,0-3.5,1.6,6.11,6.11,0,0,0-2.1,2.4,7.78,7.78,0,0,0-1.1,5.1,5.58,5.58,0,0,0,2.5,4.6c1.4,0.8,3.2.9,5.5,0.2l7.4-2.3Z"/><path class="cls-7" d="M343.7,532.5l-3.8,1.2-0.6-5-3.4,1.1c-2.2.7-3.7,0.8-4.8,0.3s-1.7-1.6-1.9-3.4l-1-8.8,3.9-1.2,1,8.3a2.5,2.5,0,0,0,.8,1.8,3,3,0,0,0,2.1-.1l3.1-1-1.3-10.8,3.8-1.2Z"/><path class="cls-7" d="M321.3,531.3c-1.5.5-2.5,0.5-3.2,0.1s-1.1-1.3-1.2-2.7a5,5,0,0,1,.6-3.4,5.69,5.69,0,0,1,3.2-2l2.3-.7,0.9,7.9Zm4.6-17.9-3.9,1.2,0.6,5-3.3,1a15.76,15.76,0,0,0-3.5,1.6,6.11,6.11,0,0,0-2.1,2.4,7.78,7.78,0,0,0-1.1,5.1,5.58,5.58,0,0,0,2.5,4.6c1.4,0.8,3.2.9,5.5,0.2l7.4-2.4Z"/><g id="Layer_2" data-name="Layer 2"><path class="cls-8" d="M212.7,299.7l-4.3-1.6-0.2.5c1.3,0.5,1.4.9,0.8,2.6l-1.1,3c-0.6,1.7-1,1.9-2.3,1.4a4.54,4.54,0,0,1-2-2.7l-0.6-1.6a2.54,2.54,0,0,0,3.1-1.4c0.5-1.3-.2-2.7-2.4-3.5l-4.2-1.6-0.2.5c1.3,0.5,1.4.9,0.8,2.6l-1.1,3c-0.6,1.7-1,1.9-2.3,1.4l-0.2.5,4.8,1.8,0.2-.5c-1.3-.5-1.4-0.9-0.8-2.6l0.3-.9,0.4,0.1,1.4,4.3,6.9,2.6c3.4,1.3,5.6,0,6.4-2.1S216.1,301,212.7,299.7Zm-11.4.2,1.2-3.2,1,0.4a1.71,1.71,0,0,1-1.2,3.2l-1-.4h0Zm8.8,7.1-0.2-.1c-0.9-.3-0.9-0.6-0.5-1.7l1.9-5.2,1.1,0.4c2.5,0.9,2.2,2.9,1.7,4.3s-1.5,3.2-4,2.3h0Z"/><path class="cls-8" d="M184.4,294.6l3.5-4.2c1-1.2.9-1.7-.6-2.3l0.2-.5,4.5,1.7-0.2.5c-1.5-.6-2-0.3-3.2,1.2l-5.8,7.1-0.3-.1,0.4-8.4-5.3,6.5-0.3-.1,0.4-9.1c0.1-2-.2-2.5-1.6-3l0.2-.5,5.3,2-0.2.5c-1.4-.5-1.9-0.3-2,1.3l-0.2,5.5,5.1-6.2,0.4,0.2Z"/><path class="cls-8" d="M191.3,301.1a4.61,4.61,0,1,1,6.4-2.5A5,5,0,0,1,191.3,301.1Zm2.9-7.8c-2.2-.8-3.7.9-4.3,2.4s-0.6,3.8,1.6,4.6,3.7-.8,4.3-2.4,0.6-3.8-1.6-4.6h0Z"/><path class="cls-9" d="M220.7,311.2l-0.2.5-5.5-2,0.2-.5c1.6,0.6,2,.3,2.9-2.1l1.4-3.8c0.9-2.4.8-2.9-.9-3.5l0.2-.5,4.9,1.9c2.5,0.9,3.3,2.7,2.7,4.4s-2.5,2.4-4.9,1.5l-1.4-.5-0.4,1.2C219,310.1,219.1,310.6,220.7,311.2Zm2.9-9.2-1.4-.5-1.6,4.1,1.4,0.5a2.34,2.34,0,0,0,2.9-1.3,2.15,2.15,0,0,0-1.3-2.8h0Z"/><path class="cls-9" d="M241,316.9l-0.3.4c-0.5.7-.9,0.9-2.6,0.3l-0.3-.1c-1.2-.5-1.4-0.8-0.7-2.5l0.4-1.1c1.9,0.7,1.9.9,1.5,2.2l0.4,0.2,1.3-3.5-0.5-.2c-0.5,1.2-.7,1.4-2.5.7l1-2.7,1.3,0.5c1.7,0.6,1.9,1,1.8,1.9v0.5l0.4,0.1,0.7-2.3-7-2.6-0.2.5c1.3,0.5,1.4.9,0.8,2.6l-1.1,3c-0.6,1.5-.9,1.9-2,1.5a4.54,4.54,0,0,1-2-2.7l-0.6-1.6a2.54,2.54,0,0,0,3.1-1.4c0.5-1.3-.2-2.7-2.4-3.5l-4.2-1.6-0.2.5c1.3,0.5,1.4.9,0.8,2.6l-1.1,3c-0.6,1.7-1,1.9-2.3,1.4l-0.2.5,4.8,1.8,0.2-.5c-1.3-.5-1.4-0.9-0.8-2.6l0.3-.9,0.4,0.1,1.4,4.3,9.8,3.7,1-2.2-0.4-.1h0v-0.2Zm-12-6.6,1.2-3.2,1,0.4a1.71,1.71,0,0,1-1.2,3.2l-1-.4h0Z"/><path class="cls-9" d="M244.9,321.2a3.53,3.53,0,0,1-1.8-1.6,2.34,2.34,0,0,0-.7.7l-0.5-.2,1.2-3.3,0.5,0.2a2.73,2.73,0,0,0,1.8,3.5,1.44,1.44,0,0,0,1.8-.5h0v-0.1q0.3-.9-0.9-2.1l-1.1-1.2a2.86,2.86,0,0,1-.8-2.9,2.52,2.52,0,0,1,3.3-1.2h0a2.62,2.62,0,0,1,1.6,1.3,1.2,1.2,0,0,0,.5-0.5l0.5,0.2-1.1,2.8-0.5-.2a2.23,2.23,0,0,0-1.3-2.8,1.31,1.31,0,0,0-1.7.5c-0.2.6,0.1,1.1,1.1,2.1l1,1.1a2.56,2.56,0,0,1-2.9,4.2h0Z"/><path class="cls-9" d="M252.3,324a3.53,3.53,0,0,1-1.8-1.6,2.34,2.34,0,0,0-.7.7l-0.5-.2,1.2-3.3,0.5,0.2a2.73,2.73,0,0,0,1.8,3.5,1.44,1.44,0,0,0,1.8-.5h0v-0.1q0.3-.9-0.9-2.1l-1.1-1.1a2.86,2.86,0,0,1-.8-2.9,2.52,2.52,0,0,1,3.3-1.2h0a2.62,2.62,0,0,1,1.6,1.3,1.2,1.2,0,0,0,.5-0.5l0.5,0.2-1.1,2.8-0.5-.2a2.23,2.23,0,0,0-1.3-2.8,1.31,1.31,0,0,0-1.7.5c-0.2.6,0.1,1.1,1.1,2.1l1.1,1.1a2.69,2.69,0,0,1,.8,2.8,2.93,2.93,0,0,1-3.8,1.3h0Z"/><path class="cls-9" d="M150.6,279.4a11.22,11.22,0,0,0,2.4,11.7l0.1-15.7A11.23,11.23,0,0,0,150.6,279.4Z"/><path class="cls-9" d="M168.4,285.5a5.83,5.83,0,0,0,.2-3.2,5.67,5.67,0,0,1-.1-2.9,2.06,2.06,0,0,1,2.5-1.2l0.1,0.1a11.26,11.26,0,0,0-15.2-4.9c-0.5.3-1.1,0.6-1.5,0.9l0.7,0.3c1.1,0.4,2.9.9,2.9,0.9a0.48,0.48,0,0,1,.2.6,0.55,0.55,0,0,1-.5.3,4.77,4.77,0,0,1-1.2-.4l-0.4,12.9,4.9-6.1v-5.1a6.25,6.25,0,0,1-1.1-.5,0.47,0.47,0,0,1-.1-0.7,0.48,0.48,0,0,1,.5-0.2s1.7,0.8,2.7,1.2,2.9,0.9,2.9.9a0.48,0.48,0,0,1,.2.6,0.55,0.55,0,0,1-.5.3,4.77,4.77,0,0,1-1.2-.4L164,291.7l2.4-3.1A12.65,12.65,0,0,0,168.4,285.5Z"/><path class="cls-9" d="M161,284.4l-6.6,8a12,12,0,0,0,6.6,2.3V284.4Z"/><path class="cls-9" d="M172.3,281.8c-0.1.4-.2,0.7-0.3,1.1a11.53,11.53,0,0,1-2.2,3.5l-6.7,8.1A11.43,11.43,0,0,0,172.3,281.8Z"/></g><path class="cls-10" d="M190.6,396.8l3.5,1.3-1.3,3.5-3.5-1.3,1.3-3.5h0Z"/><path class="cls-10" d="M186.1,395.1l3.5,1.3-1.3,3.5-3.5-1.3,1.3-3.5h0Z"/><path class="cls-10" d="M195.1,398.4l3.5,1.3-1.3,3.5-3.5-1.2,1.3-3.6h0Z"/><path class="cls-10" d="M214.1,405.4l0.9,0.3-4.6,12.5-0.9-.3,4.6-12.5h0Z"/><path class="cls-10" d="M234.1,412.7l1.7,0.6-2,5.4a3.41,3.41,0,0,1,3.1-.3,3,3,0,0,1,1.7,1.8,4.54,4.54,0,0,1-.3,2.8l-1.8,4.8-1.6-.6,1.8-5a2.79,2.79,0,0,0,.1-1.8,1.75,1.75,0,0,0-1.5-1,3.29,3.29,0,0,0-1.9.6l-2.1,5.8-1.7-.6,4.5-12.5h0Z"/><path class="cls-10" d="M257.2,427c1.2-.5,2.4-1.1,3.6-1.6l-0.6,1.8,2.6,1-0.5,1.5-2.6-1-1.6,4.4a1.18,1.18,0,0,0,.6,1.5,4.44,4.44,0,0,0,2.3.2l-0.6,1.6a4,4,0,0,1-3.5-1,2.71,2.71,0,0,1-.5-2.6l1.7-4.5-1.4-.5a0.64,0.64,0,0,1,.5-0.8h0Z"/><path class="cls-10" d="M252.9,424.3a5,5,0,0,1,2.9,1.8l-0.6,1.6a5.2,5.2,0,0,0-2.1-1.8,1.06,1.06,0,0,0-1.2.2,1,1,0,0,0,.1.9c0.7,1.1,1.8,2.1,2.2,3.3a2.09,2.09,0,0,1-.8,2.4,3,3,0,0,1-2.4.5,6.25,6.25,0,0,1-3.1-1.9l0.7-1.8a7,7,0,0,0,2.2,2,1.25,1.25,0,0,0,1.6-.3,0.91,0.91,0,0,0-.2-1.1,12.47,12.47,0,0,1-2.1-3,2.23,2.23,0,0,1,.8-2.5,4.23,4.23,0,0,1,2-.3h0Z"/><path class="cls-10" d="M215.5,410.7l0.9,0.3-1.9,5.2a2.68,2.68,0,0,0,.2,2.3,3.09,3.09,0,0,0,2,1.1,3.61,3.61,0,0,0,2-.6,2.65,2.65,0,0,0,.6-0.5l2.1-5.6,0.9,0.3-3,8.2-0.9-.3,0.5-1.4a3.49,3.49,0,0,1-2.2.8,4.06,4.06,0,0,1-2.9-1.6,3.65,3.65,0,0,1-.2-2.9l1.9-5.3h0Z"/><path class="cls-10" d="M184.4,399.6l3.5,1.3-1.3,3.5-3.5-1.3,1.3-3.5h0Z"/><path class="cls-10" d="M188.9,401.3l3.5,1.3-1.2,3.5-3.5-1.3,1.2-3.5h0Z"/><path class="cls-10" d="M193.4,403l3.5,1.3-1.3,3.5-3.5-1.3,1.3-3.5h0Z"/><path class="cls-10" d="M204.8,402l0.9,0.3-2,5.4c0.3-.1.6-0.2,1-0.3a3.93,3.93,0,0,1,4.8,2.7,5.1,5.1,0,0,1-.6,3.8,4.67,4.67,0,0,1-2.6,2.2,5,5,0,0,1-3.6-.4,9.13,9.13,0,0,1-2.3-1.5l4.4-12.2h0Zm-1.1,6.6a0.42,0.42,0,0,0-.4.3l-1.8,4.9a5.21,5.21,0,0,0,3.1,1.4,3.44,3.44,0,0,0,2.7-.9,4.25,4.25,0,0,0,1.3-4,2.91,2.91,0,0,0-2.2-2.2,5.2,5.2,0,0,0-2.7.5h0Z"/><path class="cls-10" d="M225,414.9a4.06,4.06,0,0,1,4.8,2,5,5,0,0,1,0,3.4l-6.6-2.3a3.46,3.46,0,0,0,1.4,4.7,5.06,5.06,0,0,0,4,.1l-0.4,1a5.46,5.46,0,0,1-3.1.1,4.36,4.36,0,0,1-2.9-2.4,5,5,0,0,1,0-3.8,4.34,4.34,0,0,1,2.8-2.8h0Zm0.3,1a3.91,3.91,0,0,0-1.7,1.4l5.3,2a3.2,3.2,0,0,0-.5-2.5,2.81,2.81,0,0,0-3.1-.9h0Z"/><path class="cls-10" d="M245,421.4a4.89,4.89,0,0,1,3.3,2.8,4.67,4.67,0,0,1-1.3,5.2,4.06,4.06,0,0,1-3.5,1.1,4.87,4.87,0,0,1-3.7-2.2,4.67,4.67,0,0,1,1.2-6.2,4.43,4.43,0,0,1,4-.7h0Zm-1,1.4a3.29,3.29,0,0,0-1.7.4,3.4,3.4,0,0,0-1.3,3.5,3,3,0,0,0,3.8,1.9,2,2,0,0,0,.8-0.4,3.1,3.1,0,0,0,.7-4,3,3,0,0,0-2.3-1.4h0Z"/><path class="cls-10" d="M187.3,405.8l3.5,1.3-1.3,3.5-3.5-1.3,1.3-3.5h0Z"/><path class="cls-10" d="M182.8,404.1l3.5,1.3-1.3,3.5-3.5-1.3,1.3-3.5h0Z"/><path class="cls-11" d="M191.8,407.5l3.5,1.3-1.3,3.5-3.5-1.3,1.3-3.5h0Z"/><path class="cls-12" d="M111.8,105.3s3.7-.8,3.1-5.7a5.23,5.23,0,0,0-5.3-4.7L101.3,96l2.1,15.4,4.2-.6-0.5-3.7,4.1,3.2,6.1-.8Zm-2-2.9-3.3.4L106,99.3l3.3-.4a1.71,1.71,0,0,1,1.2,1.6,1.76,1.76,0,0,1-.7,1.9h0ZM124.4,93l-4.2.6a4.08,4.08,0,0,0-3.5,4.6l1.5,11.3,4.2-.6-0.4-2.7,4-.5,0.4,2.7,4.1-.6L129,96.5a3.94,3.94,0,0,0-4.4-3.5h-0.2Zm1,8.2-4,.5-0.5-3.8s-0.1-.8,1.2-1l1.4-.2a1,1,0,0,1,1.3.6h0v0.1l0.6,3.8h0Zm4.9-9,4.4-.6,2.1,15.3-4.4.6Zm12.1,10-1.5-11.4-4.4.6,1.5,11.4,0.5,4,4.4-.6,5.9-.8-0.5-4Zm7.4-.9,0.5,3.9,7.1-.9a4.08,4.08,0,0,0,3.5-4.6l-0.2-1.5a3.94,3.94,0,0,0-4.4-3.5h-0.1l-3.5.5-0.2-1.8,7-.9L159,88.6l-6.7.9a4.14,4.14,0,0,0-3.5,4.6l0.2,1.4a4.14,4.14,0,0,0,4.6,3.5c4.9-.6-1.2.2,3.3-0.4l0.2,1.9Z"/><path class="cls-12" d="M77.2,114.9l17.1-2.3s-5.3-14.5,4.8-22c2.2-1.5,9.1-6.8,22.6.7l0.7-.7S109.6,81,97.2,83.9C91,85.3,84,92.1,80.5,100.3A37,37,0,0,0,77.2,114.9Zm32-31.4L109.1,82a17.42,17.42,0,0,0-2.2-.5l0.1,1.4C107.8,83.2,108.5,83.3,109.2,83.5Zm-1.4,4.9,0.1,1.4a8.1,8.1,0,0,1,2.2,0L110,88.5a5.52,5.52,0,0,0-2.2-.1h0Zm-9-5.7H99l-0.6-1.3a15.52,15.52,0,0,0-2.1.4L96.9,83c0.7-.1,1.4-0.2,1.9-0.3h0Zm2.1,7.8,0.7,1.4a16.18,16.18,0,0,1,1.8-1l-0.7-1.4a7.68,7.68,0,0,1-1.8,1h0ZM90.4,86.1l-1.2-1.4a13.28,13.28,0,0,0-1.6,1.2l1.2,1.4c0.6-.4,1-0.8,1.6-1.2h0Zm5.7,9.2,1.2,1.4A9.91,9.91,0,0,1,98.4,95l-1.2-1.3c-0.3.5-.7,1-1.1,1.6h0Zm-2.2,7.4,1.9,1.2a22.6,22.6,0,0,1,.1-2.6l-1.7-1q-0.15,1.05-.3,2.4h0Zm-10.8-9-1.7-1.1A22,22,0,0,0,80,94.4l1.9,1.2a7.61,7.61,0,0,1,1.2-1.9h0Zm-5.3,10.5-2.6-.6a27.45,27.45,0,0,0-.7,2.7l2.6,0.6c0.2-.7.5-1.9,0.7-2.7h0Zm16.5,4,0.6,2.7,2.7,0.6-0.9-2.7Z"/><path class="cls-13" d="M114.3,259.8l-26.2,5.8,29,7.5,11.6-27.9Z"/><path class="cls-14" d="M117.1,273l3.1-17.6-9.5,6.6Z"/><path class="cls-15" d="M117.2,273l-17.4-7.3-11.6-.1Z"/><path class="cls-16" d="M88.2,265.6l9.3-13.2L87,251.3Z"/><path class="cls-17" d="M110.7,262l1.2-17.5-15.4,7.1Z"/><path class="cls-18" d="M126.2,249.5l-8.1-12.8-6.4,9Z"/><path class="cls-19" d="M125.1,235.5l-7.7,1.5-2.9-5Z"/><path class="cls-20" d="M82.8,255.3l4.4-4.1L87,244.5Z"/><path class="cls-2" d="M86.8,244.3l0.1,7.1,10.4,1,14.5-6.6,6.4-8.9-3.8-5.1-9.4.4c-3.4,1.6-10.2,4.7-10.4,4.8s-5.3,4.9-7.8,7.3h0Z"/><path class="cls-21" d="M98.4,235.6c7.6-3.8,16-4.7,17.9-.9s-3.4,9.7-11,13.5-16,4.9-17.9,1.1,3.4-10,11-13.7h0Z"/><path class="cls-22" d="M88.2,265.6l9.3-13.2,13.1,9.6c-7,3.2-14.3,5.5-22.4,3.6h0Z"/><path class="cls-23" d="M111.8,245.8L110.6,262c6-3.2,11.6-6.9,15.6-12.5l-14.4-3.7h0Z"/><path class="cls-24" d="M126.2,249.6c3-4.1,5.5-10.5-1.2-14.1l-6.9,1.3,8.1,12.8h0Z"/><path class="cls-25" d="M82.8,255.3c-2.3,7.6,3.1,9.5,5.4,10.3L87,251.4l-4.2,3.9h0Z"/><path class="cls-26" d="M111.8,245.8c2.7,3.2,8.2,9.7,8.3,9.8a28.92,28.92,0,0,0,6-6.1l-14.3-3.7h0Z"/><path class="cls-27" d="M97.5,252.4l2.2,13.4a39.9,39.9,0,0,0,11-3.8l-13.2-9.6h0Z"/><path class="cls-28" d="M86.9,251.4l-4.1,9.7c0.9,2.7,3,3.6,5.3,4.2-0.3-4.7-.9-14-1.2-13.9h0Z"/><path class="cls-29" d="M118.1,236.8l11.2,5.5c0.2-2.9-1.1-5.2-4.2-6.9l-7,1.4h0Z"/><path class="cls-2" d="M349,332.2a4.86,4.86,0,0,0,.1-6.8,5.94,5.94,0,0,0-1.8-1.3l-0.4-.2-0.5-.1a9.68,9.68,0,0,1-2.4-.8c0.5-.5,1.1-1,1.7-1.5l0.1-.1c4.6-3.5,6.2-6.6,4.8-9.4a3.81,3.81,0,0,0-.9-1.3,7.65,7.65,0,0,0-4.2-2.1,4.81,4.81,0,0,0-1.6-4.2c-1.9-2-4.3-2.7-6.3-1.9-0.2.1-.5,0.2-0.9,0.4a8.32,8.32,0,0,0-1.8-9.1,12.77,12.77,0,0,0-6-3.6h-0.2a19.49,19.49,0,0,0-9.6.3,11.71,11.71,0,0,0,1.4-8.4V282c0-.1,0-0.2-0.1-0.2,5.6-1.4,12.1-4,15.7-9.4,3.8-5.7,1.9-9.3.4-10.9a7.64,7.64,0,0,0-2.3-1.7h-0.1a13.22,13.22,0,0,0-7.8-1.5,41.3,41.3,0,0,0-17.1,7.6l-2.7,2a6.8,6.8,0,0,0-.6-4,3.81,3.81,0,0,0-.9-1.3,8.42,8.42,0,0,0-5.2-2.2h0a4.54,4.54,0,0,0-1-4.2l-0.2-.3a8.77,8.77,0,0,0-5.7-2.7,5,5,0,0,0-1.2-5.1l-0.3-.3-0.2-.2a6,6,0,0,0-6.4-1.9l-0.6.3a10.16,10.16,0,0,0-3-8.9l-0.2-.3c-1.6-1.6-6.2-5.2-14.3-2.4a15.76,15.76,0,0,0-3.5,1.6,4.69,4.69,0,0,0-5.1-3.2c-1,.1-4.2.8-5.6,3.3a4.88,4.88,0,0,0-.3,4.4c0.6,1.4,1.2,2.7,1.9,4a14.71,14.71,0,0,0-1,7.2,10.13,10.13,0,0,0,3,6.1,23.81,23.81,0,0,0,7.7,5.2h0.3a5.63,5.63,0,0,0,1,3.6,5.8,5.8,0,0,0,1,1.2c1.6,1.7,3.6,2.1,6.3,1.7a7,7,0,0,0,2,6.6h0c0.1,0.1.1,0.3,0.2,0.4a5.45,5.45,0,0,0,5.3,1.5,7,7,0,0,0,1.6,6.9,12.18,12.18,0,0,0,4.1,2.7h0.1c0.8,0.3,1.6.5,2.1,0.7a17.11,17.11,0,0,0,3.8,7l1.2,1.2,0.1,0.1,0.1,0.1a66,66,0,0,0,12.8,7.5,13.52,13.52,0,0,0,3,9.8,5.24,5.24,0,0,0,1,1.1,16.75,16.75,0,0,0,7.3,4.7,6.55,6.55,0,0,0,.5,3.1,4.52,4.52,0,0,0,1.1,1.7c3,3.2,8.1,1.1,9.8.3l2.7-1.1a8.37,8.37,0,0,0,.8,4.1,8,8,0,0,0,1.5,2.1c3.2,3.5,8.8,4.5,9.7,4.7a7.21,7.21,0,0,0,6.3-2.6"/><path class="cls-30" d="M318.2,301.2s1.1-1.9,5.7-3,4.1,1.6,4.1,1.6-0.2,2.8-4,3.3a6,6,0,0,1-5.8-1.9m-13.8-10.5c-6.6,2.7-8.9-3.7-8.9-3.7s1.3-2.1,7.5-5.2,7.6,2.2,7.6,2.2,0.4,4-6.2,6.7m17.3-22.5s10-4,7.1,0-19.8,7.4-19.8,7.4c2.5-2.2,12.7-7.4,12.7-7.4m-56-23.3c4.9-4.3,9.8-3.1,9.8-1.1s-2.6,3.7-5.9,3-3.9-1.9-3.9-1.9m80.6,84.9a1.45,1.45,0,0,0,.1-2.1,2.09,2.09,0,0,0-.6-0.4s-4-.6-5.6-2.9,3.5-5.8,3.5-5.8,4.6-3.4,3.8-5-3.6-1.7-3.6-1.7a18.88,18.88,0,0,0-7.1,1.6l-0.3-.2s4.8-4,5.5-5.2c0.3-.7-1.8-2.9-3-2.4s-9.2,4.7-12,7c0,0-6.1-.7-9.4-3.3s-2.1-5-2.1-5,9.8,6,16.1-.3-2-10.4-3.2-10.6-6.8-1.8-13.9,2.8c-0.2.2-1.2,0.9-1.2,0.9a43.45,43.45,0,0,1-7.2-2.4s12.8-2.8,11-12.2c-0.9-4.2-6.3-3.2-6.3-3.2s16.5-.3,22.5-9.2c2.8-4.2,1.5-6.4-.6-7.5a11.28,11.28,0,0,0-5.7-1.2,37,37,0,0,0-15.5,7c-7.8,5.8-17.3,12.6-17.3,12.6s-3-.1-4.4-1.5,3.5-4.8,3.5-4.8,7.6-5,8.7-6.2,1.6-1.8.7-3.4-3.8-1.6-3.8-1.6-9.3,1.5-10.4,2.1l-0.5.1,0.1-.4s10.3-4.6,8-7.3-6.7-1.6-6.7-1.6-7.6,1.6-8.2,2l0.1-.4s6.8-4.1,8-5.6a1.72,1.72,0,0,0-.1-2.4L289,250s-1.4-1.9-2.9-1.3a106,106,0,0,0-12.5,7.5s-6.9-1.4-9.5-4.1-0.5-4.1-.5-4.1,12.8,6.8,17-2.2a6.92,6.92,0,0,0-2.1-6.8c-1.9-2-5.4-3.2-10.6-1.5a17.82,17.82,0,0,0-5.7,3.2h0s-2.1-1.5-2.2-3.2-1.4-1.5-1.4-1.5-3.9.6-3.1,2.8c0.8,1.8,1.7,3.6,2.6,5.3h0a9.69,9.69,0,0,0-1.5,6.8c0.5,5.1,8.5,8.4,8.5,8.4l3.6,1s-2,2-.8,4.1,2.3,2.4,12.3-1.4c5.3-1.7,5.2-1.4,5.2-1.4l0.2,0.2s-8.3,5.2-9.8,7.5,0.9,4.4.9,4.4,0.7,1.6,5.1-.6a69.71,69.71,0,0,1,9.9-3.8l0.2,0.2s-7.8,5.7-9,9.2,3.6,5.2,3.6,5.2a27.69,27.69,0,0,0,4.1,1.2,12.75,12.75,0,0,0,4.3,8.4c9.8,7.1,14.9,8,14.9,8a9.91,9.91,0,0,0,1.6,9.9,13.66,13.66,0,0,0,10.5,5.4s-2.2,2-1.2,4.5,6.1,0,6.1,0l11.1-4.5,0.2,0.3s-5.1,5-3.2,8.9,8.7,5,8.7,5a2.52,2.52,0,0,0,2.7-1.2"/><path class="cls-31" d="M243.6,545.9l19.2-7.6,20.5,5-1.8,23.9-16.3,9.5-17.1-7.4Z"/><path class="cls-32" d="M283.3,543.4l-20.5-5,2.4,38.5,16.3-9.5,1.8-24h0Z"/><path class="cls-2" d="M263.1,542.8h0l-10.7,25.5,4.5-.3,2.1-5.7,5.2-.3h0l5.7-.3,3,5.5,4.4-.2-14.2-24.2h0Zm0.5,8,4.6,7.6-4,.2H264l-3.6.2,3.2-8h0Z"/><path class="cls-33" d="M166.7,230.3a6.74,6.74,0,0,0,6.8,6.8h39.2a6.74,6.74,0,0,0,6.8-6.8V191.1a6.74,6.74,0,0,0-6.8-6.8H173.5a6.74,6.74,0,0,0-6.8,6.8v39.2Z"/><path class="cls-2" d="M188.6,207.7v-7.5h6.6a11,11,0,0,1,1.8.2,5.23,5.23,0,0,1,1.6.6,5.73,5.73,0,0,1,1.1,1.1,3.92,3.92,0,0,1,.4,1.8,3.52,3.52,0,0,1-1.2,2.9,5.61,5.61,0,0,1-3.1.9h-7.2Zm-7-13v32h15.5a20.07,20.07,0,0,0,4.2-.5,9.93,9.93,0,0,0,3.6-1.7,7.06,7.06,0,0,0,2.5-2.9,9.89,9.89,0,0,0-.5-9.3,7.5,7.5,0,0,0-4.4-3,8.19,8.19,0,0,0,3.2-2.6,7.11,7.11,0,0,0,1.1-4,9.86,9.86,0,0,0-.7-3.8,6.11,6.11,0,0,0-2.1-2.4,9.82,9.82,0,0,0-3.2-1.3,19.92,19.92,0,0,0-4.2-.4l-15-.1h0Zm7,26.5v-8.8h7.7a5.57,5.57,0,0,1,3.7,1.1,4.27,4.27,0,0,1,1.4,3.5,5.22,5.22,0,0,1-.4,2.1,4.73,4.73,0,0,1-1.1,1.3,5.09,5.09,0,0,1-1.7.7,13.55,13.55,0,0,1-2,.2h-7.6v-0.1Z"/><polygon class="cls-34" points="388 474.3 374.8 459.8 375.6 440.2 390 427 409.6 427.8 422.9 442.3 422 461.8 407.6 475.1 388 474.3"/><polygon class="cls-35" points="389.2 471.7 377.4 458.9 378.1 441.4 391 429.6 408.4 430.4 420.2 443.2 419.5 460.7 406.6 472.5 389.2 471.7"/><path class="cls-2" d="M385.7,443.1v0.3h-0.5v0.1h3.5v0.1l-0.3.3,0.1,0.1v0.3a1.05,1.05,0,0,1-.5.9l0.1,0.5-0.2.4-0.1-.1h-0.1a4.91,4.91,0,0,0-2.1.2l-0.1-.1c-1.7.2-2.6,0.6-2.6,1.4l-0.1,1.2,3.5-.1,0.1,0.1v0.1h-0.7v0.1c0.5,0,.7.1,0.7,0.3v0.1c0,0.5-.2.7-0.4,0.7h-0.8v0.1h1v0.3c0,0.2-1.3.5-3.8,0.9l-0.4,1.5,0.1,0.1V453l-0.2.1v0.1l0.1,0.5h-0.1l0.1,0.5a5.7,5.7,0,0,1-1.1,2.2l-1.2-.2,0.3-1.5a0.46,0.46,0,0,1-.5-0.4v-0.1h0a24.39,24.39,0,0,0,.7-4.6h0.3l-0.1-.1,0.2-1.2,0.1,0.1h0.1l0.3-1.5v-0.6c-0.5,0-.7-0.1-0.7-0.3l0.3-.4c-0.4,0-.6-0.2-0.5-0.5,0.1-.9.2-1.3,0.5-1.3a0.68,0.68,0,0,0,.8-0.6v-0.1h0.1l0.1,0.1,0.3-.3h0.4l0.4,0.5Zm-5.3,8-0.1,1.6h0.1l0.1-1.6h-0.1Zm0,4.3V456h0.1v-0.6h-0.1Zm4.1-10v0.1h0.1l3-.2v-0.1l-0.4-.2-0.2.1h-0.1l-0.1-.1Zm1.5-1.5V444h0.4l1.6-.1v-0.1h-0.8Z"/><path class="cls-2" d="M394.9,444a6,6,0,0,1,3.2,1.2l-0.1.1v0.1l0.5,0.9h-0.3l-0.1-.1H398l0.3,3.3h0.1c0-.5.1-0.7,0.3-0.7v0.6a14,14,0,0,1-1.6,3.8h0.1a11.09,11.09,0,0,1-3.2,2.5l-0.7.1h-0.1c-2.3-.1-3.8-1.1-4.3-3l-0.5-.9,0.1-.1-0.1-1v-0.3c0-.8.9-2.2,2.5-4.2v0.1a12.89,12.89,0,0,0-1.9,3.2v0.1h0.1c0.4-1.4,1.8-3.2,4.2-5.3l-1.1.6h-0.1C392.1,444.4,393,444.1,394.9,444Zm-6.2,6.4v1.2h0.1v-1.2h-0.1Zm2-2-0.5.9h0.1l0.5-.9h-0.1Zm3.3-2-0.1-.1v0.1l0.1,0.1-1.1.8c-0.8,0-1.7,1.3-2.5,4a2.44,2.44,0,0,0,1.2,2.1h0.1c1.1,0,2.4-1,3.8-3.2a6.31,6.31,0,0,0,.8-2.3v-1.2q0-.45-1.5-0.6h-0.1l-0.1.1h-0.1v-0.1Zm-3.3,7.7v0.1l0.7,0.5v-0.1Zm4.9-3-0.6.7h0.1l0.6-.7h-0.1Zm0.8-1.6-0.6,1.5h0.4l0.5-1-0.1-.5h-0.2Zm1,0.7-0.2.4v0.3h0.1l0.2-.6v-0.1h-0.1Zm0.9-3.1h0.3v0.7h-0.4Z"/><path class="cls-2" d="M405.7,444.4a6,6,0,0,1,3.2,1.2l-0.1.1v0.1l0.5,0.9H409l-0.1-.1h-0.1l0.3,3.3h0.1c0-.5.1-0.7,0.3-0.7v0.6a14,14,0,0,1-1.6,3.8H408a11.09,11.09,0,0,1-3.2,2.5l-0.7.1H404c-2.3-.1-3.8-1.1-4.3-3l-0.5-.9,0.1-.1-0.1-1v-0.3c0-.8.9-2.2,2.5-4.2v0.1a12.89,12.89,0,0,0-1.9,3.2v0.1h0.1c0.4-1.4,1.8-3.2,4.2-5.3l-1.1.5h-0.1C402.9,444.9,403.8,444.6,405.7,444.4Zm-6.2,6.4V452h0.1v-1.2h-0.1Zm2-2-0.5.9h0.2l0.5-.9h-0.2Zm3.3-1.9-0.1-.1v0.1l0.1,0.1-1.1.8c-0.8,0-1.7,1.3-2.5,4a2.44,2.44,0,0,0,1.2,2.1h0.1c1.1,0,2.3-1,3.8-3.2a6.31,6.31,0,0,0,.8-2.3v-1.2q0-.45-1.5-0.6h-0.1l-0.1.1h-0.1v-0.1Zm-3.2,7.6v0.1l0.7,0.5V455Zm4.8-3-0.6.7h0.1l0.6-.7h-0.1Zm0.8-1.5-0.6,1.5H407l0.5-1-0.1-.5h-0.2Zm1,0.6-0.2.4v0.3h0.1l0.2-.6v-0.1h-0.1Zm0.9-3.1h0.3v0.7h-0.3v-0.7Z"/><path class="cls-2" d="M412.2,444.6q0.3,0,.3.9h0.3l0.5-.3,0.1,0.1-1.1,8.2a27.45,27.45,0,0,1,5-.8h0.1v0.2c-3.5.4-5.2,0.8-5.2,1.1l1.6-.4v0.1l2.8-.5v0.1l0.1-.1h0.1l0.1,0.1,0.7-.1h0.6l1,0.2v0.1c0,0.3-.7.5-2.2,0.6v0.1l0.1-.1h0.1l1,0.2,0.1-.1v0.4l-4.9,1-3.1,1-0.1.4-0.6-.8h-0.1V456a0.5,0.5,0,0,1,.6-0.4v-0.4l-0.4-.6,0.9-6.6h0.1v0.6l-0.2,1h0.3l-0.4,1.9,0.1,0.1-0.2.6v0.7h0.1l0.9-7.8c0.2,0,.3-0.1.3-0.4l0.1-.1h0.5Z"/><path class="cls-2" d="M394,460.6l0.1-.5,2.6,0.3c3.6,0.3,7.6-1.5,12-5.7l0.8,0.1,0.1,0.5h-0.2l-0.4-.1-0.5,1v0.1l0.2,0.1a0.37,0.37,0,0,0-.4.5h0a24.52,24.52,0,0,1-8.8,4.5h-0.6l-0.9.3h-2.6l0.2-.2c0-.3-0.5-0.5-1.5-0.5l1.3-.4H394Zm10.6,0,1.2-.4,1.9-1.8-0.1-.2-0.3.2-2.9,2Z"/><path class="cls-2" d="M395.2,444a6,6,0,0,1,3.2,1.2l-0.1.1v0.1l0.5,0.9h-0.3l-0.1-.1h-0.2l0.3,3.3h0.1c0-.5.1-0.7,0.3-0.7v0.6a14,14,0,0,1-1.6,3.8h0.1a11.09,11.09,0,0,1-3.2,2.5l-0.7.1h-0.1c-2.3-.1-3.8-1.1-4.3-3l-0.5-.9,0.1-.1-0.1-1v-0.3c0-.8.9-2.2,2.5-4.2v0.1a12.89,12.89,0,0,0-1.9,3.2v0.1h0.1c0.4-1.4,1.8-3.2,4.2-5.3l-1.1.5h-0.1C392.4,444.5,393.3,444.1,395.2,444Zm-6.2,6.4v1.2h0.1v-1.2H389Zm2-2-0.5.9h0.1l0.5-.9H391Zm3.4-2-0.1-.1v0.1l0.1,0.1-1.1.8c-0.8,0-1.7,1.3-2.5,4a2.44,2.44,0,0,0,1.2,2.1h0.1c1.1,0,2.3-1,3.8-3.2a6.31,6.31,0,0,0,.8-2.3v-1.2q0-.45-1.5-0.6h0l-0.1.1H395v-0.1Zm-3.3,7.7v0.1l0.7,0.5v-0.1Zm4.8-3-0.6.7h0.1l0.6-.7h-0.1Zm0.8-1.6-0.6,1.5h0.4l0.5-1-0.1-.5h-0.2Zm1,0.7-0.2.4v0.3h0.1l0.2-.6v-0.1h-0.1Zm0.9-3.1h0.3v0.7h-0.3v-0.7Z"/><path class="cls-2" d="M405,444.4a6,6,0,0,1,3.2,1.2l-0.1.1v0.1l0.5,0.9h-0.3l-0.1-.1h-0.1l0.3,3.3h0.1c0-.5.1-0.7,0.3-0.7v0.6a14,14,0,0,1-1.6,3.8h0.1a11.09,11.09,0,0,1-3.2,2.5l-0.7.1h-0.2c-2.3-.1-3.8-1.1-4.3-3l-0.5-.9,0.1-.1-0.1-1v-0.3c0-.8.9-2.2,2.5-4.2v0.1A12.89,12.89,0,0,0,399,450v0.1h0.2c0.4-1.4,1.8-3.2,4.2-5.3l-1.1.5h-0.1C402.2,444.8,403.1,444.5,405,444.4Zm-6.1,6.4V452H399v-1.2h-0.1Zm2-2-0.5.9h0.1l0.5-.9h-0.1Zm3.3-2-0.1-.1v0.1l0.1,0.2-1.1.8c-0.8,0-1.7,1.3-2.5,4a2.44,2.44,0,0,0,1.2,2.1h0.1c1.1,0,2.4-1,3.8-3.2a6.31,6.31,0,0,0,.8-2.3v-1.2q0-.45-1.5-0.6h-0.2l-0.1.1h-0.1v-0.1Zm-3.3,7.7v0.1l0.7,0.5V455Zm4.9-3-0.6.7h0.1l0.6-.7h-0.1Zm0.8-1.6-0.6,1.5h0.4l0.5-1-0.1-.5h-0.2Zm1,0.7-0.2.4v0.3h0.1l0.2-.6v-0.1h-0.1Zm0.8-3.1h0.3v0.7h-0.3v-0.7Z"/><path class="cls-36" d="M75.4,419.9L42.2,462.1,0,429l33.2-42.3Z"/><path d="M31.4,403.3L30.8,408c-1.6-.2-3-0.4-4,1s-1.2,2.5.8,4.1l13.5,10.6-3.1,4L24.4,417c-4.1-3.2-4.1-7.1-1.3-10.6a7.77,7.77,0,0,1,8.3-3.1"/><path d="M20.8,417.6l-0.7,4.7a5.5,5.5,0,0,0-5.5,2c-1.3,1.6-1.3,3.3-.2,4.2,1.4,1.1,2.7.4,4.9-.8l1.2-.7c3.5-1.9,6.5-2.6,9.7-.1,3,2.3,3.5,6.4.7,9.9a7.38,7.38,0,0,1-7.6,3.1l0.4-4.6a3.42,3.42,0,0,0,3.7-1.2,2.2,2.2,0,0,0-.1-3.1h0l-0.2-.1c-1.2-.9-2.2-0.6-4.3.5l-1.2.7c-4.1,2.2-7.1,3-10.4.4-3.6-2.8-3.3-7.1-.4-10.9a9.93,9.93,0,0,1,10-4"/><path class="cls-37" d="M83.7,492.2l2.8-2.4s0.8,11.5.9,12.5a3.4,3.4,0,0,0,.1,1,11.51,11.51,0,0,0,1.2,2.5L86.1,508a12.75,12.75,0,0,0-1.5-2.5,9.13,9.13,0,0,0-2.3-1.5c-0.8-.5-2.2-1.6-2.2-1.6l2.6-2.3,1.6,1.1-0.6-9"/><path class="cls-37" d="M79.6,498.2c0.8-.1,2.6,1.3,2.6,1.3s-2.7,2.4-4.1,3.6l-1.3,1.1,4.2,8-2.4,2S73.8,505.6,73,504c-0.2-.5.5-1,1.6-2l1.8-1.5c1.2-1,2.4-2.3,3.2-2.4"/><path class="cls-37" d="M71.4,510.9a1.83,1.83,0,0,0-1-.7,1.57,1.57,0,0,0-1.7.5c-2.1,1.7-.8,3.2-0.8,3.2l3.5-3h0Zm0.8-3.7c1.2,0.8,2.8,3.9,2.8,3.9s-3,2.5-4.6,4c-0.5.5-1.2,0.9-1.1,1.3a1.3,1.3,0,0,0,1.2.8,3.1,3.1,0,0,0,1.3-.6,45.81,45.81,0,0,0,4.2-3.5l1.3,2.5a40.27,40.27,0,0,1-6.1,4.8,2.54,2.54,0,0,1-1.5.3,0.6,0.6,0,0,1-.4-0.1c-0.2-.1-0.5-0.1-0.7-0.2-1.5-.8-2.9-3.5-3.5-5.2a1.45,1.45,0,0,1-.2-0.7,3.1,3.1,0,0,0-.2-0.7v-0.7a4.25,4.25,0,0,1,.2-1.1,7.67,7.67,0,0,1,3.3-4.4,4,4,0,0,1,3-.9,3.13,3.13,0,0,1,1,.5h0Z"/><path class="cls-37" d="M59.9,514.8l2.3-2L68,523.5l-2.6,2.3c-1.8,1.6-3.3,3.2-5.1,2.5s-2.9-3.4-3.8-5c-0.7-1.2-2-3.7-2-3.7l2.4-2s2.1,3.8,3.2,5.6a3.25,3.25,0,0,0,1.2,1.6c0.6,0.2.9,0,1.8-.7l1.2-1-4.4-8.3"/><path class="cls-37" d="M52.9,528.3a10.81,10.81,0,0,0-1.6-3,2.92,2.92,0,0,0-2.7-.7,4.05,4.05,0,0,0-2.5,3.4,6,6,0,0,0,1.2,3.6,5.2,5.2,0,0,0,2,2.4c1.5,0.7,3-1,4.9-2.6-0.4-1.1-.9-2.1-1.3-3.1h0Zm0.3-6.1c1.9,1.7,2.7,4.6,3.6,7.1,0.8-.5,1.3-1.1,1.4-1.1a8.79,8.79,0,0,1,1.2,2.8c-0.6.5-2.4,2.1-3.2,2.8-2.5,2.2-4.8,4.3-7,4.1a5.68,5.68,0,0,1-2.6-1.2,12.66,12.66,0,0,1-2.4-3.3,11.47,11.47,0,0,1-1.1-3.1,7.39,7.39,0,0,1,3.5-8,8,8,0,0,1,2.5-1.1h0.3a4.31,4.31,0,0,1,3.8,1h0Z"/><path class="cls-37" d="M41.2,530.8c0.4,0.8,1,1.7,1.4,2.6l-2.5,2.2a16.64,16.64,0,0,1-1.3-2.7l2.4-2.1"/><path class="cls-37" d="M40.5,536.3l2.5-2.1c1.2,2,3,5.5,4.2,7.9,0.8,1.5,1.3,2.6,1,4a0.35,0.35,0,0,1-.1.2,6.53,6.53,0,0,1-1,1.5,12.39,12.39,0,0,1-2.2,1.8c-0.4-.9-1-2-1.4-2.9,2.1-1.4.6-3.3-.5-5.4a46,46,0,0,1-2.5-5"/><path class="cls-38" d="M38.7,545.8l0.1,0.2a6.49,6.49,0,0,1-2.3,6.9,9.16,9.16,0,0,1-3.2,1.8,8.55,8.55,0,0,1-5.9-.3,6.75,6.75,0,0,1-4.5-7c0,0.2.1,0.4,0.1,0.6l0.1,0.2c2.4,5.6,9.9,5.7,13.7,1.6a6.82,6.82,0,0,0,1.9-4"/><path class="cls-38" d="M34.6,546.2a5,5,0,0,0,1.8-3.6c0.7,1.9-.2,4.3-2.7,5.9a6.35,6.35,0,0,1-7.2-.7,5.35,5.35,0,0,1-1.6-4.1,4.71,4.71,0,0,0,.6,1.5c2.2,3.1,6.7,3,9.1,1"/><path class="cls-38" d="M34.2,540.2a4.34,4.34,0,0,1-.5,2.5,3.8,3.8,0,0,1-4.5,1.5,3,3,0,0,1-.8-0.4,3.07,3.07,0,0,1-1.5-2.9,3.71,3.71,0,0,0,1.3,1.7,3.1,3.1,0,0,0,1.3.6,2.77,2.77,0,0,0,1.8,0A1.85,1.85,0,0,0,32,543a3.74,3.74,0,0,0,2.2-2.8"/><path class="cls-39" d="M282.2,493.4l-6.8,30.2a14.17,14.17,0,0,1-13.1-3.9l9.3-29.1L260.7,463s5.3-1.8,8.6-.8l9.8,22.6,21.3-15.3s6.5,2.9,6.9,5.1l-25.1,18.8h0Z"/><path class="cls-40" d="M308.1,498.6a7.24,7.24,0,0,0-1.1-1.9,11.84,11.84,0,0,0-3-2.9,21.22,21.22,0,0,0-3.6-2.1l-0.5-.2-0.4-.2a4.35,4.35,0,0,1-.7-0.4,2.41,2.41,0,0,1-1-1,3.65,3.65,0,0,1,0-2.9,6.9,6.9,0,0,1,.3-0.8,6.32,6.32,0,0,1,.4-0.9,5.85,5.85,0,0,0,.2-1.3l0.2-.2,3-2.1c0.5-.4,1.1-0.8,1.6-1.2a1.76,1.76,0,0,1,.5.4s1.4,0.3,2.4-1.9l-0.4-.3,0.3-.2,0.8-.6a1.56,1.56,0,0,0,.6-0.8,1.23,1.23,0,0,0-1,.2l-0.8.5-0.5.3-6.1-4.9,1-.7,1.5-1.1,0.1-.1a1.38,1.38,0,0,0,.4.3,3.59,3.59,0,0,0,1,.7l2,1.3a13.24,13.24,0,0,0,2,1.2,4.67,4.67,0,0,0,1,.5,1.69,1.69,0,0,0,.5.2c0.1,0,.2.1,0.3,0.1h0.2a0.53,0.53,0,0,0,.3-0.2h0c0-.1,0-0.1.1-0.1v-0.2a0.2,0.2,0,0,0-.1-0.2,0.53,0.53,0,0,0-.2-0.3,1.76,1.76,0,0,0-.4-0.5l-0.8-.8-1.8-1.5a12.74,12.74,0,0,0-1.9-1.3,4.67,4.67,0,0,0-1-.5,1.42,1.42,0,0,0-.6-0.2,2.27,2.27,0,0,0-.4-0.1h-0.3a0.76,0.76,0,0,0-.4.2,3.55,3.55,0,0,0-.9.4l-1.5.7-1.4.9-0.4-.4s-2,0-1.4,1.3l0.2,0.2c-2,1.4-3.9,2.8-5.9,4.2s-3.9,2.9-5.9,4.3l-2.9,2.2c-0.2.1-.3,0.3-0.5,0.4-0.1-.3-0.2-0.5-0.3-0.8l-0.5-1.5-1-2.9c-0.7-1.9-1.4-3.9-2.1-5.8l-2.1-5.8-0.4-.9h0.6s0.3-1.5-.8-1.9h-0.5c-0.4-.9-0.6-1.7-1-2.6h0l-0.1-.7a0.52,0.52,0,0,0-.2-0.4c-0.1,0-.1-0.1-0.2-0.1a0.48,0.48,0,0,0-.4-0.1,1.27,1.27,0,0,0-.6-0.1h-1.2a17.85,17.85,0,0,0-2.3.2,18.46,18.46,0,0,0-2.3.4l-1.1.3-0.6.2a0.53,0.53,0,0,0-.3.2l-0.1.1-0.1.1v0.1h0a0.53,0.53,0,0,0,.2.3c0.1,0,.1.1,0.2,0.1l0.3,0.1a1.27,1.27,0,0,0,.6.1h1.2c0.8,0,1.5-.1,2.3-0.1l2.3-.2c0.4,0,.8-0.1,1.2-0.1,0.3,0.7.5,1.4,0.8,2.1-2.2,0-5.5,0-7.6.1a5,5,0,0,1-.5-1.3,0.25,0.25,0,0,0-.5.1h0c0.1,0.4.2,0.7,0.3,1.1a2,2,0,0,0-1.1.2,4.43,4.43,0,0,0,1.1,3.3,3.55,3.55,0,0,1,1-.2l0.8,2.3,2.3,6.5,2.3,6.6c0.8,2.2,1.6,4.3,2.4,6.6h0l-0.5,1.4-1.5,3.9c-0.9,2.5-1.8,5.1-2.6,7.7l-1.3,3.9-1.2,3.9c-0.9,2.6-1.7,5.2-2.6,7.7v0.2a17.41,17.41,0,0,0,1.2,1.4c0.5,0.4,1,.7,1.5,1.1a19.23,19.23,0,0,0,3.1,1.8,23.69,23.69,0,0,0,3.6.9,11.49,11.49,0,0,0,1.9.1,12.25,12.25,0,0,0,1.9-.2,0.43,0.43,0,0,0,.4-0.4h0c0.7-2.5,1.4-5.1,2-7.6l1.9-7.7c0.6-2.6,1.3-5.1,1.9-7.7,0.1-.3.1-0.6,0.2-0.9,0.1,0.1.1,0.2,0.2,0.3a7.52,7.52,0,0,0,1.5,1.6,12,12,0,0,0,3.4,2.1,26.71,26.71,0,0,0,3.6,1.4,10.55,10.55,0,0,0,2.4.6,6.07,6.07,0,0,0-.8,2.6c0,0.1,0,.2.1,0.2h0a10.17,10.17,0,0,0,2.8,1.3,10.55,10.55,0,0,0,3.1.4,5.71,5.71,0,0,0,3.1-1,5.46,5.46,0,0,0,2-2.5h0l0.2-1.2h0a10.93,10.93,0,0,0,1.5-.8,7.52,7.52,0,0,0,1.6-1.5,3.41,3.41,0,0,0,.7-2.2,5.45,5.45,0,0,0-.5-2.2h0Zm1-23.5h0Zm-3.1-2.7a22,22,0,0,1,1.8,1.4,6,6,0,0,1,.8.8c0.1,0.1.2,0.3,0.3,0.4l0.1,0.1h-0.1l-0.5-.2-1-.5c-0.7-.4-1.3-0.8-1.9-1.2s-1.1-1-1.6-1.5c-0.2-.2-0.3-0.4-0.5-0.6l0.7,0.3a6.92,6.92,0,0,1,1.9,1h0Zm-3-2.3h0Zm-32.7-7.9a8.3,8.3,0,0,1-2.1.6,16.35,16.35,0,0,1-2.2.2h-1.1a0.9,0.9,0,0,1-.5-0.1h0a1.06,1.06,0,0,0,.5-0.2c0.3-.1.7-0.2,1-0.3l2.2-.3a16.2,16.2,0,0,1,2.2-.1H271a6.36,6.36,0,0,0-.7.2h0Zm31,18.4-3.1,2-3.1,2c-0.8.6-1.7,1.2-2.5,1.7,0.1,0,.1-0.1.1-0.2,0.4-.5.8-0.9,1.2-1.4,0.9-.9,1.7-1.8,2.6-2.6s1.9-1.6,2.8-2.4a13,13,0,0,1,1.5-1l0.4-.2c0.4,0.4.8,0.7,1.2,1.1a3.57,3.57,0,0,1-1.1,1h0Zm-33.6-8.5,0.2,0.2,1.2,1.5a5.09,5.09,0,0,1,.7,1.7,2.2,2.2,0,0,1-.2,1.4v-0.1l-1.9-4.7h0Zm1.8,5a1,1,0,0,0,.4-0.5,3.55,3.55,0,0,0,.2-1,3.16,3.16,0,0,0-.7-1.9,8.33,8.33,0,0,0-2-2.2l-0.4-1.1a13.27,13.27,0,0,0-.9-2.1c0.7-.1,1.6-0.3,2.5-0.5a34.33,34.33,0,0,1,1.9,4.4,19.5,19.5,0,0,1,1.3,5.8c0,0.5-.1,1-0.1,1.5s-0.1,1-.1,1.5c0,0.7.1,1.5,0.1,2.2l-2.2-6.1h0Zm7.9,38.9a1,1,0,0,1-.5.4,1.08,1.08,0,0,1-.8.2,1.2,1.2,0,0,1-.5-0.5,2.2,2.2,0,0,1-.1-0.8,9.85,9.85,0,0,1,.2-1.7,6.71,6.71,0,0,1,.6-1.5,2.65,2.65,0,0,1,.5-0.6,0.62,0.62,0,0,1,.7-0.2,1,1,0,0,1,.6.5,0.6,0.6,0,0,1,.1.4l-0.8,3.3a0.45,0.45,0,0,1,0,.5h0Zm4-15.8-1.2,4.8c0-.3-0.1-0.7-0.1-1-0.2-.9-0.4-1.8-0.6-2.6a29.84,29.84,0,0,0-1.8-5c0.4,1.8.8,3.4,1.3,5.2,0.3,0.9.5,1.7,0.7,2.5l0.3,1.3v0.2c-0.2.7-.4,1.5-0.6,2.2l-1,4.2a0.37,0.37,0,0,0-.1-0.3,1.06,1.06,0,0,0-.6-0.7,1.23,1.23,0,0,0-1,.2c-0.2.2-.5,0.4-0.7,0.6a3.29,3.29,0,0,0-.7,1.6,3.67,3.67,0,0,0-.1,1.8,2.92,2.92,0,0,0,.2.9,1.21,1.21,0,0,0,.7.7,1.61,1.61,0,0,0,.9-0.3l0.3-.3c-0.5,2.2-1,4.3-1.6,6.5a5.07,5.07,0,0,1-1.3.2h-1.7a9.74,9.74,0,0,1-3.4-.6,13,13,0,0,1-3.2-1.4,7.55,7.55,0,0,1-2.6-2.1c0.9-2.5,1.9-5,2.9-7.5l1.5-3.8,1.5-3.8,3-7.6c0.5-1.3.9-2.5,1.4-3.8a8.37,8.37,0,0,0,.8-4.1h-0.1l-0.6.6c-0.4-1.2-.9-2.4-1.3-3.6-0.1-.4-0.2-0.9-0.3-1.3a15.14,15.14,0,0,1-.2-3,7.57,7.57,0,0,1,.1-1.5,7.57,7.57,0,0,0,.1-1.5,17.54,17.54,0,0,0-1.4-6,34.18,34.18,0,0,0-2.1-4.3,45.53,45.53,0,0,1,4.5-.7c0.1,0.4.4,0.8,0.5,1.3l2.3,5.8,2.4,5.7,1.2,2.8,0.6,1.4c0.2,0.3.2,0.6,0.4,0.9l-2,1.5c-0.1.1-.1,0.2,0,0.2h0c0,0.1.1,0.1,0.2,0.1h0c1-.6,2.1-1.3,3.1-2l3.1-2c2.1-1.3,4.1-2.7,6.1-4s4.1-2.7,6.1-4.1h0a48.88,48.88,0,0,0,3.9,4,12.44,12.44,0,0,0-2,1,17,17,0,0,0-3,2.3,22.26,22.26,0,0,0-2.6,2.7c-0.6.7-1.1,1.4-1.6,2.1-3,2.1-6,4.2-8.9,6.5a0.22,0.22,0,1,0,.2.4,14.26,14.26,0,0,0-.9,2.7c-0.3,1.3-.7,2.6-1,4h0Zm20,7.9a4.9,4.9,0,0,1-2.4.8,8.17,8.17,0,0,1-2.7-.1,18.24,18.24,0,0,1-2.5-.7,4.65,4.65,0,0,1,.6-2.3c0.3,0.1.6,0.1,0.9,0.2a0.28,0.28,0,0,0,.3-0.2,0.33,0.33,0,0,0-.1-0.4h0l-0.6-.3a5.72,5.72,0,0,1,.7-0.8,5.5,5.5,0,0,1,.9-0.7,16.18,16.18,0,0,0,1.8,1,5.28,5.28,0,0,0,2.5.4,3.69,3.69,0,0,0,2.4-1,3.48,3.48,0,0,0,1-2,1.39,1.39,0,0,1,0,.9c-0.1.4-.2,0.8-0.3,1.1l-0.2.7-0.7.4a2.7,2.7,0,0,0-.8.7,2,2,0,0,0,1.1.1h0.1c0,0.1-.1.3-0.1,0.4a5.46,5.46,0,0,1-1.9,1.8h0Zm5.1-5.7a6.88,6.88,0,0,1-1.1,1.3c-0.2.2-.4,0.3-0.6,0.5v-1.3c0-.2-0.1-0.5-0.1-0.7a2.09,2.09,0,0,0-.4-0.6h-0.1a4.28,4.28,0,0,1-1.4,1.6,3.2,3.2,0,0,1-1.9.5,4.55,4.55,0,0,1-2-.5,11.92,11.92,0,0,1-2-.8h-0.1a0.33,0.33,0,0,0-.4.1,15,15,0,0,0-1.1,1.3,3.59,3.59,0,0,0-.7,1l-2.4-1.1a26.85,26.85,0,0,1-3.3-1.8,16.1,16.1,0,0,1-3-2.1,6,6,0,0,1-2-2.5h0a1.76,1.76,0,0,0-.4-0.5c0-.1.1-0.2,0.1-0.3a12.7,12.7,0,0,0,.5-3.4c4-2.3,7.9-4.8,11.8-7.4l-0.2.4a5.85,5.85,0,0,0-.5,2.2,4.56,4.56,0,0,0,2.4,4.3,4.67,4.67,0,0,0,1,.5l0.5,0.2,0.5,0.1a12.89,12.89,0,0,1,3.3,1.7,20.94,20.94,0,0,1,2.8,2.4,4.77,4.77,0,0,1,1.3,3.1,2.27,2.27,0,0,1-.5,1.8h0Z"/><path class="cls-40" d="M274.9,510.5a5.56,5.56,0,0,0-.9,1.7,2.92,2.92,0,0,0-.2.9l-0.1.9a12.1,12.1,0,0,0,0,3.8,20.63,20.63,0,0,0,1.2,3.5,12.09,12.09,0,0,0-.5-1.8,11.63,11.63,0,0,1-.4-1.8,14.47,14.47,0,0,1,.1-3.6l0.1-.9a2.92,2.92,0,0,1,.2-0.9,5.66,5.66,0,0,1,2.1-2.9,5.37,5.37,0,0,1,1.6-1,6.44,6.44,0,0,0-3.2,2.1h0Z"/><path class="cls-41" d="M224.4,108.6a135.92,135.92,0,0,0-14.2,2.8,2.6,2.6,0,1,1-1.4-5c0.1,0,.2,0,0.2-0.1,1.3-.3,2.6-0.6,3.8-0.8-0.4-1.6-1.1-4.3-2-8.2s-1.7-6.8-2.2-8.9c-0.1-.4-0.2-1.1-0.4-1.9a11,11,0,0,1-.2-1.8,11.63,11.63,0,0,0-.4-1.8l-2,.8a21.63,21.63,0,0,1-5.7,1.4,2.28,2.28,0,0,1-1.9-.7,2.66,2.66,0,0,1,0-3.7h0a2.5,2.5,0,0,1,1.8-.8,26.43,26.43,0,0,0,4-1.2l2.4-.8a6.89,6.89,0,0,0,.8-0.3l0.4-.1a2.46,2.46,0,0,1,1.2-.1c0.2,0,.4.1,0.6,0.1a2.48,2.48,0,0,1,1.4-.8,2.56,2.56,0,0,1,3.1,1.9v0.1c2.7,11.5,5,19.9,6.8,25.3l3.3-.5a2.51,2.51,0,0,1,1.9.5,2.33,2.33,0,0,1,1,1.7,2.51,2.51,0,0,1-.5,1.9A3.25,3.25,0,0,1,224.4,108.6Zm-22.1-46A9.78,9.78,0,0,1,207,61c2.2,0.1,3.8,1.5,4.5,4.2a4.87,4.87,0,0,1,.1,1.2,1.56,1.56,0,0,1,.6.8,2.33,2.33,0,0,1,0,2,3.16,3.16,0,0,1-1.4,1.4,17,17,0,0,1-3.2,1,4.45,4.45,0,0,1-3.2-.4,5.77,5.77,0,0,1-2-2.1c-0.1-.2-0.3-0.6-0.6-1.1l-0.7-1.2a2.48,2.48,0,0,1-.1-2.5,3.15,3.15,0,0,1,1.3-1.7h0Z"/><path class="cls-41" d="M254.9,101.3a135.92,135.92,0,0,0-14.2,2.8,2.49,2.49,0,0,1-3.3-1.6,2.57,2.57,0,0,1,1.6-3.3,0.9,0.9,0,0,1,.5-0.1c1.3-.3,2.6-0.6,3.8-0.8-0.4-1.6-1.1-4.3-2-8.2s-1.7-6.8-2.2-8.9c-0.1-.4-0.2-1.1-0.4-1.9a11,11,0,0,1-.2-1.8,11.63,11.63,0,0,0-.4-1.8l-2,.8a21.63,21.63,0,0,1-5.7,1.4,2.28,2.28,0,0,1-1.9-.7,2.66,2.66,0,0,1,0-3.7h0a2.5,2.5,0,0,1,1.8-.8,26.43,26.43,0,0,0,4-1.2l2.4-.8a6.89,6.89,0,0,0,.8-0.3l0.4-.1a2.46,2.46,0,0,1,1.2-.1c0.2,0,.4.1,0.6,0.1a2.48,2.48,0,0,1,1.4-.8,2.56,2.56,0,0,1,3.1,1.9h0c2.7,11.5,5,19.9,6.8,25.3l3.3-.5a2.51,2.51,0,0,1,1.9.5,2.33,2.33,0,0,1,1,1.7,2.51,2.51,0,0,1-.5,1.9A3.25,3.25,0,0,1,254.9,101.3Zm-22.1-46a8.84,8.84,0,0,1,4.7-1.6c2.2,0.1,3.8,1.5,4.5,4.2a4.87,4.87,0,0,1,.1,1.2,1.56,1.56,0,0,1,.6.8,2.33,2.33,0,0,1,0,2,3.16,3.16,0,0,1-1.4,1.4,17,17,0,0,1-3.2,1,4.45,4.45,0,0,1-3.2-.4,5.78,5.78,0,0,1-2-2.1c-0.1-.2-0.3-0.6-0.6-1.1l-0.7-1.2a2.48,2.48,0,0,1-.1-2.5,2.74,2.74,0,0,1,1.3-1.7h0Z"/><path class="cls-41" d="M213.4,81.2a10.27,10.27,0,0,0,5.9-3.3,9.84,9.84,0,0,0,2-6c0.1-3.3-5-3.5-5.2-.2a5,5,0,0,1-.9,2.9,5.67,5.67,0,0,1-3.1,1.5c-3.2.6-2,5.6,1.3,5.1h0Z"/><path class="cls-41" d="M243.9,74.3a62.54,62.54,0,0,1,8.6-1.8,2.56,2.56,0,0,0,1.9-3.1,2.6,2.6,0,0,0-3.1-1.9,62.54,62.54,0,0,0-8.6,1.8c-3.1.9-2,5.9,1.2,5h0Z"/><path d="M239.3,101.5a27,27,0,0,1-5.7,1.8,31.8,31.8,0,0,0-5.3,1.4,1.09,1.09,0,0,1-.5.1l-0.2.4a1.21,1.21,0,0,1-.7.7,1.7,1.7,0,0,1-1,0,1.14,1.14,0,0,1-.7-0.8,1.18,1.18,0,0,1,.1-1,9.41,9.41,0,0,1,1.2-2.2c0.5-.7.9-1.4,1.3-1.9s0.9-1.1,1.6-1.9,1.2-1.3,1.5-1.6l1.7-1.7a14.44,14.44,0,0,0,1.5-1.6,0.37,0.37,0,0,1-.1-0.3c-0.1-.4-0.3-1-0.5-1.8s-0.3-1.3-.4-1.6c-1.5.5-3.1,0.9-4.7,1.3a12.45,12.45,0,0,1-1,2L226.2,95a1.21,1.21,0,0,1-.7.7,1.7,1.7,0,0,1-1,0h-0.1a1.18,1.18,0,0,1-1,.1,1.56,1.56,0,0,1-.8-0.6,1.18,1.18,0,0,1-.1-1c0.3-.9.7-1.7,1.1-2.6,0.2-.5.4-0.9,0.5-1.2a1.27,1.27,0,0,1-.1-0.6,1,1,0,0,1,.4-0.9,1.09,1.09,0,0,1,.9-0.4,15.26,15.26,0,0,0,3-.3,24.54,24.54,0,0,0,2.9-.8c0.8-.3,1.8-0.6,3.1-1.1a1.18,1.18,0,0,1,1,.1,1.21,1.21,0,0,1,.7.7,0.85,0.85,0,0,1,0,.7c0.2,0.5.3,1,.5,1.5s0.3,1.2.4,1.8a10.62,10.62,0,0,0,.3,1.4,2.28,2.28,0,0,1-.4,1.6c-0.5.5-1.2,1.3-2.3,2.3s-1.9,1.9-2.6,2.7a19.25,19.25,0,0,0-1.9,2.3l3.1-.7a22.13,22.13,0,0,0,5-1.5,1.18,1.18,0,0,1,1-.1,1.38,1.38,0,0,1,.8,1.7A1.06,1.06,0,0,1,239.3,101.5Z"/><path class="cls-42" d="M82.5,339.8c0.5-.1,1,0.7,1.2,2.3l0.8-.1,1.1-1,0.5,0.4,1.8,23.4c1.6-1.1,6.1-2.8,13.5-5.2l0.4-.1,0.1,0.4c-9.3,3.2-13.9,5.2-13.8,6.1l4.3-2,0.1,0.4,7.6-2.9,0.1,0.4,0.3-.5,0.4-.1,0.5,0.4,2-.8,1.7-.3,2.9-.1,0.1,0.4c0.1,0.8-1.8,1.8-5.8,3.1l0.1,0.4,0.3-.5,0.4-.1,2.9-.1,0.3-.5,0.2,1.2-13,5.5-8.1,4.7-1.2.2-2-1.8-0.4.1-0.1-.4c-0.1-.7.4-1.2,1.4-1.5L82.9,370l-1.5-1.4L79.9,350l0.4-.1,0.3,1.6,0.1,3,0.8-.1,0.1,5.5,0.5,0.4L82,362l0.3,2,0.4-.1-2-22.1c0.5-.1.8-0.5,0.6-1.4l0.3-.5,0.9-.1h0Z"/><path class="cls-42" d="M129.5,346.8c-0.5.7-.4,1.3,0.6,1.9l-0.4,1.8-0.6.1,0.3,0.2a75.8,75.8,0,0,0-14.9,14.5l-1.6,2,0.1,0.6-0.3.3-0.6.1,0.3,0.2-0.6.1-1.5,2.5-0.5.6c-2.3.6-3.7,1.3-4.3,2l-1.4-1-1.2-1.8,2.2-2-0.3-2.3,4.3-4.6,4.7-5.9,1.5-.5,1.1-1.3-0.1-.6,0.3-.3,0.7,0.5,0.3-.3-0.1-.6,6-5.5-0.3-.2,0.6-.1,1.6-2-0.1-.6,0.3-.3ZM106,369.5l-1.3,1.6,1.2-.2,0.8-1Zm9.8-13.5-1.6,2,0.3,0.2,1.6-2Zm2.7-2.7-1.6,2,0.3,0.2,1.6-2Zm2.9-3-1.8,2.3,0.3,0.2,1.8-2.3Z"/><path class="cls-42" d="M130.3,323.1l1.3,0.2,0.1,0.8-1.2.2,1,1.1c-0.4,1.5-2.5,2.5-6.2,3.1l-2.8.9-0.2,1.3,0.4-.1c-0.5,2.1-.7,11.1-0.6,27.2l2.1,5.1-0.4.1c-0.6.1-1.4-1.2-2.3-3.8l-0.3-4.2-0.1-.4-0.4.1,0.1,0.8c-0.8.1-1.2,0.5-1.1,1l0.1,0.4,1.9,6.5,0.1,0.4-0.8.1-1.8-1-0.4.5-0.4.1a16.62,16.62,0,0,1-2.7-5.9l0.4,0.3,0.4-.1-1.3-2.7,1.2-.6-0.3-2-0.8.1-0.1-.4c0.8-.1,1.2-0.5,1.1-1l-0.1-.4-0.8.1c-0.4-2.2-.1-3.4.7-3.5l-0.9-5.4c0.4-.5.4-3.4,0.2-8.9l-2.8.9-5.8.5-0.1-.4,2-.8,0.1,0.4,0.3-.5,6.2-1-0.2-1.2-6.4,1.9-0.5-.4-0.4.1-2.4.8-1.4-.6,0.1-2.1-0.5-.4c-0.2-1.4,1.3-2.3,4.6-2.9Zm-13.6,27.3,0.7,9.2,0.8-.1-0.8-2-0.1-.8,0.6-1.4-0.4.1,0.4-.5-0.1-.4-0.5-.4-0.1-.4,0.6-1.8-0.7-1.6-0.4.1h0Zm11.4-25.6,0.1,0.4,1.6-.3-0.1-.4Z"/><path class="cls-42" d="M84.7,327l1.2-.2,0.8,2a1.06,1.06,0,0,0,1-1.2v-0.3l0.4-.1,1,0.7v2.5l0.4-.1-0.3.5,0.1,0.4,0.5,0.4,0.1,0.4-0.4.1,0.5,0.4,0.1,0.4,1.8,13.6,0.1,0.4,0.4-.1,0.6-4.3,0.8-.1-1.6,8.3,0.8-.1,2.6-14.8-0.8.1L94,341.5l-0.8.1-0.1-.4,1.8-7.1,0.4-.1,0.1,0.8,3.2-1.4c1.2,0.2,1.8.6,1.8,1l0.3-.5,1.2-.2,3.3,9.6,0.4-.1c-0.2-1.2.8-8.7,3-22.3l0.4-.1,0.6,1.2,0.4-.1-0.1-.8,0.4-.1c2-.3,3.2-0.1,3.5.7l0.1,0.8-0.6,1.4,0.1,0.4,0.8-.1-0.1-3,0.8-.1,1,0.7,0.1,0.4-4,33.9-1.2.6-0.1-.8-0.3.5-0.4.1-0.5-.4a1.41,1.41,0,0,1-1,1.9c-2.2.2-3.4-.1-3.5-0.7l0.4-.1a4.21,4.21,0,0,0-2.1-2.6l-3.2-8.8q-0.75.15-3,12.3l-1.7,2.4-0.4.1L94.3,359q4.65-11.4,3.9-17.1c-0.6.8-1.7,5.3-3.3,13.2-0.3.1-.6,1.8-0.8,5.2l-3.7.6-0.7-1.6-0.3.5-0.4.1a4.35,4.35,0,0,0-1.8-3.1l-0.3-1.6,1.8,1-2-6.9,0.3-.5-0.5-.4,0.3-.5-0.4.1,0.3-.5-1-5.8,0.1-2.1-0.4.1,0.3-.5-1.8-10.7-0.5-.4-0.1-.4Zm24.2-3.8c-2,13.3-2.8,20.7-2.6,22.2l0.1,0.4,0.4-.1,2.9-22.8-0.8.3h0Zm1,26.3-0.2,3.8,0.1,0.8,0.4-.1,0.1-4.2-0.1-.4-0.3.1h0Zm0.9-10.3-0.2,3.8,0.1,0.4,0.4-.1,0.2-3.8-0.1-.4-0.4.1h0Z"/><path class="cls-43" d="M274.4,183.3a5.59,5.59,0,0,1-5.5-4.8c0-.4-3.9-34.8-3.9-35.2a0.37,0.37,0,0,1-.1-0.3v-1.1a3.25,3.25,0,0,1,1.1-2.5c0.6-.9,2.1-2,22.2-2s21.5,1.1,22.2,2a3.63,3.63,0,0,1,1.1,2.6v1a0.9,0.9,0,0,1-.1.5l-4.1,35.1v0.3a5.47,5.47,0,0,1-5.4,4.5l-27.5-.1h0Z"/><path class="cls-44" d="M310.2,141.9a2,2,0,0,0-.7-1.6c-1-1.1-10.1-1.5-21.3-1.5s-20.2.3-21.3,1.4a2.36,2.36,0,0,0-.7,1.6v1.1a0.37,0.37,0,0,0,.1.3c0,0.1,3.9,35.1,3.9,35.1a4.26,4.26,0,0,0,4,3.6h27.6a4,4,0,0,0,4-3.6h0l4.3-35.1v-1.3h0.1Z"/><ellipse class="cls-43" cx="288.2" cy="141.6" rx="19.3" ry="1.1"/><path class="cls-45" d="M304.1,174.9a2.22,2.22,0,0,1-2.2,2.2H274.6a2.22,2.22,0,0,1-2.2-2.2c-0.2-3.3-1.4-13.1-1.4-13.1a1.28,1.28,0,0,1,1-1.4h32.2a1.24,1.24,0,0,1,1.4,1.1v0.3a118,118,0,0,0-1.5,13.1h0Z"/><path class="cls-46" d="M282.7,162.3a1.72,1.72,0,0,0,.3,2.3h0l6,4.7a1.63,1.63,0,0,0,2.3-.4l4.7-6.1a1.72,1.72,0,0,0-.3-2.3h0l-6-4.7a1.85,1.85,0,0,0-2.4.4l-4.6,6.1h0Z"/><path class="cls-46" d="M277,157.9a1.59,1.59,0,0,0-1.4,1.8l1,7.6a1.62,1.62,0,0,0,1.9,1.4h0l7.5-1a1.65,1.65,0,0,0,1.4-1.8v-0.1l-0.9-7.6a1.69,1.69,0,0,0-1.9-1.4h0l-7.6,1.1h0Z"/><path class="cls-47" d="M181.1,535.6a4.19,4.19,0,0,0,.4,1.6,6.1,6.1,0,0,0,1.2,1.6,6.42,6.42,0,0,0,1.3,1,10.09,10.09,0,0,0,1.5.7,13.82,13.82,0,0,0,2.7.8c0.5,0.1,1.1.1,1.6,0.2a2.49,2.49,0,0,0,1.7-.3c0.1-.4.2-1,0.3-1.6a15.47,15.47,0,0,1,.4-1.5,10.76,10.76,0,0,1,1.3-2.9,8.64,8.64,0,0,1,2.6-3.1,26.16,26.16,0,0,1,3.4-2.4c1.1-.6,3.5-1.7,4.4-2.2a10.62,10.62,0,0,1,1.1.9,7.09,7.09,0,0,0,5.5,1.2,7.3,7.3,0,0,0,3.5-2,6.51,6.51,0,0,0,1.5-2.7,18.46,18.46,0,0,0,.4-2.3,13.4,13.4,0,0,0-.1-2,10.77,10.77,0,0,0,2.4-1.8,6.33,6.33,0,0,0,1.6-2.6,8.08,8.08,0,0,0,0-3.1,10.64,10.64,0,0,0-.9-2.5,8.34,8.34,0,0,0-1.6-2.1,18.39,18.39,0,0,0-2.2-1.7,6.7,6.7,0,0,0,0-2A5.7,5.7,0,0,0,214,502a10.34,10.34,0,0,0-3.4-3.5,9.38,9.38,0,0,0-2.8-1,11.56,11.56,0,0,0-3.2-.1,6.82,6.82,0,0,0-4.1-1.9,6.47,6.47,0,0,0-2.4.1,7.72,7.72,0,0,0-3.5,1.2,15.57,15.57,0,0,0-7.4-.8,12.08,12.08,0,0,0-5.9,2.6,10,10,0,0,0-3.5,6.1c-5,.8-6.2,4.9-4.9,8,1.2,2.7,4.2,4.7,7.4,5.7,0.5,1.3,2.3,7,2.3,7a12.59,12.59,0,0,1-1.5,10.2h0Zm3-18a7.61,7.61,0,0,0,1.9-1.2,14.17,14.17,0,0,0,1.8.8,4.33,4.33,0,0,0,1.9.4,17.73,17.73,0,0,1-.8,4,4.8,4.8,0,0,1-1.4,2.5,0.48,0.48,0,0,1-.5-0.2,8.8,8.8,0,0,1-1.8-2.9,12.33,12.33,0,0,1-1.1-3.4h0ZM198,523a4.92,4.92,0,0,0-.6,1.7,3.33,3.33,0,0,0-.2,1.7,5.24,5.24,0,0,0,2.5-.3s2.3-.6,2.8-0.8a3.53,3.53,0,0,1-.3-1.4l-2.1-.3a8.3,8.3,0,0,1-2.1-.6h0Z"/><rect class="cls-48" x="250.6" y="240.32" width="13.3" height="13.3" transform="translate(-95.41 299.91) rotate(-52.37)"/><rect class="cls-49" x="310.44" y="344.08" width="13.3" height="13.3" transform="translate(-154.88 322.33) rotate(-44.44)"/><rect class="cls-48" x="382.09" y="360.86" width="13.3" height="13.3" transform="translate(-41.1 685.98) rotate(-79.93)"/><rect class="cls-50" x="172.82" y="363.02" width="13.3" height="13.3" transform="translate(-222.87 286.09) rotate(-52.37)"/><rect class="cls-50" x="292.12" y="432.07" width="13.3" height="13.3" transform="translate(-221.73 334.68) rotate(-44.44)"/><rect class="cls-49" x="306" y="229.15" width="13.3" height="13.3" transform="translate(25.8 502.39) rotate(-79.93)"/><rect class="cls-48" x="334.89" y="296.87" width="13.3" height="13.3" transform="translate(-56.63 79.39) rotate(-12.25)"/><rect class="cls-50" x="235.59" y="174.68" width="13.3" height="13.3" transform="translate(-32.96 55.53) rotate(-12.25)"/><rect class="cls-49" x="228.75" y="429.89" width="13.3" height="13.3" transform="translate(-254.05 356.43) rotate(-52.37)"/><rect class="cls-51" x="327.36" y="459.3" width="13.3" height="13.3" transform="translate(-230.71 367.14) rotate(-44.44)"/><rect class="cls-49" x="355.06" y="356.91" width="13.3" height="13.3" transform="translate(-59.51 656.11) rotate(-79.93)"/><rect class="cls-50" x="272.27" y="314.74" width="13.3" height="13.3" transform="translate(-86.3 539.8) rotate(-79.93)"/><rect class="cls-50" x="201.93" y="292.6" width="13.3" height="13.3" transform="translate(-122.54 452.28) rotate(-79.93)"/><rect class="cls-48" x="257.49" y="412.57" width="13.3" height="13.3" transform="translate(-82.95 65.6) rotate(-12.25)"/><rect class="cls-49" x="213.6" y="364.29" width="13.3" height="13.3" transform="translate(-73.7 55.19) rotate(-12.25)"/><rect class="cls-48" x="167.99" y="478.9" width="13.3" height="13.3" transform="translate(-316.52 327.4) rotate(-52.37)"/><rect class="cls-51" x="261.3" y="504.23" width="13.3" height="13.3" transform="translate(-281.06 333.73) rotate(-44.44)"/><rect class="cls-48" x="305" y="391.08" width="13.2" height="13.2" transform="translate(-133.48 636.73) rotate(-80.16)"/><rect class="cls-51" x="112.55" y="286.4" width="13.3" height="13.3" transform="translate(-190.18 359.15) rotate(-79.93)"/><path class="cls-52" d="M142.4,540.5c-0.2-6.1-7.7-20.7-15.7-14.3-5.4,4.3-.4,12.7,6,9.1,16.5-9.2-4.9-43.4-22.1-28.4a3.17,3.17,0,0,0-1.2,2.5c1.2,5.6,7,7.9,12.3,6.1,4.8-1.6,7.6-6.5,8.5-11.2,2.7-14.8-10.1-32.2-25-33.6-10.6-1-18.2,11.9-9,19.5,10,8.2,21.4-6.1,21.3-15.5-0.2-19.9-24.1-30.2-41.1-27.7-1.3.2-2.9,3.8-1.6,3.6a38,38,0,0,1,31.3,9.1c4.1,3.8,7.7,8.9,8.5,14.6,1.3,8.2-7.3,19-15.7,13-2.1-1.5-4.1-4.7-3.9-7.3,0.4-6.5,6.3-6.2,10.5-5.4a25.7,25.7,0,0,1,13.1,7.4,32,32,0,0,1,8.8,16.7c0.9,5.5-.8,14.2-8.4,13.8-3.4-.2-6.2-2-7-5.5l-1.2,2.5c10.4-9.1,22.1,3.6,24,13.7l0.3,1.7c1.1,4.4-1.3,6.5-7.5,6.2,0.5-3.8,3.6-2.1,5.7-.6,4.2,2.8,6.1,7.7,6.2,12.5,0.3,1.6,3-1.2,2.9-2.5h0Z"/><path class="cls-49" d="M323.4,544.4a11.82,11.82,0,0,1,4.6-10c1.8-3.1,3.1-3.2,4-.4,1.8,2,1.8,2.5-.2,1.4-5.4-1.1-4.8-8.8-3.8-12.7,1.7-6.7,7.1-13.5,14.6-13.2,1.4,0,3.7.2,4.9,1.1,2.8,2,.2,4.2-2.7,4.7-9.5,1.4-11.4-10.5-9.9-17.2,2-9.1,8.6-17.7,17.7-20.5,3.6-1.1,8.6-1.8,11.6,1,4.5,4.3,1.4,12.9-5.4,12.5-6.6-.4-11.7-6.5-12.2-12.8-1.7-18.8,22.6-28,37.6-26.2,1.3,0.2,3.1-3.4,1.6-3.6-15.4-1.9-31.7,5.4-39,19.5-3,5.7-4.4,12.9-1.1,18.9,2.9,5.4,9.6,9.5,15.8,7.1,11.1-4.4,10.1-22.5-3.7-20.9s-24.6,16-26,29.3c-0.8,7,1.7,16,10,16.5,5.8,0.4,10.1-3.5,11.1-9a0.86,0.86,0,0,0-.3-0.9c-8.5-7-19.4-1.3-24.1,7.2-3,5.4-7.9,22.8,3.3,23.2,5.4,0.2,10.1-9.4,3.7-11.3-8.7-2.5-14.6,11.6-14.6,17.8,0,2.3,2.7-.4,2.7-1.7h0l-0.2.2h0Z"/><path class="cls-53" d="M249.4,404.7c-0.7-1.8-1.7-4.8-1.2-6.7,6.9-2.4,8.4-3.9,4.5-4.4a3.36,3.36,0,0,1-2.9-1.6c-3-2.6-3.8-7.1-4-11-0.3-6,2.3-13.4,8.4-15.6,3.7-1.4,4.8-1.5,5.1,2.1,0.3,3.2-.3,3.6-3.4,3.9-9.1.9-12.5-10.4-12.7-17.5-0.2-9.2,3.5-19.3,12-23.8,3.3-1.7,7.1-2.6,10.1.2a7.91,7.91,0,0,1,.3,11.2,8.34,8.34,0,0,1-2.1,1.6c-5.7,3.1-13.6-2.9-16-7.7-8.3-17,9.9-34.4,25-38.2,1.2-.3,2.8-3.9,1-3.5-14.9,3.7-27.8,16.1-30.1,31.7-1,7,.6,14.9,6.8,19.1,4.9,3.3,11.8,3.8,16.4-.4,8.9-8.2,1.9-23.9-10.5-17.5s-18.2,23.7-14.5,36.9c2,7.1,8.1,14.1,16.1,10.8,4.7-1.9,8-6.7,7-11.7a0.55,0.55,0,0,0-.3-0.5c-9-3-17.3,3.4-20.1,11.9-2.2,6.7-1.5,27.4,10.4,23.5,5.1-1.7,7.3-12.3.1-11.4-9.1,1.1-10.2,15.7-7.9,21.9,0.6,0.9,3.1-2,2.5-3.3h0Z"/><path class="cls-54" d="M176.6,438c-2.4-2.1-6.7-7.2-5.8-10.8l4-5.1-2.2,5c-1.9,1.2-5.7-2.4-6.8-3.5a24,24,0,0,1-6.3-9.9c-0.7-2.2-1.5-4.9-1-7.2s4.2-9.5,7.5-9.3c4.7,0.3,1.5,4.4.2,6.2-2.7,3.8-4.5,4.6-8.9,3-3.5-1.2-6.5-4.1-8.7-7a32.41,32.41,0,0,1-6.6-18.7c-0.1-4,.4-9.4,3.1-12.4,4.1-4.6,9.3-5.1,12.8-.3,3.1,4.3.5,9.9-4.1,12-3.5,1.6-8.7.3-11.7-1.6-16.3-10.3-9.9-35.8,1.8-46.7,1.1-1,1.6-4.4-.4-2.6-11,10.2-17.2,26.9-11.9,41.6,2.8,7.8,9.5,14.4,18.3,13.5a14.29,14.29,0,0,0,11.8-8.5,11.31,11.31,0,0,0-3.9-13.4c-4.8-3.4-9.7-.9-13.1,3.2-9.2,11.3-6.2,29.4,3.4,39.4,5,5.2,13,8.3,18.9,2.8,3.8-3.6,6-9.7,2.4-14.1a0.78,0.78,0,0,0-.8-0.2c-8.7,1.6-13.9,10.6-12.9,19.1,1,7.7,10,23,19.5,16.9,5.1-3.3,4.1-14.3-2.8-10.6-8.7,4.6-3.6,18.1,1.9,22.8,1.2,0.6,3.5-2.7,2.3-3.6h0Z"/><path class="cls-55" d="M227.4,565.5c-0.7-1.8-1.7-4.8-1.2-6.7,6.9-2.4,8.4-3.9,4.5-4.4a3.36,3.36,0,0,1-2.9-1.6c-3-2.6-3.8-7.2-4-11-0.3-6,2.3-13.4,8.4-15.6,3.7-1.3,4.8-1.5,5.1,2.1,0.3,3.2-.3,3.6-3.4,3.9-9.1.9-12.5-10.4-12.7-17.5-0.2-9.2,3.5-19.3,12-23.8,3.3-1.7,7.1-2.6,10.1.2a7.91,7.91,0,0,1,.3,11.2,8.34,8.34,0,0,1-2.1,1.6c-5.7,3.1-13.6-2.9-16-7.7-8.3-17,9.9-34.4,25-38.2,1.2-.3,2.8-3.9,1-3.5-14.9,3.7-27.8,16.1-30.1,31.7-1,7,.6,14.9,6.8,19.1,4.9,3.3,11.8,3.8,16.4-.4,8.9-8.2,1.9-23.9-10.5-17.5s-18.2,23.7-14.5,36.8c2,7.1,8.1,14.1,16.1,10.8,4.7-1.9,8-6.7,7-11.7a0.55,0.55,0,0,0-.3-0.5c-9-3-17.3,3.4-20.1,11.9-2.2,6.7-1.5,27.4,10.4,23.5,5.1-1.7,7.3-12.3.1-11.4-9.1,1.1-10.2,15.7-7.9,21.9,0.5,1,3-2,2.5-3.2h0Z"/><path class="cls-56" d="M166.3,558.1a1.42,1.42,0,1,1-1.8.9,1.38,1.38,0,0,1,1.8-.9h0Z"/><path class="cls-56" d="M152.4,463.6a1.38,1.38,0,0,1,.9,1.8h0a1.46,1.46,0,0,1-1.8.9,1.38,1.38,0,0,1-.9-1.8h0a1.38,1.38,0,0,1,1.8-.9h0Z"/><path class="cls-57" d="M220.1,438.5a1.38,1.38,0,0,1,.9,1.8h0a1.46,1.46,0,0,1-1.8.9,1.38,1.38,0,0,1-.9-1.8h0a1.34,1.34,0,0,1,1.8-.9h0Z"/><path class="cls-56" d="M268.9,385.8a1.42,1.42,0,1,1-1.8.9,1.31,1.31,0,0,1,1.8-.9h0Z"/><path class="cls-56" d="M224.2,528.8a1.42,1.42,0,1,1-1.8.9,1.31,1.31,0,0,1,1.8-.9h0Z"/><path class="cls-58" d="M221.8,370a2.4,2.4,0,1,1-3,1.6h0a2.36,2.36,0,0,1,3-1.6h0Z"/><path class="cls-58" d="M238.8,445.6a2.37,2.37,0,0,1-1.5,4.5,2.43,2.43,0,0,1-1.5-3h0a2.47,2.47,0,0,1,2.9-1.6l0.1,0.1h0Z"/><path class="cls-58" d="M303.7,402a2.37,2.37,0,0,1-1.5,4.5h0a2.43,2.43,0,0,1-1.5-3,2.48,2.48,0,0,1,3-1.5h0Z"/><path class="cls-58" d="M205.9,510.6a2.4,2.4,0,1,1-3,1.6h0a2.36,2.36,0,0,1,3-1.6h0Z"/><path class="cls-57" d="M170.2,537.3a3.1,3.1,0,1,1-3.9,2,3.15,3.15,0,0,1,3.9-2h0Z"/><path class="cls-57" d="M277.3,474.2a3.1,3.1,0,1,1-3.9,2,3.1,3.1,0,0,1,3.9-2h0Z"/><path class="cls-57" d="M244,422.8a3.15,3.15,0,0,1,2,3.9h0a3.06,3.06,0,0,1-4,2h0a3.15,3.15,0,0,1-2-3.9h0a3.3,3.3,0,0,1,4-2h0Z"/><path class="cls-57" d="M291.2,439.6a3.1,3.1,0,1,1-3.9,2,3,3,0,0,1,3.9-2h0Z"/><path class="cls-57" d="M182,429.5a3.1,3.1,0,1,1-3.9,2,3.1,3.1,0,0,1,3.9-2h0Z"/><path class="cls-57" d="M181.8,486.4a3.1,3.1,0,1,1-3.9,2,3.15,3.15,0,0,1,3.9-2h0Z"/><path class="cls-57" d="M191.9,526.8a3.1,3.1,0,1,1-3.9,2,3,3,0,0,1,3.9-2h0Z"/><path class="cls-57" d="M220.8,592.3a3.15,3.15,0,0,1,2,3.9h0a3.06,3.06,0,0,1-4,2h0a3.26,3.26,0,0,1-2-4,3.16,3.16,0,0,1,4-1.9h0Z"/><path class="cls-59" d="M183.6,569.8a1,1,0,1,1-1.2.7v-0.1a1,1,0,0,1,1.2-.6h0Z"/><path class="cls-59" d="M238.6,560.2a1,1,0,1,1-1.2.7v-0.1a1.14,1.14,0,0,1,1.2-.6h0Z"/><path class="cls-60" d="M254.5,519.7a1,1,0,1,1-1.2.7h0v-0.1a1,1,0,0,1,1.2-.6h0Z"/><path class="cls-59" d="M200,402.8a1,1,0,1,1-1.2.7v-0.1a0.8,0.8,0,0,1,1.1-.6H200Z"/><path class="cls-59" d="M204,550.6a0.88,0.88,0,0,1,.5,1.2h0a1,1,0,0,1-1.9-.7,1.07,1.07,0,0,1,1.4-.5h0Z"/><path class="cls-59" d="M236.2,413.2a4.63,4.63,0,0,1,5.8-2l0.3,2.4s-2.4-1.3-5.4,1Z"/><path class="cls-59" d="M286.6,390.4a4.63,4.63,0,0,1,5.8-2l0.3,2.4s-2.4-1.3-5.4,1Z"/><polygon class="cls-61" points="216.8 397.7 220.1 392.9 223.6 395 216.8 397.7"/><polygon class="cls-61" points="221.4 470.1 224.7 465.3 228.2 467.3 221.4 470.1"/><polygon class="cls-56" points="228.2 434.4 233.6 436.2 232.3 437.5 228.2 434.4"/><polygon class="cls-62" points="212.1 423.2 218.8 427.4 214.7 430.8 212.1 423.2"/><polygon class="cls-62" points="191.3 590.9 198 595 193.9 598.5 191.3 590.9"/><path class="cls-63" d="M234.1,369.2s3.3-2.3,2.8-8.3l3.3,0.2s1,2-1,5.6-2.8,3.3-2.8,3.3Z"/><path class="cls-64" d="M230.4,520.3s-3.6-4.6-.2-11.9l4.8,0.8s-5.1,7.6,0,15.2Z"/><path class="cls-64" d="M252,555.3s-3.6-4.6-.2-11.9l4.8,0.8s-5.1,7.6,0,15.2Z"/><path class="cls-59" d="M254,479.3a4.63,4.63,0,0,1,5.8-2l0.3,2.3s-2.4-1.3-5.4,1Z"/><polygon class="cls-61" points="248.9 501.3 252.2 496.5 255.8 498.5 248.9 501.3"/><polygon class="cls-61" points="182.4 555.5 185.7 550.7 189.3 552.8 182.4 555.5"/><polygon class="cls-56" points="245.4 509.4 250.7 511.2 249.4 512.4 245.4 509.4"/><polygon class="cls-65" points="233.3 482.5 240.3 478.9 241.1 484.2 233.3 482.5"/><path class="cls-63" d="M268,509.1s3.3-2.3,2.8-8.3l3.3,0.3s1,2-1,5.6-2.8,3.3-2.8,3.3Z"/><path class="cls-63" d="M240.3,538.7s3.3-2.3,2.8-8.3l3.3,0.2s1,2-1,5.6-2.8,3.3-2.8,3.3Z"/><path class="cls-64" d="M187.3,404s-2.4-3-.2-7.9l3.2,0.5s-3.4,5.1,0,10.1Z"/><path class="cls-59" d="M165.3,401.2a4.63,4.63,0,0,1,5.8-2l0.3,2.3s-2.4-1.3-5.4,1Z"/><polygon class="cls-61" points="192.8 420.6 196.1 415.8 199.6 417.8 192.8 420.6"/><polygon class="cls-61" points="225.3 572.5 229.5 576.4 227 579.6 225.3 572.5"/><polygon class="cls-61" points="216.5 559.9 219.8 555.1 223.3 557.1 216.5 559.9"/><polygon class="cls-65" points="183 500.3 189.7 504.4 185.5 507.8 183 500.3"/><path class="cls-59" d="M163.8,496a4.63,4.63,0,0,1,5.8-2l0.3,2.4s-2.4-1.3-5.4,1Z"/><polygon class="cls-66" points="169.5 523.8 172.8 519 176.3 521.1 169.5 523.8"/><polygon class="cls-56" points="160.6 418.8 165.9 420.6 164.7 421.9 160.6 418.8"/><polygon class="cls-56" points="157.4 444.7 162.7 446.5 161.4 447.8 157.4 444.7"/><polygon class="cls-62" points="181.8 450.2 188.9 446.7 189.7 452 181.8 450.2"/><path class="cls-63" d="M204.2,460.1s3.3-2.3,2.8-8.3l3.3,0.2s1,2-1,5.6-2.8,3.3-2.8,3.3Z"/><path class="cls-64" d="M131,546.7s3.3-2.3,2.8-8.3l3.3,0.2s1,2-1,5.6-2.8,3.3-2.8,3.3Z"/><path class="cls-63" d="M165.9,471.8s3.3-2.3,2.8-8.3l3.3,0.2s1,2-1,5.6-2.8,3.3-2.8,3.3Z"/><path class="cls-64" d="M278.2,424.6s-2.1-5.4-10.1-6.3l-1.8,4.5s9.1-.5,13.1,7.7Z"/><path class="cls-59" d="M264.4,353.2a4.63,4.63,0,0,1,5.8-2l0.3,2.3s-2.4-1.3-5.4,1Z"/><path class="cls-59" d="M247.8,581.2a4.63,4.63,0,0,1,5.8-2l0.3,2.4s-2.4-1.3-5.4,1Z"/><polygon class="cls-61" points="247.5 399.6 250.8 394.8 254.4 396.8 247.5 399.6"/><polygon class="cls-56" points="252.2 372.2 257.5 374 256.2 375.2 252.2 372.2"/><polygon class="cls-62" points="231.5 385.1 238.6 381.5 239.3 386.8 231.5 385.1"/><path class="cls-63" d="M232,342.7s3.3-2.3,2.8-8.3l3.3,0.3s1,2-1,5.6-2.8,3.3-2.8,3.3Z"/><path class="cls-63" d="M264.6,370.7s3.3-2.3,2.8-8.3l3.3,0.2s1,2-1,5.6-2.8,3.3-2.8,3.3Z"/><path class="cls-64" d="M140.6,515.1s4.1-4.1,11.8-1.8l-0.2,4.9s-8.2-4.1-15.1,1.9Z"/><path class="cls-59" d="M220.7,451a4.63,4.63,0,0,1,5.8-2l0.3,2.3s-2.4-1.3-5.4,1Z"/><polygon class="cls-61" points="190.6 465.8 193.9 461 197.4 463 190.6 465.8"/><polygon class="cls-56" points="198.3 492.4 201.1 497.3 199.3 497.4 198.3 492.4"/><polygon class="cls-62" points="181.1 479.4 188.2 475.8 188.9 481.2 181.1 479.4"/><path class="cls-63" d="M214.1,506.8s3.3-2.3,2.8-8.3l3.3,0.2s1,2-1,5.6-2.8,3.3-2.8,3.3Z"/><path class="cls-63" d="M200.4,576s3.3-2.3,2.8-8.3l3.3,0.2s1,2-1,5.6-2.8,3.3-2.8,3.3Z"/><path class="cls-63" d="M203.9,539.5s3.3-2.3,2.8-8.3l3.3,0.2s1,2-1,5.6-2.8,3.3-2.8,3.3Z"/><path class="cls-64" d="M204.6,483.6s-3.6-4.6-.2-11.9l4.8,0.8s-5.1,7.6,0,15.2Z"/><path class="cls-59" d="M262.8,443.4a4.63,4.63,0,0,1,5.8-2l0.3,2.3s-2.4-1.3-5.4,1Z"/><polygon class="cls-61" points="278.6 462.2 281.9 457.3 285.4 459.4 278.6 462.2"/><polygon class="cls-56" points="259.9 458.5 265.2 460.2 263.9 461.5 259.9 458.5"/><polygon class="cls-62" points="245 443.6 252.1 440.1 252.8 445.3 245 443.6"/><path class="cls-63" d="M257.4,412.1s3.3-2.3,2.8-8.3l3.3,0.2s1,2-1,5.6-2.8,3.3-2.8,3.3Z"/><path class="cls-63" d="M277.7,416.2s3.3-2.3,2.8-8.3l3.3,0.3s1,2-1,5.6-2.8,3.3-2.8,3.3Z"/><path class="cls-64" d="M145.9,493.1s-3.6-4.6-.2-11.9l4.8,0.7s-5.1,7.6,0,15.2Z"/><path class="cls-64" d="M164.9,604.9s-3.6-4.6-.2-11.9l4.8,0.8s-5.1,7.6,0,15.2Z"/><path class="cls-59" d="M215.1,360.8a4.63,4.63,0,0,1,5.8-2l0.4,2.3s-2.4-1.3-5.4,1Z"/><polygon class="cls-61" points="197.9 394 201.2 389.2 204.8 391.2 197.9 394"/><polygon class="cls-56" points="208.3 408.4 213.6 410.2 212.3 411.4 208.3 408.4"/><polygon class="cls-62" points="310.9 432.8 318 429.2 318.7 434.6 310.9 432.8"/><path class="cls-63" d="M193,364.8s3.3-2.3,2.8-8.3l3.3,0.3s1,2-1,5.6-2.8,3.3-2.8,3.3Z"/><path class="cls-62" d="M286,342.6a8,8,0,0,1-.7,4.3c-1.1,1.9-8.6,6.9-9.6,8s-1.7,2-1.4,3,3.3,2.9,5.9,4.2,9.3,3.5,10.8,8.3c0,0,.3,1.8.5,3.1s-1.4,3.8-4.5,6.3c-3.3,2.6-6.5,5.2-7.2,6.4a12.46,12.46,0,0,0,4.6,1.5c2.4,0.3,9.8,1.4,10.6,5.1l0.5,2.3c0.1,0.6-.2,2.8-4.3,4.8l-8,3.9-0.4-2.5s12.1-5.2,12.1-7.5l-0.1-.4c-0.1-.5-2.2-1.8-6-2.5s-8.7-1.4-9.4-3.1l-0.6-3.2c-0.1-.5.9-2.4,4-4.6s7.5-5.7,8.1-8.2c-0.6-2.5-4-3.9-5-4.4-2.2-1.1-8.8-3.9-11.3-6.4a3.08,3.08,0,0,1-.6-1.9,27.18,27.18,0,0,1-.3-3.1c0-.9,0-2.8,3.2-5.1,2.7-2.3,8.2-5.1,9.1-8.3h0Z"/><path class="cls-67" d="M282.6,379.9c2.2-1.6,8.2-6.3,8.3-9.3,0.1,0.6.3,2,.4,2.8,0.1,1.3-1.4,3.8-4.5,6.3-3.3,2.6-6.5,5.2-7.2,6.4a3.36,3.36,0,0,1-1-1.6c-0.1-.5,1-2.4,4-4.6h0Z"/><path class="cls-56" d="M72.5,97.6a1.42,1.42,0,1,0-2-.2h0a1.43,1.43,0,0,0,2,.2h0Z"/><path class="cls-56" d="M96.7,190a1.42,1.42,0,0,0-1.9-2.1,1.42,1.42,0,0,0,1.9,2.1h0Z"/><path class="cls-57" d="M168.8,186.6a1.42,1.42,0,1,0-1.9-2.1,1.42,1.42,0,0,0,1.9,2.1h0Z"/><path class="cls-56" d="M234.3,216a1.42,1.42,0,1,0-2-.2h0a1.43,1.43,0,0,0,2,.2h0Z"/><path class="cls-56" d="M137.2,102a1.42,1.42,0,1,0-2-.2h0a1.43,1.43,0,0,0,2,.2h0Z"/><path class="cls-58" d="M197.1,248.9a2.41,2.41,0,1,0-3.4-.2,2.39,2.39,0,0,0,3.4.2h0Z"/><path class="cls-58" d="M183.3,172.8a2.41,2.41,0,0,0-3.1-3.7h0l-0.1.1a2.38,2.38,0,0,0-.1,3.4,2.45,2.45,0,0,0,3.3.2h0Z"/><path class="cls-58" d="M260,187.5a2.41,2.41,0,1,0-3.4-.2h0a2.59,2.59,0,0,0,3.4.2h0Z"/><path class="cls-58" d="M127.4,125.8a2.41,2.41,0,1,0-3.4-.2h0a2.59,2.59,0,0,0,3.4.2h0Z"/><path class="cls-57" d="M84.2,115.2a3.12,3.12,0,1,0-4.4-.3h0a3,3,0,0,0,4.4.3h0Z"/><path class="cls-57" d="M207.4,131.4a3.12,3.12,0,1,0-4.4-.3h0a3.14,3.14,0,0,0,4.4.3h0Z"/><path class="cls-57" d="M196.9,191.7a3.14,3.14,0,0,0,.3-4.4h0a3.12,3.12,0,0,0-4.7,4.1h0a3.15,3.15,0,0,0,4.4.3h0Z"/><path class="cls-57" d="M233.7,157.8a3.12,3.12,0,1,0-4.4-.3h0a3.06,3.06,0,0,0,4.4.3h0Z"/><path class="cls-57" d="M137.2,209.8a3.12,3.12,0,1,0-4.4-.3h0a3.06,3.06,0,0,0,4.4.3h0Z"/><path class="cls-57" d="M114.8,157.5a3.12,3.12,0,1,0-4.4-.3h0a3.14,3.14,0,0,0,4.4.3h0Z"/><path class="cls-57" d="M108.3,116.4a3.12,3.12,0,1,0-4.4-.3h0a3,3,0,0,0,4.4.3h0Z"/><path class="cls-57" d="M109.3,44.8a3.14,3.14,0,0,0,.3-4.4h0a3.12,3.12,0,0,0-4.7,4.1h0a3.14,3.14,0,0,0,4.4.3h0Z"/><path class="cls-59" d="M83.8,80a1,1,0,1,0-1.4-.1h0L82.5,80a0.85,0.85,0,0,0,1.3,0h0Z"/><path class="cls-59" d="M138.2,67.4a1,1,0,1,0-1.4-.1h0a1.21,1.21,0,0,0,1.4.1h0Z"/><path class="cls-60" d="M168.6,98.4a1,1,0,1,0-1.3-1.5,1.06,1.06,0,0,0-.1,1.4h0a1.07,1.07,0,0,0,1.4.1h0Z"/><path class="cls-59" d="M164.3,227.4a1,1,0,1,0-1.4-.1h0a1.37,1.37,0,0,0,1.4.1h0Z"/><path class="cls-59" d="M110.1,89.7a1,1,0,1,0-1.4-.1h0l0.1,0.1a0.85,0.85,0,0,0,1.3,0h0Z"/><path class="cls-59" d="M193.5,203.6a4.59,4.59,0,0,0,6.1-.4l-0.6-2.3s-1.6,2.2-5.4,1.2Z"/><path class="cls-59" d="M248.8,204.8a4.59,4.59,0,0,0,6.1-.4l-0.6-2.3s-1.6,2.2-5.4,1.2Z"/><polygon class="cls-61" points="181.6 225.4 186.6 228.5 189 225.3 181.6 225.4"/><polygon class="cls-61" points="157.6 157.1 162.5 160.2 165 157 157.6 157.1"/><polygon class="cls-56" points="177.8 187.2 182 183.4 180.4 182.8 177.8 187.2"/><polygon class="cls-62" points="167.4 203.9 171.9 197.3 166.8 195.8 167.4 203.9"/><polygon class="cls-62" points="82.6 57.7 87.2 51.2 82 49.7 82.6 57.7"/><path class="cls-63" d="M208.8,244.9s3.9,0.8,5.8,6.6l2.9-1.5s0.1-2.2-3.1-4.7-3.9-1.9-3.9-1.9Z"/><path class="cls-64" d="M146.2,107.3s-1.5,5.6,4.4,11l4.1-2.6s-7.6-5-5.9-14Z"/><path class="cls-64" d="M152.4,66.7s-1.5,5.6,4.4,11l4.1-2.6s-7.6-5-5.9-14Z"/><path class="cls-59" d="M184,135.8a4.59,4.59,0,0,0,6.1-.4l-0.6-2.3s-1.6,2.2-5.4,1.2Z"/><polygon class="cls-61" points="170.7 117.5 175.6 120.7 178.1 117.4 170.7 117.5"/><polygon class="cls-61" points="88.3 93.7 93.2 96.8 95.7 93.5 88.3 93.7"/><polygon class="cls-56" points="164.3 111.5 168.5 107.8 166.8 107.1 164.3 111.5"/><polygon class="cls-65" points="163.7 141 171.6 141.5 170.2 136.3 163.7 141"/><path class="cls-63" d="M185.2,102.9s3.9,0.8,5.8,6.6l2.9-1.5s0.1-2.2-3.1-4.7-3.9-1.9-3.9-1.9Z"/><path class="cls-63" d="M148.2,86.5s3.9,0.8,5.8,6.6l2.9-1.5s0.1-2.2-3.1-4.7-3.9-1.9-3.9-1.9Z"/><path class="cls-64" d="M152.1,231.2s-1,3.7,3,7.4l2.8-1.7s-5.1-3.3-4-9.3Z"/><path class="cls-59" d="M132.9,242.4a4.59,4.59,0,0,0,6.1-.4l-0.6-2.3s-1.6,2.2-5.4,1.2Z"/><polygon class="cls-61" points="150.6 213.8 155.5 216.9 158 213.6 150.6 213.8"/><polygon class="cls-61" points="121.1 61.3 123.4 56 119.8 54 121.1 61.3"/><polygon class="cls-61" points="118 76.3 122.9 79.5 125.3 76.2 118 76.3"/><polygon class="cls-65" points="110.4 144.3 115 137.8 109.8 136.3 110.4 144.3"/><path class="cls-59" d="M94.5,155.8a4.59,4.59,0,0,0,6.1-.4l-0.6-2.3s-1.6,2.2-5.4,1.2Z"/><polygon class="cls-66" points="88.8 127.9 93.7 131 96.1 127.8 88.8 127.9"/><polygon class="cls-56" points="121.7 228 125.9 224.3 124.3 223.6 121.7 228"/><polygon class="cls-56" points="108.6 205.4 112.8 201.7 111.1 201 108.6 205.4"/><polygon class="cls-62" points="129 190.8 136.8 191.2 135.5 186.1 129 190.8"/><path class="cls-63" d="M145.7,172.9s3.9,0.8,5.8,6.6l2.9-1.5s0.1-2.2-3.1-4.7-3.9-1.9-3.9-1.9Z"/><path class="cls-64" d="M44.5,121.9s3.9,0.8,5.8,6.6l2.9-1.5s0.1-2.2-3.1-4.7-3.9-2-3.9-2Z"/><path class="cls-63" d="M105.9,177.2s3.9,0.8,5.8,6.6l2.9-1.5s0.1-2.2-3.1-4.7-3.9-1.9-3.9-1.9Z"/><path class="cls-64" d="M227.6,176.7s0.1,5.8-6.8,9.8l-3.4-3.4s8.6-3.1,9-12.2Z"/><path class="cls-59" d="M242.9,247.7a4.59,4.59,0,0,0,6.1-.4l-0.6-2.3s-1.6,2.2-5.4,1.2Z"/><path class="cls-59" d="M138.4,44.4a4.59,4.59,0,0,0,6.1-.4l-0.6-2.3s-1.6,2.2-5.4,1.2Z"/><polygon class="cls-61" points="209.3 211.7 214.2 214.9 216.6 211.6 209.3 211.7"/><polygon class="cls-56" points="224.2 235.1 228.4 231.4 226.8 230.7 224.2 235.1"/><polygon class="cls-62" points="200.2 231.4 208.1 231.8 206.7 226.6 200.2 231.4"/><path class="cls-63" d="M217.2,270.1s3.9,0.8,5.8,6.6l2.9-1.5s0.1-2.2-3.1-4.7-3.9-2-3.9-2Z"/><path class="cls-63" d="M236.2,231.6s3.9,0.8,5.8,6.6l2.9-1.5s0.1-2.2-3.1-4.7-3.9-1.9-3.9-1.9Z"/><path class="cls-64" d="M65.6,147.2s5.4,2.1,11.5-3l-2-4.4s-5.9,6.9-14.6,4.1Z"/><path class="cls-59" d="M164.4,174.9a4.59,4.59,0,0,0,6.1-.4l-0.6-2.3s-1.6,2.2-5.3,1.2Z"/><polygon class="cls-61" points="131 173.1 135.9 176.2 138.3 172.9 131 173.1"/><polygon class="cls-56" points="127.6 145.5 128.3 139.9 126.6 140.6 127.6 145.5"/><polygon class="cls-62" points="116.9 164.3 124.8 164.7 123.4 159.5 116.9 164.3"/><path class="cls-63" d="M136.5,126.1s3.9,0.8,5.8,6.6l2.9-1.5s0.1-2.2-3.1-4.7-3.9-1.9-3.9-1.9Z"/><path class="cls-63" d="M96.9,67.9s3.9,0.8,5.8,6.6l2.9-1.5s0.1-2.2-3.1-4.7-3.9-1.9-3.9-1.9Z"/><path class="cls-63" d="M114.3,100s3.9,0.8,5.8,6.6l2.9-1.5s0.1-2.2-3.1-4.7-3.9-1.9-3.9-1.9Z"/><path class="cls-64" d="M136.9,151.1s-1.5,5.6,4.4,11l4.1-2.6s-7.6-5-5.9-14Z"/><path class="cls-59" d="M206.1,165.5a4.59,4.59,0,0,0,6.1-.4l-0.6-2.3s-1.6,2.2-5.4,1.2Z"/><polygon class="cls-61" points="213.3 142 218.3 145.1 220.7 141.9 213.3 142"/><polygon class="cls-56" points="197.6 152.7 201.8 149 200.1 148.3 197.6 152.7"/><polygon class="cls-62" points="189.7 172.2 197.6 172.7 196.2 167.5 189.7 172.2"/><path class="cls-63" d="M213.4,196.3s3.9,0.8,5.8,6.6l2.9-1.5s0.1-2.2-3.1-4.7-3.9-1.9-3.9-1.9Z"/><path class="cls-63" d="M230.5,184.6s3.9,0.8,5.8,6.6l2.9-1.5s0.1-2.2-3.1-4.7-3.9-1.9-3.9-1.9Z"/><path class="cls-64" d="M79.1,165.4s-1.5,5.6,4.4,11l4.1-2.6s-7.7-5-5.9-14Z"/><path class="cls-64" d="M52.9,55.1s-1.5,5.6,4.4,11l4.1-2.6s-7.7-5-5.9-14Z"/><path class="cls-59" d="M194.6,260.1a4.59,4.59,0,0,0,6.1-.4l-0.6-2.3s-1.6,2.2-5.4,1.2Z"/><polygon class="cls-61" points="165.8 236.3 170.7 239.4 173.1 236.1 165.8 236.3"/><polygon class="cls-56" points="169.7 219 173.8 215.3 172.2 214.6 169.7 219"/><polygon class="cls-62" points="254.6 156.3 262.5 156.8 261.1 151.6 254.6 156.3"/><path class="cls-63" d="M172.6,265s3.9,0.8,5.8,6.6l2.9-1.5s0.1-2.2-3.1-4.7-3.9-2-3.9-2Z"/><path class="cls-56" d="M136.1,346.8a1.42,1.42,0,1,0-2-.2h0a1.34,1.34,0,0,0,2,.2h0Z"/><path class="cls-57" d="M208.2,343.5a1.42,1.42,0,0,0-1.9-2.1,1.34,1.34,0,0,0-.1,2,1.42,1.42,0,0,0,2,.1h0Z"/><path class="cls-57" d="M176.6,366.6a3.12,3.12,0,1,0-4.4-.3h0a3,3,0,0,0,4.4.3h0Z"/><path class="cls-57" d="M154.2,314.3a3.12,3.12,0,1,0-4.4-.3h0a3.06,3.06,0,0,0,4.4.3h0Z"/><polygon class="cls-62" points="206.7 360.7 211.3 354.2 206.1 352.7 206.7 360.7"/><polygon class="cls-65" points="149.8 301.2 154.3 294.6 149.2 293.1 149.8 301.2"/><path class="cls-59" d="M133.9,312.6a4.59,4.59,0,0,0,6.1-.4l-0.6-2.3s-1.6,2.2-5.4,1.2Z"/><polygon class="cls-56" points="148 362.2 152.2 358.5 150.5 357.9 148 362.2"/><polygon class="cls-62" points="168.3 347.6 176.2 348.1 174.8 342.9 168.3 347.6"/><path class="cls-63" d="M185,329.8s3.9,0.8,5.8,6.6l2.9-1.5s0.1-2.2-3.1-4.7-3.9-2-3.9-2Z"/><path class="cls-63" d="M145.2,334s3.9,0.8,5.8,6.6l2.9-1.5s0.1-2.2-3.1-4.7-3.9-2-3.9-2Z"/><path class="cls-64" d="M105,304s5.4,2.1,11.5-3l-2-4.4s-5.9,6.9-14.6,4.1Z"/><polygon class="cls-61" points="170.3 329.9 175.2 333 177.7 329.7 170.3 329.9"/><polygon class="cls-56" points="167 302.3 167.7 296.8 166 297.4 167 302.3"/><polygon class="cls-62" points="156.2 321.1 164.1 321.5 162.8 316.4 156.2 321.1"/><path class="cls-64" d="M176.2,307.9s-1.5,5.6,4.4,11l4.1-2.6s-7.6-5-5.9-14Z"/><path class="cls-64" d="M118.5,322.2s-1.5,5.6,4.4,11l4.1-2.6s-7.6-5-5.9-14Z"/><path class="cls-56" d="M257.2,238.6a1.42,1.42,0,1,0-2-.2h0a1.43,1.43,0,0,0,2,.2h0Z"/><path class="cls-57" d="M329.3,235.2a1.42,1.42,0,1,0-1.9-2.1,1.42,1.42,0,0,0,1.9,2.1h0Z"/><path class="cls-57" d="M297.7,258.4a3.12,3.12,0,1,0-4.4-.3h0a3.14,3.14,0,0,0,4.4.3h0Z"/><path class="cls-57" d="M275.3,206.1a3.12,3.12,0,1,0-4.4-.3h0a3.16,3.16,0,0,0,4.4.3h0Z"/><polygon class="cls-62" points="327.9 252.4 332.4 245.9 327.3 244.4 327.9 252.4"/><polygon class="cls-65" points="271 192.9 275.5 186.4 270.4 184.9 271 192.9"/><path class="cls-59" d="M255,204.4a4.59,4.59,0,0,0,6.1-.4l-0.6-2.3s-1.6,2.2-5.4,1.2Z"/><polygon class="cls-56" points="269.2 254 273.3 250.3 271.7 249.6 269.2 254"/><polygon class="cls-62" points="289.5 239.4 297.4 239.8 296 234.7 289.5 239.4"/><path class="cls-63" d="M306.2,221.5s3.9,0.8,5.8,6.6l2.9-1.5s0.1-2.2-3.1-4.7-3.9-1.9-3.9-1.9Z"/><path class="cls-63" d="M266.4,225.8s3.9,0.8,5.8,6.6l2.9-1.5s0.1-2.2-3.1-4.7-3.9-1.9-3.9-1.9Z"/><path class="cls-64" d="M226.2,195.8s5.4,2.1,11.5-3l-2-4.4s-5.9,6.9-14.6,4.1Z"/><polygon class="cls-61" points="291.5 221.6 296.4 224.8 298.8 221.5 291.5 221.6"/><polygon class="cls-56" points="288.2 194.1 288.8 188.6 287.1 189.1 288.2 194.1"/><polygon class="cls-62" points="277.4 212.8 285.3 213.3 283.9 208.1 277.4 212.8"/><path class="cls-64" d="M297.4,199.7s-1.5,5.6,4.4,11l4.1-2.6s-7.6-5-6-14Z"/><path class="cls-64" d="M239.6,214s-1.5,5.6,4.4,11l4.1-2.6s-7.6-5-6-14Z"/><path class="cls-56" d="M247.8,331.8a1.42,1.42,0,1,0-2-.2h0a1.43,1.43,0,0,0,2,.2h0Z"/><path class="cls-57" d="M320,328.4a1.42,1.42,0,1,0-2-.2h0a1.43,1.43,0,0,0,2,.2h0Z"/><path class="cls-57" d="M288.4,351.5a3.14,3.14,0,0,0,.3-4.4h0a3.12,3.12,0,0,0-4.7,4.1h0a3,3,0,0,0,4.4.3h0Z"/><path class="cls-57" d="M266,299.3a3.14,3.14,0,0,0,.3-4.4h0a3.12,3.12,0,1,0-4.7,4.1h0a3.14,3.14,0,0,0,4.4.3h0Z"/><polygon class="cls-62" points="318.5 345.6 323.1 339.1 317.9 337.6 318.5 345.6"/><polygon class="cls-65" points="261.6 286.1 266.1 279.6 261 278.1 261.6 286.1"/><path class="cls-59" d="M245.6,297.5a4.59,4.59,0,0,0,6.1-.4l-0.6-2.3s-1.6,2.2-5.4,1.2Z"/><polygon class="cls-56" points="259.8 347.2 264 343.5 262.3 342.8 259.8 347.2"/><polygon class="cls-62" points="280.1 332.5 288 333 286.6 327.8 280.1 332.5"/><path class="cls-63" d="M296.8,314.7s3.9,0.8,5.8,6.6l2.9-1.5s0.1-2.2-3.1-4.7-3.9-1.9-3.9-1.9Z"/><path class="cls-63" d="M257,318.9s3.9,0.8,5.8,6.6l2.9-1.5s0.1-2.2-3.1-4.7-3.9-2-3.9-2Z"/><path class="cls-64" d="M216.8,289s5.3,2.2,11.5-3l-2-4.4s-5.9,6.9-14.6,4.1Z"/><polygon class="cls-61" points="282.1 314.8 287 317.9 289.5 314.6 282.1 314.8"/><polygon class="cls-56" points="278.8 287.3 279.4 281.7 277.7 282.3 278.8 287.3"/><polygon class="cls-62" points="268 306 275.9 306.5 274.5 301.3 268 306"/><path class="cls-64" d="M288,292.8s-1.5,5.6,4.4,11l4.1-2.6s-7.6-5-6-14Z"/><path class="cls-64" d="M230.3,307.1s-1.5,5.6,4.4,11l4.1-2.6s-7.6-5-5.9-14Z"/><path class="cls-56" d="M105.3,425.5a1.42,1.42,0,1,0-2-.2h0a1.53,1.53,0,0,0,2,.2h0Z"/><path class="cls-57" d="M177.4,422.1a1.42,1.42,0,1,0-2-.2h0a1.53,1.53,0,0,0,2,.2h0Z"/><path class="cls-57" d="M145.8,445.2a3.14,3.14,0,0,0,.3-4.4h0a3.12,3.12,0,0,0-4.7,4.1h0a3.06,3.06,0,0,0,4.4.3h0Z"/><path class="cls-57" d="M123.4,392.9a3.14,3.14,0,0,0,.3-4.4h0a3.12,3.12,0,0,0-4.7,4.1,3,3,0,0,0,4.4.3c0,0.1.1,0.1,0,0h0Z"/><polygon class="cls-62" points="176 439.3 180.6 432.8 175.4 431.3 176 439.3"/><polygon class="cls-65" points="119.1 379.8 123.6 373.3 118.5 371.8 119.1 379.8"/><path class="cls-59" d="M103.1,391.2a4.59,4.59,0,0,0,6.1-.4l-0.6-2.3s-1.6,2.2-5.4,1.2Z"/><polygon class="cls-56" points="117.3 440.9 121.4 437.2 119.8 436.5 117.3 440.9"/><polygon class="cls-62" points="137.6 426.2 145.5 426.7 144.1 421.5 137.6 426.2"/><path class="cls-63" d="M154.3,408.4s3.9,0.8,5.8,6.6l2.9-1.5s0.1-2.2-3.1-4.7-3.9-2-3.9-2Z"/><path class="cls-63" d="M114.5,412.6s3.9,0.8,5.8,6.6l2.9-1.5s0.1-2.2-3.1-4.7-3.9-2-3.9-2Z"/><path class="cls-64" d="M74.3,382.7s5.3,2.2,11.5-3l-2-4.4s-5.9,6.9-14.6,4.1Z"/><polygon class="cls-61" points="139.6 408.5 144.5 411.6 147 408.4 139.6 408.5"/><polygon class="cls-56" points="136.3 380.9 136.9 375.4 135.2 376 136.3 380.9"/><polygon class="cls-62" points="125.5 399.7 133.4 400.2 132 395 125.5 399.7"/><path class="cls-64" d="M145.5,386.5s-1.5,5.6,4.4,11l4.1-2.6s-7.6-5-5.9-13.9Z"/><path class="cls-64" d="M87.7,400.8s-1.5,5.6,4.4,11l4.1-2.6s-7.6-5-5.9-13.9Z"/><path class="cls-58" d="M341.3,425.2a2.41,2.41,0,0,0-3.2-3.6h0a2.41,2.41,0,0,0,3.2,3.6h0Z"/><path class="cls-59" d="M330.2,442.6a4.59,4.59,0,0,0,6.1-.4l-0.6-2.3s-1.7,2.1-5.5,1.1v1.6Z"/><polygon class="cls-62" points="335.9 394 343.8 394.5 342.4 389.4 335.9 394"/><path class="cls-56" d="M338.5,476.3a1.42,1.42,0,1,0-2-.1,1.42,1.42,0,0,0,2,.1h0Z"/><path class="cls-57" d="M356.7,443.8a3.12,3.12,0,1,0-4.4-.3h0a3.14,3.14,0,0,0,4.4.3h0Z"/><polygon class="cls-65" points="352.3 430.6 356.9 424.1 351.7 422.6 352.3 430.6"/><path class="cls-59" d="M336.4,442.1a4.59,4.59,0,0,0,6.1-.4l-0.6-2.3s-1.6,2.2-5.4,1.2Z"/><path class="cls-63" d="M387.5,459.2s3.9,0.8,5.8,6.6l2.9-1.5s0.1-2.2-3.1-4.7-3.9-2-3.9-2Z"/><path class="cls-63" d="M347.7,463.5s3.9,0.8,5.8,6.6l2.9-1.5s0.1-2.2-3.1-4.7-3.9-2-3.9-2Z"/><polygon class="cls-61" points="372.8 459.4 377.7 462.5 380.2 459.2 372.8 459.4"/><polygon class="cls-56" points="369.5 431.8 370.1 426.2 368.4 426.9 369.5 431.8"/><polygon class="cls-62" points="358.7 450.5 366.6 451 365.2 445.9 358.7 450.5"/><path class="cls-64" d="M378.7,437.4s-1.5,5.6,4.5,11l4.1-2.6s-7.6-5-6-14Z"/><path class="cls-58" d="M287.1,126.2a2.41,2.41,0,1,0-3.4-.2h0a2.39,2.39,0,0,0,3.4.2h0Z"/><path class="cls-59" d="M275.9,143.6a4.59,4.59,0,0,0,6.1-.4l-0.6-2.3s-1.6,2.2-5.4,1.2Z"/><polygon class="cls-62" points="281.7 95 289.6 95.5 288.2 90.3 281.7 95"/><path class="cls-56" d="M284.3,177.3a1.42,1.42,0,0,0-1.9-2.1,1.42,1.42,0,0,0,1.9,2.1h0Z"/><path class="cls-57" d="M302.4,144.8a3.12,3.12,0,1,0-4.4-.3h0a3.15,3.15,0,0,0,4.4.3h0Z"/><polygon class="cls-65" points="298.1 131.6 302.6 125.1 297.5 123.6 298.1 131.6"/><path class="cls-59" d="M282.1,143.1a4.6,4.6,0,0,0,6.1-.4l-0.6-2.3s-1.6,2.2-5.4,1.2Z"/><path class="cls-63" d="M333.3,160.2s3.9,0.8,5.8,6.6l2.9-1.5s0.1-2.2-3.1-4.7-3.9-1.9-3.9-1.9Z"/><path class="cls-63" d="M293.5,164.5s3.9,0.8,5.8,6.6l2.9-1.5s0.1-2.2-3.1-4.7-3.9-1.9-3.9-1.9Z"/><polygon class="cls-61" points="318.6 160.4 323.5 163.5 326 160.2 318.6 160.4"/><polygon class="cls-56" points="315.3 132.8 315.9 127.2 314.2 127.9 315.3 132.8"/><polygon class="cls-62" points="304.5 151.6 312.4 152 311 146.8 304.5 151.6"/><path class="cls-64" d="M324.5,138.4s-1.5,5.6,4.4,11l4.1-2.6s-7.6-5-6-14Z"/><path class="cls-63" d="M291.8,587.6s3.9,0.8,5.8,6.6l2.9-1.5s0.1-2.2-3.1-4.7-3.9-2-3.9-2Z"/><polygon class="cls-61" points="277.1 587.7 282 590.8 284.5 587.6 277.1 587.7"/><polygon class="cls-56" points="273.8 560.2 274.4 554.6 272.8 555.2 273.8 560.2"/><path class="cls-64" d="M283,565.8s-1.5,5.6,4.4,11l4.1-2.6s-7.6-5-6-14Z"/><path class="cls-63" d="M69.3,230.3s3.9,0.8,5.8,6.6l2.9-1.6s0.1-2.2-3.1-4.7-3.9-1.9-3.9-1.9Z"/><polygon class="cls-61" points="54.6 230.4 59.5 233.5 61.9 230.3 54.6 230.4"/><polygon class="cls-56" points="51.3 202.8 51.9 197.3 50.2 197.9 51.3 202.8"/><path class="cls-64" d="M60.5,208.4s-1.5,5.6,4.4,11l4.1-2.6s-7.6-5-5.9-14Z"/><path class="cls-63" d="M225.7,33s3.9,0.8,5.8,6.6l2.9-1.5s0.1-2.2-3.1-4.7-3.9-2-3.9-2Z"/><polygon class="cls-61" points="211 33.1 215.9 36.2 218.4 33 211 33.1"/><polygon class="cls-56" points="207.7 5.6 208.4 0 206.7 0.6 207.7 5.6"/><path class="cls-64" d="M216.9,11.2s-1.5,5.6,4.4,11l4.1-2.6s-7.6-5-5.9-13.9Z"/><path class="cls-68" d="M354.2,372.2a29.06,29.06,0,0,1-3.5-1.8c-1.7-.9-4.2.6-5.9,3.2l-2.9,4.8a5.78,5.78,0,0,0,.5,6.3l0.1,0.1a36.22,36.22,0,0,0,3.6,4.2,6.38,6.38,0,0,1,.8,1.4,3.19,3.19,0,0,1-2,3.9l-0.2.1a3.55,3.55,0,0,1-4.1-2.3,3.21,3.21,0,0,1-.1-1.4,3.25,3.25,0,0,0-1.2-2.9c-1.1-1.2-3.2,1.1-3.8,3.2v0.1a15.79,15.79,0,0,0-.9,4.2c0,0.1.1,0.2,0.1,0.3a3.6,3.6,0,0,1-1.4,4.8h-0.1a3.67,3.67,0,0,1-5-1.5h0a3.6,3.6,0,0,1,1.4-4.8h0.1a1,1,0,0,1,.3-0.1,9.49,9.49,0,0,0,.9-2.1c0.3-1.1.6-2,.6-2a0.37,0.37,0,0,1,.1-0.3l1.8-6.3-1.8,3.8c-0.3-.8-0.6-0.8-1.5-0.1a21,21,0,0,0-1.7,1.4,6.58,6.58,0,0,0-1.7,2.3,2.84,2.84,0,0,1-.8,1.1,3.19,3.19,0,0,1-4.5-.4l-0.1-.1a3,3,0,0,1,.6-4.2,3.51,3.51,0,0,1,1.4-.6,39.89,39.89,0,0,0,5.3-3c0.3-.2.5-0.4,0.8-0.6l4.4-3.2-3.9,2.1H329c-1.2.1-2.7,0.3-3,.8l-0.6.6a3.69,3.69,0,0,1-4.1-.9,2.83,2.83,0,0,1,.6-3.9,3.61,3.61,0,0,1,2-.6c1.1,0,3.8.6,6,.1l0.6-.1a9.6,9.6,0,0,0,6-4.4s1.1-2,2.4-4.1c1.4-2.3,1.2-4.7-.1-5.6l-2.6-1.5a5.1,5.1,0,0,0-4.8,0L313.6,372a5.4,5.4,0,0,0-2.4,4.2v19.3a4.87,4.87,0,0,0,2.4,3.9l18,10a5.1,5.1,0,0,0,4.8,0l17.7-10.2a4.87,4.87,0,0,0,2.4-3.9V376.1a4.54,4.54,0,0,0-2.3-3.9h0Z"/><path class="cls-69" d="M122.5,513.3a0.34,0.34,0,0,1,.2.3v0.1l-3.9,9.7a2,2,0,0,1-.6.9,2.36,2.36,0,0,1-.9.6,3.12,3.12,0,0,1-2.2,0l-0.8-.3a2,2,0,0,1-.9-0.6,2.73,2.73,0,0,1-.8-1.9,3.59,3.59,0,0,1,.2-1.1l0.9-2.2a0.42,0.42,0,0,1,.4-0.3l2.1,0.3c0.2,0,.3.1,0.2,0.3l-1.1,2.8a0.3,0.3,0,0,0,0,.4l0.3,0.3,0.2,0.1a0.3,0.3,0,0,0,.4,0l0.3-.3,3.8-9.6a0.34,0.34,0,0,1,.3-0.2h0.1l1.8,0.7h0Zm3.2,15.4a0.22,0.22,0,0,1-.2.2h-0.1l-1.9-.8c-0.2-.1-0.3-0.2-0.2-0.4h0l0.6-2.1-1.3-.5-1,2a0.34,0.34,0,0,1-.4.2h0l-1.9-.8a0.25,0.25,0,0,1-.2-0.3,0.1,0.1,0,0,1,.1-0.1l6.3-11.2a0.4,0.4,0,0,1,.4-0.2h0l2.7,1.1a0.25,0.25,0,0,1,.2.4h0l-3.1,12.5h0Zm-1-5.5,1.4-4.7-0.2-.1-2.2,4.4,1,0.4h0Zm10.6-4.8a2.84,2.84,0,0,1,.9.6,2.36,2.36,0,0,1,.6.9,3.55,3.55,0,0,1,.2,1,3.59,3.59,0,0,1-.2,1.1l-2.9,7.2a2,2,0,0,1-.6.9,2.36,2.36,0,0,1-.9.6,3.12,3.12,0,0,1-2.2,0l-3.1-1.2a0.34,0.34,0,0,1-.2-0.3v-0.1l4.8-11.8a0.34,0.34,0,0,1,.3-0.2h0.1l3.2,1.3h0Zm-0.9,2.8a0.3,0.3,0,0,0,0-.4l-0.3-.3-0.7-.3-3.2,8,0.7,0.3a0.3,0.3,0,0,0,.4,0l0.3-.3,2.8-7h0Zm6.2,11.3-0.7,1.8a0.34,0.34,0,0,1-.3.2h-0.1l-4.5-1.8a0.34,0.34,0,0,1-.2-0.3v-0.1l4.8-11.8a0.34,0.34,0,0,1,.3-0.2H140l4.5,1.8a0.34,0.34,0,0,1,.2.3v0.1l-0.7,1.8a0.34,0.34,0,0,1-.3.2h-0.1l-2.4-1-0.9,2.4,2,0.8a0.34,0.34,0,0,1,.2.3v0.1l-0.7,1.9a0.34,0.34,0,0,1-.3.2h-0.3l-2-.8-1.1,2.8,2.4,1a0.19,0.19,0,0,1,.1.3c0.1,0.1.1,0.1,0,.1h0v-0.1Z"/><path class="cls-70" d="M143.4,505.5a0.3,0.3,0,0,1-.1.4h-0.1a2.3,2.3,0,0,1-1.4-.4c-0.7-.4-1.6-0.8-1.7-1.6h0c-0.4-.5.5-0.3,0.8-0.3a5.3,5.3,0,0,1,1.5.8,2.08,2.08,0,0,1,1,1.1h0Zm2.4,13.8a3,3,0,0,0-.8.8,2,2,0,0,1-1.3-.2c-1.4-.5-2.6-1.2-4-1.6a3.55,3.55,0,0,0-1-.2,0.6,0.6,0,0,1-.4-0.1,1.12,1.12,0,0,0-.7-0.8,1.17,1.17,0,0,1-1,0c-0.4-.7-1.2-0.5-1.9-0.7a17.6,17.6,0,0,0-2-.9,3,3,0,0,1-1.6-.5c-0.4-.4-0.4-0.9.2-1.1a4,4,0,0,1,2.8.4c1.3,0.6,2.7,1.1,4.1,1.6v0.1h0a1.36,1.36,0,0,0,1.6-.1c0.1,0,.1,0,0.1.1h0c0.2,0.9,1.1.3,1.7,0.7a0.42,0.42,0,0,1,.3.4v0.3c-0.1.4,0.4,0.5,0.5,0.1h0.1a1.25,1.25,0,0,0,1.6.4,3.81,3.81,0,0,0,1.1-1.4c0.6-1.4,1.1-2.8,1.6-4.3a20.5,20.5,0,0,1,1.6-4.1,28.75,28.75,0,0,0,1.8-4,19,19,0,0,1,.9-2.1c0.3-.6.6-1.3,0.9-2s0-1.2.2-1.9a3.61,3.61,0,0,1,.8-1.5,4.7,4.7,0,0,0,.6-0.9l0.3-.9a0.68,0.68,0,0,1,.3-0.5,0.34,0.34,0,0,0,.1-0.6c-0.9-.5-1.6-1.5-2.7-1.2l-0.3.6,0.1,0.2a2.09,2.09,0,0,0,.6.4l0.9,0.3a0.45,0.45,0,0,1,.2.6h0l-0.1.1a1.27,1.27,0,0,1-.6.4,2.07,2.07,0,0,0-.6,1c-0.4.9-.7,1.7-1,2.5s-0.5,1.5-.7,2.2V501c-0.3.8-.3,1.7-0.6,2.5l-0.6.9c-0.4,1-1.3,2.9-1.3,2.9a25.75,25.75,0,0,0-2.1,5.2,12.44,12.44,0,0,1-1,2,22.88,22.88,0,0,1-1,2.3,0.1,0.1,0,0,1-.1.1h0a22.7,22.7,0,0,1-5-1.7,3.26,3.26,0,0,0-1.3-.4,1.27,1.27,0,0,1-.6-0.1,2.36,2.36,0,0,1-.5-0.5,5.58,5.58,0,0,0-.8-0.5,4.79,4.79,0,0,0-2-.7,1.61,1.61,0,0,1-1.1-.5,1.52,1.52,0,0,0-1.2-.7h-0.7a0.55,0.55,0,0,1-.5-0.3,1.39,1.39,0,0,0-1-.5c0,0.1,0,.1-0.1.1h-0.1c-2.3-1.1-4.8-1.8-7.2-2.7h-0.4v-0.3a4.14,4.14,0,0,1,.5-1.9c1-2.2,1.6-4.5,2.4-6.7a18.67,18.67,0,0,1,1.5-3.2,14.62,14.62,0,0,0,1.6-3.6c0.9-2.5,2.1-4.8,3-7.2h0a5,5,0,0,1,2,.8h0.2l0.7,0.3h0c1.3,0.5,2.6.9,3.9,1.4a5.73,5.73,0,0,0,1.4.4,2.2,2.2,0,0,1,.8.1,8.64,8.64,0,0,1,1.6,1c0.4,0.2.9-.3,1.2,0a4.25,4.25,0,0,0,1.7,1c0.3,0.1.7,0.2,1,.3s0.3,0.2.5,0.3a1.06,1.06,0,0,1,.5.2l3,1.1a6,6,0,0,0,1.9.6,0.6,0.6,0,0,0,.4-0.1v-0.2a0.37,0.37,0,0,0-.1-0.3,7.5,7.5,0,0,0-2-1,23.07,23.07,0,0,0-2.8-1,20,20,0,0,1-2.6-1c-0.5-.2-1.3-0.9-1.9-0.7h-0.1c-0.6-1-2-.4-2.9-1.1a5.07,5.07,0,0,0-1.6-.9c-0.6-.2-1.2-0.3-1.8-0.5-1.3-.5-2.6-1-3.8-1.5a3,3,0,0,1-.8-0.4,1.08,1.08,0,0,0-.7-0.3c-0.4,0-.5.1-0.5,0.2-0.2.2-.3,0.4-0.5,0.6l-0.3.6a14.14,14.14,0,0,1-1.3,2.4,3.61,3.61,0,0,0-.8,1.5c0,0.3.1,0.6,0.1,0.9a5.26,5.26,0,0,1-.4,1.7l-2.1,5c-0.7,1.6-1.5,3.3-2.1,5a38,38,0,0,1-1.8,4.7c-0.3.5-1.3,1.1-.8,1.8a2.29,2.29,0,0,0,1,.7,14.19,14.19,0,0,0,2.9,1l1.1,0.3a1.61,1.61,0,0,1,.7.4c0.2,0.2.5,0.4,0.7,0.6a0.45,0.45,0,0,0,.5,0,2.54,2.54,0,0,1,1.2.2,3.38,3.38,0,0,0,1.2.6,6.89,6.89,0,0,1,.8.3l0.1,0.1c0.1,0-.1.1-0.2,0.1-0.6,0-.7.7-1,1.2H128a0.54,0.54,0,0,1-.5-0.5c-0.1-.5-0.5-1.1-0.9-0.2h-0.1v-0.1a1.79,1.79,0,0,0-.5-0.7,1.15,1.15,0,0,0-.9-0.6h-0.7c-0.6.3-1.1,0.6-1.6,0.1a1.47,1.47,0,0,0-.5-0.6,1.42,1.42,0,0,1-.6.2,3,3,0,0,1-1.6-.5l-0.1-.1c0.1-.2.1-0.7-0.3-0.5l-0.3.1a2.27,2.27,0,0,1-.4.1,1.94,1.94,0,0,1-1.4-.9V509c0.2-.6.4-1.1,0.6-1.6,0.5-1.3.9-2.7,1.3-4a11.92,11.92,0,0,1,.8-2,5.67,5.67,0,0,1,.8-1.3,0.63,0.63,0,0,0,.1-0.9v-0.3a10.09,10.09,0,0,1,.7-1.5,9.25,9.25,0,0,0,.5-1,2.92,2.92,0,0,0,.2-0.9,0.76,0.76,0,0,1,.2-0.4,0.71,0.71,0,0,0,.3-0.6,5.09,5.09,0,0,1,.7-1.7,10.84,10.84,0,0,0,.8-1.9,12.93,12.93,0,0,1,.7-2.1l0.9-1.8c0.5-1.1,1-2.3,1.4-3.4l-0.1.3s0.5-1.5,1.2-1.6a7.64,7.64,0,0,1,3.3.8c1.3,0.5,2.6,1.1,3.9,1.7a9.51,9.51,0,0,0,2.4.7,7.49,7.49,0,0,1,1.6.5c0.6,0.3,1.2.7,1.8,1a15.39,15.39,0,0,0,1.9.8,36.94,36.94,0,0,1,4.2,1.7l2.1,1a3,3,0,0,0,1,.4h0.7a2.73,2.73,0,0,1,1.2.6l1.5,1a0.55,0.55,0,0,1,.5.3c0.2,0.4-.2.6-0.1,1a2,2,0,0,1,.1,1.3,3.48,3.48,0,0,1-.7,1.5,2.07,2.07,0,0,0-.6,1v0.8a6.61,6.61,0,0,1-.5,1.5c-0.3.6-.5,1.1-0.8,1.7a5.3,5.3,0,0,0-.6,1,2.92,2.92,0,0,0-.2.9c-0.2,1-1.3,1.3-1.8,2.1-0.3.5,0.4,0.5,0.5,0.8a1.45,1.45,0,0,1-.2.7,7.49,7.49,0,0,0-.5,1.6,7.1,7.1,0,0,0-.8,1.8,2.1,2.1,0,0,1-.4,1.1c-0.2.3-1,1.1-.5,1.5v0.1c-0.1.1-.2,0.3-0.3,0.4-0.5.5,0,.5-0.1,0.9a1.79,1.79,0,0,1-.5.7,10.26,10.26,0,0,0-.4,1.4,2.38,2.38,0,0,0-.6,1.1v0.1a0.91,0.91,0,0,1-.3.7c-0.2.3-.4,0.3-0.1,0.6,0.1,0,.1,0,0,0.1h0Zm0.1-17.9a21.35,21.35,0,0,0,.8-4.4c0-.6.2-1.3-0.4-1.6-0.8-.5-0.8.3-0.9,1-0.3,1.1-.5,2.2-0.7,3.3-0.1.8-.1,1.7-0.8,0.8-1.2-1.6-.9-3.9-0.9-5.6a14.08,14.08,0,0,0-.5-3.5,4.25,4.25,0,0,0-1.7-1c-0.7.1-.1,3.5,0,4a22,22,0,0,0,.5,3.7c0.2,0.9.7,1.8-.5,1.7s-1.6-.9-2.1-1.7a4.5,4.5,0,0,0-1.9-1.4,7.51,7.51,0,0,0-6.2-.9,7.12,7.12,0,0,0-2.7,1.8,15.58,15.58,0,0,0-1.6,2c-0.4-.2.3-1.1-0.5-0.8s-0.6,2-.6,2.6c0,1.3.1,2.6,0,3.9s0,1.3,1,1.9a33.11,33.11,0,0,0,4.2,1.2s-1.8-2.4,2.3,1.1a13,13,0,0,0,3.1,1.6c0.9,0.1,1.4-1.2,2.1-1.7a7.85,7.85,0,0,1,1.8-1.1,3.59,3.59,0,0,1,1,.7c1.8,1.1,3.1-.3,3.4-2a11.31,11.31,0,0,1,1.7-3.9,5,5,0,0,1,.1-1.7h0Zm-15.5,13.3a4.17,4.17,0,0,0-.6-0.8,0.3,0.3,0,0,1,0-.4h0a0.3,0.3,0,0,1,.4-0.3c0.1,0,.2,0,0.2.1a0.76,0.76,0,0,1,.2.4,1.76,1.76,0,0,1-.4.5,1.06,1.06,0,0,1,.2.5h0Z"/><path class="cls-71" d="M205.1,378.4l1.5-10.7,2-2.9a36.61,36.61,0,0,1-21.7-1.6l1.7,3.5-0.1,10.5c-0.1,1.1,3.5,2.3,8.1,2.7s8.4-.4,8.5-1.5"/><path class="cls-71" d="M207,327.9l1.8-5.3,8.1-7.3-1.9-1.8-8.6,7.8-2.1,6.3-3.6-.3c-8.4-.6-15.2-0.2-15.3,1s6.6,2.7,15,3.3,15.2,0.2,15.3-1c0.2-.9-3.5-1.9-8.7-2.7"/><path class="cls-2" d="M206,330.9h-1.2a3.29,3.29,0,0,1-1.7-.4,0.37,0.37,0,0,1-.1-0.3,0.32,0.32,0,0,1,.3-0.3l0.1,0.2a0.1,0.1,0,0,0-.1.1,6.46,6.46,0,0,0,3.1.2c0-.1-0.1-0.1-0.2-0.1l0.1-.2a0.35,0.35,0,0,1,.3.4,0.47,0.47,0,0,1-.6.4"/><path class="cls-71" d="M216.8,315.4a1.85,1.85,0,1,0-1.8-1.9,2.39,2.39,0,0,0,.5,1.4,1.54,1.54,0,0,0,1.3.5"/><path class="cls-71" d="M206.8,352c0-1.7,4.1-3.9,3.1-4.1-2.2,0-3.4,2.3-4.7,4.7-0.5.9-2.1,4.8-3,4.2s1.4-3.6,2.2-5.5c-0.7.4-3.3,2.1-3.8,0.3-1.1.8-3.3,1.1-2.9-1.2-0.6.9-1.9,2.1-3.3,1.5-1.9-.9,1.6-6.7,2.4-6.4s-0.3,1.7-.6,2.2c-0.6,1.1-1.3,2.6-.9,2.9,0.6,0.6,2.7-1.8,2.8-1.8,0.4-.4,1.6-3.4,2.4-3s-2.3,4.2-1.3,5a1.84,1.84,0,0,0,1.6-.5c0.4-.3.3-1.2,1.6-3.8s2.6-5.9,3.4-5.6,0,2-.3,2.6c-1.5,2.9-4.2,7.7-3.1,7.4a4.21,4.21,0,0,0,2.8-1.4c1.1-1.1,1.2-3.2,1.9-3.1s0.5,0.7.3,1.2c0.8-.7,3.4-2.2,3.9-0.5,0.6,2-4,4.5-2.9,4.4a6.19,6.19,0,0,0,3.7-2l3.4-18.1s-2.2,1.5-15.2.5-14.7-2.8-14.7-2.8l0.4,16.8c1.1-2.5,3.7-7.7,7.1-7.2,1.6,0.2,3.4,3.4,1.6,3.3-0.8,0-.7-1.6-1.6-1.9a2.65,2.65,0,0,0-2.2.8c-1.2,1-4.1,5.3-3.9,7.6,0.2,2.9,4-.7,4.7-1.8,0.5-.8.9-3.1,1.8-2.8s-0.3,2.7-1.1,4.8c-0.9,2.4-1.5,4.9-2.4,4.6s0.9-3.4.8-4c-0.9.7-2.7,2.7-4.7,1.5l0.3,10.5s2.7,2.5,11.3,3.1,11.8-1.3,11.8-1.3l2.3-11.9c-1.2,1-4.8,2.6-4.8.5"/></svg>