<svg id="_1" data-name="1" xmlns="http://www.w3.org/2000/svg" xmlns:xlink="http://www.w3.org/1999/xlink" viewBox="0 0 649.18 878.36"><defs><style>.cls-1{fill:#bc9642;}.cls-2{fill:#d3a74f;}.cls-3{fill:#aa873f;}.cls-4{fill:#fcc75b;}.cls-5{fill:#e8ba52;}.cls-6{fill:none;stroke:#937435;stroke-miterlimit:10;stroke-width:2px;}.cls-7{fill:#826533;}.cls-8{fill:#ddd1c3;}.cls-9{fill:#7f6b41;}.cls-10{fill:#28537e;}.cls-11,.cls-43,.cls-45,.cls-46,.cls-47{fill:#fff;}.cls-12{fill:#1e263b;}.cls-13{fill:#459db2;}.cls-14{fill:url(#radial-gradient);}.cls-15{fill:#4f6ca6;}.cls-16{fill:#000006;}.cls-17{fill:#0c6087;}.cls-18{fill:#363333;}.cls-19{fill:#385fab;}.cls-20{fill:#8ca6d1;}.cls-21{fill:#bd0006;}.cls-22{fill:url(#linear-gradient);}.cls-23{fill:url(#linear-gradient-2);}.cls-24{fill:url(#linear-gradient-3);}.cls-25{fill:url(#linear-gradient-4);}.cls-26{fill:url(#linear-gradient-5);}.cls-27{fill:url(#linear-gradient-6);}.cls-28{fill:url(#linear-gradient-7);}.cls-29{fill:url(#linear-gradient-8);}.cls-30{fill:url(#linear-gradient-9);}.cls-31{fill:url(#linear-gradient-10);}.cls-32{fill:url(#linear-gradient-11);}.cls-33{fill:url(#linear-gradient-12);}.cls-34{fill:#8a000b;}.cls-35{fill:url(#radial-gradient-2);}.cls-36{fill:url(#radial-gradient-3);}.cls-37{fill:url(#linear-gradient-13);}.cls-38{fill:url(#linear-gradient-14);}.cls-39{fill:#d73426;}.cls-40{fill:#d71b2a;}.cls-41{fill:#a31c25;}.cls-42{fill:#442b69;}.cls-43{stroke:#434d5b;stroke-width:0.05px;}.cls-44{fill:#d8000c;}.cls-45,.cls-46,.cls-47,.cls-53,.cls-55,.cls-60{isolation:isolate;}.cls-45,.cls-47{font-size:17.75px;}.cls-45{font-family:Edo;}.cls-46{font-size:17.75px;}.cls-46,.cls-47,.cls-84{font-family:Edo SZ;}.cls-48{fill:#f3da19;}.cls-49{fill:#141313;}.cls-50{fill:#1b4c88;}.cls-51{fill:#e6d896;}.cls-52{fill:#30301f;}.cls-53{font-size:68.87px;}.cls-53,.cls-54{fill:#ecc50d;}.cls-53,.cls-55{font-family:Hinwil;}.cls-55{font-size:34.43px;}.cls-56{fill:#1a1718;}.cls-57{fill:#ddc6b1;}.cls-58,.cls-60{fill:#fdf7e6;}.cls-59{fill:url(#linear-gradient-15);}.cls-60{opacity:0.65;}.cls-61{fill:#48751e;}.cls-62{fill:#149840;}.cls-63{fill:#fbe622;}.cls-64{fill:#e4001c;}.cls-65{fill:#1396d5;}.cls-66{fill:#0d6ebd;}.cls-67{fill:#e2122e;}.cls-68{fill:#e30079;}.cls-69{fill:#711d79;}.cls-70{fill:#329cdb;}.cls-71{fill:#273a88;}.cls-72{fill:#8d2057;}.cls-73{fill:#f28429;}.cls-74{fill:#d0841f;}.cls-75{fill:#e61d6d;}.cls-76{fill:#e61c2c;}.cls-77{fill:#cddc2c;}.cls-78{fill:#f9c421;}.cls-79{fill:#e72729;}.cls-80{fill:#e40068;}.cls-81{fill:#ac1521;}.cls-82{fill:#51c76d;}.cls-83{fill:#f4ecd6;fill-rule:evenodd;opacity:0.9;}.cls-84{font-size:24px;}.cls-85{fill:#478970;}.cls-86{fill:#b01422;}.cls-87{fill:#c53437;}</style><radialGradient id="radial-gradient" cx="-1080.45" cy="-673.64" r="100.15" gradientTransform="matrix(-0.46, 0, 0, 0.46, -133.49, 845.1)" gradientUnits="userSpaceOnUse"><stop offset="0" stop-color="#fff"/><stop offset="0.5" stop-color="#3c5784"/><stop offset="1" stop-color="#1a1718"/></radialGradient><linearGradient id="linear-gradient" x1="1101.3" y1="-38.1" x2="1101.26" y2="-38.02" gradientTransform="matrix(192.69, 63.67, 63.62, -192.54, -209654.88, -77173.45)" gradientUnits="userSpaceOnUse"><stop offset="0" stop-color="#f65f44"/><stop offset="0.41" stop-color="#d91318"/><stop offset="0.99" stop-color="#840004"/><stop offset="1" stop-color="#840004"/></linearGradient><linearGradient id="linear-gradient-2" x1="1090.53" y1="-38.79" x2="1090.35" y2="-38.73" gradientTransform="matrix(57.26, 18.92, 35.07, -106.13, -60949.13, -24483.45)" gradientUnits="userSpaceOnUse"><stop offset="0" stop-color="#720605"/><stop offset="0.99" stop-color="#7d040a"/><stop offset="1" stop-color="#7d040a"/></linearGradient><linearGradient id="linear-gradient-3" x1="1100.99" y1="-45.13" x2="1100.93" y2="-44.79" gradientTransform="matrix(178.81, 59.08, 6.9, -20.88, -196432.72, -65712.96)" xlink:href="#linear-gradient-2"/><linearGradient id="linear-gradient-4" x1="1093.63" y1="-38.84" x2="1093.66" y2="-38.95" gradientTransform="matrix(61.93, 20.46, 30.46, -92.2, -66435.53, -25707.06)" gradientUnits="userSpaceOnUse"><stop offset="0" stop-color="#fff"/><stop offset="0.23" stop-color="#db5c41"/><stop offset="0.46" stop-color="#d22519"/><stop offset="0.99" stop-color="#920007"/><stop offset="1" stop-color="#920007"/></linearGradient><linearGradient id="linear-gradient-5" x1="1097.51" y1="-39.22" x2="1097.52" y2="-39.32" gradientTransform="matrix(100, 33.04, 33.51, -101.43, -108316.94, -39996)" gradientUnits="userSpaceOnUse"><stop offset="0" stop-color="#fff"/><stop offset="0.23" stop-color="#da5b3e"/><stop offset="0.56" stop-color="#ad030d"/><stop offset="0.99" stop-color="#940004"/><stop offset="1" stop-color="#940004"/></linearGradient><linearGradient id="linear-gradient-6" x1="1095.91" y1="-41.75" x2="1095.93" y2="-41.87" gradientTransform="matrix(89.56, 29.59, 20.84, -63.07, -97142.59, -34823.27)" gradientUnits="userSpaceOnUse"><stop offset="0" stop-color="#fff"/><stop offset="0.18" stop-color="#da4c33"/><stop offset="0.4" stop-color="#b8100f"/><stop offset="0.99" stop-color="#940004"/><stop offset="1" stop-color="#940004"/></linearGradient><linearGradient id="linear-gradient-7" x1="1092.97" y1="-52.07" x2="1093.08" y2="-51.9" gradientTransform="matrix(67.19, 22.2, 7.62, -23.07, -72911.76, -25232.33)" gradientUnits="userSpaceOnUse"><stop offset="0" stop-color="#fff"/><stop offset="0.54" stop-color="#b80a10"/><stop offset="0.99" stop-color="#ae0009"/><stop offset="1" stop-color="#ae0009"/></linearGradient><linearGradient id="linear-gradient-8" x1="1064.81" y1="-40.03" x2="1064.85" y2="-40.13" gradientTransform="matrix(17.26, 5.7, 22.79, -68.98, -17362.55, -8586.83)" gradientUnits="userSpaceOnUse"><stop offset="0" stop-color="#fff"/><stop offset="0.31" stop-color="#d22a1c"/><stop offset="0.99" stop-color="#ae000c"/><stop offset="1" stop-color="#ae000c"/></linearGradient><linearGradient id="linear-gradient-9" x1="1100.28" y1="-38.83" x2="1100.48" y2="-38.63" gradientTransform="matrix(150.18, 49.62, 49.55, -149.96, -163216.88, -60165.43)" gradientUnits="userSpaceOnUse"><stop offset="0" stop-color="#ac0010"/><stop offset="0.07" stop-color="#fff"/><stop offset="0.17" stop-color="#fff"/><stop offset="0.27" stop-color="#b81b16"/><stop offset="0.33" stop-color="#6d0004"/><stop offset="0.46" stop-color="#8f0605"/><stop offset="0.72" stop-color="#a10006"/><stop offset="0.99" stop-color="#de0c0c"/><stop offset="1" stop-color="#de0c0c"/></linearGradient><linearGradient id="linear-gradient-10" x1="1098.97" y1="-38.93" x2="1098.9" y2="-38.9" gradientTransform="matrix(120.66, 39.87, 30.56, -92.49, -131292.54, -47148.61)" gradientUnits="userSpaceOnUse"><stop offset="0" stop-color="#780005"/><stop offset="0.54" stop-color="#840004"/><stop offset="0.99" stop-color="#94000e"/><stop offset="1" stop-color="#94000e"/></linearGradient><linearGradient id="linear-gradient-11" x1="1095.94" y1="-39.31" x2="1095.85" y2="-39.24" gradientTransform="matrix(89.26, 29.49, 33.13, -100.27, -96389.82, -36007.34)" gradientUnits="userSpaceOnUse"><stop offset="0" stop-color="#69070b"/><stop offset="0.99" stop-color="#8a0004"/><stop offset="1" stop-color="#8a0004"/></linearGradient><linearGradient id="linear-gradient-12" x1="1094.11" y1="-41.03" x2="1094.06" y2="-40.98" gradientTransform="matrix(75.68, 25, 25.66, -77.66, -81602.87, -30298.21)" gradientUnits="userSpaceOnUse"><stop offset="0" stop-color="#640a0c"/><stop offset="0.99" stop-color="#8a000c"/><stop offset="1" stop-color="#8a000c"/></linearGradient><radialGradient id="radial-gradient-2" cx="1095.78" cy="-42.75" r="0.11" gradientTransform="matrix(88.41, 29.21, 15.26, -46.2, -96095.24, -33735.84)" gradientUnits="userSpaceOnUse"><stop offset="0" stop-color="#940004"/><stop offset="0.99" stop-color="#69030a"/><stop offset="1" stop-color="#69030a"/></radialGradient><radialGradient id="radial-gradient-3" cx="1096.79" cy="-39.62" r="0.14" gradientTransform="matrix(92.52, 30.57, 23.8, -72.02, -100412.33, -36122.43)" gradientUnits="userSpaceOnUse"><stop offset="0" stop-color="#8f0004"/><stop offset="0.99" stop-color="#6b020a"/><stop offset="1" stop-color="#6b020a"/></radialGradient><linearGradient id="linear-gradient-13" x1="1086.61" y1="-39.35" x2="1086.53" y2="-39.21" gradientTransform="matrix(38.11, 12.59, 25.46, -77.05, -40307.31, -16449.66)" gradientUnits="userSpaceOnUse"><stop offset="0" stop-color="#771411"/><stop offset="0.43" stop-color="#8a000b"/><stop offset="0.99" stop-color="#a1000d"/><stop offset="1" stop-color="#a1000d"/></linearGradient><linearGradient id="linear-gradient-14" x1="1093.79" y1="-48.01" x2="1093.88" y2="-48.11" gradientTransform="matrix(74.16, 24.5, 10.24, -30.98, -80480.79, -28050.61)" gradientUnits="userSpaceOnUse"><stop offset="0" stop-color="#a10005"/><stop offset="0.44" stop-color="#7d000a"/><stop offset="0.99" stop-color="#64120f"/><stop offset="1" stop-color="#64120f"/></linearGradient><linearGradient id="linear-gradient-15" x1="1100.56" y1="-38.11" x2="1100.58" y2="-38.37" gradientTransform="matrix(188.46, 0, 0, -91.07, -207105.16, -3310.54)" gradientUnits="userSpaceOnUse"><stop offset="0" stop-color="#fc8524"/><stop offset="0.64" stop-color="#fb3324"/><stop offset="1" stop-color="#d81923"/></linearGradient></defs><title>toolbox</title><g id="box"><path class="cls-1" d="M383.08,329.37L209,472.26l266.36,64.39,173.8-154.88-0.22-4Z"/><path class="cls-2" d="M383.08,325.39L209,468.28l266.36,64.39,173.8-154.88Z"/><polygon class="cls-2" points="475.25 814.02 209.37 749.63 209.37 468.45 475.25 532.85 475.25 814.02"/><polygon class="cls-3" points="209.34 749.63 0.63 814.02 0.63 532.85 209.34 468.45 209.34 749.63"/><path class="cls-4" d="M209.34,468.46L0,532.8l266.36,64.39L475.44,532.8Zm49.35,111.49L57.26,532.8,213.08,487l202.53,47.1Z"/><polygon class="cls-5" points="266.36 878.36 0 813.97 0 532.8 266.36 597.19 266.36 878.36"/><polygon class="cls-1" points="475.44 813.97 266.36 878.36 266.36 597.19 475.44 532.8 475.44 813.97"/><polygon class="cls-1" points="223.46 826.65 42.89 783 42.89 584.51 223.46 628.16 223.46 826.65"/><polyline class="cls-6" points="42.89 783 42.89 584.51 223.46 628.16"/><polygon class="cls-3" points="440.77 780.89 303.61 823.14 303.61 630.27 440.77 588.02 440.77 780.89"/><polyline class="cls-6" points="303.61 630.27 440.77 588.02 440.77 780.89"/></g><g id="handle"><ellipse class="cls-7" cx="378.73" cy="697.41" rx="12.71" ry="6.35" transform="translate(-345.06 1022.92) rotate(-85.71)"/><path class="cls-8" d="M379.5,691.35h34c2.43,0,4.48-2,4.48-5.1V661.95c0-5.31,3.81-9.1,8-9.1h47v13.09H436.84c-3.31,0-5.37,1-5.37,5.19V695.2c0,5.42-2.7,9.62-9.44,9.62H379.5C375,704.82,375,691.35,379.5,691.35Z"/><path class="cls-9" d="M515.72,664.16c0,4.39-.71,5.3-4.15,5.3H465.52c-3.44,0-4.15-.91-4.15-5.3V654c0-4.39.71-5.3,4.15-5.3h46.05c3.44,0,4.15.91,4.15,5.3v10.17Z"/></g><path d="M162.36,449.94a1.67,1.67,0,0,0-1.38-1.11,3.17,3.17,0,0,0-1.1.06,9.94,9.94,0,0,1-1.7.22,32.82,32.82,0,0,0,3.47-8.26c1.15-4.46.54-6.5-.18-7.42a10,10,0,0,0-8-3.78,14.25,14.25,0,0,0-4.18.59,15.57,15.57,0,0,0-2.44-.22,7.94,7.94,0,0,0-4.26,1,19.43,19.43,0,0,0-3-.75c-2.94-.48-5.31-0.11-7,1.12-2.1,1.48-3.07,4.06-2.89,7.65a44,44,0,0,0,1.7,7.91,27.32,27.32,0,0,0,1.83,4.67c0.9,1.71,1.87,2.72,3,3.08a2.91,2.91,0,0,0,2.88-.62,2.52,2.52,0,0,0,.61.52,4,4,0,0,0,1.14.48,6.13,6.13,0,0,0,4-.24c0,0.21,0,.41,0,0.58s0,0.55,0,.8a14.08,14.08,0,0,0,.53,4l0.07,0.21a4.81,4.81,0,0,0,1.2,2.11,3.58,3.58,0,0,0,2.53.94,5.68,5.68,0,0,0,1.18-.13,5.56,5.56,0,0,0,3.74-2.16c1-1.4,1.46-3.5,1.54-6.82l0-.27,0-.18,0.23,0h0.06a9.15,9.15,0,0,0,3.83-.66c0.76-.35,3.21-1.65,2.63-3.39"/><path class="cls-10" d="M160.16,450.28c-3.83.79-4.09-.51-4.09-0.51,4-6,5.73-13.6,4.27-15.47-4-5.08-10.86-2.68-11-2.62h0a13.65,13.65,0,0,0-2.55-.27,6.3,6.3,0,0,0-4,1.21S130.46,427.58,131,439c0.12,2.43,3.48,18.38,7.49,13.56,1.47-1.76,2.88-3.25,2.88-3.25a3.72,3.72,0,0,0,2.43.62l0.07-.06a2.68,2.68,0,0,0,0,.69c-1,1.15-.73,1.36-2.79,1.78s-0.86,1.2-.06,1.4a4.24,4.24,0,0,0,4.74-1.54l-0.06.24c0.4,0.32.69,2.11,0.64,3.73a10.26,10.26,0,0,0,.24,3.59c0.32,0.87.64,2.82,3.35,2.24,2.27-.49,3.44-1.75,3.61-3.85,0.12-1.49.38-1.27,0.4-2.61l0.21-.63c0.24-2,0-2.68,1.44-2.37l0.34,0a7.74,7.74,0,0,0,3.16-.53c1.7-.79,2.71-2.11,1-1.76h0"/><path class="cls-11" d="M143.46,440.09a1.19,1.19,0,0,0-.82.12,0.3,0.3,0,0,0-.12.2,0.58,0.58,0,0,0,.14.38,1.07,1.07,0,0,0,.68.42h0.11a0.88,0.88,0,0,0,.83-0.57,0.78,0.78,0,0,0-.82-0.56"/><path class="cls-11" d="M154.88,440.1h0a1.08,1.08,0,0,0-1.6.22,0.81,0.81,0,0,0,.75.5h0.1a1,1,0,0,0,.55-0.3,0.6,0.6,0,0,0,.2-0.41"/><path class="cls-11" d="M161.44,450.19c-0.15-.44-0.62-0.58-1.4-0.42-2.32.48-3.15,0.15-3.42-.05a31.85,31.85,0,0,0,4.08-9.15,17.38,17.38,0,0,0,.6-3.94,4.25,4.25,0,0,0-.62-2.66,9.05,9.05,0,0,0-7.32-3.42,12.54,12.54,0,0,0-4.23.67,10.55,10.55,0,0,0-2.38-.31,6.88,6.88,0,0,0-4.08,1.12,18.22,18.22,0,0,0-3.31-.87c-2.69-.43-4.82-0.1-6.34,1-1.82,1.29-2.66,3.59-2.49,6.84a42.93,42.93,0,0,0,1.66,7.68c1.29,4.24,2.7,6.64,4.18,7.14a1.87,1.87,0,0,0,.59.1,2.48,2.48,0,0,0,1.89-1.07c1.14-1.38,2.21-2.53,2.61-2.95a4.2,4.2,0,0,0,1.88.5v0.05l-0.33.41c-0.45.58-.55,0.69-2,1-0.41.09-1.52,0.31-1.53,1.09s1.3,1.2,1.45,1.24a6.22,6.22,0,0,0,1.51.2,4.4,4.4,0,0,0,3-1.13c0,3,.1,6,0.46,6.88a3.45,3.45,0,0,0,3.3,2.55,5.3,5.3,0,0,0,1.11-.13c2.38-.51,3.42-1.56,3.82-3.89,0.21-1.24.58-4.2,0.75-5.79a4.67,4.67,0,0,0,1.34.17,8,8,0,0,0,3-.58c0.86-.4,2.41-1.38,2.13-2.23h0Zm-5.67-10.74a9.65,9.65,0,0,1-.14,1.34,12.39,12.39,0,0,0-.17,1.57,11.91,11.91,0,0,0,.12,1.78,6.33,6.33,0,0,1-.28,3.61,4.7,4.7,0,0,1-.25-0.52c-0.07-.17-0.22-0.44-0.43-0.82-0.82-1.48-2.75-4.93-1.76-6.35,0.29-.42,1-0.85,2.91-0.62h0Zm-2.27-7.95a8,8,0,0,1,6.45,3.05c1.18,1.51-.12,8.36-3.88,14.28l-0.11-.14,0-.06a6.68,6.68,0,0,0,.61-4.6,11,11,0,0,1-.12-1.64,11.6,11.6,0,0,1,.16-1.46,9.2,9.2,0,0,0,.15-1.81,0.75,0.75,0,0,0,0-.25,10.14,10.14,0,0,0-2.31-4.35,10.42,10.42,0,0,0-3.68-2.76,12.4,12.4,0,0,1,2.76-.26h0Zm-15.36,20.72c-0.76.91-1.28,0.74-1.46,0.68-1.12-.37-2.43-2.75-3.58-6.51a42.54,42.54,0,0,1-1.62-7.45c-0.15-2.9.56-4.93,2.09-6,2.5-1.77,6.6-.71,8.25-0.17l-0.07.07c-2.71,2.73-2.64,7.4-2.64,7.69,0,0.11,0,.27,0,0.48a19.33,19.33,0,0,1-.1,3.9,4.94,4.94,0,0,0,1.3,4.13q0.16,0.17.34,0.32c-0.46.5-1.47,1.59-2.54,2.89h0Zm2.89-3.86a4,4,0,0,1-1-3.34,20.2,20.2,0,0,0,.11-4.09c0-.11,0-0.21,0-0.29a5.21,5.21,0,0,1,3.53-1,1.44,1.44,0,0,1,1.11,1.24c0.78,3.62.1,5.12-.44,6.33-0.11.25-.22,0.49-0.31,0.73l-0.07.19a12.36,12.36,0,0,0-.45,1.34,3.37,3.37,0,0,1-2.42-1.07h0Zm0.14,4.88a2.1,2.1,0,0,1-.63-0.27,3.09,3.09,0,0,1,.67-0.2c1.72-.35,2-0.6,2.56-1.34,0.13-.17.28-0.36,0.49-0.59h0a0.49,0.49,0,0,1,.71-0.18,1,1,0,0,1,.49.64,0.71,0.71,0,0,1-.06.59,3.75,3.75,0,0,1-4.24,1.35h0Zm9,8.36a2.56,2.56,0,0,1-3.33-1.85c-0.32-.79-0.47-4.36-0.36-8.29a0.47,0.47,0,0,0,0-.15,2,2,0,0,0-.06-0.28,1.92,1.92,0,0,0-1-1.25,1.47,1.47,0,0,0-1-.12,11.63,11.63,0,0,1,.41-1.24l0.07-.19c0.08-.21.18-0.44,0.28-0.67,0.57-1.27,1.35-3,.5-6.92a2.47,2.47,0,0,0-3-2,6.89,6.89,0,0,0-2.29.71l-0.26.14c0.12-1.48.59-4.24,2.32-6a5.7,5.7,0,0,1,4.32-1.62,9.16,9.16,0,0,1,7,3.34,10.62,10.62,0,0,1,1.91,3.28c-1.77-.18-3,0.17-3.58,1-1.33,1.9.73,5.58,1.71,7.35,0.18,0.32.34,0.6,0.39,0.72a6.57,6.57,0,0,0,1,1.68l0.25,0.33c-0.54.15-1.5,0.51-1.41,2.3-0.07.9-.57,5.09-0.83,6.57-0.34,2-1.06,2.69-3.08,3.12h0Zm8.76-10a6.91,6.91,0,0,1-2.34.49,2.93,2.93,0,0,1-1.57-.2c-0.05-1.11.36-1.23,0.8-1.35l0.2-.06,0.13,0.1c0.77,0.51,2.15.57,4.1,0.16h0a5.24,5.24,0,0,1-1.35.87h0Z"/><path class="cls-12" d="M119.18,164.22a0.52,0.52,0,0,1-.37.57,4.6,4.6,0,0,0-2.18-.17c-0.84.12-1.54,0.43-1.4,1s1,0.86,2.45.63c3.53-.52,3.35-2.92,8.53-3.72,4-.62,6.38.49,6.78,2,0.31,1.17-.6,2.38-3.53,2.8-2.59.4-4.16-.22-4.34-0.92-0.09-.37.08-0.92,1.32-1.13,0.17,0.57.92,1.13,2.6,0.86,1.21-.18,2.2-0.68,2-1.35s-1.49-1-3.51-.73c-4.1.63-5,3-8.48,3.48-2.49.39-4.57-.4-4.93-1.73-0.13-.5-0.21-1.69,2.42-2.08,1.35-.18,2.44,0,2.61.52h0Zm-12.32,15a7,7,0,0,0-1.26,4.9A5.6,5.6,0,0,0,108,188a5.33,5.33,0,0,0,4.53.77,15.22,15.22,0,0,0,2-.77,5.64,5.64,0,0,1-3.74-1.13,5.5,5.5,0,0,1-2.53-3.61,5,5,0,0,1,.57-4,5.29,5.29,0,0,1,3.53-2.22,6.4,6.4,0,0,1,4.34,1,9.25,9.25,0,0,0-1.22-1.08,5.46,5.46,0,0,0-4.66-.63,6.92,6.92,0,0,0-4,2.89h0Zm17.65-8.93a54.34,54.34,0,0,1-11.13-.37c-3.06-.56-4.7-1.27-4.76-2.32a1.52,1.52,0,0,1,.73-1.3c-1.85.86-2.83,1.53-2.77,2.48s1.92,2,5.42,2.59a52.49,52.49,0,0,0,12.49.49,51.89,51.89,0,0,0,12.34-2c3.4-1,5-2.21,4.93-3.22,0-.74-0.83-1.41-2.22-1.87a1.15,1.15,0,0,1,.6.88c0.06,1-1.44,2-4.54,2.89a52.33,52.33,0,0,1-11.1,1.77h0Zm12.63,2.14a56.31,56.31,0,0,1-12.34,2,58.74,58.74,0,0,1-12.59-.48c-3-.57-4.56-1.28-5.15-2.09a30.85,30.85,0,0,0,4.08,9.94c1.37,1.82,2.72,3.4,4.08,5.11a13.15,13.15,0,0,1,1.34,3.08,6.07,6.07,0,0,0,3.59,2.09,14.12,14.12,0,0,0,5.6.47h0.2a15.75,15.75,0,0,0,5.67-1.16,6.48,6.48,0,0,0,3.21-2.51h0.1a12.76,12.76,0,0,1,.86-3.21c1.14-1.87,2.29-3.6,3.43-5.58A32.76,32.76,0,0,0,142,169.67c-0.62,1-2.12,1.9-4.89,2.71h0Z"/><path class="cls-13" d="M175.81,559.59a22.77,22.77,0,1,0,12.77,29.56,22.76,22.76,0,0,0-12.77-29.56h0Zm-15.26,38.49a18.67,18.67,0,1,1,24.19-10.45,18.68,18.68,0,0,1-24.19,10.45h0Zm2.27-12.46-3.95-8.25,8.55-3.38,2.17-5.47-16.42,6.58,7.47,16Zm11.32-15.29L172,575.79l3.92,8.32-8.52,3.3-2.17,5.47,16.39-6.51Z"/><ellipse class="cls-14" cx="352.65" cy="521.17" rx="35.31" ry="18.56" transform="translate(-141.33 131.34) rotate(-17.64)"/><ellipse class="cls-15" cx="352.65" cy="521.17" rx="33.93" ry="17.19" transform="translate(-141.33 131.34) rotate(-17.64)"/><path class="cls-11" d="M344.41,517.94l1,8.76c0.23,2,1,3.28,2.21,3.84s2.9,0.47,5.21-.27l2.79-.89,0.52,4.35a0.58,0.58,0,0,0,.25.41,0.5,0.5,0,0,0,.45.06l3.84-1.22a0.56,0.56,0,0,0,.39-0.59l-1.07-9.3a4.91,4.91,0,0,0,2,2.16c1.54,0.93,3.51,1,5.9.27l7.39-2.35a0.56,0.56,0,0,0,.39-0.59l-2.21-18.87a0.58,0.58,0,0,0-.25-0.41,0.5,0.5,0,0,0-.45-0.06l-3.86,1.23a0.56,0.56,0,0,0-.39.59l0.52,4.55-2.87.91a13.22,13.22,0,0,0-3.61,1.67,7.82,7.82,0,0,0-2.23,2.53,8.91,8.91,0,0,0-1,2.54l-0.44-3.77a0.58,0.58,0,0,0-.25-0.41,0.5,0.5,0,0,0-.45-0.06l-3.84,1.22a0.56,0.56,0,0,0-.39.59l1.2,10.33-2.63.84a2.32,2.32,0,0,1-1.65.18,1.78,1.78,0,0,1-.49-1.35l-1-8.34a0.58,0.58,0,0,0-.25-0.41,0.5,0.5,0,0,0-.45-0.06l-3.94,1.25A0.77,0.77,0,0,0,344.41,517.94Zm19.94,1.19a4.38,4.38,0,0,1,.5-3.06,5.56,5.56,0,0,1,2.91-1.77l1.71-.54,0.79,6.75-2.21.7c-1.63.52-2.4,0.39-2.75,0.18A3.16,3.16,0,0,1,364.36,519.12Z"/><path class="cls-11" d="M331.74,534.88c1.54,0.93,3.51,1,5.9.27l7.44-2.37a0.56,0.56,0,0,0,.39-0.59l-2.2-18.84a0.58,0.58,0,0,0-.25-0.41,0.5,0.5,0,0,0-.45-0.06l-3.86,1.23a0.56,0.56,0,0,0-.39.59l0.52,4.55-2.87.91a13.22,13.22,0,0,0-3.61,1.67,7.82,7.82,0,0,0-2.23,2.53,8.88,8.88,0,0,0-1,2.64,9.19,9.19,0,0,0-.12,2.82C329.28,532.24,330.19,533.92,331.74,534.88Zm2.47-6.17a4.38,4.38,0,0,1,.5-3.06,5.56,5.56,0,0,1,2.91-1.77l1.71-.54,0.79,6.75-2.21.7c-1.63.52-2.4,0.39-2.75,0.18A2.93,2.93,0,0,1,334.21,528.71Z"/><path class="cls-16" d="M368.23,521.74c-1.47.47-2.53,0.51-3.2,0.12s-1.07-1.28-1.23-2.68a4.9,4.9,0,0,1,.61-3.44,6,6,0,0,1,3.19-2l2.34-.74,0.91,7.87Zm4.66-17.92L369,505l0.58,5-3.31,1.05a12.06,12.06,0,0,0-3.45,1.62,7.24,7.24,0,0,0-2.08,2.37,8.28,8.28,0,0,0-1,2.47,8,8,0,0,0-.09,2.63c0.25,2.24,1.08,3.77,2.48,4.62s3.22,0.92,5.45.21l7.44-2.37Z"/><path class="cls-16" d="M360.5,532.48l-3.84,1.22-0.58-5-3.42,1.09c-2.16.69-3.74,0.79-4.8,0.28s-1.68-1.64-1.9-3.42l-1-8.76,3.89-1.24,1,8.34a2.21,2.21,0,0,0,.76,1.76,2.84,2.84,0,0,0,2.08-.11l3.08-1-1.26-10.8,3.84-1.22Z"/><path class="cls-16" d="M338.08,531.33c-1.47.47-2.53,0.51-3.2,0.12s-1.07-1.28-1.23-2.68a4.9,4.9,0,0,1,.61-3.44,6,6,0,0,1,3.19-2l2.34-.74,0.91,7.87Zm4.66-17.92-3.86,1.23,0.58,5-3.31,1.05a12.06,12.06,0,0,0-3.45,1.62,7.24,7.24,0,0,0-2.08,2.37,8.28,8.28,0,0,0-1,2.47,8,8,0,0,0-.09,2.63c0.25,2.24,1.08,3.77,2.48,4.62s3.22,0.92,5.45.21l7.44-2.37Z"/><g id="Layer_2" data-name="Layer 2"><path class="cls-17" d="M229.52,299.73l-4.27-1.6-0.17.45c1.34,0.5,1.44.87,0.81,2.56l-1.15,3.05c-0.64,1.69-1,1.92-2.3,1.42a4.65,4.65,0,0,1-2-2.74l-0.65-1.6a2.56,2.56,0,0,0,3.11-1.39c0.49-1.31-.25-2.73-2.35-3.52l-4.2-1.58-0.17.45c1.34,0.5,1.44.87,0.81,2.56l-1.15,3.05c-0.64,1.69-1,1.92-2.3,1.42l-0.17.45,4.75,1.78,0.17-.45c-1.34-.5-1.43-0.89-0.8-2.59l0.32-.86,0.41,0.15,1.4,4.31,6.94,2.6c3.41,1.28,5.57,0,6.38-2.15S232.93,301,229.52,299.73Zm-11.45.14,1.19-3.17,1,0.37a1.69,1.69,0,0,1-1.19,3.17l-1-.37h0Zm8.82,7.09-0.17-.06c-0.86-.32-0.9-0.58-0.49-1.68l1.94-5.18,1.14,0.43c2.48,0.93,2.25,2.91,1.73,4.32S229.36,307.89,226.88,307Z"/><path class="cls-17" d="M201.25,294.56l3.47-4.25c1-1.23.94-1.71-.58-2.29l0.18-.48,4.48,1.68-0.18.48c-1.5-.56-2-0.34-3.24,1.18L199.6,298l-0.31-.12,0.37-8.38-5.28,6.54-0.31-.12,0.41-9.15c0.08-2-.17-2.46-1.55-3l0.18-.48,5.3,2-0.18.48c-1.41-.53-1.91-0.34-2,1.33L196,292.6l5.09-6.25,0.45,0.17Z"/><path class="cls-17" d="M208.05,301.09a4.6,4.6,0,1,1,6.38-2.5A4.88,4.88,0,0,1,208.05,301.09Zm2.94-7.82c-2.19-.82-3.7.87-4.28,2.42s-0.56,3.82,1.63,4.64,3.72-.84,4.31-2.41S213.21,294.09,211,293.26Z"/><path class="cls-18" d="M237.5,311.24l-0.18.48-5.46-2,0.18-.48c1.6,0.6,2,.3,2.93-2.08l1.43-3.82c0.9-2.39.75-2.87-.85-3.47l0.18-.48,4.94,1.85c2.46,0.92,3.34,2.7,2.71,4.39s-2.46,2.42-4.92,1.5l-1.36-.51-0.44,1.17C235.76,310.12,235.9,310.64,237.5,311.24Zm2.85-9.19-1.36-.51-1.56,4.15,1.36,0.51a2,2,0,0,0,2.73-1.32A2,2,0,0,0,240.35,302Z"/><path class="cls-18" d="M257.84,316.86l-0.28.38c-0.51.71-.88,0.89-2.57,0.26l-0.33-.13c-1.24-.47-1.35-0.83-0.71-2.53l0.41-1.1c1.86,0.7,1.94.92,1.48,2.16l0.45,0.17,1.33-3.55-0.45-.17c-0.47,1.24-.67,1.35-2.53.66l1-2.67,1.31,0.49c1.69,0.64,1.85,1,1.77,1.89l-0.05.5,0.38,0.14,0.67-2.3-7-2.63-0.17.45c1.34,0.5,1.44.87,0.81,2.56l-1.15,3.05c-0.58,1.55-.91,1.87-2,1.53a4.7,4.7,0,0,1-2-2.72l-0.65-1.6a2.56,2.56,0,0,0,3.11-1.39c0.49-1.31-.25-2.73-2.35-3.52l-4.2-1.58-0.17.45c1.34,0.5,1.44.87,0.81,2.56l-1.15,3.05c-0.64,1.69-1,1.92-2.3,1.42l-0.17.45,4.75,1.78,0.17-.45c-1.34-.5-1.43-0.89-0.8-2.59l0.32-.86,0.41,0.15,1.4,4.31,9.8,3.68,1-2.19-0.36-.13h0Zm-12-6.56,1.19-3.17,1,0.37a1.69,1.69,0,0,1-1.19,3.17l-1-.37h0Z"/><path class="cls-18" d="M261.72,321.23a3.77,3.77,0,0,1-1.84-1.62,1.83,1.83,0,0,0-.69.67l-0.45-.17,1.24-3.29,0.48,0.18a2.83,2.83,0,0,0,1.76,3.52,1.31,1.31,0,0,0,1.81-.63c0.23-.62-0.14-1.3-0.94-2.12L262,316.61a2.77,2.77,0,0,1-.81-2.92,2.5,2.5,0,0,1,3.35-1.16,3.19,3.19,0,0,1,1.63,1.32,1.44,1.44,0,0,0,.55-0.53l0.45,0.17-1.06,2.82-0.5-.19a2.22,2.22,0,0,0-1.28-2.82,1.23,1.23,0,0,0-1.66.49c-0.23.62,0.14,1.14,1.09,2.1L264.8,317a2.66,2.66,0,0,1,.79,2.75A2.88,2.88,0,0,1,261.72,321.23Z"/><path class="cls-18" d="M269.07,324a3.77,3.77,0,0,1-1.84-1.62,1.83,1.83,0,0,0-.69.67l-0.45-.17,1.24-3.29,0.48,0.18a2.83,2.83,0,0,0,1.76,3.52,1.31,1.31,0,0,0,1.81-.63c0.23-.62-0.14-1.3-0.94-2.12l-1.12-1.15a2.77,2.77,0,0,1-.81-2.92,2.5,2.5,0,0,1,3.35-1.16,3.19,3.19,0,0,1,1.63,1.32,1.44,1.44,0,0,0,.55-0.53l0.45,0.17-1.06,2.82-0.5-.19a2.22,2.22,0,0,0-1.28-2.82,1.23,1.23,0,0,0-1.66.49c-0.23.62,0.14,1.14,1.09,2.1l1.07,1.14a2.66,2.66,0,0,1,.79,2.75A2.88,2.88,0,0,1,269.07,324Z"/><path class="cls-18" d="M167.37,279.39a11.28,11.28,0,0,0,2.38,11.73l0.14-15.69A11.23,11.23,0,0,0,167.37,279.39Z"/><path class="cls-18" d="M185.25,285.49a5.94,5.94,0,0,0,.22-3.24,5.28,5.28,0,0,1-.11-2.86,2,2,0,0,1,2.48-1.21l0.13,0.06a11.27,11.27,0,0,0-16.69-4l0.67,0.27c1.1,0.41,2.86.92,2.86,0.92a0.47,0.47,0,0,1-.26.89s-0.6-.15-1.25-0.35l-0.45,12.88,4.91-6.06,0-5.12c-0.56-.25-1.07-0.52-1.07-0.52a0.47,0.47,0,0,1,.39-0.84s1.69,0.79,2.73,1.18,2.86,0.92,2.86.92a0.47,0.47,0,0,1-.26.89s-0.6-.15-1.25-0.35l-0.44,12.78,2.37-3.12A13.62,13.62,0,0,0,185.25,285.49Z"/><path class="cls-18" d="M177.77,284.35l-6.62,8a11.28,11.28,0,0,0,6.55,2.27,1,1,0,0,1,0-.17Z"/><path class="cls-18" d="M189.09,281.76a8.65,8.65,0,0,1-.34,1.11,10.64,10.64,0,0,1-2.22,3.48l-6.72,8.11A11.28,11.28,0,0,0,189.09,281.76Z"/><path class="cls-18" d="M182.55,271A13.14,13.14,0,1,0,190.23,288,13.16,13.16,0,0,0,182.55,271Zm-9,24a12.54,12.54,0,1,1,16.15-7.34A12.56,12.56,0,0,1,173.52,295.09Z"/></g><path class="cls-19" d="M207.39,396.78l3.5,1.28-1.3,3.54-3.51-1.29,1.3-3.54h0Z"/><path class="cls-19" d="M202.86,395.12l3.54,1.3-1.29,3.53-3.54-1.3,1.29-3.53h0Z"/><path class="cls-19" d="M211.89,398.43l3.53,1.29-1.29,3.53L210.6,402l1.29-3.53h0Z"/><path class="cls-19" d="M230.87,405.38l0.91,0.33-4.59,12.55-0.91-.33,4.59-12.55h0Z"/><path class="cls-19" d="M250.9,412.72l1.66,0.61-2,5.36a3.44,3.44,0,0,1,3.08-.29,2.71,2.71,0,0,1,1.68,1.78A4.45,4.45,0,0,1,255,423l-1.77,4.82-1.65-.61,1.84-5a2.52,2.52,0,0,0,.09-1.75,1.68,1.68,0,0,0-1.53-1,3.65,3.65,0,0,0-1.9.59L248,425.86l-1.67-.61,4.59-12.53h0Z"/><path class="cls-19" d="M274.05,427c1.19-.53,2.37-1.09,3.59-1.6L277,427.15l2.61,1-0.55,1.5-2.63-1-1.58,4.31a1.19,1.19,0,0,0,.56,1.46,3.76,3.76,0,0,0,2.28.16l-0.58,1.58a4.19,4.19,0,0,1-3.52-1,2.52,2.52,0,0,1-.5-2.57l1.66-4.54-1.43-.52A1,1,0,0,1,274,427h0Z"/><path class="cls-19" d="M269.72,424.34a5.23,5.23,0,0,1,2.92,1.78l-0.6,1.65a5.2,5.2,0,0,0-2.12-1.76,1,1,0,0,0-1.24.23,0.84,0.84,0,0,0,.12.88c0.69,1.15,1.76,2.07,2.22,3.34a2.21,2.21,0,0,1-.76,2.4,2.78,2.78,0,0,1-2.43.49,6.21,6.21,0,0,1-3.07-1.94l0.66-1.8a6.34,6.34,0,0,0,2.19,2,1.31,1.31,0,0,0,1.59-.27,1,1,0,0,0-.19-1.08,14.13,14.13,0,0,1-2.13-3.05,2.24,2.24,0,0,1,.77-2.49,2.52,2.52,0,0,1,2.05-.41h0Z"/><path class="cls-19" d="M232.26,410.74l0.91,0.33-1.91,5.21a2.52,2.52,0,0,0,.19,2.26,2.73,2.73,0,0,0,2,1.09,3.08,3.08,0,0,0,2-.62,1.17,1.17,0,0,0,.55-0.51l2.06-5.63L239,413.2l-3,8.25-0.92-.34,0.5-1.36a3.51,3.51,0,0,1-2.21.82,3.68,3.68,0,0,1-2.87-1.64,3.35,3.35,0,0,1-.17-2.86l1.95-5.32h0v0Z"/><path class="cls-19" d="M201.2,399.64l3.54,1.3-1.29,3.51-3.54-1.3,1.29-3.51h0Z"/><path class="cls-19" d="M205.72,401.29l3.53,1.29L208,406.11l-3.53-1.29,1.29-3.53h0Z"/><path class="cls-19" d="M210.23,402.95l3.54,1.3-1.29,3.53-3.53-1.29,1.29-3.51h0v0Z"/><path class="cls-19" d="M221.63,402l0.91,0.33-2,5.37c0.33-.08.64-0.23,1-0.3a4,4,0,0,1,4.83,2.66,5.1,5.1,0,0,1-.6,3.78,4.44,4.44,0,0,1-2.65,2.18,5.39,5.39,0,0,1-3.62-.36,8.34,8.34,0,0,1-2.31-1.54l4.43-12.1h0Zm-1.14,6.63a0.6,0.6,0,0,0-.36.29l-1.78,4.87a5.42,5.42,0,0,0,3.07,1.38,3.67,3.67,0,0,0,2.7-.85,4.19,4.19,0,0,0,1.33-4,2.87,2.87,0,0,0-2.18-2.18,4.12,4.12,0,0,0-2.73.49h0Z"/><path class="cls-19" d="M241.75,414.92a4,4,0,0,1,4.78,2.05,4.44,4.44,0,0,1,0,3.35L240,417.95a3.51,3.51,0,0,0,1.39,4.7,4.84,4.84,0,0,0,4,.08l-0.38,1a5.35,5.35,0,0,1-3.15.06,4.36,4.36,0,0,1-2.9-2.36,4.86,4.86,0,0,1,0-3.77,4.55,4.55,0,0,1,2.73-2.8h0Zm0.34,0.93a3.46,3.46,0,0,0-1.69,1.39l5.32,1.95a3.18,3.18,0,0,0-.49-2.47,2.94,2.94,0,0,0-3.16-.87h0Z"/><path class="cls-19" d="M261.79,421.39a5,5,0,0,1,3.33,2.78,4.8,4.8,0,0,1-1.27,5.16,4.31,4.31,0,0,1-3.52,1.12,5.09,5.09,0,0,1-3.68-2.16,4.73,4.73,0,0,1,1.22-6.25,4.6,4.6,0,0,1,3.91-.64h0v0Zm-1,1.43a2.71,2.71,0,0,0-1.68.43,3.35,3.35,0,0,0-1.29,3.51,3,3,0,0,0,4.62,1.44,3.19,3.19,0,0,0,.72-4,3.15,3.15,0,0,0-2.37-1.39h0Z"/><path class="cls-19" d="M204.07,405.79l3.51,1.29-1.29,3.53-3.53-1.29,1.3-3.54h0Z"/><path class="cls-19" d="M199.55,404.15l3.54,1.3L201.79,409l-3.54-1.3,1.29-3.53h0Z"/><path class="cls-20" d="M208.58,407.45l3.52,1.29-1.29,3.52L207.29,411l1.29-3.52h0Z"/><path class="cls-21" d="M128.58,105.35s3.74-.83,3.09-5.72a5.21,5.21,0,0,0-5.3-4.73L118.11,96l2.06,15.43,4.15-.56-0.5-3.72,4.09,3.24,6.14-.82Zm-2-2.94-3.31.44-0.47-3.53,3.33-.45a1.75,1.75,0,0,1,1.16,1.63A1.8,1.8,0,0,1,126.56,102.4ZM141.23,93l-4.22.56a4.09,4.09,0,0,0-3.49,4.56L135,109.44l4.22-.56-0.36-2.7,4-.53,0.36,2.7,4.09-.55L145.79,96.5A4,4,0,0,0,141.23,93Zm1,8.25-4,.53-0.5-3.74s-0.11-.84,1.21-1l1.45-.19a1,1,0,0,1,1.3.68l0.5,3.74h0Zm4.91-9,4.39-.59L153.62,107l-4.39.59Zm12.08,9.95-1.52-11.36-4.37.59,1.52,11.36,0.53,4,4.37-.59,5.91-.79-0.53-4Zm7.36-.94,0.52,3.92,7.07-.95a4.08,4.08,0,0,0,3.49-4.56l-0.2-1.51a4,4,0,0,0-4.56-3.49l-3.53.47-0.24-1.82,7-.94-0.53-3.94-6.71.9a4.15,4.15,0,0,0-3.5,4.63l0.18,1.36a4.08,4.08,0,0,0,4.58,3.48c4.87-.63-1.17.16,3.33-0.45l0.25,1.9Z"/><path class="cls-21" d="M94,114.91l17.09-2.29s-5.26-14.47,4.75-22c2.2-1.46,9.14-6.75,22.64.69,0.35-.38.68-0.69,0.68-0.69S126.4,81,114,83.88c-6.22,1.41-13.2,8.18-16.73,16.36A37.76,37.76,0,0,0,94,114.91Zm32-31.4L125.93,82a10.67,10.67,0,0,0-2.2-.48l0.1,1.44C124.58,83.16,125.31,83.32,126,83.51Zm-1.44,4.86,0.1,1.37a12.17,12.17,0,0,1,2.18,0l-0.09-1.35A15.46,15.46,0,0,0,124.59,88.37Zm-8.91-5.68,0.22,0-0.61-1.26a17.42,17.42,0,0,0-2.06.41L113.82,83A18.43,18.43,0,0,1,115.69,82.69Zm2.1,7.82,0.7,1.43a13.81,13.81,0,0,1,1.78-1l-0.67-1.36A15.84,15.84,0,0,0,117.79,90.52Zm-10.58-4.38L106,84.78c-0.5.35-1,.73-1.56,1.16l1.2,1.38C106.18,86.89,106.68,86.5,107.21,86.14Zm5.74,9.14,1.25,1.42A12.12,12.12,0,0,1,115.26,95l-1.17-1.34A12.08,12.08,0,0,0,112.94,95.28Zm-2.2,7.39,1.94,1.15a17.43,17.43,0,0,1,.12-2.59l-1.72-1A20.75,20.75,0,0,0,110.74,102.67Zm-10.85-9-1.72-1.14c-0.49.62-1,1.23-1.38,1.84l1.86,1.2A22.11,22.11,0,0,1,99.89,93.66Zm-5.24,10.55L92,103.63c-0.29,1-.6,2.13-0.73,2.74l2.61,0.58C94.1,106.17,94.41,105.05,94.65,104.21Zm16.5,4a22.18,22.18,0,0,0,.62,2.69l2.72,0.58a28.85,28.85,0,0,1-.9-2.74Z"/><path class="cls-22" d="M131.08,259.8l-26.23,5.78,29,7.45,11.65-27.91Z"/><path class="cls-23" d="M133.93,273l3.12-17.65L127.51,262Z"/><path class="cls-24" d="M134,273l-17.42-7.31L105,265.57Z"/><path class="cls-25" d="M105,265.58l9.3-13.16-10.52-1.15Z"/><path class="cls-26" d="M127.49,262l1.21-17.46-15.4,7.14Z"/><path class="cls-27" d="M143,249.54l-8.12-12.75-6.4,9Z"/><path class="cls-28" d="M141.9,235.5L134.17,237l-2.92-5Z"/><path class="cls-29" d="M99.55,255.34l4.39-4.09-0.25-6.68Z"/><path class="cls-11" d="M103.6,244.33l0.14,7.06,10.4,1,14.46-6.62,6.4-8.88-3.77-5.09-9.39.37c-3.44,1.58-10.15,4.74-10.36,4.77s-5.4,5-7.88,7.38h0Z"/><path class="cls-30" d="M115.19,235.55c7.57-3.77,16-4.68,17.91-.9s-3.4,9.71-11,13.48-16,4.9-17.88,1.12,3.37-9.92,10.94-13.69h0Z"/><path class="cls-31" d="M105,265.58l9.28-13.21L127.42,262c-7,3.23-14.28,5.49-22.44,3.62h0Z"/><path class="cls-32" d="M128.63,245.77L127.47,262c6-3.21,11.64-6.91,15.65-12.48l-14.48-3.73h0Z"/><path class="cls-33" d="M143,249.56c3-4.06,5.53-10.49-1.2-14.07l-6.92,1.3L143,249.56h0Z"/><path class="cls-34" d="M99.57,255.27c-2.28,7.6,3.12,9.51,5.41,10.34l-1.22-14.25-4.19,3.91h0Z"/><path class="cls-35" d="M128.65,245.8c2.72,3.23,8.21,9.72,8.33,9.84s4.5-3.66,6-6.14l-14.34-3.7h0Z"/><path class="cls-36" d="M114.26,252.36l2.15,13.39a40.34,40.34,0,0,0,11-3.8l-13.12-9.59h0Z"/><path class="cls-37" d="M103.73,251.36l-4.14,9.72c0.87,2.69,3,3.59,5.33,4.18-0.29-4.66-.88-14-1.19-13.9h0Z"/><path class="cls-38" d="M134.89,236.81l11.22,5.54c0.25-2.87-1.11-5.22-4.22-6.85l-7,1.31h0Z"/><path class="cls-11" d="M365.76,332.16a4.89,4.89,0,0,0,.09-6.82,5.89,5.89,0,0,0-1.76-1.28l-0.43-.19-0.45-.09a9.46,9.46,0,0,1-2.43-.81,11.5,11.5,0,0,1,1.68-1.45l0.11-.07c4.61-3.47,6.23-6.63,4.83-9.38a5.49,5.49,0,0,0-.9-1.27,7.87,7.87,0,0,0-4.22-2.15,5.11,5.11,0,0,0-1.57-4.22c-1.86-2-4.27-2.72-6.3-1.91q-0.31.12-.9,0.41a8.33,8.33,0,0,0-1.81-9.1,12.69,12.69,0,0,0-6-3.59c-0.06,0-.12,0-0.2,0a20,20,0,0,0-9.65.33,11.49,11.49,0,0,0,1.35-8.36v-0.06c0-.09,0-0.16-0.06-0.25,5.56-1.35,12.09-4,15.68-9.41,3.83-5.73,1.87-9.3.36-10.92a8.51,8.51,0,0,0-2.28-1.71l-0.06,0-0.06,0a13.68,13.68,0,0,0-7.8-1.48,41.85,41.85,0,0,0-17.12,7.63L323.14,268a6.2,6.2,0,0,0-.65-4,5.23,5.23,0,0,0-.92-1.33,7.91,7.91,0,0,0-5.24-2.18v0a4.79,4.79,0,0,0-1-4.23l-0.25-.27a8.93,8.93,0,0,0-5.67-2.7,5.17,5.17,0,0,0-1.22-5.11,3.22,3.22,0,0,0-.33-0.32l-0.23-.24a5.85,5.85,0,0,0-6.42-1.86c-0.16.07-.37,0.15-0.63,0.27a10.17,10.17,0,0,0-2.95-8.89l-0.24-.26c-1.59-1.64-6.17-5.16-14.29-2.36a22.93,22.93,0,0,0-3.52,1.55,4.73,4.73,0,0,0-5.15-3.21c-0.95.14-4.17,0.79-5.6,3.29a4.93,4.93,0,0,0-.27,4.37c0.51,1.31,1.28,2.87,1.87,4a14.31,14.31,0,0,0-1,7.17,10.54,10.54,0,0,0,3,6.12,24.23,24.23,0,0,0,7.7,5.18l0.17,0.06h0.06a6.08,6.08,0,0,0,1,3.64,8.18,8.18,0,0,0,1,1.25c1.61,1.73,3.61,2.11,6.31,1.68a7.09,7.09,0,0,0,2,6.61v0c0.1,0.11.12,0.28,0.24,0.41a5.26,5.26,0,0,0,5.27,1.45,6.79,6.79,0,0,0,1.64,6.85,11.59,11.59,0,0,0,4.12,2.72l0.09,0c0.84,0.29,1.57.53,2.14,0.71a16.58,16.58,0,0,0,3.82,7,15.21,15.21,0,0,0,1.21,1.17l0.11,0.09,0.11,0.09a62,62,0,0,0,12.82,7.45,13.4,13.4,0,0,0,3,9.78c0.3,0.38.62,0.76,0.95,1.11a17.84,17.84,0,0,0,7.29,4.74,7.21,7.21,0,0,0,.45,3.1,5.1,5.1,0,0,0,1.07,1.73c2.95,3.16,8.09,1.12,9.75.34l2.74-1.14a7.65,7.65,0,0,0,.83,4.09,9.52,9.52,0,0,0,1.5,2.13c3.24,3.48,8.82,4.53,9.73,4.68a7.26,7.26,0,0,0,6.31-2.56"/><path class="cls-39" d="M335,301.23s1.14-1.89,5.66-3,4.06,1.64,4.06,1.64-0.22,2.81-4,3.33a6.39,6.39,0,0,1-5.75-1.94M321.18,290.7c-6.64,2.69-8.88-3.71-8.88-3.71s1.27-2.15,7.55-5.25,7.58,2.16,7.58,2.16,0.38,4.1-6.25,6.79m17.35-22.49s10-4,7.06,0-19.78,7.36-19.78,7.36c2.46-2.18,12.72-7.34,12.72-7.34m-56-23.34c4.86-4.3,9.81-3.12,9.78-1.08s-2.63,3.73-5.93,3-3.86-1.92-3.86-1.92m80.59,84.95a1.49,1.49,0,0,0-.48-2.53s-3.95-.64-5.65-2.86,3.45-5.8,3.45-5.8,4.58-3.44,3.81-5-3.57-1.67-3.57-1.67a20.33,20.33,0,0,0-7.14,1.6l-0.3-.17s4.8-4,5.54-5.24c0.29-.72-1.79-2.87-3-2.37s-9.25,4.67-12,7c0,0-6.09-.72-9.37-3.26s-2.06-5-2.06-5,9.84,6,16.06-.31-2-10.36-3.21-10.58-6.77-1.81-13.9,2.82c-0.24.17-1.22,0.94-1.22,0.94a38.78,38.78,0,0,1-7.24-2.4s12.8-2.78,11-12.25c-0.89-4.22-6.33-3.19-6.33-3.19s16.53-.3,22.48-9.19c2.82-4.22,1.53-6.4-.62-7.52a10.43,10.43,0,0,0-5.71-1.19,38.07,38.07,0,0,0-15.55,7c-7.76,5.81-17.31,12.63-17.31,12.63s-3-.13-4.37-1.49,3.52-4.76,3.52-4.76,7.65-5.05,8.68-6.16,1.58-1.75.74-3.44-3.84-1.56-3.84-1.56-9.26,1.55-10.44,2.06l-0.55.14,0.06-.42s10.31-4.6,8-7.26-6.72-1.63-6.72-1.63-7.57,1.63-8.23,2l0.06-.42s6.77-4.07,7.95-5.61a1.73,1.73,0,0,0-.33-2.58s-1.36-1.86-2.85-1.29a107.15,107.15,0,0,0-12.55,7.52s-6.89-1.39-9.48-4.11-0.55-4.09-.55-4.09S292.67,255,296.92,246a6.87,6.87,0,0,0-2.11-6.81c-1.94-2-5.4-3.23-10.59-1.46a16.26,16.26,0,0,0-5.69,3.25h0s-2.12-1.54-2.21-3.25-1.4-1.5-1.4-1.5-3.94.55-3.07,2.77a52,52,0,0,0,2.64,5.3h0a10,10,0,0,0-1.52,6.84c0.51,5.09,8.48,8.4,8.48,8.4l3.59,1.05s-2,2-.76,4.06,2.3,2.4,12.31-1.36c5.34-1.71,5.25-1.4,5.25-1.4l0.23,0.16s-8.34,5.25-9.78,7.55,0.87,4.38.87,4.38,0.71,1.64,5.15-.63a61.89,61.89,0,0,1,9.88-3.78l0.23,0.24s-7.83,5.74-9,9.16,3.58,5.21,3.58,5.21a33.78,33.78,0,0,0,4.07,1.2,12.87,12.87,0,0,0,4.28,8.37c9.76,7.06,14.93,8,14.93,8a9.76,9.76,0,0,0,1.56,9.9,13.83,13.83,0,0,0,10.5,5.41s-2.19,2-1.23,4.5,6.11,0,6.11,0L354.35,317l0.25,0.27s-5.12,5.05-3.17,8.91,8.69,5,8.69,5a3.19,3.19,0,0,0,3-1.29"/><path class="cls-40" d="M260.4,545.92l19.18-7.57,20.48,5-1.81,23.86-16.32,9.55-17.09-7.4Z"/><path class="cls-41" d="M300.06,543.38l-20.48-5,2.35,38.45,16.32-9.54,1.81-23.88h0Z"/><path class="cls-11" d="M279.88,542.84h0L269.2,568.38l4.55-.35,2.11-5.74,5.21-.32h0l5.72-.35,3,5.5,4.36-.2-14.3-24.09h0Zm0.52,7.94,4.6,7.62-4,.24h-0.2l-3.59.22,3.14-8.1h0Z"/><path class="cls-42" d="M183.5,230.31a6.81,6.81,0,0,0,6.81,6.81h39.2a6.81,6.81,0,0,0,6.81-6.81v-39.2a6.81,6.81,0,0,0-6.81-6.81h-39.2a6.81,6.81,0,0,0-6.81,6.81v39.2Z"/><path class="cls-11" d="M205.41,207.67v-7.48H212a10.25,10.25,0,0,1,1.81.16,4.53,4.53,0,0,1,1.55.56,3,3,0,0,1,1.07,1.12,3.72,3.72,0,0,1,.4,1.84,3.38,3.38,0,0,1-1.21,2.91,5.06,5.06,0,0,1-3.09.9h-7.12Zm-7-12.94v32h15.5a16.35,16.35,0,0,0,4.19-.54,11.2,11.2,0,0,0,3.63-1.66,8.16,8.16,0,0,0,2.53-2.89,9.78,9.78,0,0,0-.52-9.32,7.69,7.69,0,0,0-4.41-3,8,8,0,0,0,3.25-2.64,7,7,0,0,0,1.1-4,8.58,8.58,0,0,0-.74-3.76,6.14,6.14,0,0,0-2.08-2.44,9,9,0,0,0-3.22-1.32,19.92,19.92,0,0,0-4.17-.4h-15Zm7,26.51v-8.78h7.66a5.93,5.93,0,0,1,3.67,1.05,4.13,4.13,0,0,1,1.39,3.52,4.4,4.4,0,0,1-.43,2.06,3.38,3.38,0,0,1-1.14,1.28,4.84,4.84,0,0,1-1.66.67,9.38,9.38,0,0,1-2,.2h-7.52Z"/><polygon class="cls-43" points="404.81 474.26 391.56 459.82 392.39 440.25 406.83 426.99 426.41 427.83 439.66 442.27 438.83 461.84 424.39 475.1 404.81 474.26"/><polygon class="cls-44" points="405.99 471.72 394.19 458.87 394.93 441.43 407.79 429.62 425.23 430.37 437.03 443.23 436.29 460.66 423.43 472.47 405.99 471.72"/><text class="cls-45" transform="translate(396.21 454.89) rotate(2.45)">fool</text><text class="cls-46" transform="matrix(0.3, 0.95, 0.95, -0.3, 423.14, 454.6)">)</text><text class="cls-47" transform="translate(404.87 455.26) rotate(2.45)">o</text><text class="cls-47" transform="translate(414.75 455.68) rotate(2.45)">o</text><path class="cls-48" d="M92.17,419.87L59,462.06,16.84,428.92,50,386.73Z"/><path d="M48.2,403.27L47.62,408c-1.59-.24-3-0.41-4,0.95s-1.16,2.52.82,4.08l13.48,10.59-3.11,4L41.23,417c-4.11-3.23-4.08-7.1-1.33-10.61a7.83,7.83,0,0,1,8.3-3.1"/><path d="M37.61,417.62l-0.67,4.7a5.49,5.49,0,0,0-5.48,2c-1.29,1.64-1.29,3.34-.16,4.23,1.36,1.07,2.69.37,4.9-.82l1.2-.66c3.46-1.9,6.48-2.6,9.71-.06,3,2.34,3.46,6.38.68,9.92a7.45,7.45,0,0,1-7.6,3.14l0.44-4.64c1.75,0.28,2.81-.08,3.7-1.21a2.19,2.19,0,0,0-.21-3.23c-1.19-.93-2.25-0.58-4.32.54l-1.2.66c-4.09,2.24-7.06,3-10.37.37-3.57-2.8-3.32-7.14-.36-10.91s6.52-4.68,9.72-4"/><path class="cls-49" d="M100.49,492.17l2.82-2.38s0.83,11.52.9,12.46a4.31,4.31,0,0,0,.09,1,18.71,18.71,0,0,0,1.17,2.47l-2.55,2.21a13.89,13.89,0,0,0-1.49-2.52,11.15,11.15,0,0,0-2.26-1.53c-0.77-.51-2.17-1.61-2.17-1.61L99.62,500l1.61,1.14-0.74-9"/><path class="cls-49" d="M96.45,498.2c0.78-.13,2.57,1.32,2.57,1.32s-2.67,2.35-4.14,3.61l-1.27,1.09,4.21,8-2.36,2s-4.78-8.57-5.57-10.19c-0.25-.53.47-1,1.58-2l1.78-1.52c1.15-1,2.36-2.27,3.21-2.42"/><path class="cls-49" d="M88.25,510.89a1.86,1.86,0,0,0-1-.72,1.62,1.62,0,0,0-1.73.53c-2.11,1.69-.77,3.18-0.77,3.18l3.54-3h0ZM89,507.24c1.23,0.83,2.84,3.87,2.84,3.87s-3,2.51-4.64,4c-0.5.45-1.17,0.9-1.12,1.27a1.25,1.25,0,0,0,1.23.78,2.71,2.71,0,0,0,1.3-.59,45.22,45.22,0,0,0,4.16-3.48l1.35,2.55A38,38,0,0,1,88,520.4a2.64,2.64,0,0,1-1.47.31c-0.13,0-.27-0.06-0.41-0.1a3.14,3.14,0,0,1-.67-0.24c-1.48-.81-2.94-3.54-3.5-5.19-0.06-.19-0.15-0.43-0.2-0.65s-0.17-.56-0.2-0.74,0-.23,0-0.35a4,4,0,0,1,0-.42,4.92,4.92,0,0,1,.17-1.09A7.91,7.91,0,0,1,85,507.52a4.11,4.11,0,0,1,3-.87,4,4,0,0,1,1,.58h0Z"/><path class="cls-49" d="M76.67,514.78l2.28-2s3.91,7.15,5.78,10.66l-2.64,2.26c-1.84,1.58-3.29,3.21-5.11,2.49s-2.93-3.36-3.85-5.05c-0.65-1.2-2-3.65-2-3.65l2.36-2.05s2.09,3.8,3.18,5.64a3.49,3.49,0,0,0,1.23,1.62c0.55,0.23.86,0,1.75-.71,0.28-.23,1.18-1,1.18-1l-4.2-8.22"/><path class="cls-49" d="M69.67,528.32a11.46,11.46,0,0,0-1.63-3,2.88,2.88,0,0,0-2.66-.72A4,4,0,0,0,62.91,528a6.64,6.64,0,0,0,1.16,3.57,5.22,5.22,0,0,0,2,2.36c1.53,0.68,3-1,4.87-2.59-0.35-1-.83-2-1.29-3h0Zm0.3-6.09c1.89,1.68,2.68,4.64,3.55,7.06,0.76-.54,1.32-1.14,1.4-1.13a9.75,9.75,0,0,1,1.22,2.75c-0.55.49-2.39,2.1-3.16,2.76-2.52,2.16-4.75,4.34-7,4.12a5.21,5.21,0,0,1-2.62-1.22A11.16,11.16,0,0,1,61,533.24a12.31,12.31,0,0,1-1.11-3.14c-0.52-2.76.15-5.71,3.51-8A7.59,7.59,0,0,1,65.92,521l0.32,0A5.21,5.21,0,0,1,70,522.24h0Z"/><path class="cls-49" d="M58,530.8c0.44,0.83,1,1.74,1.39,2.57l-2.55,2.18c-0.45-.93-1-1.82-1.32-2.65L58,530.8"/><path class="cls-49" d="M57.26,536.26l2.45-2.1c1.2,2.05,3,5.46,4.22,7.88,0.76,1.51,1.33,2.6,1,4,0,0.12-.09.13-0.1,0.25a4.57,4.57,0,0,1-1,1.45,24.11,24.11,0,0,1-2.18,1.85c-0.44-.94-1-2.05-1.39-2.89,2.14-1.42.62-3.3-.51-5.39-0.66-1.21-2.35-4.52-2.58-5"/><path class="cls-50" d="M55.5,545.8L55.56,546a6.77,6.77,0,0,1-2.3,6.93,8.74,8.74,0,0,1-3.19,1.79,9.27,9.27,0,0,1-5.92-.29,6.76,6.76,0,0,1-4.48-6.95s0.11,0.61.14,0.59l0.1,0.22c2.36,5.6,9.91,5.67,13.74,1.64a7.27,7.27,0,0,0,1.85-4.1"/><path class="cls-50" d="M51.4,546.16a5.29,5.29,0,0,0,1.81-3.59c0.67,1.94-.19,4.3-2.67,5.9a6.31,6.31,0,0,1-7.24-.73,5.25,5.25,0,0,1-1.59-4.14,4.37,4.37,0,0,0,.6,1.51c2.23,3.21,6.7,3.06,9.08,1"/><path class="cls-50" d="M51,540.17a4.37,4.37,0,0,1-.52,2.49A3.84,3.84,0,0,1,46,544.13a5.38,5.38,0,0,1-.77-0.37,3.29,3.29,0,0,1-1.54-2.86A4,4,0,0,0,45,542.59a4.65,4.65,0,0,0,1.26.58,3.31,3.31,0,0,0,1.76,0A3.5,3.5,0,0,0,48.7,543,3.68,3.68,0,0,0,51,540.17"/><path class="cls-51" d="M299,493.43l-6.77,30.21a14.17,14.17,0,0,1-13.08-3.87l9.34-29.07-10.91-27.58s5.34-1.77,8.58-.75L295.92,485l21.29-15.31s6.51,2.87,6.93,5.15L299,493.43h0Z"/><path class="cls-52" d="M324.92,498.62a9.51,9.51,0,0,0-1.06-1.91,12.78,12.78,0,0,0-3-2.92,16.43,16.43,0,0,0-3.62-2.07l-0.5-.18-0.41-.17c-0.27-.12-0.49-0.27-0.72-0.39a2.87,2.87,0,0,1-.95-1,3.93,3.93,0,0,1,0-2.91,5.64,5.64,0,0,1,.3-0.82c0.12-.27.23-0.54,0.35-0.86a6,6,0,0,0,.25-1.34l0.25-.17,3-2.1c0.55-.38,1.1-0.8,1.64-1.18a4.92,4.92,0,0,1,.49.37s1.43,0.26,2.4-1.87l-0.4-.31,0.3-.21,0.75-.55a1.37,1.37,0,0,0,.58-0.8,1.19,1.19,0,0,0-1,.2l-0.79.5-0.54.33-6.06-4.94,1-.72,1.45-1.1,0.15-.13c0.13,0.1.22,0.21,0.35,0.31,0.31,0.26.66,0.52,1,.73l2,1.28c0.62,0.43,1.29.85,2,1.24a7.45,7.45,0,0,0,1,.55c0.18,0.06.36,0.17,0.54,0.23s0.23,0.07.32,0.07l0.23,0a0.34,0.34,0,0,0,.29-0.16v0a0.17,0.17,0,0,1,.06-0.14l0-.19a0.24,0.24,0,0,0-.08-0.19c0-.1-0.12-0.2-0.16-0.29a3.56,3.56,0,0,0-.38-0.45c-0.26-.3-0.56-0.56-0.82-0.82-0.57-.51-1.18-1-1.8-1.46a16.91,16.91,0,0,0-1.91-1.28,7.45,7.45,0,0,0-1-.55c-0.18-.06-0.36-0.17-0.59-0.24s-0.23-.07-0.37-0.08a0.69,0.69,0,0,0-.28,0,1.17,1.17,0,0,0-.39.2,3.58,3.58,0,0,0-.88.4l-1.46.68-1.39.92-0.44-.36s-2,0-1.42,1.34l0.17,0.2c-2,1.38-3.93,2.82-5.87,4.2s-3.93,2.86-5.93,4.34l-2.94,2.2a4.21,4.21,0,0,1-.5.38c-0.07-.29-0.19-0.53-0.27-0.77l-0.54-1.45-1-2.89c-0.69-1.93-1.37-3.86-2.1-5.79l-2.15-5.75-0.35-.87,0.56,0s0.31-1.52-.78-1.89a3.14,3.14,0,0,0-.47,0c-0.35-.87-0.65-1.74-1-2.61h0l-0.13-.71a0.74,0.74,0,0,0-.25-0.44,0.79,0.79,0,0,0-.23-0.11c-0.14-.06-0.23-0.07-0.36-0.12a2.87,2.87,0,0,0-.6-0.1,9.09,9.09,0,0,0-1.17,0,19.65,19.65,0,0,0-2.31.23c-0.76.13-1.52,0.25-2.28,0.42a7.33,7.33,0,0,0-1.1.33l-0.58.23c-0.1,0-.2.12-0.29,0.16l-0.15.13c-0.05,0-.05.09-0.1,0.13v0.14h0v0a0.37,0.37,0,0,0,.21.3,0.66,0.66,0,0,0,.18.11,3,3,0,0,1,.32.12,2.66,2.66,0,0,0,.6.1,9.83,9.83,0,0,0,1.17,0c0.75,0,1.55-.06,2.31-0.14l2.31-.19c0.38,0,.76-0.08,1.18-0.14,0.27,0.68.54,1.4,0.81,2.08-2.16,0-5.53,0-7.64.08-0.2-.44-0.35-0.82-0.55-1.26a0.28,0.28,0,0,0-.31-0.17,0.24,0.24,0,0,0-.17.31c0.11,0.38.22,0.72,0.33,1.1a2.62,2.62,0,0,0-1.14.19,4.1,4.1,0,0,0,1.14,3.28,8,8,0,0,1,1-.2l0.8,2.31,2.28,6.55,2.32,6.56c0.76,2.17,1.57,4.34,2.37,6.56h0a0,0,0,0,0,0,.05l-0.53,1.36-1.43,3.82c-0.91,2.55-1.78,5.15-2.64,7.7l-1.3,3.87-1.25,3.88c-0.87,2.6-1.68,5.15-2.64,7.7a0.28,0.28,0,0,0,0,.19,6.89,6.89,0,0,0,1.25,1.37,13.55,13.55,0,0,0,1.46,1.06A21.07,21.07,0,0,0,286,523a15.63,15.63,0,0,0,3.58.9,8.35,8.35,0,0,0,1.87.06,14.67,14.67,0,0,0,1.89-.22,0.57,0.57,0,0,0,.41-0.39v0c0.72-2.52,1.35-5.09,2-7.61l1.94-7.66c0.63-2.57,1.3-5.09,1.94-7.66,0.07-.28.14-0.6,0.21-0.87,0.09,0.1.12,0.24,0.21,0.34a9.27,9.27,0,0,0,1.46,1.57,16.16,16.16,0,0,0,3.38,2.15,26.39,26.39,0,0,0,3.63,1.42,22.82,22.82,0,0,0,2.43.62,5.87,5.87,0,0,0-.78,2.65,0.26,0.26,0,0,0,.12.24h0a11.57,11.57,0,0,0,2.75,1.3,9.71,9.71,0,0,0,3.06.39,5.89,5.89,0,0,0,3.08-1,6.33,6.33,0,0,0,2-2.46l0.05,0v0l0.24-1.24v0a12.16,12.16,0,0,0,1.47-.82,6.07,6.07,0,0,0,1.57-1.51,4.11,4.11,0,0,0,.74-2.19,5.74,5.74,0,0,0-.48-2.19h0Zm1-23.52h0Zm-3.1-2.73a16,16,0,0,1,1.76,1.36c0.26,0.26.57,0.47,0.83,0.77a2.82,2.82,0,0,1,.34.4l0.09,0.1h-0.09l-0.5-.18-1-.5a16,16,0,0,1-1.87-1.23,12.57,12.57,0,0,1-1.61-1.54,5.59,5.59,0,0,1-.47-0.6l0.68,0.34a14.34,14.34,0,0,1,1.83,1.09h0Zm-3-2.3,0,0.05v0.09a0,0,0,0,0,0-.05v-0.09h0Zm-32.74-7.91a11.25,11.25,0,0,1-2.15.57,12,12,0,0,1-2.22.19,9,9,0,0,1-1.12,0,1.75,1.75,0,0,1-.51-0.09H281s0.05,0,.1,0,0.34-.11.48-0.19c0.34-.11.72-0.18,1.05-0.29,0.71-.13,1.47-0.25,2.23-0.33a18.81,18.81,0,0,1,2.21-.1,3.53,3.53,0,0,0,.7,0,3.44,3.44,0,0,1-.64.32h0Zm31,18.49-3.07,2-3.07,2c-0.84.59-1.69,1.17-2.53,1.71,0.05,0,.1-0.13.15-0.17,0.41-.48.82-0.92,1.23-1.35,0.87-.87,1.69-1.78,2.6-2.6s1.87-1.63,2.81-2.35a10.92,10.92,0,0,1,1.53-1l0.44-.25c0.39,0.36.83,0.72,1.22,1.08-0.4.3-.89,0.58-1.34,0.87h0Zm-33.63-8.5,0.21,0.25a12.62,12.62,0,0,1,1.19,1.55,5,5,0,0,1,.7,1.7,2.06,2.06,0,0,1-.25,1.38l0-.14-1.82-4.74h0Zm1.89,5a1.61,1.61,0,0,0,.37-0.53,1.94,1.94,0,0,0,.18-1,3.8,3.8,0,0,0-.69-1.93,9,9,0,0,0-2-2.18l-0.42-1.11c-0.27-.72-0.54-1.45-0.86-2.13,0.71-.13,1.57-0.34,2.52-0.5a45.52,45.52,0,0,1,1.94,4.37,17.85,17.85,0,0,1,1.26,5.82c0,0.47-.08,1-0.12,1.49s-0.08,1-.08,1.54a17.05,17.05,0,0,0,.15,2.17l-2.23-6h0ZM294.24,516a2,2,0,0,1-.46.43,0.91,0.91,0,0,1-.76.17,0.8,0.8,0,0,1-.47-0.55,2.2,2.2,0,0,1-.12-0.81,5.1,5.1,0,0,1,.23-1.67,6.31,6.31,0,0,1,.64-1.54,3.31,3.31,0,0,1,.52-0.61,0.77,0.77,0,0,1,.67-0.23,0.85,0.85,0,0,1,.57.51,1.66,1.66,0,0,1,.15.43l-0.83,3.26c-0.07.23-.08,0.41-0.14,0.6h0Zm4.05-15.83L297.05,505a7.46,7.46,0,0,0-.15-1c-0.16-.9-0.37-1.76-0.58-2.62a34.82,34.82,0,0,0-1.75-5c0.37,1.76.84,3.44,1.31,5.16,0.26,0.86.47,1.72,0.68,2.54l0.32,1.29s0,0.14,0,.19c-0.2.73-.4,1.47-0.56,2.25l-1,4.18c0-.1,0-0.19-0.07-0.29a1.09,1.09,0,0,0-.64-0.71,1.18,1.18,0,0,0-1,.2,4.36,4.36,0,0,0-.66.65,4.56,4.56,0,0,0-.74,1.63,4.78,4.78,0,0,0-.15,1.81,2.29,2.29,0,0,0,.25.91,1.09,1.09,0,0,0,.7.67,1,1,0,0,0,.87-0.3c0.1-.09.21-0.22,0.31-0.3-0.5,2.16-1.05,4.32-1.56,6.52a6.11,6.11,0,0,1-1.28.18c-0.57,0-1.13,0-1.69,0a12.39,12.39,0,0,1-3.42-.61A17.58,17.58,0,0,1,283,521a8.12,8.12,0,0,1-2.59-2.13c0.91-2.5,1.91-5,2.9-7.49l1.52-3.76,1.48-3.81c1-2.54,2-5.08,3-7.63,0.48-1.27.91-2.55,1.39-3.82s1-2.54.75-4.06v0c0-.05-0.09-0.05-0.09,0a7,7,0,0,0-.61.61c-0.42-1.2-.88-2.37-1.3-3.57a10.68,10.68,0,0,1-.27-1.33,16.06,16.06,0,0,1-.23-3c0-.52,0-1,0.07-1.49s0.13-1,.12-1.54a17.09,17.09,0,0,0-1.39-6,28.21,28.21,0,0,0-2.13-4.29c1.57-.29,3.23-0.58,4.55-0.71,0.15,0.43.35,0.82,0.51,1.26L293,474l2.35,5.67,1.18,2.81,0.59,1.41c0.16,0.29.23,0.63,0.4,0.88l-2,1.53a0.15,0.15,0,0,0,0,.23,0.16,0.16,0,0,0,.23.07c1-.62,2.07-1.28,3.11-1.95l3.11-2c2.07-1.33,4.1-2.66,6.13-4s4.06-2.71,6.09-4.09l0.05,0a54.49,54.49,0,0,0,3.89,4,13.81,13.81,0,0,0-2.05,1.05,20,20,0,0,0-2.95,2.29,27.52,27.52,0,0,0-2.56,2.69,26.4,26.4,0,0,0-1.62,2.12c-3,2.09-6,4.24-8.91,6.49a0.29,0.29,0,0,0-.07.32,0.31,0.31,0,0,0,.32.12,20.47,20.47,0,0,0-.93,2.73c-0.39,1.28-.77,2.56-1.11,3.84h0Zm20.05,7.91a5.66,5.66,0,0,1-2.36.84,8.44,8.44,0,0,1-2.66-.12,16.5,16.5,0,0,1-2.52-.67,4.56,4.56,0,0,1,.56-2.3c0.32,0.07.6,0.1,0.92,0.17a0.26,0.26,0,0,0,.29-0.16,0.28,0.28,0,0,0-.16-0.39h0c-0.23-.11-0.41-0.17-0.63-0.29a6.21,6.21,0,0,1,.72-0.83c0.3-.26.6-0.51,0.9-0.72a9,9,0,0,0,1.84,1,6.46,6.46,0,0,0,2.49.44,3.47,3.47,0,0,0,2.38-1,3.42,3.42,0,0,0,1-2,1.91,1.91,0,0,1,0,.89,10.11,10.11,0,0,1-.28,1.15l-0.2.69-0.73.36a2.06,2.06,0,0,0-.81.73,1.68,1.68,0,0,0,1.07.09s0.05,0,.1,0-0.07.23-.12,0.36a5.72,5.72,0,0,1-1.74,1.78h0Zm5.1-5.72a4.92,4.92,0,0,1-1.14,1.31,5.91,5.91,0,0,1-.65.46,5.79,5.79,0,0,0,0-1.27,3.44,3.44,0,0,0-.13-0.67,1.19,1.19,0,0,0-.37-0.59h0s-0.09,0-.1,0h0a4.37,4.37,0,0,1-1.4,1.62,3.2,3.2,0,0,1-1.87.5,6.4,6.4,0,0,1-2-.45c-0.68-.24-1.36-0.53-2-0.82l-0.09-.05a0.45,0.45,0,0,0-.43.06c-0.41.43-.72,0.83-1.09,1.27s-0.48.66-.69,1c-0.81-.39-1.58-0.74-2.39-1.13-1.13-.56-2.25-1.12-3.27-1.77a17.14,17.14,0,0,1-3-2.07,6.61,6.61,0,0,1-2-2.55v0a0.92,0.92,0,0,0-.38-0.45c0-.09.07-0.23,0.07-0.32a16.52,16.52,0,0,0,.51-3.38c4-2.34,7.89-4.84,11.75-7.43l-0.17.41a7.33,7.33,0,0,0-.51,2.25,4.68,4.68,0,0,0,2.37,4.27,6.33,6.33,0,0,0,1,.51l0.55,0.19,0.46,0.13a14.89,14.89,0,0,1,3.33,1.68,13.8,13.8,0,0,1,2.75,2.43,5.1,5.1,0,0,1,1.34,3.11,3.38,3.38,0,0,1-.42,1.74h0Z"/><path class="cls-52" d="M291.69,510.52a4.84,4.84,0,0,0-.93,1.66,3.49,3.49,0,0,0-.22.92l-0.12.93a10.16,10.16,0,0,0,0,3.75,17.14,17.14,0,0,0,1.21,3.52c-0.14-.62-0.32-1.2-0.46-1.77s-0.28-1.19-.37-1.81a13.2,13.2,0,0,1,.06-3.6l0.12-.93a5.72,5.72,0,0,1,.17-0.88,7,7,0,0,1,.78-1.58,6.65,6.65,0,0,1,1.28-1.3,5.81,5.81,0,0,1,1.58-.95,6.19,6.19,0,0,0-3.12,2h0Z"/><text class="cls-53" transform="translate(220.14 113.21) rotate(-13.45)">ii</text><path class="cls-54" d="M230.19,81.22a10.52,10.52,0,0,0,5.93-3.31,10.19,10.19,0,0,0,2-6c0.13-3.33-5-3.5-5.16-.18a5.26,5.26,0,0,1-.86,2.95A5.54,5.54,0,0,1,229,76.19c-3.29.52-2.07,5.54,1.2,5h0Z"/><path class="cls-54" d="M260.74,74.32a59.73,59.73,0,0,1,8.61-1.78,2.61,2.61,0,0,0,1.91-3.11,2.64,2.64,0,0,0-3.11-1.91,59.73,59.73,0,0,0-8.61,1.78c-3.19.91-2,5.94,1.2,5h0Z"/><text class="cls-55" transform="translate(240.02 106.46) rotate(-13.45)">2</text><path class="cls-56" d="M99.27,339.81q0.82-.14,1.23,2.33l0.82-.14,1.1-1,0.48,0.35,1.75,23.39q2.41-1.67,13.52-5.2l0.41-.07,0.07,0.41q-14,4.73-13.8,6.09l4.32-2,0.07,0.41,7.55-2.94,0.07,0.41,0.35-.48,0.41-.07,0.48,0.35,2-.75,1.65-.27,2.95-.06,0.07,0.41q0.2,1.23-5.83,3.08l0.07,0.41,0.35-.48,0.41-.07,2.95-.06,0.35-.48,0.2,1.23-13,5.54-8.1,4.72-1.24.2-2-1.79-0.41.07-0.07-.41q-0.17-1,1.44-1.51l-0.2-1.23-1.51-1.44L96.73,350l0.41-.07,0.27,1.65,0.06,2.95,0.82-.14,0.06,5.49,0.48,0.35-0.14,1.71L99,364l0.41-.07-2-22.09q0.82-.14.62-1.37l0.35-.48,0.82-.14h0Z"/><path class="cls-56" d="M146.33,346.84q-0.81,1,.55,1.93l-0.35,1.8-0.6.08,0.34,0.24a77.54,77.54,0,0,0-14.89,14.48l-1.58,1.95,0.1,0.58-0.26.32-0.6.08,0.34,0.24-0.6.08-1.5,2.52-0.53.65q-3.39.89-4.33,2l-1.36-1L119.9,371l2.18-2-0.32-2.29,4.26-4.64,4.72-5.86,1.47-.49,1.05-1.3-0.08-.57,0.26-.32,0.68,0.49,0.26-.32-0.08-.57,6-5.45-0.34-.24,0.6-.08,1.56-2-0.08-.57,0.26-.33Zm-23.57,22.63-1.32,1.62,1.18-.18,0.81-1ZM132.55,356l-1.56,2,0.34,0.24,1.56-2Zm2.71-2.68-1.58,1.95,0.34,0.24,1.58-1.95Zm2.95-3-1.82,2.29,0.34,0.24,1.82-2.29Z"/><path class="cls-56" d="M147.15,323.14l1.3,0.21,0.14,0.82-1.23.2,1,1.1q-0.56,2.21-6.25,3.15l-2.81.89-0.21,1.3,0.41-.07q-0.75,3.13-.58,27.16l2.12,5.15-0.41.07q-0.92.15-2.33-3.84l-0.27-4.18-0.07-.41-0.41.07,0.14,0.82q-1.23.2-1.1,1l0.07,0.41,1.91,6.45,0.07,0.41-0.82.14L136,363l-0.35.48-0.41.07a15.35,15.35,0,0,1-2.67-5.9L133,358l0.41-.07-1.3-2.74,1.17-.62L133,352.55l-0.82.14-0.07-.41q1.23-.2,1.1-1l-0.07-.41-0.82.14q-0.54-3.29.69-3.5l-0.88-5.35q0.56-.69.22-8.91l-2.81.89-5.83.54-0.07-.41,2-.75,0.07,0.41,0.35-.48,6.17-1-0.2-1.23-6.45,1.91-0.48-.35-0.41.07-2.4.82-1.37-.62,0.07-2.13-0.48-.35q-0.34-2.06,4.6-2.88Zm-13.68,27.21,0.68,9.19,0.82-.14-0.75-2-0.14-.82,0.62-1.37-0.41.07,0.35-.48-0.07-.41-0.48-.35-0.07-.41,0.56-1.78-0.69-1.58-0.41.07h0Zm11.41-25.57L145,325.2l1.65-.27-0.07-.41Z"/><path class="cls-56" d="M101.46,327l1.23-.2,0.75,2a1.11,1.11,0,0,0,1-1.44l0.41-.07,1,0.69v2.54l0.41-.07-0.35.48,0.07,0.41,0.48,0.35,0.07,0.41-0.41.07,0.48,0.35,0.07,0.41,1.83,13.65,0.07,0.41,0.41-.07,0.55-4.33,0.82-.14-1.59,8.3,0.82-.14,2.62-14.81-0.82.14-0.76,5.62-0.82.14-0.07-.41,1.79-7.06,0.41-.07,0.14,0.82,3.16-1.37q1.75,0.33,1.85,1l0.35-.48,1.23-.2,3.28,9.61,0.41-.07q-0.3-1.84,3-22.29l0.41-.07,0.62,1.17,0.41-.07-0.14-.82,0.41-.07q3-.5,3.49.69l0.14,0.82-0.62,1.37,0.07,0.41,0.82-.14-0.06-2.95,0.82-.14,1,0.69,0.07,0.41-4,33.87-1.17.62-0.14-.83-0.35.48-0.41.07-0.48-.35q0.27,1.65-1,1.85-3.34.26-3.5-.69l0.41-.07a4.34,4.34,0,0,0-2.12-2.61L116.86,346q-0.7.14-3,12.34l-1.72,2.4-0.41.07L111,359.24q4.58-11.45,3.94-17.14-0.91,1.27-3.31,13.23-0.51.08-.83,5.21l-3.7.61-0.69-1.58-0.35.48-0.41.07a4.18,4.18,0,0,0-1.78-3.09l-0.27-1.65,1.85,1-2-6.86,0.35-.48-0.48-.35,0.35-.48-0.41.07,0.35-.48-1-5.76,0.07-2.13-0.41.07,0.35-.48-1.77-10.7-0.48-.35-0.07-.41Zm24.22-3.81q-2.95,19.92-2.57,22.22l0.07,0.41,0.41-.07L126.5,323l-0.82.14h0Zm1.06,26.27-0.21,3.84,0.14,0.82,0.41-.07,0.14-4.25-0.07-.41-0.41.07h0Zm0.83-10.29L127.36,343l0.07,0.41,0.41-.07,0.21-3.84-0.07-.41-0.41.07h0Z"/><path class="cls-57" d="M291.21,183.34a5.59,5.59,0,0,1-5.46-4.81c0-.38-3.85-34.82-3.85-35.21a0.8,0.8,0,0,1-.1-0.29v-1.15a3.09,3.09,0,0,1,1.15-2.5c0.64-.87,2.12-2,22.22-2s21.55,1.15,22.22,2a3.53,3.53,0,0,1,1.06,2.6v1a0.85,0.85,0,0,1-.08.48l-4.09,35.11c0,0.1-.05.19-0.05,0.29a5.56,5.56,0,0,1-5.39,4.52H291.21Z"/><path class="cls-58" d="M327,141.92a2.31,2.31,0,0,0-.66-1.64c-1-1.15-10.1-1.54-21.26-1.54s-20.2.29-21.26,1.44a2.49,2.49,0,0,0-.67,1.64v1.06a0.34,0.34,0,0,0,.09.29c0,0.1,3.85,35.11,3.85,35.11a4.12,4.12,0,0,0,4,3.56h27.62a4,4,0,0,0,4-3.56h0L327,143.17v-1.25h0Z"/><ellipse class="cls-57" cx="305.03" cy="141.64" rx="19.33" ry="1.06"/><path class="cls-59" d="M320.9,174.92a2.21,2.21,0,0,1-2.21,2.21H291.35a2.27,2.27,0,0,1-2.2-2.21c-0.18-3.27-1.35-13.08-1.35-13.08a1.17,1.17,0,0,1,1.35-1.35H320.9a1.22,1.22,0,0,1,1.35,1.35s-1.25,9.81-1.35,13.08h0Z"/><path class="cls-60" d="M299.55,162.28a1.62,1.62,0,0,0,.35,2.31l6,4.71a1.66,1.66,0,0,0,2.3-.38l4.66-6.06a1.62,1.62,0,0,0-.33-2.31l-6-4.71a1.78,1.78,0,0,0-2.38.38l-4.58,6.06h0Z"/><path class="cls-60" d="M293.83,157.85a1.65,1.65,0,0,0-1.43,1.83l1,7.6a1.68,1.68,0,0,0,1.91,1.44l7.48-1a1.63,1.63,0,0,0,1.37-1.92l-0.92-7.6a1.62,1.62,0,0,0-1.87-1.35l-7.52,1h0Z"/><path class="cls-61" d="M197.85,535.62a4.35,4.35,0,0,0,.43,1.59,5.7,5.7,0,0,0,1.25,1.56,9.77,9.77,0,0,0,1.26,1,9.62,9.62,0,0,0,1.54.72,11.55,11.55,0,0,0,2.68.75,12.62,12.62,0,0,0,1.64.17,3.13,3.13,0,0,0,1.74-.3c0.07-.4.19-1,0.31-1.58s0.27-1.1.38-1.48a12.59,12.59,0,0,1,1.27-2.87,9.19,9.19,0,0,1,2.57-3.1,30.87,30.87,0,0,1,3.37-2.41c1.07-.64,3.53-1.73,4.43-2.15a13,13,0,0,0,1.15.87,8.07,8.07,0,0,0,1.72.94,5.8,5.8,0,0,0,3.8.35,7.21,7.21,0,0,0,3.46-2,5.68,5.68,0,0,0,1.47-2.69,14.78,14.78,0,0,0,.35-2.31,12.59,12.59,0,0,0-.05-2.05A11.71,11.71,0,0,0,235,518.9a7.25,7.25,0,0,0,1.61-2.6,7.38,7.38,0,0,0,0-3.09,13.14,13.14,0,0,0-.93-2.55,9.5,9.5,0,0,0-1.61-2.14,13.1,13.1,0,0,0-2.21-1.68,5.34,5.34,0,0,0,0-2,6.25,6.25,0,0,0-1.14-2.8,9.34,9.34,0,0,0-3.4-3.46,10.21,10.21,0,0,0-2.84-1,12.94,12.94,0,0,0-3.24-.13,7.14,7.14,0,0,0-4.05-1.91,6.89,6.89,0,0,0-2.43.09,7.41,7.41,0,0,0-3.46,1.2,15.31,15.31,0,0,0-7.37-.78,12.68,12.68,0,0,0-5.87,2.58,10.12,10.12,0,0,0-3.5,6.12c-5,.8-6.22,4.89-4.88,8,1.17,2.73,4.18,4.68,7.39,5.65,0.53,1.32,2.27,7,2.27,7a12,12,0,0,1-1.55,10.19h0Zm3-18a9.94,9.94,0,0,0,1.9-1.18,19.53,19.53,0,0,0,1.82.79,5.51,5.51,0,0,0,1.95.43,20.09,20.09,0,0,1-.82,4c-0.67,1.76-.85,2-1.38,2.54a0.64,0.64,0,0,1-.5-0.17,10.64,10.64,0,0,1-1.83-2.89,18.37,18.37,0,0,1-1.13-3.57h0ZM214.78,523a8.5,8.5,0,0,0-.61,1.66,3.45,3.45,0,0,0-.18,1.73,5.26,5.26,0,0,0,2.52-.28s2.31-.64,2.78-0.81a4.05,4.05,0,0,1-.29-1.42s-1.38-.15-2.05-0.28a15.19,15.19,0,0,1-2.17-.6h0Z"/><rect class="cls-62" x="267.4" y="240.35" width="13.3" height="13.3" transform="translate(-88.89 313.21) rotate(-52.37)"/><rect class="cls-63" x="327.18" y="344.05" width="13.3" height="13.3" transform="translate(-150.06 334.07) rotate(-44.44)"/><rect class="cls-62" x="398.95" y="360.82" width="13.3" height="13.3" transform="translate(70.46 -65.23) rotate(10.07)"/><rect class="cls-64" x="189.6" y="363.04" width="13.3" height="13.3" transform="translate(-216.35 299.37) rotate(-52.37)"/><rect class="cls-64" x="308.88" y="432.06" width="13.3" height="13.3" transform="translate(-216.93 346.43) rotate(-44.44)"/><rect class="cls-63" x="322.85" y="229.11" width="13.3" height="13.3" transform="translate(46.27 -53.96) rotate(10.07)"/><rect class="cls-62" x="351.68" y="296.93" width="13.3" height="13.3" transform="translate(578.95 -111.02) rotate(77.75)"/><rect class="cls-64" x="252.36" y="174.76" width="13.3" height="13.3" transform="translate(381.32 -110.2) rotate(77.75)"/><rect class="cls-63" x="245.48" y="429.9" width="13.3" height="13.3" transform="translate(-247.54 369.65) rotate(-52.37)"/><rect class="cls-65" x="344.12" y="459.23" width="13.3" height="13.3" transform="translate(-225.87 378.87) rotate(-44.44)"/><rect class="cls-63" x="371.85" y="356.85" width="13.3" height="13.3" transform="translate(69.35 -60.56) rotate(10.07)"/><rect class="cls-64" x="289.07" y="314.66" width="13.3" height="13.3" transform="translate(60.71 -46.74) rotate(10.07)"/><rect class="cls-64" x="218.74" y="292.57" width="13.3" height="13.3" transform="translate(55.76 -34.79) rotate(10.07)"/><rect class="cls-62" x="274.29" y="412.65" width="13.3" height="13.3" transform="translate(631.06 55.77) rotate(77.75)"/><rect class="cls-63" x="230.43" y="364.31" width="13.3" height="13.3" transform="translate(549.28 60.55) rotate(77.75)"/><rect class="cls-62" x="184.76" y="478.95" width="13.3" height="13.3" transform="translate(-310.03 340.67) rotate(-52.37)"/><rect class="cls-65" x="278.13" y="504.22" width="13.3" height="13.3" transform="translate(-276.25 345.54) rotate(-44.44)"/><rect class="cls-62" x="321.41" y="394.41" width="13.3" height="13.3" transform="matrix(0.98, 0.17, -0.17, 0.98, 75.14, -51.16)"/><rect class="cls-65" x="129.34" y="286.37" width="13.3" height="13.3" transform="translate(53.3 -19.26) rotate(10.07)"/><path class="cls-66" d="M159.21,540.52c-0.22-6.14-7.66-20.65-15.68-14.33-5.43,4.27-.45,12.67,6,9.09,16.5-9.23-4.9-43.4-22.08-28.43a3.21,3.21,0,0,0-1.17,2.54c1.17,5.63,7,7.86,12.26,6.1,4.75-1.59,7.64-6.48,8.51-11.2,2.72-14.75-10.05-32.21-25-33.64-10.6-1-18.17,11.86-9,19.47,10,8.23,21.43-6.13,21.32-15.54-0.23-19.87-24.13-30.24-41.09-27.71-1.33.2-2.86,3.78-1.63,3.59a37.74,37.74,0,0,1,31.28,9.13c4.1,3.77,7.66,8.93,8.53,14.56,1.27,8.19-7.27,19.05-15.7,13-2.06-1.47-4.07-4.67-3.92-7.28,0.38-6.47,6.26-6.17,10.49-5.35a25.86,25.86,0,0,1,13.13,7.39,32.24,32.24,0,0,1,8.84,16.74c0.92,5.48-.84,14.22-8.38,13.81-3.45-.19-6.23-2-7-5.53l-1.17,2.54c10.43-9.09,22.08,3.59,24,13.7l0.29,1.74q1.71,6.63-7.46,6.18c0.46-3.85,3.55-2.11,5.72-.64,4.17,2.83,6.06,7.66,6.24,12.51,0.06,1.65,2.73-1.21,2.69-2.45h0Z"/><path class="cls-63" d="M340.23,544.43a11.87,11.87,0,0,1,4.61-10q2.65-4.6,4-.41,2.77,3-.21,1.38c-5.41-1.12-4.77-8.77-3.79-12.68,1.68-6.71,7.1-13.47,14.6-13.19,1.43,0.05,3.68.24,4.85,1.07,2.78,2,.17,4.24-2.73,4.68-9.53,1.44-11.39-10.45-9.9-17.19,2-9.08,8.65-17.68,17.73-20.51,3.61-1.13,8.62-1.81,11.6,1.05,4.48,4.31,1.44,12.89-5.41,12.53-6.61-.35-11.67-6.48-12.24-12.77-1.73-18.84,22.64-28,37.64-26.16,1.3,0.16,3.1-3.41,1.63-3.59-15.35-1.87-31.74,5.38-39,19.45-3,5.73-4.36,12.94-1.14,18.87,2.94,5.42,9.62,9.51,15.78,7.08,11.1-4.38,10.14-22.5-3.72-20.85s-24.58,16-26,29.26c-0.76,7,1.7,16,10,16.54,5.77,0.36,10.1-3.52,11.08-9a0.92,0.92,0,0,0-.27-0.87c-8.53-7-19.37-1.3-24.15,7.2-3,5.41-7.88,22.79,3.31,23.19,5.35,0.19,10.1-9.43,3.7-11.29-8.67-2.52-14.6,11.61-14.65,17.85,0,2.26,2.68-.44,2.69-1.7h0Z"/><path class="cls-67" d="M266.24,404.68c-0.66-1.77-1.72-4.79-1.16-6.71q10.31-3.58,4.54-4.43a3.47,3.47,0,0,1-2.89-1.63c-3-2.63-3.84-7.15-4-11-0.32-6,2.32-13.44,8.37-15.64,3.72-1.35,4.79-1.54,5.15,2.06,0.32,3.25-.29,3.59-3.41,3.89-9.09.89-12.51-10.44-12.68-17.52-0.22-9.2,3.46-19.27,12-23.81,3.26-1.74,7.1-2.57,10.07.16a7.9,7.9,0,0,1-1.81,12.74c-5.73,3.15-13.64-2.91-16-7.67-8.28-17,9.85-34.41,25-38.21,1.2-.3,2.75-3.93,1-3.49-14.86,3.73-27.82,16.13-30.08,31.68-1,7,.58,14.88,6.77,19.11,4.89,3.33,11.82,3.82,16.37-.35,8.92-8.17,1.89-23.91-10.52-17.47s-18.19,23.72-14.48,36.88c2,7.12,8.1,14.07,16.06,10.83,4.67-1.9,8-6.66,7-11.72a0.65,0.65,0,0,0-.27-0.5c-9-3-17.29,3.39-20.06,11.86-2.18,6.66-1.49,27.43,10.39,23.48,5.12-1.7,7.28-12.28.06-11.41-9.08,1.09-10.18,15.71-7.86,21.92,0.45,1.2,3-1.77,2.51-3h0Z"/><path class="cls-68" d="M193.43,438c-2.41-2.08-6.71-7.16-5.79-10.83l4-5.09-2.17,5c-1.86,1.22-5.67-2.4-6.82-3.49a24.18,24.18,0,0,1-6.29-9.92c-0.73-2.18-1.52-4.9-1-7.21s4.18-9.48,7.51-9.26c4.66,0.3,1.49,4.43.21,6.21-2.72,3.78-4.48,4.56-8.86,3-3.49-1.24-6.54-4.06-8.74-7a32.34,32.34,0,0,1-6.56-18.72c-0.08-4,.42-9.35,3.15-12.43,4.06-4.57,9.33-5.07,12.82-.26,3.12,4.31.5,9.86-4.13,12-3.5,1.65-8.67.31-11.72-1.63-16.26-10.34-9.91-35.82,1.79-46.66,1.05-1,1.58-4.42-.35-2.63-11,10.24-17.24,26.85-11.94,41.56,2.8,7.79,9.49,14.43,18.28,13.48a14.41,14.41,0,0,0,11.81-8.5,11.32,11.32,0,0,0-3.85-13.39c-4.81-3.38-9.74-.94-13.1,3.2-9.16,11.29-6.18,29.39,3.41,39.4,5,5.24,13,8.3,18.94,2.77,3.82-3.56,6-9.73,2.36-14.08a0.62,0.62,0,0,0-.75-0.22c-8.71,1.57-13.94,10.58-12.88,19.07,1,7.67,10,23,19.48,16.86,5.09-3.33,4.1-14.26-2.81-10.58-8.67,4.61-3.55,18.06,1.9,22.75,0.95,0.82,3.24-2.49,2.14-3.44h0Z"/><path class="cls-69" d="M244.2,565.46c-0.66-1.77-1.72-4.79-1.16-6.71q10.31-3.58,4.54-4.43a3.47,3.47,0,0,1-2.89-1.63c-3-2.63-3.84-7.15-4-11-0.32-6,2.32-13.44,8.37-15.64,3.72-1.35,4.79-1.54,5.15,2.06,0.32,3.25-.29,3.59-3.41,3.89-9.09.89-12.51-10.44-12.68-17.52-0.22-9.2,3.46-19.27,12-23.81,3.26-1.74,7.1-2.57,10.07.16a7.9,7.9,0,0,1-1.81,12.74c-5.73,3.15-13.64-2.91-16-7.67-8.28-17,9.85-34.41,25-38.21,1.2-.3,2.75-3.93,1-3.49-14.86,3.73-27.82,16.13-30.08,31.68-1,7,.58,14.88,6.77,19.11,4.89,3.33,11.82,3.82,16.37-.35,8.92-8.17,1.89-23.91-10.52-17.47S232.68,510.88,236.39,524c2,7.12,8.1,14.07,16.06,10.83,4.67-1.9,8-6.66,7-11.72a0.65,0.65,0,0,0-.27-0.5c-9-3-17.29,3.39-20.06,11.86-2.18,6.66-1.49,27.43,10.39,23.48,5.12-1.7,7.28-12.28.06-11.41-9.08,1.09-10.18,15.71-7.86,21.92,0.45,1.2,3-1.77,2.51-3h0Z"/><path class="cls-70" d="M183.13,558.08a1.44,1.44,0,1,1-1.82.92,1.42,1.42,0,0,1,1.82-.92h0Z"/><path class="cls-70" d="M169.23,463.57a1.42,1.42,0,0,1,.92,1.82,1.46,1.46,0,0,1-1.82.92,1.42,1.42,0,0,1-.92-1.82,1.46,1.46,0,0,1,1.82-.92h0Z"/><path class="cls-71" d="M236.91,438.47a1.42,1.42,0,0,1,.92,1.82,1.46,1.46,0,0,1-1.82.92,1.42,1.42,0,0,1-.92-1.82,1.46,1.46,0,0,1,1.82-.92h0Z"/><path class="cls-70" d="M285.68,385.77a1.44,1.44,0,1,1-1.82.92,1.42,1.42,0,0,1,1.82-.92h0Z"/><path class="cls-70" d="M241,528.75a1.44,1.44,0,1,1-1.82.92,1.46,1.46,0,0,1,1.82-.92h0Z"/><path class="cls-72" d="M238.58,370a2.41,2.41,0,1,1-3,1.53,2.43,2.43,0,0,1,3-1.53h0Z"/><path class="cls-72" d="M255.65,445.56a2.41,2.41,0,0,1-1.51,4.58,2.38,2.38,0,0,1-1.5-3.05,2.33,2.33,0,0,1,3-1.53h0Z"/><path class="cls-72" d="M320.54,402a2.43,2.43,0,0,1,1.53,3,2.4,2.4,0,0,1-3.05,1.5,2.43,2.43,0,0,1-1.53-3,2.46,2.46,0,0,1,3.05-1.5h0Z"/><path class="cls-72" d="M222.69,510.65a2.41,2.41,0,1,1-3,1.53,2.38,2.38,0,0,1,3-1.53h0Z"/><path class="cls-71" d="M187,537.3a3.12,3.12,0,1,1-3.94,2,3.1,3.1,0,0,1,3.94-2h0Z"/><path class="cls-71" d="M294.07,474.21a3.12,3.12,0,1,1-3.94,2,3.1,3.1,0,0,1,3.94-2h0Z"/><path class="cls-71" d="M260.83,422.83a3.1,3.1,0,0,1,2,3.94,3.15,3.15,0,0,1-4,2,3.1,3.1,0,0,1-2-3.94,3.15,3.15,0,0,1,4-2h0Z"/><path class="cls-71" d="M308,439.57a3.12,3.12,0,1,1-3.94,2,3.1,3.1,0,0,1,3.94-2h0Z"/><path class="cls-71" d="M198.78,429.53a3.12,3.12,0,1,1-3.94,2,3.1,3.1,0,0,1,3.94-2h0Z"/><path class="cls-71" d="M198.63,486.41a3.12,3.12,0,1,1-3.94,2,3.1,3.1,0,0,1,3.94-2h0Z"/><path class="cls-71" d="M208.67,526.75a3.12,3.12,0,1,1-3.94,2,3.11,3.11,0,0,1,3.94-2h0Z"/><path class="cls-71" d="M237.65,592.33a3.1,3.1,0,0,1,2,3.94,3.15,3.15,0,0,1-4,2,3.12,3.12,0,1,1,2-5.92h0Z"/><path class="cls-73" d="M200.41,569.81a1,1,0,1,1-1.22.61,1,1,0,0,1,1.22-.61h0Z"/><path class="cls-73" d="M255.41,560.25a1,1,0,1,1-1.22.61,1,1,0,0,1,1.22-.61h0Z"/><path class="cls-74" d="M271.31,519.72a1,1,0,1,1-1.22.61,1,1,0,0,1,1.22-.61h0Z"/><path class="cls-73" d="M216.83,402.79a1,1,0,1,1-1.22.61,0.92,0.92,0,0,1,1.22-.61h0Z"/><path class="cls-73" d="M220.8,550.63a0.93,0.93,0,0,1,.51,1.25,1,1,0,1,1-.51-1.25h0Z"/><path class="cls-73" d="M253,413.19a4.57,4.57,0,0,1,5.76-2l0.34,2.38s-2.35-1.34-5.41,1Z"/><path class="cls-73" d="M303.44,390.39a4.57,4.57,0,0,1,5.76-2l0.34,2.38s-2.35-1.34-5.41,1Z"/><polygon class="cls-75" points="233.57 397.74 236.9 392.94 240.41 394.96 233.57 397.74"/><polygon class="cls-75" points="238.17 470.06 241.46 465.27 245.01 467.28 238.17 470.06"/><polygon class="cls-70" points="245.03 434.44 250.35 436.2 249.07 437.45 245.03 434.44"/><polygon class="cls-76" points="228.87 423.21 235.6 427.39 231.48 430.82 228.87 423.21"/><polygon class="cls-76" points="208.09 590.87 214.82 595.04 210.67 598.48 208.09 590.87"/><path class="cls-77" d="M250.92,369.21s3.29-2.28,2.79-8.34l3.3,0.24s1,2-1,5.57S253.2,370,253.2,370Z"/><path class="cls-78" d="M247.17,520.33s-3.56-4.57-.23-11.88l4.83,0.77s-5.1,7.57,0,15.18Z"/><path class="cls-78" d="M268.77,555.26s-3.56-4.57-.23-11.88l4.79,0.77s-5.06,7.56,0,15.18Z"/><path class="cls-73" d="M270.81,479.32a4.57,4.57,0,0,1,5.76-2l0.33,2.34s-2.35-1.34-5.41,1Z"/><polygon class="cls-75" points="265.73 501.3 269.02 496.5 272.57 498.52 265.73 501.3"/><polygon class="cls-75" points="199.18 555.54 202.51 550.74 206.05 552.76 199.18 555.54"/><polygon class="cls-70" points="262.16 509.4 267.48 511.16 266.25 512.43 262.16 509.4"/><polygon class="cls-79" points="250.07 482.45 257.15 478.89 257.91 484.21 250.07 482.45"/><path class="cls-77" d="M284.77,509.13s3.29-2.28,2.79-8.34l3.3,0.28s1,2-1,5.57-2.79,3.31-2.79,3.31Z"/><path class="cls-77" d="M257.12,538.74s3.29-2.28,2.79-8.34l3.3,0.24s1,2-1,5.57-2.79,3.31-2.79,3.31Z"/><path class="cls-78" d="M204.12,404s-2.37-3-.16-7.92l3.21,0.51s-3.38,5.07,0,10.11Z"/><path class="cls-73" d="M182.1,401.19a4.57,4.57,0,0,1,5.76-2l0.33,2.34s-2.35-1.34-5.41,1Z"/><polygon class="cls-75" points="209.59 420.61 212.88 415.82 216.43 417.83 209.59 420.61"/><polygon class="cls-75" points="242.07 572.45 246.31 576.44 243.75 579.63 242.07 572.45"/><polygon class="cls-75" points="233.3 559.86 236.63 555.06 240.14 557.08 233.3 559.86"/><polygon class="cls-79" points="199.77 500.26 206.5 504.43 202.34 507.83 199.77 500.26"/><path class="cls-73" d="M180.61,496a4.57,4.57,0,0,1,5.76-2l0.34,2.38s-2.35-1.34-5.41,1Z"/><polygon class="cls-80" points="186.26 523.84 189.55 519.05 193.1 521.06 186.26 523.84"/><polygon class="cls-70" points="177.41 418.81 182.73 420.58 181.46 421.86 177.41 418.81"/><polygon class="cls-70" points="174.19 444.72 179.51 446.48 178.24 447.76 174.19 444.72"/><polygon class="cls-76" points="198.63 450.25 205.72 446.72 206.47 452.04 198.63 450.25"/><path class="cls-77" d="M221,460.14s3.29-2.28,2.79-8.34l3.3,0.24s1,2-1,5.57-2.79,3.31-2.79,3.31Z"/><path class="cls-78" d="M147.83,546.71s3.29-2.28,2.79-8.34l3.3,0.24s1,2-1,5.57-2.79,3.31-2.79,3.31Z"/><path class="cls-77" d="M182.7,471.81s3.29-2.28,2.79-8.34l3.3,0.24s1,2-1,5.57-2.79,3.31-2.79,3.31Z"/><path class="cls-78" d="M295,424.63s-2.12-5.37-10.11-6.29l-1.81,4.53s9.1-.47,13.07,7.74Z"/><path class="cls-73" d="M281.24,353.25a4.57,4.57,0,0,1,5.76-2l0.33,2.34s-2.35-1.34-5.41,1Z"/><path class="cls-73" d="M264.62,581.25a4.57,4.57,0,0,1,5.76-2l0.34,2.38s-2.35-1.34-5.42,1Z"/><polygon class="cls-75" points="264.33 399.57 267.63 394.77 271.18 396.79 264.33 399.57"/><polygon class="cls-70" points="268.98 372.2 274.3 373.97 273.02 375.21 268.98 372.2"/><polygon class="cls-76" points="248.28 385.07 255.37 381.51 256.12 386.83 248.28 385.07"/><path class="cls-77" d="M248.84,342.7s3.29-2.28,2.79-8.34l3.3,0.28s1,2-1,5.57-2.79,3.31-2.79,3.31Z"/><path class="cls-77" d="M281.37,370.7s3.29-2.28,2.79-8.34l3.3,0.24s1,2-1,5.57-2.79,3.31-2.79,3.31Z"/><path class="cls-78" d="M157.4,515.09s4.09-4.08,11.79-1.78l-0.14,4.88s-8.16-4.06-15.07,1.94Z"/><path class="cls-73" d="M237.49,451a4.57,4.57,0,0,1,5.76-2l0.33,2.34s-2.35-1.34-5.37,1Z"/><polygon class="cls-75" points="207.41 465.79 210.7 460.99 214.25 463.01 207.41 465.79"/><polygon class="cls-70" points="215.14 492.42 217.92 497.29 216.12 497.4 215.14 492.42"/><polygon class="cls-76" points="197.88 479.37 204.97 475.84 205.73 481.16 197.88 479.37"/><path class="cls-77" d="M230.88,506.83s3.29-2.28,2.79-8.34l3.3,0.24s1,2-1,5.57-2.79,3.31-2.79,3.31Z"/><path class="cls-77" d="M217.2,576s3.29-2.28,2.79-8.34l3.3,0.24s1,2-1,5.57-2.79,3.31-2.79,3.31Z"/><path class="cls-77" d="M220.69,539.52s3.29-2.28,2.79-8.34l3.3,0.24s1,2-1,5.57S223,540.3,223,540.3Z"/><path class="cls-78" d="M221.45,483.65s-3.56-4.57-.23-11.88l4.79,0.77s-5.06,7.56,0,15.18Z"/><path class="cls-73" d="M279.57,443.35a4.57,4.57,0,0,1,5.76-2l0.33,2.34s-2.35-1.34-5.41,1Z"/><polygon class="cls-75" points="295.37 462.16 298.69 457.33 302.21 459.38 295.37 462.16"/><polygon class="cls-70" points="276.67 458.46 281.99 460.22 280.71 461.47 276.67 458.46"/><polygon class="cls-76" points="261.78 443.58 268.87 440.06 269.61 445.34 261.78 443.58"/><path class="cls-77" d="M274.23,412.11s3.29-2.28,2.79-8.34l3.3,0.24s1,2-1,5.57-2.8,3.27-2.8,3.27Z"/><path class="cls-77" d="M294.46,416.16s3.29-2.28,2.79-8.34l3.3,0.28s1,2-1,5.57-2.79,3.31-2.79,3.31Z"/><path class="cls-78" d="M162.71,493.14s-3.56-4.57-.23-11.88L167.3,482s-5.1,7.57,0,15.18Z"/><path class="cls-78" d="M181.73,604.89s-3.56-4.57-.23-11.88l4.83,0.77s-5.1,7.57,0,15.18Z"/><path class="cls-73" d="M231.87,360.76a4.57,4.57,0,0,1,5.76-2l0.33,2.34s-2.35-1.34-5.41,1Z"/><polygon class="cls-75" points="214.71 393.99 217.99 389.16 221.55 391.21 214.71 393.99"/><polygon class="cls-70" points="225.08 408.37 230.38 410.17 229.1 411.42 225.08 408.37"/><polygon class="cls-76" points="327.7 432.81 334.82 429.24 335.54 434.57 327.7 432.81"/><path class="cls-77" d="M209.75,364.83s3.29-2.28,2.79-8.34l3.3,0.28s1,2-1,5.57-2.8,3.27-2.8,3.27Z"/><path class="cls-76" d="M302.78,342.58a7.67,7.67,0,0,1-.7,4.27c-1.08,1.86-8.56,6.89-9.65,8s-1.71,2-1.44,3,3.3,2.94,5.9,4.23,9.33,3.53,10.81,8.27c0,0,.3,1.84.45,3.12s-1.38,3.78-4.49,6.28c-3.26,2.6-6.49,5.23-7.23,6.4a11,11,0,0,0,4.61,1.5c2.43,0.31,9.84,1.39,10.61,5.14l0.46,2.28c0.12,0.6-.24,2.75-4.28,4.78s-8,3.89-8,3.89l-0.44-2.5s12.11-5.2,12.12-7.47l-0.08-.39c-0.11-.53-2.19-1.81-6-2.54s-8.72-1.43-9.36-3.13l-0.65-3.19c-0.09-.46.94-2.38,4-4.61s7.45-5.68,8.11-8.18c-0.61-2.47-4-3.92-5-4.38-2.19-1.09-8.78-3.87-11.27-6.42a3.2,3.2,0,0,1-.65-1.91c-0.15-.74-0.27-2.24-0.34-3.1s-0.05-2.76,3.19-5.14c2.92-2.13,8.48-4.94,9.3-8.1h0Z"/><path class="cls-81" d="M299.43,379.86c2.22-1.62,8.24-6.28,8.32-9.29,0.09,0.64.29,1.95,0.39,2.8,0.12,1.29-1.38,3.78-4.49,6.28-3.26,2.6-6.49,5.23-7.23,6.4a3.41,3.41,0,0,1-1-1.58c-0.09-.46.94-2.38,4-4.61h0Z"/><path class="cls-70" d="M89.29,97.6a1.44,1.44,0,1,0-2-.13,1.4,1.4,0,0,0,2,.13h0Z"/><path class="cls-70" d="M113.48,190a1.42,1.42,0,0,0,.13-2,1.46,1.46,0,0,0-2-.13,1.44,1.44,0,0,0,1.9,2.17h0Z"/><path class="cls-71" d="M185.58,186.63a1.42,1.42,0,0,0,.13-2,1.46,1.46,0,0,0-2-.13,1.44,1.44,0,0,0,1.9,2.17h0Z"/><path class="cls-70" d="M251.09,216a1.44,1.44,0,1,0-2-.13,1.4,1.4,0,0,0,2,.13h0Z"/><path class="cls-70" d="M154,102a1.44,1.44,0,1,0-2-.13,1.42,1.42,0,0,0,2,.13h0Z"/><path class="cls-72" d="M213.9,248.94a2.39,2.39,0,0,0,.23-3.37,2.41,2.41,0,1,0-.23,3.37h0Z"/><path class="cls-72" d="M200.06,172.81a2.41,2.41,0,1,0-3.18-3.62,2.41,2.41,0,0,0,3.18,3.62h0Z"/><path class="cls-72" d="M276.83,187.48a2.43,2.43,0,0,0,.22-3.4,2.41,2.41,0,1,0-.22,3.4h0Z"/><path class="cls-72" d="M144.25,125.77a2.43,2.43,0,0,0,.22-3.4,2.41,2.41,0,1,0-.22,3.4h0Z"/><path class="cls-71" d="M101,115.24a3.12,3.12,0,1,0-4.4-.27,3.11,3.11,0,0,0,4.4.27h0Z"/><path class="cls-71" d="M224.21,131.4a3.12,3.12,0,1,0-4.4-.27,3.11,3.11,0,0,0,4.4.27h0Z"/><path class="cls-71" d="M213.72,191.66a3.1,3.1,0,0,0,.27-4.4,3.15,3.15,0,0,0-4.43-.26,3.11,3.11,0,0,0-.27,4.4,3.15,3.15,0,0,0,4.43.26h0Z"/><path class="cls-71" d="M250.53,157.81a3.12,3.12,0,1,0-4.4-.27,3.07,3.07,0,0,0,4.4.27h0Z"/><path class="cls-71" d="M154,209.81a3.12,3.12,0,1,0-4.4-.27,3.1,3.1,0,0,0,4.4.27h0Z"/><path class="cls-71" d="M131.59,157.5a3.12,3.12,0,1,0-4.4-.27,3.11,3.11,0,0,0,4.4.27h0Z"/><path class="cls-71" d="M125.05,116.43a3.12,3.12,0,1,0-4.4-.27,3.1,3.1,0,0,0,4.4.27h0Z"/><path class="cls-71" d="M126.07,44.79a3.1,3.1,0,0,0,.27-4.4,3.15,3.15,0,0,0-4.43-.26,3.11,3.11,0,0,0-.27,4.4,3.16,3.16,0,0,0,4.43.26h0Z"/><path class="cls-73" d="M100.59,80A1,1,0,1,0,99.23,80a1,1,0,0,0,1.37.09h0Z"/><path class="cls-73" d="M155,67.36a1,1,0,1,0-1.37-.09,1,1,0,0,0,1.37.09h0Z"/><path class="cls-74" d="M185.45,98.43a1,1,0,1,0-1.37-.09,1,1,0,0,0,1.37.09h0Z"/><path class="cls-73" d="M181.08,227.35a1,1,0,1,0-1.37-.09,1,1,0,0,0,1.37.09h0Z"/><path class="cls-73" d="M126.87,89.72a1,1,0,1,0-1.35,0,1,1,0,0,0,1.35,0h0Z"/><path class="cls-73" d="M210.28,203.6a4.57,4.57,0,0,0,6.08-.4l-0.61-2.28s-1.64,2.16-5.38,1.17Z"/><path class="cls-73" d="M265.62,204.83a4.57,4.57,0,0,0,6.08-.4l-0.61-2.28s-1.64,2.16-5.38,1.17Z"/><polygon class="cls-75" points="198.45 225.42 203.39 228.53 205.83 225.3 198.45 225.42"/><polygon class="cls-75" points="174.38 157.09 179.29 160.22 181.77 156.98 174.38 157.09"/><polygon class="cls-70" points="194.64 187.19 198.84 183.45 197.17 182.81 194.64 187.19"/><polygon class="cls-76" points="184.17 203.85 188.72 197.34 183.59 195.83 184.17 203.85"/><polygon class="cls-76" points="99.43 57.66 103.98 51.18 98.81 49.65 99.43 57.66"/><path class="cls-77" d="M225.59,244.88s3.92,0.81,5.83,6.58l2.94-1.51s0.12-2.25-3.12-4.73-3.86-1.95-3.86-1.95Z"/><path class="cls-78" d="M163,107.28s-1.49,5.59,4.44,11l4.14-2.6s-7.65-5-5.95-14Z"/><path class="cls-78" d="M169.2,66.68s-1.49,5.59,4.44,11l4.11-2.59s-7.62-5-5.95-14Z"/><path class="cls-73" d="M200.8,135.8a4.57,4.57,0,0,0,6.08-.4l-0.61-2.28s-1.64,2.16-5.38,1.17Z"/><polygon class="cls-75" points="187.52 117.53 192.43 120.65 194.9 117.41 187.52 117.53"/><polygon class="cls-75" points="105.05 93.66 110 96.81 112.47 93.53 105.05 93.66"/><polygon class="cls-70" points="181.07 111.47 185.28 107.77 183.64 107.08 181.07 111.47"/><polygon class="cls-79" points="180.49 141.04 188.39 141.51 187.01 136.32 180.49 141.04"/><path class="cls-77" d="M202,102.87s3.92,0.81,5.83,6.58l2.94-1.51s0.12-2.25-3.12-4.73-3.86-1.95-3.86-1.95Z"/><path class="cls-77" d="M165,86.48s3.92,0.81,5.83,6.58l2.94-1.51s0.13-2.25-3.12-4.73-3.86-1.95-3.86-1.95Z"/><path class="cls-78" d="M168.92,231.25s-1,3.71,3,7.35l2.75-1.73s-5.1-3.34-4-9.3Z"/><path class="cls-73" d="M149.73,242.39a4.57,4.57,0,0,0,6.08-.4l-0.62-2.32s-1.64,2.16-5.37,1.2Z"/><polygon class="cls-75" points="167.43 213.75 172.34 216.88 174.81 213.63 167.43 213.75"/><polygon class="cls-75" points="137.9 61.31 140.24 55.98 136.64 54.05 137.9 61.31"/><polygon class="cls-75" points="134.75 76.33 139.7 79.48 142.14 76.21 134.75 76.33"/><polygon class="cls-79" points="127.23 144.34 131.78 137.83 126.62 136.33 127.23 144.34"/><path class="cls-73" d="M111.28,155.76a4.57,4.57,0,0,0,6.08-.4l-0.61-2.28s-1.64,2.16-5.38,1.17Z"/><polygon class="cls-80" points="105.57 127.92 110.48 131.04 112.95 127.8 105.57 127.92"/><polygon class="cls-70" points="138.53 228.03 142.73 224.33 141.06 223.65 138.53 228.03"/><polygon class="cls-70" points="125.42 205.42 129.62 201.72 127.95 201.04 125.42 205.42"/><polygon class="cls-76" points="145.75 190.77 153.65 191.24 152.27 186.08 145.75 190.77"/><path class="cls-77" d="M162.47,172.95s3.92,0.81,5.83,6.58l2.94-1.51s0.13-2.25-3.12-4.73-3.86-1.91-3.86-1.91Z"/><path class="cls-78" d="M61.26,121.92s3.92,0.81,5.83,6.58L70,127s0.13-2.25-3.12-4.73S63,120.31,63,120.31Z"/><path class="cls-77" d="M122.66,177.2s3.92,0.81,5.83,6.58l2.94-1.51s0.13-2.25-3.12-4.73-3.86-1.95-3.86-1.95Z"/><path class="cls-78" d="M244.45,176.67s0.15,5.77-6.84,9.75L234.17,183s8.56-3.13,9-12.23Z"/><path class="cls-73" d="M259.74,247.74a4.57,4.57,0,0,0,6.08-.4L265.2,245s-1.64,2.16-5.37,1.2Z"/><path class="cls-73" d="M155.21,44.39a4.57,4.57,0,0,0,6.08-.4l-0.62-2.32s-1.64,2.16-5.37,1.2Z"/><polygon class="cls-75" points="226.06 211.73 230.96 214.85 233.44 211.61 226.06 211.73"/><polygon class="cls-70" points="241.03 235.09 245.24 231.39 243.57 230.71 241.03 235.09"/><polygon class="cls-76" points="216.96 231.35 224.86 231.82 223.47 226.63 216.96 231.35"/><path class="cls-77" d="M234,270.08s3.92,0.81,5.83,6.58l2.94-1.51s0.12-2.25-3.12-4.73-3.86-1.95-3.86-1.95Z"/><path class="cls-77" d="M253,231.63s3.92,0.81,5.83,6.58l2.94-1.51s0.12-2.25-3.12-4.73-3.86-1.91-3.86-1.91Z"/><path class="cls-78" d="M82.43,147.23s5.36,2.15,11.54-3l-2-4.4s-5.92,6.93-14.63,4.11Z"/><path class="cls-73" d="M181.22,174.86a4.57,4.57,0,0,0,6.08-.4l-0.62-2.32s-1.64,2.16-5.34,1.2Z"/><polygon class="cls-75" points="147.76 173.07 152.66 176.19 155.13 172.91 147.76 173.07"/><polygon class="cls-70" points="144.44 145.5 145.09 139.93 143.4 140.57 144.44 145.5"/><polygon class="cls-76" points="133.67 164.26 141.57 164.73 140.18 159.54 133.67 164.26"/><path class="cls-77" d="M153.29,126.08s3.92,0.81,5.83,6.58l2.94-1.51s0.13-2.25-3.12-4.73-3.86-1.95-3.86-1.95Z"/><path class="cls-77" d="M113.65,67.86s3.92,0.81,5.83,6.58l2.94-1.51s0.13-2.25-3.12-4.73-3.86-1.95-3.86-1.95Z"/><path class="cls-77" d="M131.12,100s3.92,0.81,5.83,6.58l2.94-1.51s0.13-2.25-3.12-4.73-3.86-1.95-3.86-1.95Z"/><path class="cls-78" d="M153.68,151.1s-1.49,5.59,4.44,11l4.11-2.59s-7.62-5-5.95-14Z"/><path class="cls-73" d="M222.94,165.48a4.57,4.57,0,0,0,6.08-.4l-0.62-2.32s-1.64,2.16-5.37,1.2Z"/><polygon class="cls-75" points="230.12 141.98 235.06 145.09 237.5 141.86 230.12 141.98"/><polygon class="cls-70" points="214.35 152.71 218.56 149 216.89 148.32 214.35 152.71"/><polygon class="cls-76" points="206.47 172.19 214.38 172.7 212.99 167.51 206.47 172.19"/><path class="cls-77" d="M230.24,196.28s3.92,0.81,5.83,6.58l2.94-1.51s0.12-2.25-3.12-4.73-3.86-1.95-3.86-1.95Z"/><path class="cls-77" d="M247.28,184.64s3.92,0.81,5.83,6.58l2.94-1.51s0.12-2.25-3.12-4.73-3.86-1.95-3.86-1.95Z"/><path class="cls-78" d="M95.91,165.35s-1.49,5.59,4.44,11l4.14-2.6s-7.65-5-5.95-14Z"/><path class="cls-78" d="M69.67,55.07s-1.49,5.59,4.44,11l4.14-2.6s-7.65-5-5.95-14Z"/><path class="cls-73" d="M211.36,260.11a4.57,4.57,0,0,0,6.08-.4l-0.62-2.32s-1.64,2.16-5.37,1.2Z"/><polygon class="cls-75" points="182.57 236.28 187.47 239.4 189.94 236.13 182.57 236.28"/><polygon class="cls-70" points="186.48 218.96 190.65 215.26 188.98 214.58 186.48 218.96"/><polygon class="cls-76" points="271.36 156.34 279.3 156.8 277.88 151.62 271.36 156.34"/><path class="cls-77" d="M189.41,265s3.92,0.81,5.83,6.58l2.94-1.51s0.13-2.25-3.12-4.73-3.86-1.95-3.86-1.95Z"/><path class="cls-70" d="M152.85,346.83a1.44,1.44,0,1,0-2-.13,1.42,1.42,0,0,0,2,.13h0Z"/><path class="cls-71" d="M225,343.45a1.42,1.42,0,0,0,.13-2,1.46,1.46,0,0,0-2-.13,1.44,1.44,0,1,0,1.9,2.17h0Z"/><path class="cls-71" d="M193.36,366.6a3.12,3.12,0,1,0-4.4-.27,3.07,3.07,0,0,0,4.4.27h0Z"/><path class="cls-71" d="M171,314.32a3.12,3.12,0,1,0-4.4-.27,3.1,3.1,0,0,0,4.4.27h0Z"/><polygon class="cls-76" points="223.53 360.67 228.08 354.16 222.92 352.66 223.53 360.67"/><polygon class="cls-79" points="166.6 301.16 171.15 294.65 165.99 293.15 166.6 301.16"/><path class="cls-73" d="M150.66,312.62a4.57,4.57,0,0,0,6.08-.4l-0.62-2.32s-1.64,2.16-5.38,1.17Z"/><polygon class="cls-70" points="164.78 362.24 168.99 358.54 167.33 357.89 164.78 362.24"/><polygon class="cls-76" points="185.08 347.6 193.02 348.06 191.63 342.87 185.08 347.6"/><path class="cls-77" d="M201.8,329.78s3.92,0.81,5.83,6.58l2.94-1.51s0.13-2.25-3.12-4.73-3.86-1.95-3.86-1.95Z"/><path class="cls-77" d="M162,334s3.92,0.81,5.83,6.58l2.94-1.51s0.13-2.25-3.12-4.73-3.86-1.95-3.86-1.95Z"/><path class="cls-78" d="M121.8,304.05s5.36,2.15,11.54-3l-2-4.44s-5.92,6.93-14.63,4.11Z"/><polygon class="cls-75" points="187.12 329.85 192.02 332.98 194.5 329.74 187.12 329.85"/><polygon class="cls-70" points="183.81 302.32 184.46 296.75 182.76 297.39 183.81 302.32"/><polygon class="cls-76" points="173 321.09 180.94 321.55 179.55 316.36 173 321.09"/><path class="cls-78" d="M193,307.92s-1.49,5.59,4.44,11l4.11-2.59s-7.62-5-5.95-14Z"/><path class="cls-78" d="M135.27,322.18s-1.49,5.59,4.44,11l4.11-2.59s-7.62-5-5.95-14Z"/><path class="cls-70" d="M274,238.59a1.44,1.44,0,1,0-2-.13,1.42,1.42,0,0,0,2,.13h0Z"/><path class="cls-71" d="M346.13,235.2a1.42,1.42,0,0,0,.13-2,1.46,1.46,0,0,0-2-.13,1.44,1.44,0,1,0,1.9,2.17h0Z"/><path class="cls-71" d="M314.52,258.39a3.12,3.12,0,1,0-4.4-.27,3.1,3.1,0,0,0,4.4.27h0Z"/><path class="cls-71" d="M292.15,206.1a3.12,3.12,0,1,0-4.4-.27,3.17,3.17,0,0,0,4.4.27h0Z"/><polygon class="cls-76" points="344.68 252.43 349.23 245.92 344.11 244.41 344.68 252.43"/><polygon class="cls-79" points="287.79 192.91 292.31 186.44 287.17 184.9 287.79 192.91"/><path class="cls-73" d="M271.81,204.38a4.57,4.57,0,0,0,6.08-.4l-0.61-2.28s-1.64,2.16-5.38,1.17Z"/><polygon class="cls-70" points="285.98 254.03 290.14 250.3 288.48 249.65 285.98 254.03"/><polygon class="cls-76" points="306.26 239.35 314.17 239.82 312.79 234.66 306.26 239.35"/><path class="cls-77" d="M323,221.53s3.92,0.81,5.83,6.58l2.94-1.51s0.12-2.25-3.12-4.73-3.86-1.91-3.86-1.91Z"/><path class="cls-77" d="M283.17,225.78s3.92,0.81,5.83,6.58l2.94-1.51s0.12-2.25-3.12-4.73-3.86-1.95-3.86-1.95Z"/><path class="cls-78" d="M243,195.8s5.36,2.15,11.54-3l-2-4.4s-5.92,6.93-14.63,4.11Z"/><polygon class="cls-75" points="308.26 221.61 313.18 224.77 315.65 221.49 308.26 221.61"/><polygon class="cls-70" points="305 194.11 305.61 188.55 303.91 189.15 305 194.11"/><polygon class="cls-76" points="294.18 212.84 302.09 213.31 300.7 208.12 294.18 212.84"/><path class="cls-78" d="M314.19,199.68s-1.49,5.59,4.44,11l4.11-2.59s-7.62-5-5.95-14Z"/><path class="cls-78" d="M256.43,214s-1.49,5.59,4.44,11l4.11-2.59s-7.62-5-5.95-14Z"/><path class="cls-70" d="M264.64,331.79a1.44,1.44,0,1,0-2-.13,1.46,1.46,0,0,0,2,.13h0Z"/><path class="cls-71" d="M336.78,328.4a1.44,1.44,0,1,0-2-.13,1.46,1.46,0,0,0,2,.13h0Z"/><path class="cls-71" d="M305.16,351.55a3.1,3.1,0,0,0,.27-4.4,3.15,3.15,0,0,0-4.43-.26,3.11,3.11,0,0,0-.27,4.4,3.15,3.15,0,0,0,4.43.26h0Z"/><path class="cls-71" d="M282.75,299.27a3.11,3.11,0,0,0,.27-4.4,3.15,3.15,0,0,0-4.43-.26,3.1,3.1,0,0,0-.27,4.4,3.19,3.19,0,0,0,4.43.26h0Z"/><polygon class="cls-76" points="335.32 345.59 339.87 339.11 334.71 337.57 335.32 345.59"/><polygon class="cls-79" points="278.39 286.08 282.94 279.6 277.81 278.06 278.39 286.08"/><path class="cls-73" d="M262.44,297.54a4.57,4.57,0,0,0,6.08-.4l-0.61-2.28s-1.64,2.16-5.38,1.17Z"/><polygon class="cls-70" points="276.61 347.19 280.78 343.46 279.11 342.81 276.61 347.19"/><polygon class="cls-76" points="296.9 332.51 304.81 333.01 303.42 327.82 296.9 332.51"/><path class="cls-77" d="M313.62,314.69s3.92,0.81,5.83,6.58l2.94-1.51s0.12-2.25-3.12-4.73-3.86-1.91-3.86-1.91Z"/><path class="cls-77" d="M273.81,318.94s3.92,0.81,5.83,6.58l2.94-1.51s0.12-2.25-3.12-4.73-3.86-1.95-3.86-1.95Z"/><path class="cls-78" d="M233.62,289s5.33,2.16,11.5-3l-2-4.4s-5.92,6.93-14.63,4.11Z"/><polygon class="cls-75" points="298.91 314.81 303.81 317.93 306.28 314.65 298.91 314.81"/><polygon class="cls-70" points="295.63 287.27 296.25 281.71 294.55 282.31 295.63 287.27"/><polygon class="cls-76" points="284.82 306 292.72 306.47 291.34 301.31 284.82 306"/><path class="cls-78" d="M304.83,292.84s-1.49,5.59,4.44,11l4.14-2.6s-7.65-5-5.95-14Z"/><path class="cls-78" d="M247.07,307.13s-1.49,5.59,4.44,11l4.11-2.59s-7.62-5-5.95-14Z"/><path class="cls-70" d="M122.1,425.45a1.44,1.44,0,1,0-2-.13,1.42,1.42,0,0,0,2,.13h0Z"/><path class="cls-71" d="M194.23,422.06a1.44,1.44,0,1,0-2-.13,1.42,1.42,0,0,0,2,.13h0Z"/><path class="cls-71" d="M162.62,445.25a3.11,3.11,0,0,0,.27-4.4,3.15,3.15,0,0,0-4.43-.26,3.1,3.1,0,0,0-.27,4.4,3.19,3.19,0,0,0,4.43.26h0Z"/><path class="cls-71" d="M140.24,392.93a3.1,3.1,0,0,0,.27-4.4,3.15,3.15,0,0,0-4.43-.26,3.12,3.12,0,1,0,4.16,4.66h0Z"/><polygon class="cls-76" points="192.82 439.28 197.36 432.77 192.21 431.27 192.82 439.28"/><polygon class="cls-79" points="135.85 379.78 140.4 373.27 135.27 371.76 135.85 379.78"/><path class="cls-73" d="M119.94,391.23a4.57,4.57,0,0,0,6.08-.4l-0.62-2.32s-1.64,2.16-5.37,1.2Z"/><polygon class="cls-70" points="134.07 440.86 138.24 437.16 136.61 436.51 134.07 440.86"/><polygon class="cls-76" points="154.36 426.21 162.26 426.68 160.88 421.49 154.36 426.21"/><path class="cls-77" d="M171.09,408.39s3.92,0.81,5.83,6.58l2.94-1.51s0.13-2.25-3.12-4.73-3.86-1.95-3.86-1.95Z"/><path class="cls-77" d="M131.26,412.6s3.92,0.81,5.83,6.58l2.94-1.51s0.13-2.25-3.12-4.73-3.86-1.95-3.86-1.95Z"/><path class="cls-78" d="M91.08,382.66s5.33,2.16,11.51-3l-2-4.4s-5.92,6.93-14.63,4.11Z"/><polygon class="cls-75" points="156.36 408.47 161.27 411.6 163.75 408.36 156.36 408.47"/><polygon class="cls-70" points="153.09 380.94 153.7 375.37 152.04 376 153.09 380.94"/><polygon class="cls-76" points="142.28 399.7 150.18 400.17 148.8 394.98 142.28 399.7"/><path class="cls-78" d="M162.29,386.54s-1.49,5.59,4.44,11l4.14-2.6s-7.65-5-5.94-13.93Z"/><path class="cls-78" d="M104.52,400.8s-1.49,5.59,4.44,11l4.11-2.59s-7.62-5-5.94-13.93Z"/><path class="cls-72" d="M358.15,425.22a2.43,2.43,0,0,0,.22-3.4,2.4,2.4,0,0,0-3.39-.18,2.43,2.43,0,0,0-.22,3.4,2.46,2.46,0,0,0,3.39.18h0Z"/><path class="cls-73" d="M346.95,442.57a4.57,4.57,0,0,0,6.08-.4l-0.62-2.32S350.77,442,347,441Z"/><polygon class="cls-76" points="352.71 394.04 360.61 394.5 359.23 389.35 352.71 394.04"/><path class="cls-70" d="M355.32,476.33a1.42,1.42,0,0,0,.13-2,1.46,1.46,0,0,0-2-.13,1.42,1.42,0,0,0-.13,2,1.46,1.46,0,0,0,2,.13h0Z"/><path class="cls-71" d="M373.47,443.8a3.12,3.12,0,1,0-4.4-.27,3.11,3.11,0,0,0,4.4.27h0Z"/><polygon class="cls-79" points="369.1 430.61 373.66 424.14 368.5 422.63 369.1 430.61"/><path class="cls-73" d="M353.16,442.07a4.57,4.57,0,0,0,6.08-.4l-0.62-2.32s-1.64,2.16-5.38,1.17Z"/><path class="cls-77" d="M404.31,459.23s3.92,0.81,5.83,6.58l2.94-1.51s0.12-2.25-3.12-4.73-3.86-1.95-3.86-1.95Z"/><path class="cls-77" d="M364.49,463.48s3.92,0.81,5.83,6.58l2.94-1.51s0.12-2.25-3.12-4.73-3.86-1.95-3.86-1.95Z"/><polygon class="cls-75" points="389.59 459.35 394.53 462.46 396.97 459.23 389.59 459.35"/><polygon class="cls-70" points="386.31 431.81 386.93 426.25 385.23 426.85 386.31 431.81"/><polygon class="cls-76" points="375.5 450.54 383.41 451.05 382.02 445.86 375.5 450.54"/><path class="cls-78" d="M395.52,437.41S394,443,400,448.44l4.14-2.6s-7.65-5-5.95-14Z"/><path class="cls-72" d="M303.93,126.21a2.43,2.43,0,0,0,.22-3.4,2.41,2.41,0,1,0-.22,3.4h0Z"/><path class="cls-73" d="M292.73,143.59a4.57,4.57,0,0,0,6.08-.4l-0.62-2.32s-1.64,2.16-5.38,1.17Z"/><polygon class="cls-76" points="298.49 95.03 306.4 95.53 305.01 90.34 298.49 95.03"/><path class="cls-70" d="M301.1,177.32a1.42,1.42,0,0,0,.13-2,1.46,1.46,0,0,0-2-.13,1.44,1.44,0,1,0,1.9,2.17h0Z"/><path class="cls-71" d="M319.25,144.79a3.12,3.12,0,1,0-4.4-.27,3.11,3.11,0,0,0,4.4.27h0Z"/><polygon class="cls-79" points="314.88 131.64 319.43 125.13 314.27 123.62 314.88 131.64"/><path class="cls-73" d="M298.93,143.06a4.6,4.6,0,0,0,6.09-.37l-0.62-2.32s-1.64,2.16-5.38,1.17Z"/><path class="cls-77" d="M350.09,160.25s3.92,0.81,5.83,6.58l2.94-1.51s0.12-2.25-3.12-4.73-3.86-1.95-3.86-1.95Z"/><path class="cls-77" d="M310.27,164.5s3.92,0.81,5.83,6.58l2.94-1.51s0.12-2.25-3.12-4.73-3.86-1.95-3.86-1.95Z"/><polygon class="cls-75" points="335.37 160.37 340.31 163.49 342.78 160.21 335.37 160.37"/><polygon class="cls-70" points="332.09 132.8 332.71 127.24 331.05 127.87 332.09 132.8"/><polygon class="cls-76" points="321.28 151.57 329.19 152.04 327.8 146.84 321.28 151.57"/><path class="cls-78" d="M341.29,138.4s-1.49,5.59,4.44,11l4.14-2.6s-7.65-5-5.95-14Z"/><path class="cls-77" d="M308.6,587.61s3.92,0.81,5.83,6.58l2.94-1.51s0.12-2.25-3.12-4.73-3.86-1.95-3.86-1.95Z"/><polygon class="cls-75" points="293.89 587.72 298.83 590.84 301.27 587.61 293.89 587.72"/><polygon class="cls-70" points="290.61 560.19 291.23 554.63 289.56 555.22 290.61 560.19"/><path class="cls-78" d="M299.81,565.76s-1.49,5.59,4.44,11l4.14-2.6s-7.65-5-5.95-14Z"/><path class="cls-77" d="M86.08,230.29s3.92,0.81,5.83,6.58l2.93-1.55s0.13-2.25-3.12-4.73-3.86-1.95-3.86-1.95Z"/><polygon class="cls-75" points="71.37 230.41 76.27 233.53 78.74 230.26 71.37 230.41"/><polygon class="cls-70" points="68.08 202.84 68.71 197.31 67 197.91 68.08 202.84"/><path class="cls-78" d="M77.29,208.44s-1.49,5.56,4.44,11l4.11-2.59s-7.62-5-5.95-14Z"/><path class="cls-77" d="M242.53,33s3.92,0.81,5.83,6.58l2.94-1.51s0.12-2.25-3.12-4.73-3.86-1.95-3.86-1.95Z"/><polygon class="cls-75" points="227.81 33.1 232.72 36.22 235.2 32.98 227.81 33.1"/><polygon class="cls-70" points="224.54 5.56 225.16 0 223.49 0.59 224.54 5.56"/><path class="cls-78" d="M233.74,11.17s-1.49,5.59,4.44,11l4.11-2.59s-7.62-5-5.94-13.93Z"/><path class="cls-82" d="M371,372.19c-0.6-.3-2-0.91-3.47-1.81-1.66-.91-4.23.6-5.89,3.17l-2.87,4.83a6,6,0,0,0,.45,6.34l0.15,0.15a50.09,50.09,0,0,0,3.62,4.23,4,4,0,0,1,.75,1.36,3.09,3.09,0,0,1-2.26,3.92,3.51,3.51,0,0,1-4.07-2.26,4.18,4.18,0,0,1-.15-1.36,3.2,3.2,0,0,0-1.21-2.87c-1.06-1.21-3.17,1.06-3.77,3.17v0.15a18,18,0,0,0-.91,4.23,0.53,0.53,0,0,0,.15.3,3.52,3.52,0,0,1-1.51,4.83,3.69,3.69,0,0,1-5-1.51,3.52,3.52,0,0,1,1.51-4.83c0.15,0,.15-0.15.3-0.15a11.12,11.12,0,0,0,.91-2.11c0.3-1.06.6-2,.6-2,0-.15,0-0.3.15-0.3l1.81-6.34-1.81,3.77c-0.3-.75-0.6-0.75-1.51-0.15a16,16,0,0,0-1.66,1.36,7.23,7.23,0,0,0-1.66,2.26,2.71,2.71,0,0,1-.75,1.06,3.16,3.16,0,0,1-4.53-.45A3,3,0,0,1,339,387a2.71,2.71,0,0,1,1.36-.6,35.83,35.83,0,0,0,5.28-3,3.29,3.29,0,0,0,.75-0.6l4.38-3.17-3.92,2.11h-0.91c-1.21.15-2.72,0.3-3,.75a2.28,2.28,0,0,1-.6.6,3.56,3.56,0,0,1-4.07-.91,2.84,2.84,0,0,1,.6-3.92,3.65,3.65,0,0,1,2-.6c1.06,0,3.77.6,6,.15l0.6-.15a9.41,9.41,0,0,0,6-4.38s1.06-2,2.41-4.07c1.36-2.26,1.21-4.68-.15-5.58l-2.57-1.51a5.43,5.43,0,0,0-4.83,0l-17.81,9.81a5.37,5.37,0,0,0-2.41,4.23v19.32a4.85,4.85,0,0,0,2.41,3.92l18,10a5.43,5.43,0,0,0,4.83,0L371,399.2a4.85,4.85,0,0,0,2.41-3.92V376.11a4.85,4.85,0,0,0-2.41-3.92h0Z"/><path class="cls-83" d="M228.81,766.1l4.21-6.66s-2.44-5.37-4.61-6.67,3.14-1.34,2.6-2.28a42.33,42.33,0,0,0-3.78-4.13L225.51,739l12.1,0.72-4.94-5.79-3.06-6.1,9.63-2.18L19.85,645.06l3.68,6.82-9.84-1.53,6.28,7L15.8,658.5,18,662l0.65,5.46-7,1.22,7.67,9-7.94,1.64,5.87,4.3L10.78,686Z"/><text class="cls-84" transform="translate(62.91 691.6) rotate(17.54)">old toolz</text><path class="cls-85" d="M139.32,513.31a0.27,0.27,0,0,1,.17.4l-3.88,9.66a2.67,2.67,0,0,1-.62.93,2.93,2.93,0,0,1-.89.6,2.82,2.82,0,0,1-1.05.23,2.75,2.75,0,0,1-1.1-.2l-0.79-.32a2.67,2.67,0,0,1-.93-0.62,2.81,2.81,0,0,1-.83-1.94,2.65,2.65,0,0,1,.2-1.1l0.89-2.21a0.38,0.38,0,0,1,.42-0.26l2.08,0.26c0.2,0,.27.12,0.19,0.32l-1.11,2.77a0.49,0.49,0,0,0,0,.41,0.52,0.52,0,0,0,.29.29l0.17,0.07a0.5,0.5,0,0,0,.41,0,0.52,0.52,0,0,0,.29-0.29l3.84-9.56a0.27,0.27,0,0,1,.4-0.17l1.85,0.74h0Zm3.18,15.36a0.23,0.23,0,0,1-.36.19l-1.88-.76a0.31,0.31,0,0,1-.19-0.41l0.64-2.09-1.28-.52-1,2a0.31,0.31,0,0,1-.43.16l-1.88-.76a0.23,0.23,0,0,1-.13-0.39l6.31-11.21a0.32,0.32,0,0,1,.45-0.15l2.73,1.1a0.32,0.32,0,0,1,.22.42l-3.2,12.46h0Zm-1-5.46,1.45-4.73-0.17-.07-2.23,4.42,0.95,0.38h0Zm10.65-4.76a2.69,2.69,0,0,1,.93.62,2.93,2.93,0,0,1,.6.89,2.82,2.82,0,0,1,.23,1.05,2.75,2.75,0,0,1-.2,1.1l-2.89,7.2a2.67,2.67,0,0,1-.62.93,2.93,2.93,0,0,1-.89.6,2.82,2.82,0,0,1-1.05.23,2.65,2.65,0,0,1-1.1-.2l-3.1-1.24a0.27,0.27,0,0,1-.17-0.4l4.75-11.84a0.27,0.27,0,0,1,.4-0.17l3.1,1.24h0Zm-0.9,2.79a0.5,0.5,0,0,0,0-.41,0.52,0.52,0,0,0-.29-0.29l-0.66-.26-3.21,8,0.66,0.26a0.5,0.5,0,0,0,.41,0,0.52,0.52,0,0,0,.29-0.29l2.81-7h0Zm6.1,11.25-0.74,1.84a0.27,0.27,0,0,1-.4.17l-4.49-1.8a0.27,0.27,0,0,1-.17-0.4l4.75-11.83a0.27,0.27,0,0,1,.4-0.17l4.49,1.8a0.27,0.27,0,0,1,.17.4l-0.74,1.84a0.27,0.27,0,0,1-.4.17l-2.36-.95-0.95,2.36,2,0.82a0.27,0.27,0,0,1,.17.4L158.37,529a0.27,0.27,0,0,1-.4.17l-2-.82-1.12,2.8,2.36,0.95a0.28,0.28,0,0,1,.18.41h0Z"/><path class="cls-86" d="M160.22,505.49a0.31,0.31,0,0,1-.19.44,2.11,2.11,0,0,1-1.36-.36c-0.71-.38-1.59-0.77-1.69-1.63a0,0,0,0,1,0,0c-0.38-.46.52-0.32,0.77-0.26a5,5,0,0,1,1.52.83,2.27,2.27,0,0,1,1,1h0Zm2.34,13.86a3.5,3.5,0,0,0-.83.78,1.82,1.82,0,0,1-1.27-.18c-1.35-.53-2.61-1.16-4-1.58a5.51,5.51,0,0,0-1-.23,0.55,0.55,0,0,1-.36-0.12,1.24,1.24,0,0,0-.68-0.79c-0.34,0-.73.34-1-0.05-0.45-.74-1.16-0.52-1.89-0.66s-1.27-.79-2-0.88a2.65,2.65,0,0,1-1.58-.49c-0.45-.4-0.43-0.86.18-1.06a3.65,3.65,0,0,1,2.77.39,32.11,32.11,0,0,0,4.1,1.58,0.06,0.06,0,0,1,0,.09,1.23,1.23,0,0,0,1.55-.12,0.11,0.11,0,0,1,.15.07c0.2,0.92,1.12.34,1.71,0.66a0.55,0.55,0,0,1,.34.38,0.44,0.44,0,0,1,0,.26c-0.13.38,0.38,0.49,0.52,0.12a0.11,0.11,0,0,1,.17,0A1.3,1.3,0,0,0,161,518a3.07,3.07,0,0,0,1.05-1.41,37.21,37.21,0,0,0,1.58-4.31,24.91,24.91,0,0,1,1.58-4.14,31.36,31.36,0,0,0,1.75-4c0.27-.72.52-1.44,0.86-2.13a15.54,15.54,0,0,0,.88-2c0.16-.61,0-1.25.18-1.85a4.62,4.62,0,0,1,.76-1.53,4.83,4.83,0,0,0,.63-0.94c0.1-.28.21-0.58,0.33-0.86a0.81,0.81,0,0,1,.27-0.45c0.24-.13.44-0.39,0.07-0.58-0.87-.49-1.58-1.45-2.69-1.23a2.37,2.37,0,0,1-.27.61l0.06,0.21a2.11,2.11,0,0,0,.63.42c0.28,0.11.61,0.16,0.88,0.3a0.42,0.42,0,0,1,.15.64,2.42,2.42,0,0,1-.55.39,2.15,2.15,0,0,0-.57,1c-0.35.85-.68,1.7-1,2.54s-0.47,1.45-.71,2.17a0.1,0.1,0,0,1,0,.08c-0.3.8-.34,1.69-0.65,2.49,0,0-.6.9-0.6,0.9-0.42,1-1.27,2.89-1.27,2.89a31.2,31.2,0,0,0-2.11,5.22,10.33,10.33,0,0,1-1,2,20.35,20.35,0,0,1-1,2.28,0.1,0.1,0,0,1-.11.09,21.39,21.39,0,0,1-5-1.68,3.42,3.42,0,0,0-1.32-.42,1.34,1.34,0,0,1-.61-0.07c-0.22-.12-0.27-0.35-0.47-0.47a7.58,7.58,0,0,0-.76-0.47A4.14,4.14,0,0,0,150,513a1.56,1.56,0,0,1-1.12-.52,1.45,1.45,0,0,0-1.21-.67,2.87,2.87,0,0,1-.69,0,0.84,0.84,0,0,1-.48-0.28,2,2,0,0,0-1-.54,0.11,0.11,0,0,1-.14.14c-2.32-1.08-4.81-1.75-7.19-2.67-0.13,0-.26.07-0.33,0l-0.07,0a0.29,0.29,0,0,1,0-.26,3.9,3.9,0,0,1,.52-1.93c1-2.17,1.59-4.49,2.41-6.71a19.64,19.64,0,0,1,1.47-3.23,20.51,20.51,0,0,0,1.65-3.56c0.92-2.46,2.14-4.79,3-7.25a0.05,0.05,0,0,1,.09,0h0a6.26,6.26,0,0,1,2,.75,0,0,0,0,1,0,0l0.09,0,0.72,0.29a0.07,0.07,0,0,1,0,0c1.28,0.53,2.6.94,3.91,1.39a5.23,5.23,0,0,0,1.41.4,2.13,2.13,0,0,1,.79.13,13.9,13.9,0,0,1,1.61,1.05c0.38,0.25.94-.34,1.2,0a3.52,3.52,0,0,0,1.71,1c0.33,0.15.68,0.2,1,.34a2.43,2.43,0,0,1,.47.28,1,1,0,0,1,.47.25l3,1.11a5.16,5.16,0,0,0,1.88.57,0.52,0.52,0,0,0,.37-0.12c0-.06,0-0.11,0-0.18a1.35,1.35,0,0,0-.05-0.31,8.64,8.64,0,0,0-2-1,23.26,23.26,0,0,0-2.8-.95,17.24,17.24,0,0,1-2.61-1c-0.48-.25-1.34-0.85-1.91-0.67a0.14,0.14,0,0,1-.13-0.05c-0.55-1-2-.42-2.85-1.07a4.41,4.41,0,0,0-1.59-.88,18,18,0,0,1-1.77-.55c-1.27-.52-2.56-0.95-3.81-1.5-0.28-.12-0.54-0.23-0.79-0.37a1.7,1.7,0,0,0-.72-0.34c-0.4,0-.52.08-0.53,0.2a4.83,4.83,0,0,1-.53.64l-0.26.57a12.07,12.07,0,0,1-1.27,2.39,3.32,3.32,0,0,0-.76,1.45,5.65,5.65,0,0,0,.14.92,3.71,3.71,0,0,1-.42,1.66l-2.15,5c-0.73,1.64-1.51,3.28-2.11,5a29.38,29.38,0,0,1-1.78,4.71c-0.28.48-1.26,1.15-.81,1.75a2.85,2.85,0,0,0,1,.73,18,18,0,0,0,2.91,1,8.65,8.65,0,0,1,1.1.3,2.08,2.08,0,0,1,.72.43,3,3,0,0,0,.72.56,0.66,0.66,0,0,0,.49,0,1.86,1.86,0,0,1,1.17.25,3.58,3.58,0,0,0,1.25.57,2.3,2.3,0,0,1,.82.32l0.07,0.11c0.11,0-.11.09-0.21,0.09-0.61,0-.72.74-1,1.17a0.08,0.08,0,0,1-.11,0,0.69,0.69,0,0,1-.53-0.47c-0.06-.55-0.53-1.11-0.91-0.15a0.09,0.09,0,0,1-.11,0,0.08,0.08,0,0,1,0-.11,4.14,4.14,0,0,0-.52-0.7,1.37,1.37,0,0,0-.92-0.64,6.44,6.44,0,0,0-.74,0c-0.56.3-1.15,0.64-1.58,0.12a1.9,1.9,0,0,0-.51-0.64,1.38,1.38,0,0,1-.58.17,4.21,4.21,0,0,1-1.62-.48,0.09,0.09,0,0,1-.05-0.1c0.06-.22.11-0.69-0.28-0.55l-0.27.11a1.43,1.43,0,0,1-.38.09,2.25,2.25,0,0,1-1.45-.92,1.86,1.86,0,0,1,0-.66,15.66,15.66,0,0,1,.59-1.62c0.48-1.34.91-2.67,1.33-4a12.68,12.68,0,0,1,.76-2.05,3.78,3.78,0,0,1,.84-1.31,0.65,0.65,0,0,0,.14-0.88,0.53,0.53,0,0,1,0-.31,11.49,11.49,0,0,1,.67-1.46c0.17-.35.37-0.69,0.52-1.05s0.16-.57.25-0.85a0.67,0.67,0,0,1,.22-0.38,0.61,0.61,0,0,0,.3-0.61,4.81,4.81,0,0,1,.69-1.66,11,11,0,0,0,.76-1.89,13.46,13.46,0,0,1,.67-2.15c0.3-.62.57-1.19,0.86-1.81,0.52-1.12,1-2.27,1.4-3.43l-0.11.27s0.49-1.49,1.24-1.6a7.46,7.46,0,0,1,3.27.76c1.34,0.47,2.62,1.13,3.94,1.66a10.64,10.64,0,0,0,2.35.73,6.51,6.51,0,0,1,1.64.5c0.63,0.31,1.2.72,1.82,1a14.1,14.1,0,0,0,1.92.76,41.32,41.32,0,0,1,4.17,1.68l2.13,1a4.27,4.27,0,0,0,1,.43l0.7,0a2.32,2.32,0,0,1,1.18.58l1.48,1a0.52,0.52,0,0,1,.47.28c0.19,0.4-.24.63-0.15,1a2.39,2.39,0,0,1,.13,1.33,4.07,4.07,0,0,1-.71,1.54,1.65,1.65,0,0,0-.55,1,7.27,7.27,0,0,1,0,.78,5.48,5.48,0,0,1-.53,1.55c-0.26.57-.53,1.15-0.83,1.7-0.2.35-.49,0.65-0.65,1a3.78,3.78,0,0,0-.2.91c-0.19,1-1.27,1.3-1.77,2.12-0.27.45,0.35,0.45,0.48,0.83a1.08,1.08,0,0,1-.22.71c-0.26.49-.31,1.05-0.54,1.56a6.76,6.76,0,0,0-.8,1.78,2.64,2.64,0,0,1-.37,1.11c-0.23.33-1,1.07-.52,1.46a0.06,0.06,0,0,1,0,.08,1,1,0,0,1-.27.39c-0.47.46,0,.5-0.11,0.89a1.76,1.76,0,0,1-.5.69,11.65,11.65,0,0,0-.39,1.44,5.48,5.48,0,0,0-.64,1.06,0.07,0.07,0,0,1,0,.08,1.4,1.4,0,0,1-.29.69c-0.24.27-.41,0.31-0.12,0.64,0.12,0,.09,0,0,0.06h0Zm0.11-17.92a26.08,26.08,0,0,0,.84-4.42c0-.63.17-1.26-0.43-1.62-0.78-.48-0.78.33-0.93,1a33.4,33.4,0,0,0-.74,3.29c-0.09.77-.09,1.74-0.81,0.83-1.18-1.57-.89-3.85-0.9-5.64a9.91,9.91,0,0,0-.54-3.45,3.5,3.5,0,0,0-1.72-1.05c-0.7.15-.06,3.46,0,4a23.84,23.84,0,0,0,.51,3.72c0.21,0.86.71,1.77-.51,1.74s-1.55-.85-2.07-1.72a4.47,4.47,0,0,0-1.86-1.44,7.62,7.62,0,0,0-6.19-.91,7.3,7.3,0,0,0-2.72,1.82,15.22,15.22,0,0,0-1.63,2c-0.39-.24.26-1.11-0.51-0.76s-0.64,2-.63,2.59c0,1.31.09,2.61,0,3.92s0,1.33,1,1.85a20.43,20.43,0,0,0,4.23,1.17s-1.78-2.44,2.26,1.07a11.71,11.71,0,0,0,3.13,1.61c0.86,0.13,1.42-1.2,2.08-1.67a8.69,8.69,0,0,1,1.75-1.06,3,3,0,0,1,1,.73c1.84,1.09,3.09-.28,3.41-2a12.07,12.07,0,0,1,1.68-3.94,6.4,6.4,0,0,0,.24-1.77h0ZM147.2,514.66c-0.13-.28-0.43-0.46-0.55-0.75a0.46,0.46,0,0,1,0-.44,0,0,0,0,1,0,0,0.36,0.36,0,0,1,.61-0.24,0.54,0.54,0,0,1,.22.43,2,2,0,0,1-.36.45,1.6,1.6,0,0,1,.2.51,0.08,0.08,0,0,1-.14.05h0Z"/><path class="cls-87" d="M221.94,378.37l1.48-10.72,2-2.91a36.56,36.56,0,0,1-21.66-1.64l1.74,3.48-0.1,10.52c-0.09,1.12,3.54,2.32,8.1,2.67s8.33-.27,8.42-1.39"/><path class="cls-87" d="M223.77,327.93l1.77-5.26,8.12-7.33-1.85-1.84-8.6,7.81-2.07,6.28c-1.14-.13-2.33-0.24-3.55-0.33-8.38-.65-15.24-0.21-15.33,1s6.63,2.66,15,3.3,15.24,0.21,15.33-1c0.07-.87-3.56-1.9-8.82-2.64"/><path class="cls-11" d="M222.75,330.87a6.46,6.46,0,0,1-1.16,0,3.16,3.16,0,0,1-1.71-.36,0.39,0.39,0,0,1-.08-0.27,0.33,0.33,0,0,1,.27-0.28l0.12,0.22a0.11,0.11,0,0,0-.09.06,6.49,6.49,0,0,0,3.05.24,0.2,0.2,0,0,0-.16-0.11l0.15-.19a0.39,0.39,0,0,1,.3.37c0,0.31-.42.33-0.68,0.34"/><path class="cls-87" d="M233.65,315.36a1.88,1.88,0,1,0-1.29-.56,1.23,1.23,0,0,0,1.29.56"/><path class="cls-87" d="M223.6,352c0-1.73,4.07-3.9,3.07-4.06-2.18,0-3.44,2.29-4.73,4.74-0.47.9-2.14,4.75-3,4.19s1.45-3.65,2.18-5.54c-0.7.44-3.29,2.15-3.79,0.32-1.08.78-3.28,1.08-2.86-1.16-0.61.91-1.92,2.15-3.33,1.49-1.85-.87,1.63-6.71,2.35-6.35s-0.28,1.68-.56,2.2c-0.61,1.14-1.32,2.58-.95,2.92,0.64,0.57,2.7-1.77,2.75-1.83,0.38-.43,1.61-3.37,2.38-3s-2.33,4.17-1.34,5a1.83,1.83,0,0,0,1.65-.54c0.37-.34.31-1.16,1.65-3.78s2.61-5.9,3.36-5.58,0,2-.34,2.61c-1.54,2.92-4.18,7.73-3.09,7.44a4.54,4.54,0,0,0,2.79-1.42c1.14-1.14,1.24-3.16,1.94-3.06s0.53,0.73.32,1.21c0.75-.73,3.43-2.18,3.93-0.5,0.58,2-4,4.45-2.92,4.39a6.66,6.66,0,0,0,3.71-2l3.44-18.14s-2.18,1.54-15.21.53-14.74-2.8-14.74-2.8l0.45,16.83c1.12-2.54,3.71-7.66,7.14-7.22,1.56,0.2,3.42,3.38,1.62,3.34-0.76,0-.72-1.57-1.6-1.87a2.71,2.71,0,0,0-2.2.77c-1.25,1-4.09,5.34-3.94,7.6,0.2,2.88,4-.69,4.69-1.78,0.48-.77.95-3.13,1.84-2.81s-0.29,2.7-1.12,4.82c-0.93,2.38-1.52,4.93-2.44,4.56s0.85-3.4.84-4c-0.94.74-2.72,2.67-4.71,1.5l0.28,10.45s2.69,2.48,11.3,3.14,11.75-1.33,11.75-1.33l2.26-11.91c-1.18,1-4.78,2.6-4.84.46"/></svg>