<svg id="Layer_1" data-name="Layer 1" xmlns="http://www.w3.org/2000/svg" viewBox="0 0 48.24 72.03"><defs><style>.cls-1{fill:#1dd3b0;}.cls-2{fill:#2f4858;}.cls-3{fill:#5dfdcb;}.cls-4{fill:#fff;}</style></defs><title>carpi</title><path class="cls-1" d="M35.54,45.62a7.24,7.24,0,0,0-1.47-1,12.69,12.69,0,0,0-2-1,2.69,2.69,0,0,0-.53-1.92,2.49,2.49,0,0,0-1.69-1,2.69,2.69,0,0,0-1.94.51,2.59,2.59,0,0,0,1.2,4.62,2.42,2.42,0,0,0,1.43-.24,2.39,2.39,0,0,0,1.12-1,11.52,11.52,0,0,1,1.79.88,6,6,0,0,1,1.3,1,87.47,87.47,0,0,1,6.73,7.31c2.61,3.28,5.09,6.85,5.54,9.34a4.17,4.17,0,0,1-.57,2.75,9,9,0,0,1-3.28,3.22,18.56,18.56,0,0,1-2.16,1,11.26,11.26,0,0,1-2.3.71,4.51,4.51,0,0,1-1.92.12,3.32,3.32,0,0,1-1.62-.68A5.09,5.09,0,0,1,34,68.86a12.37,12.37,0,0,1-.88-1.74,0.17,0.17,0,0,1,0-.22l0.15-.18a0.08,0.08,0,0,1,.11,0h0.11L34,66.78l0.49,0A44.39,44.39,0,0,1,32.39,62c-0.64-1.54-1-2.77-1-2.77a23.45,23.45,0,0,0,.15,4.88c0.34,2.5,1,5.41,2.9,6.95a4.17,4.17,0,0,0,2.07.91A6.32,6.32,0,0,0,39,71.84c0.8-.24,1.61-0.48,2.35-0.77A21.33,21.33,0,0,0,43.7,70a7.57,7.57,0,0,0,1.5-1.07,15.25,15.25,0,0,0,1.37-1.28A7.37,7.37,0,0,0,48,65.24a4.47,4.47,0,0,0,.17-2.38c-0.48-2.82-3.2-6.7-6-10.13A81.09,81.09,0,0,0,35.54,45.62Zm-7.37-1.69A1.68,1.68,0,0,1,28,42.79a1.52,1.52,0,0,1,.68-0.94,1.68,1.68,0,0,1,1.14-.16,1.52,1.52,0,0,1,.94.68,1.68,1.68,0,0,1,.16,1.14,1.52,1.52,0,0,1-.68.94,1.41,1.41,0,0,1-1.14.16,1.5,1.5,0,0,1-.92-0.68h0Z"/><path class="cls-1" d="M24.78,13.37C19.54,5.9,14.42,2.13,10.2,1.34A2.72,2.72,0,0,0,7.47,2.45,7.6,7.6,0,0,1,5.54,4.34,7.6,7.6,0,0,1,3.13,5.48a2.72,2.72,0,0,0-2,2.2C0.54,11.92,2.36,18,7.61,25.46,15.68,36.91,34,54.8,38.77,51.46S32.85,24.82,24.78,13.37Z"/><path class="cls-2" d="M22.8,10.72C18.26,5,13.92,2,10.24,1.35A2.74,2.74,0,0,0,7.47,2.46,7.6,7.6,0,0,1,5.54,4.34,7.6,7.6,0,0,1,3.13,5.48a2.74,2.74,0,0,0-2,2.23c-0.57,3.71.76,8.8,4.6,15A22.54,22.54,0,0,0,22.8,10.72Z"/><path class="cls-3" d="M19.76,7C15.95,2.87,12.32.63,9.18,0A2.73,2.73,0,0,0,6.43,1.17,7.6,7.6,0,0,1,4.54,3,7.6,7.6,0,0,1,2.13,4.17a2.73,2.73,0,0,0-2,2.22c-0.49,3.15.4,7.33,3,12.32A19.71,19.71,0,0,0,19.76,7Z"/><circle class="cls-4" cx="12.46" cy="6.78" r="2.57" transform="translate(-1.63 8.41) rotate(-35.17)"/><circle class="cls-2" cx="13.62" cy="6.87" r="1.41" transform="matrix(0.82, -0.58, 0.58, 0.82, -1.47, 9.1)"/></svg>