<?xml version="1.0" encoding="utf-8"?>
<!-- Generator: Adobe Illustrator 19.2.0, SVG Export Plug-In . SVG Version: 6.00 Build 0)  -->
<svg version="1.1" id="Layer_1" xmlns="http://www.w3.org/2000/svg" xmlns:xlink="http://www.w3.org/1999/xlink" x="0px" y="0px"
	 viewBox="0 0 217.6 303.9" style="enable-background:new 0 0 217.6 303.9;" xml:space="preserve">
<style type="text/css">
	.st0{fill:#A94732;}
	.st1{fill:#7B1B08;}
	.st2{fill:#761400;}
	.st3{fill:#781602;}
	.st4{fill:#7D1B07;}
	.st5{fill:#7C1A07;}
	.st6{fill:#FAE7D0;}
	.st7{fill:#D7C4AD;}
	.st8{fill:#7D2E24;}
	.st9{fill:#771501;}
	.st10{fill:#813C2E;}
	.st11{fill:#FFFFFF;}
	.st12{fill:#FEFEFE;}
	.st13{fill:#781603;}
	.st14{fill:#E8C1AE;}
	.st15{fill:#D8C5AE;}
	.st16{fill:#E4D1BA;}
	.st17{fill:#D08B7D;}
	.st18{fill:#010101;}
	.st19{fill:#7B1D0A;}
	.st20{fill:#FAFAFA;}
	.st21{fill:#CECECE;}
	.st22{fill:#5C6256;}
	.st23{fill:#A0A0A0;}
	.st24{fill:#454B44;}
</style>
<path d="M112.8,0.1c7.1,0.5,13,3.4,18.1,8.4c9.1-4.2,19.6-4.8,29.1-1.8c10.8,3.4,19.8,10.3,26.7,19.2c9.8,12.7,18.4,26.8,24.2,41.8
	c4,10.6,6.1,21.8,6.6,33.2c-0.1,9.5-2,18.4-4.3,27.5c-2.2,9.7-6,19-8.7,28.5c2,8.8,6.6,17.3,10.6,25.3c-0.1,1-0.2,1.9-0.3,2.9
	c-5.4-0.4-9.8-1.4-13.8-5.2c2,11.8-2,21.6-6,32.4c-1.1-5.1-2.2-10.1-3.3-15.1c-3,10.3-6.9,19.8-12.5,28.9c3.5,5.8,4.5,11.8,6.1,18.3
	c1.7,6.8,2.2,13.6,2.9,20.5c1.4,13,2.3,26,3.6,39H188c-1.6-16.9-3-33.9-4.8-50.8c-0.7-5.1-2.2-10.1-3.4-15.1
	c-0.8-3.5-2.2-6.7-3.9-9.8c-1.7,2.2-3.4,4.5-5.1,6.7c0.6-3.3,1.2-6.7,1.9-10c-1.7-0.8-4.1-2.8-5.9-2.4c-2.6,2.2-4.9,4.9-7.1,7.5
	c-1.6,2.8-2.2,6.4-3.3,9.4c-2.7-6.9-4.7-14-5-21.5c-4.6-1.8-9.2-3.2-14-4.1c-0.7,5.4-1.6,10.4-5.2,14.6c-4.7,5.6-12.4,7.3-19.4,7.4
	c-9.5-0.1-19.6-2.1-27.8-7.1c-7.4-4.3-12.4-10.8-16.2-18.3c-9.9,1.9-19.5,4.5-28.9,8.2c3,1.8,5.8,3.4,8,6.2c1.8,2.2,2.6,4.7,3.7,7.3
	c-1.5-0.5-3-1-4.5-1.5c-2.3-3.3-4.4-6.3-8.3-7.7c-3.9-1.3-8.6-1.7-12.5-0.3c-4.6,2-8.3,6.4-9.9,11.1c-1.7,5-3.2,10.1-4.6,15.2
	c-1.7,6.3-1.7,12.6-2.9,19c-1.8,12-3.2,24-4.9,36H0c2.2-16.3,4.2-32.7,6.8-49c1.1-7.5,3.3-15,5.8-22.2c1.8-5.6,5.7-10.3,10.8-13.1
	c2.9-1.6,5.8-1.4,8.8-2.3c2.4-0.9,4.7-2.1,7-3c-0.1-3.8,0.1-7.4,0.7-11.2c-3.1,2.9-6.1,5.5-10.1,7.1c-3,1.2-6.3,1.3-9.4,1.6
	c0.6-2.8,0.9-5.6,2.1-8.2c2.7-6.3,4.3-12.8,5.6-19.5c-2.9,2.6-5.5,5.5-8.2,8.3c-0.6-5.2-0.8-10.4,0.1-15.6c-3.7,1.7-7,1.6-11,1.2
	c0.8-0.8,1.6-1.6,2.4-2.5c-0.7-0.1-1.4-0.2-2-0.2c7.9-7.6,12-19.4,13.9-29.9c2.4-10,2-20,1.5-30.2c-0.9-8.2-2-16.7-1.2-25
	c1-15.9,8-31,17.5-43.6c9.5-12.7,20.8-25.2,34.2-33.9C86.7,5,98.9-0.9,112.8,0.1z"/>
<path class="st0" d="M116.7,5c5.9,1.3,10.5,5,13.8,10c-4-2.6-8-6.1-12.5-7.4c-3-0.9-6.1-1.5-9.2-1.5c-1.8-0.2-2.3,0.5-3.6,1.6
	c6.2,1,11.8,0.9,17.3,4.4c4.8,2.6,6.7,7.6,11.2,10.5c0.9,2.3,0.8,6.8,2.9,8c1.5,0,2.3-0.6,2.4-1.7c-0.3-6.2-2.7-11.7-5.6-17.1
	c2.7-0.9,5.4-1.8,8.1-2.5c-1.9,2.2-3.7,4-4.3,6.9c1.7-1.2,3.3-2.7,5.1-3.7c1.8-0.8,3.9-1,5.8-1.3c0.2-0.8,0.4-1.6,0.6-2.3
	c12.9,0.7,24.6,7.6,32.8,17.3c7.7,9.3,14.2,19.5,19.8,30.2c7.3,13.7,11.6,28.9,12,44.5c0.1,9.1-1.9,17.8-4.1,26.5
	c-1.7,6.5-3.5,13-6,19.3c-0.3-4,0.1-8-0.3-11.9c-1.2-0.5-2.3-0.5-3.1,0.1c-1.5,5.4-0.8,11.7-0.3,17.2c1,9.7,5.4,17.3,9,26.1
	c-0.9-0.6-1.8-1.3-2.6-1.9c-3.4-5.6-6.7-11.3-9-17.5c0.1,3.2,0.4,6.3,0.5,9.5l-2.1,0.9c-1.4-7.2-0.4-15,0.4-22.3
	c1.3-9.6,4.4-18.6,5.8-28.2c1.4-9.2,1.6-18.6,0.2-27.8c-0.6-0.4-1.1-0.7-1.7-1.1c0.1,5.4,0.8,10.6,0.6,16c-0.3,14-4,28-8.6,41.1
	c-1.5,4.5-3.6,8.5-4.1,13.3c2.5-2.5,3.6-5.6,4.9-8.8c0,5.2-0.4,10.3-0.1,15.4c0.2,3,0.1,5.8-0.4,8.8c-0.7-2.4-1.5-4.8-2.5-7.1
	c-1.5,9.3,0.5,18.2-2.1,27.1c-2.1,7.3-4.9,14.5-9,20.9c1.6-8.6,3.1-17.2,4.5-25.9c0.7-3.7,0.7-7.3,0.5-11c-2.5,5.9-4.5,12-7.2,17.8
	c-1.7,3.6-3.2,7.1-4.5,10.9c-2.8,4.2-5.8,8.2-9,12.1c-0.1-0.8-0.3-1.6-0.5-2.5c2.6-4.6,4.4-9.4,5.7-14.4c-4.2,4.7-7.6,9.9-12.5,14.1
	c0.5-11.6,2.7-23,7.3-33.7c2.2-5.1,4.6-10,6.9-15.1c5.1-11.3,9-22.9,12.4-34.7c4.5-14.3,5.7-29.4,1.6-43.9c-0.1-8.7-2-17.3-4.8-25.5
	c-3.9-10.6-13.4-19.2-25.2-19.3c-4.4-0.3-7.5,3.9-11.3,5.8c0.3-7.1,6.1-13.9,13.3-14.8c10.2-1,20.8,3.1,26.7,11.7
	c4.1,5.7,5,11.9,6.3,18.7c0.5-0.4,1.1-0.9,1.6-1.3c-0.9-7.3-2.7-14.1-7.4-19.9c-6.4-8.2-17-12.1-27.3-11.1
	c-5.6,0.6-10.6,4.2-13.1,9.2c-1.3,2.6-2.3,5.7-3.9,8c-1-0.2-1.9-0.5-2.8-0.8c1.2-7,2.9-14.9,7.4-20.6c2.8-3.7,6.8-4.5,10.8-6.6
	c-4.7-1.4-9.3,1.7-12.2,5.2c-5.2,6.5-6.6,15.1-8.2,23c-0.9-0.1-1.8-0.1-2.7-0.1c1.7-7.1,2.7-13.9,0-21c-1.5-3.5-2.9-8.1-7-9.4
	c2.2,4.6,5,8.3,6.1,13.4c1.3,5.6,0.4,11.1-1.3,16.5c-2.2-1.5-3.8-2.5-4.1-5.4c-1.7-9-3.8-17.5-10.8-24.1c-5.4-5.1-12.5-6.7-19.7-6.1
	c1.7,2.5,4.1,1.7,6.8,2.3c6.8,0.7,12.6,5,16,10.8c4,6.6,5.6,15,6.2,22.6c-1.6-0.5-3.9-0.4-5-1.9c-2.4-2.9-3.8-6.8-6.9-9.1
	c-4.1-3.1-9.4-4.6-14.5-4.1c-6,0.5-12,3.3-17,6.6c-1.4,0.8-2,2.1-2.7,3.4c5.8-2.4,10.2-6.3,16.6-7.6c5-1.2,9.6-0.2,14.2,1.7
	c-5.2,0.8-10.1,1.2-14.9,3.7C85.5,48.1,78.9,55,73.4,61.4c-2.1,2.3-3.6,5-5,7.7c-2.5,3.1-5,5.9-6.9,9.3C58,84.6,56.2,91.1,55,97.9
	c-2.4,12.7-2.6,26.1-2.5,39c1,13.6,1.2,27.4,0.9,41c-0.4,11.4-4.8,21-9.4,31.2c-0.2-10.4,4.3-18.8,6-28.7c0.2-1.8-0.2-3.7-0.2-5.5
	c-0.7,0.7-1.5,1.4-2.2,2c2-16.2,0-31.9-0.8-48c-0.4-6.3,0.5-12.5,1-18.7c-2.8,1.2-2.3,4.3-2.8,6.8c-1.5,18.8,3.1,38.5,0.5,57.9
	c-0.7,4.4-2.3,8.8-3.9,13c-1.9,5.7-7.9,10-12.1,14.2c-0.8,0.4-1.7,0.8-2.5,1.2c4-11.3,6-22.9,7.8-34.7c-1.3,1.5-2.6,3-3.9,4.6
	l0.4-4.4c-0.6,1.5-1.1,3.2-2.1,4.5c-1.3,1.2-3.1,1.9-4.6,2.8c0.4-3.1,1.3-5.7,2.6-8.5c-0.8-0.9-1.7-1.8-2.5-2.7c-2,1.7-4,3.4-6,5.1
	c3.3-6.3,5.9-12.8,8.7-19.3c1.8-4.1,2.7-8.4,3.5-12.8l-2.1-0.3c0.5-5.8,0.8-11.7,0.4-17.6c-0.5-10.3-2.5-19.6-1.5-30
	c1.1-15,7.5-28.7,16.4-40.7c11.1-15,24.3-29.1,41.1-37.9C94.5,6.1,106.1,2.5,116.7,5z"/>
<path class="st1" d="M108.8,6.1c3.1,0,6.2,0.6,9.2,1.5c4.5,1.3,8.5,4.8,12.5,7.4c1.6,2.3,2.6,4.9,3.3,7.6
	c-4.5-2.9-6.4-7.9-11.2-10.5c-5.5-3.6-11.1-3.5-17.3-4.4C106.5,6.6,107,6,108.8,6.1z"/>
<path class="st2" d="M148.8,8.8c-0.2,0.8-0.4,1.5-0.6,2.3c-1.9,0.4-4,0.6-5.8,1.3c-1.8,1.1-3.4,2.5-5.1,3.7c0.6-2.9,2.5-4.7,4.3-6.9
	C143.9,8.9,146.4,8.8,148.8,8.8z"/>
<path class="st3" d="M158.4,13.8c-4.2,0.3-8.2,0.2-12.2,1.7c4.3-0.1,8.2-0.6,12.5,0.6c4.8,1.3,9.3,3.8,13.3,6.6
	c1.4,0.9,1.8,2.1,2.3,3.6c-7.1-3.5-12.2-8.3-20.6-8.9c-5.7-0.5-9.7,2.2-14.5,4.8c1.7-4,3.3-7.4,7.7-9C150.3,12,155.7,11,158.4,13.8z
	"/>
<path class="st2" d="M94.1,15.8c7.2-0.5,14.3,1.1,19.7,6.1c7,6.5,9.1,15,10.8,24.1c0.4,2.9,2,3.9,4.1,5.4c1.7-5.4,2.6-10.9,1.3-16.5
	c-1.1-5.1-3.9-8.8-6.1-13.4c4.1,1.2,5.5,5.8,7,9.4c2.7,7,1.7,13.9,0,21c0.9,0,1.8,0.1,2.7,0.1c1.5-7.9,3-16.6,8.2-23
	c2.9-3.5,7.5-6.6,12.2-5.2c-3.9,2.1-8,2.9-10.8,6.6c-4.5,5.7-6.1,13.7-7.4,20.6c0.9,0.3,1.9,0.6,2.8,0.8c1.7-2.3,2.6-5.4,3.9-8
	c2.6-5,7.5-8.6,13.1-9.2c10.2-1,20.9,2.9,27.3,11.1c4.7,5.8,6.5,12.7,7.4,19.9c-0.5,0.4-1.1,0.9-1.6,1.3c-1.3-6.7-2.2-13-6.3-18.7
	c-5.9-8.6-16.5-12.7-26.7-11.7c-7.2,0.9-13,7.7-13.3,14.8c3.8-1.9,6.9-6.2,11.3-5.8c11.8,0.1,21.3,8.6,25.2,19.3
	c2.8,8.2,4.7,16.8,4.8,25.5c-3.4-8.4-6.8-16.3-14-22.3c-5.2-4.5-11.3-6.3-17.7-8.3c-7.6-2.4-14.8,0.2-23.2-0.2
	c-8.1,0-14.1-4.5-22-5.3c-6.5-0.7-13.1,0.3-19.1,2.7c-7.4,2.8-13.3,7.4-19.3,12.4c1.5-2.7,3-5.4,5-7.7c5.5-6.5,12.1-13.4,19.8-17.2
	c4.8-2.5,9.6-2.9,14.9-3.7c-4.6-1.9-9.2-2.9-14.2-1.7C87.4,40.1,83,44,77.1,46.4c0.7-1.4,1.3-2.6,2.7-3.4c5-3.3,10.9-6.1,17-6.6
	c5.1-0.4,10.4,1,14.5,4.1c3.1,2.3,4.5,6.2,6.9,9.1c1,1.4,3.4,1.4,5,1.9c-0.6-7.6-2.3-16-6.2-22.6c-3.5-5.8-9.2-10.1-16-10.8
	C98.2,17.5,95.7,18.3,94.1,15.8z"/>
<path class="st4" d="M85.3,22.4c-0.7,2.1-1.4,3.4-3.1,4.9c-5.3,4.8-10.1,10.1-13.8,16.3c-8.2,13-7,28.1-15.8,41.3
	c-0.6-0.3-1.2-0.6-1.8-0.9c4.7-8,7-16.8,9.2-25.8c2.3-9.5,7.1-18.1,13.5-25.3C77.3,28.8,80.5,25,85.3,22.4z"/>
<path class="st4" d="M74.4,23.6c-3.2,3.9-7.7,6.1-11,9.8c-6.7,7-10.3,15.2-14.1,23.9C47,62.2,46,67.4,43.7,72.2
	c-1.8-3.2,0.6-7.6,1.6-10.8c4.3-10.9,9.3-22.9,18-31C66.7,27.3,69.6,24.2,74.4,23.6z"/>
<path class="st5" d="M181.4,35.6c1.7,0.4,3.1,1,4.4,2.2c8,7.1,12.6,16.9,16.3,26.8c5.5,15.1,7.6,30.9,4.1,46.7c-0.3,1.7-1,2.1-2.4,3
	c0.4-4.8,1.5-9.5,1.8-14.4c0.9-12.6-2.1-25.6-6.6-37.3c-2.7-6.7-6-13.7-10.8-19.2C185.9,40.5,183,38.9,181.4,35.6z"/>
<path class="st5" d="M50.2,47.4c-0.9,2-1.9,3.8-3.2,5.6c-8.5,11.1-12,26.1-12.4,39.9c-0.4,6.9,0.6,13.8,0.3,20.7
	c-2.8-1.7-1.9-4.9-2.3-7.7c-1-17.1,0.6-34.7,9.6-49.7C44.4,52.9,46.2,48.8,50.2,47.4z"/>
<path class="st6" d="M105.8,58c5.5,0.4,9.7,2.8,14.9,4.2c4.9,1.4,10,1.3,15,1c5.3-0.3,10-1.5,15.2,0.2c5,1.7,10.6,3.1,14.8,6.4
	c7.5,5.5,12.1,15,14.6,23.8c2.7,9.1,2.3,18.8,0.8,28c-3.2,14.2-8,28.3-13.7,41.7c-0.8,1.8-1.5,3.9-2.7,5.4c-1.4,1.4-3.2,2.3-4.8,3.3
	c-0.2-3.5-0.8-6.4-3.9-8.6c-5.8-4.1-14.3-5-21.3-5.3c-11.5,0-22.9-1.3-34-4c-9-2.2-19.8-4.7-28.9-2.3c-4.4,1.2-6.9,4.1-8.9,8.1
	c-1.7-1.8-4.3-3.6-5.2-6c-0.6-4.6-0.3-9.5-0.6-14.2c-0.7-17.3-1-36.3,4.7-52.8c3-9,9.4-15.6,17-21C86.8,60.5,96.1,57.2,105.8,58z"/>
<path class="st7" d="M115.5,76.8c4.2,0.4,8.1,1.7,12.3,2.1c2.6,0.3,4.9,0.8,7.3,1.7c-3.4,0.3-6.9,0.6-10.3,0.2
	C121.6,80.3,118.4,78.4,115.5,76.8z"/>
<path class="st8" d="M88.8,87.7c6.6,0.4,13.4,1.2,19.8,2.6c2.4,0.5,2.6,2.3,1.9,4.3c-0.9,2.4-3.5,2.7-5.7,2.7
	c-9.1-0.1-16.5-4.7-26-3.6c-5.7,0.4-10.2,3.2-14.6,6.7c2.2-3.9,4.1-8.7,8.4-10.7C77.4,87.5,83.6,87.5,88.8,87.7z"/>
<path class="st9" d="M199.9,89.9c0.6,0.3,1.2,0.7,1.7,1.1c1.5,9.2,1.2,18.6-0.2,27.8c-1.4,9.5-4.5,18.6-5.8,28.2
	c-0.8,7.3-1.8,15.1-0.4,22.3l0.1,0.3c-0.1,1.8-0.2,3.7-0.3,5.5c-0.8,0.7-1.6,1.3-2.4,2c-0.1-0.4-0.2-0.9-0.3-1.3
	c0.5-2.9,0.6-5.8,0.4-8.8c-0.3-5.2,0.1-10.3,0.1-15.4c-1.4,3.2-2.5,6.3-4.9,8.8c0.5-4.8,2.5-8.8,4.1-13.3
	c4.6-13.1,8.4-27.1,8.6-41.1C200.7,100.5,200,95.3,199.9,89.9z"/>
<path class="st4" d="M44.1,90.1c-0.1,5.7-1.4,11.1-2.1,16.8c-1.8,12.8-3.1,26.1-2.4,39c0.2,5.3,1.6,10.4,2.4,15.7
	c-1.4-0.9-2.3-1.4-2.7-3.2c-1.6-6-2-12.4-2.1-18.5c0-15.3,2.1-30.9,4.5-46C42,91.8,42.5,91.4,44.1,90.1z"/>
<path class="st8" d="M135.8,94.1c8.2,0.4,16.9,1.7,24.8,4c4,1.3,8.8,3.1,11.6,6.5c2.4,2.9,3,7.5,3.9,11c-3-3.8-5.9-7.4-10.5-9.5
	c-6.1-2.9-12.2-2.9-18.8-3.1c-4-0.2-9.1-0.4-12.5-2.7C132.1,98.8,132.2,93.7,135.8,94.1z"/>
<path d="M88.8,102c6.3,0.6,14.1,2.5,18.2,7.7c3.9,4.4,3.4,11.7,1.3,16.7c-1.4,3.6-5.1,7.4-9.3,6.1c-5.9-1.8-11.4-4.3-17.5-5.3
	c-4.6-1.1-11.9-1-14.9-5.1c-3.7-5.9-1.4-15.3,5.2-18.2C77,101.2,83.1,101.8,88.8,102z"/>
<path class="st10" d="M94.5,106.9c2,1.5,3.9,3.1,4.9,5.4c1.8,3.9,0.7,8.9-2.5,11.7c-1.8,1.6-4.2,2.5-6.4,3.4
	c-3.4-0.9-6.8-1.7-10.2-2.6c-1.9-1.7-3.7-3.4-4.4-6c-1.1-3.4-0.2-7.9,2.7-10.3c0.5-0.6,2.9-1.8,2.1-2.7l-0.4-0.2
	C84,105.2,90.7,105.7,94.5,106.9z"/>
<path class="st11" d="M80.1,105.7l0.4,0.2c0.9,0.9-1.6,2.1-2.1,2.7c-2.9,2.4-3.8,6.8-2.7,10.3c0.8,2.5,2.5,4.2,4.4,6
	c-3.2-0.8-6.9-1-9.9-2.5c-3.5-1.6-4.1-7-1.9-9.8C70.9,108.2,75.3,106.3,80.1,105.7z"/>
<path class="st11" d="M94.5,106.9c4.4,1.3,8.3,2.4,10.7,6.7c3.7,5.7,2.8,14.6-4.1,17.3c-3.5-1.1-7-2.5-10.6-3.5
	c2.2-0.9,4.7-1.8,6.4-3.4c3.2-2.9,4.3-7.8,2.5-11.7C98.3,109.9,96.5,108.3,94.5,106.9z"/>
<path class="st12" d="M86.4,108.5c1,2.3,2.4,4,0.3,6.3c-2.8,2.3-5.1,0.9-6.7-1.9c0.3-1.2,0.6-2.5,1.3-3.5
	C82.8,108.1,84.7,108.6,86.4,108.5z"/>
<path d="M86.4,108.5c4.3,0.9,9,2.2,9.3,7.4c-0.1,5.5-6.4,7.4-10.9,5.9c-4.1-1.5-5.9-4.4-4.9-8.8c1.6,2.7,3.9,4.2,6.7,1.9
	C88.9,112.6,87.4,110.8,86.4,108.5z"/>
<path d="M150.3,110.3c6.4,1.1,13.9,2.6,18.5,7.6c4.4,4.5,3.7,12.3,0,17c-3.7,3.8-9.3,2.3-14,2c-6-0.5-12-0.3-18,0.1
	c-2.3,0-5.1,0.5-6.9-1.3c-3.8-3.3-3.6-8.3-3.2-12.9c0.3-4.2,2.5-7.8,6-10.1C137.9,109.4,144.3,109.5,150.3,110.3z"/>
<path class="st13" d="M47.9,110.2c-0.5,6.3-1.4,12.4-1,18.7c0.7,16.1,2.7,31.9,0.8,48c0.7-0.7,1.4-1.4,2.2-2
	c0.1,1.8,0.4,3.7,0.2,5.5c-6.6,7.6-10.6,17.7-20.4,21.7c4.2-4.2,10.2-8.5,12.1-14.2c1.6-4.2,3.3-8.6,3.9-13
	c2.6-19.4-2-39.1-0.5-57.9C45.5,114.4,45.1,111.3,47.9,110.2z"/>
<path class="st11" d="M144.2,113.8c-3.5,1.9-6.5,4-7.4,8.1c-1.2,5.6,2.2,10.4,7.2,12.6c-3.9-0.1-8.1,0.9-11.9,0.2
	c-5.2-3.6-4.2-12.4,0-16.5C135.3,114.6,139.5,113.6,144.2,113.8z"/>
<path class="st10" d="M144.2,113.8c4.2,0,8.6,0.5,12.6,1.8c2.9,2.9,5.3,5.9,4.7,10.3c-0.5,4.4-3.5,7.1-7.2,9
	c-3.4-0.1-6.8-0.2-10.2-0.4c-5-2.2-8.4-7.1-7.2-12.6C137.7,117.8,140.8,115.7,144.2,113.8z"/>
<path class="st11" d="M156.8,115.6c3.8,1.4,7.5,2.8,9.9,6.3c2.9,4.1,3.7,10-1.2,12.8c-3.5,0.9-7.6,0.2-11.2,0.2
	c3.7-1.9,6.7-4.6,7.2-9C162.1,121.5,159.7,118.5,156.8,115.6z"/>
<path class="st12" d="M147.1,116.8c1,1.2,2.4,2.3,2,4.1c-0.2,2.1-2.3,3.7-4.4,3.3c-2-0.3-2.4-1.8-3.5-3.2
	C142.1,117.6,143.3,116.2,147.1,116.8z"/>
<path d="M147.1,116.8c3.1,0.6,6.8,1.2,8.8,4c1.7,2.3,1.5,5.6-0.6,7.6c-3.7,3.6-10.6,2.7-13.4-1.5c-1.3-1.9-0.8-3.7-0.6-5.8
	c1.1,1.4,1.6,2.9,3.5,3.2c2.1,0.4,4.1-1.2,4.4-3.3C149.5,119.1,148.1,118.1,147.1,116.8z"/>
<path class="st14" d="M122.5,130.4c0.5,3.7,0.8,7.4,1,11.2C120,138.2,120,134.4,122.5,130.4z"/>
<path class="st15" d="M82.3,137c4,0.2,8,0.7,11.9,1.4C89.8,139.3,86.4,139.2,82.3,137z"/>
<path class="st16" d="M136.5,144.1c1,0.1,2,0.1,3,0.2c3.5,0.3,7,0.7,10.5,1.3C145.2,147.6,140.9,146.5,136.5,144.1z"/>
<path class="st17" d="M105.4,146.5c3.2,1.5,6.7,3.8,10.4,3.7c2.7,0,5.5-2,7.8-3.2c-0.6,1.9-0.4,4.3-2.2,5.5
	C115.6,156.1,106.7,153.9,105.4,146.5z"/>
<path class="st8" d="M82.8,152.3c7.5-0.1,14,2.3,21.3,3.8c11.1,2.4,22.5,3.6,33.8,3.4c6.1,0.4,14,1.5,18.6,5.9
	c3,2.4,1.9,6.5,1.9,9.9c1.6-0.9,3.1-1.8,4.7-2.7c-2.9,7.1-6.2,14-8.2,21.5c-14.9,7.6-30.8,12.2-47.6,10.4
	c-18-2.7-33.8-12.8-46.5-25.4c-1-1.2-2.5-2.4-2.5-4.1c-0.3-5.9-0.3-11.9-0.3-17.8c1.9,1.9,3.8,3.7,5.7,5.6c1.1-3.2,1.9-6.2,4.9-8.1
	C72.6,151.5,77.9,152.4,82.8,152.3z"/>
<path class="st6" d="M74,157.3c-1.9,2.8-2.4,4.1-0.5,7c0.2-1.7,0.5-3.4,0.7-5.2c1.8,1.6,3.7,3.2,5.8,4.5c3,1.6,3.8,4.4,6.3,6.7
	c2.7,2.4,6.2,4.1,9.6,5.5c10.4,4,21.9,5.8,32.9,3.9c3.8-0.7,7.3-2,10.5-4.3c3.2-2.4,7-3.2,10.5-5.1c-0.2,1.4-0.5,2.8-0.7,4.3
	c2.8-1.7,2.2-4,1.8-6.7c1.4,1.7,2.6,3.3,1.3,5.5c-6.3,7.7-14.2,13.6-24.4,14.5c-4.5,0.5-8.3-1-12.6-2c2-0.8,3.9-1.7,5.9-2.6
	c-7.4,0-13.9-1.2-20.9-3.1c1.3,1.6,2.8,3.1,4.5,4.3c-3.8-0.2-7.8,0.6-11.4-0.2c-3.8-0.9-7.1-3.4-10-5.8c-5-4.4-9.3-10-11.5-16.3
	c-0.6-1.3-0.3-2.6-0.1-3.9C72.5,157.8,73.2,157.6,74,157.3z"/>
<path class="st18" d="M82.8,159c-2.3-0.3-4.6-0.5-6.9-0.7c2.2,2.2,4.3,4.2,7.4,5c7.2,1.9,15.1,2.2,22.5,3.2c9.6,1.3,19.5,2.2,29,4.4
	c2.2,0.4,4.6,1.1,6.9,0.9c2.9-0.3,5.2-1.7,7.5-3.4c-2.1-0.6-4.2-1.1-6.3-1.5c3.4-1.3,5-1,8,1c0.4,2.7,1,5-1.8,6.7
	c0.2-1.4,0.4-2.8,0.7-4.3c-3.5,1.9-7.3,2.8-10.5,5.1c-3.2,2.2-6.7,3.6-10.5,4.3c-11.1,2-22.5,0.1-32.9-3.9c-3.3-1.3-6.9-3-9.6-5.5
	c-2.5-2.3-3.3-5.1-6.3-6.7c-2.1-1.3-3.9-2.9-5.8-4.5c-0.2,1.7-0.4,3.5-0.7,5.2c-2-2.9-1.4-4.3,0.5-7C77.4,156.5,80.2,156.3,82.8,159
	z"/>
<path class="st6" d="M75.9,158.3c2.3,0.2,4.6,0.4,6.9,0.7c4.6,1.9,9.3,2.6,14.2,3.2c8.3,0.9,16.6,1.6,24.8,3.1
	c6.8,1,14.4,2.9,21.2,1.6c2.1,0.4,4.2,0.9,6.3,1.5c-2.3,1.7-4.6,3.1-7.5,3.4c-2.3,0.2-4.7-0.5-6.9-0.9c-9.5-2.2-19.4-3.1-29-4.4
	c-7.4-1-15.3-1.3-22.5-3.2C80.2,162.5,78.1,160.5,75.9,158.3z"/>
<path class="st19" d="M196.8,158.8c2.4,6.2,5.6,11.9,9,17.5c-3.2-2.1-4.9-5.2-6.6-8.4c-0.6,0.1-1.3,0.3-1.9,0.4
	C197.2,165.2,197,162,196.8,158.8z"/>
<path class="st20" d="M84,165.3c18.5,2.9,37.2,3.8,55.6,8.2c-3.1,1.9-6.2,3.6-9.9,4.3c-10,2.1-20.9,0.7-30.5-2.5
	c-4.9-1.7-9.8-3.6-13.3-7.6C85.3,167,84.7,166.2,84,165.3z"/>
<path class="st21" d="M88.3,167.9c3,0.2,5.8,0.8,8.7,1.6c12.1,3.4,24.5,4.2,37,4.1l0,1.5c-11.2,0.5-22.5-0.4-33.4-2.9
	C96.2,171.1,92.1,170.7,88.3,167.9z"/>
<path class="st4" d="M184,169.6c-4.7,6.5-10.3,12.1-14.2,19.3c-2,3.1-2.8,6.7-6.1,8.4c2.2-8.7,8.8-16.4,14.2-23.4
	C179.7,172.1,181,169,184,169.6z"/>
<path class="st0" d="M195.3,169.5c2.1,8,3.4,16.9,1.1,25c-1.6-5.8-2.4-11.7-3.8-17.5c0.8-0.7,1.6-1.3,2.4-2
	C195.1,173.2,195.2,171.3,195.3,169.5z"/>
<path class="st17" d="M100.2,180.1c7.1,2,13.5,3.1,20.9,3.1c-2,0.9-3.9,1.8-5.9,2.6c-3.7,0.1-7-0.5-10.5-1.4
	C103,183.3,101.5,181.8,100.2,180.1z"/>
<path class="st2" d="M183.6,179.7c0.2,3.7,0.2,7.4-0.5,11c-4,5.8-6.8,12.1-11.2,17.6c1.3-3.7,2.9-7.3,4.5-10.9
	C179.1,191.6,181.1,185.6,183.6,179.7z"/>
<path class="st11" d="M57.8,181.9c7,6.9,14.8,13,23.4,17.8c-0.5,1.8-1,3.6-1.4,5.4c-3.8,1.3-7.1,1.2-11,1c-6.7,1-13.3,2.9-19.8,4.7
	c4.1-7.9,6.8-16.6,8.2-25.3C57.4,184.3,57.6,183.1,57.8,181.9z"/>
<path class="st11" d="M153.6,199.1c-1,4.7-1.8,9.3-2,14.1c-3.8-1.3-7.7-2.4-11.5-3.5c-3.5-1.1-7.1-0.5-10.6-1.8
	c6.8-2.3,13.8-3.8,20.3-6.9C151.1,200.4,152.3,199.8,153.6,199.1z"/>
<path class="st6" d="M85,201.7c7.3,3.2,14.7,6,22.8,7c6,0.4,12,0.3,18-0.6l0.2,2.7c2.9,1.2,6.1,2,9.1,3.1c-0.5,4.2-1.2,8.1-3.6,11.7
	c-3.3,4.8-8.9,7.2-14.6,7.6c-10.3,0.7-21.7-1-30.7-6.5c-6.2-3.7-10.8-9.2-14.3-15.5c3.8-1,7.6-1.9,11.3-2.8
	C83.7,206.1,84.2,203.9,85,201.7z"/>
<path class="st2" d="M168.1,203.5c-1.3,5.1-3.2,9.9-5.7,14.4c-0.4-1.7-0.9-3.3-1.4-4.9c-1.6,4.1-2.9,8.4-4.7,12.4
	c-0.3-2.6-0.6-5.2-0.6-7.9C160.5,213.4,163.9,208.2,168.1,203.5z"/>
<path class="st22" d="M68.8,210.4c3.8,7.5,8.8,14,16.2,18.3c8.2,4.9,18.3,7,27.8,7.1c7-0.1,14.7-1.8,19.4-7.4
	c3.6-4.2,4.5-9.2,5.2-14.6c4.8,0.9,9.4,2.4,14,4.1c0.3,7.5,2.3,14.6,5,21.5c1.1-3.1,1.6-6.6,3.3-9.4c2.2-2.6,4.5-5.3,7.1-7.5
	c1.9-0.4,4.2,1.6,5.9,2.4c-0.7,3.3-1.3,6.7-1.9,10c1.7-2.2,3.4-4.5,5.1-6.7c1.7,3.1,3.1,6.4,3.9,9.8c1.2,5,2.7,10,3.4,15.1
	c1.8,16.9,3.2,33.9,4.8,50.8h-30.7c1.8-4.7,3.5-9.5,5.4-14.1c4.4-10.7,5.4-22.4,5.2-33.9c-0.1-3.5,0.2-7.6-1.1-10.9
	c-1.3-0.9-2.4-0.8-3.5,0.3c-0.6,4.4,0.6,9.1,0.4,13.6c-0.3,9.5-1,19.3-4.6,28.2c-2.2,5.6-4.3,11.2-6.4,16.8H42.1
	c-0.5-0.9-0.9-1.9-1.4-2.8c4.5-11.6,8.2-23.7,10.1-36c-1.2-0.9-2.5-1.8-3.7-2.7c-1.7,14.2-6.7,28.1-11.7,41.5H4.1
	c1.6-12,3.1-24,4.9-36c1.2-6.4,1.2-12.8,2.9-19c1.4-5.1,2.8-10.2,4.6-15.2c1.6-4.8,5.2-9.1,9.9-11.1c3.9-1.4,8.6-1.1,12.5,0.3
	c3.9,1.5,6,4.5,8.3,7.7c1.5,0.5,3,1,4.5,1.5c-1.1-2.6-1.9-5.1-3.7-7.3c-2.2-2.8-5-4.4-8-6.2C49.3,214.9,58.9,212.3,68.8,210.4z"/>
<path class="st23" d="M174.9,213.7c-0.4,2.3-0.9,4.6-1.3,6.9c-0.9-0.4-1.9-0.8-2.8-1.2C172.1,217.5,173.5,215.6,174.9,213.7z"/>
<path class="st24" d="M135.1,229c-1.1,3.8-3,6.8-6.7,8.6c-6,2.8-13.4,2.9-19.9,2.7c5.9-2.1,11.7-0.8,17.2-3.5
	C129.4,235,132,231.7,135.1,229z"/>
<path d="M163.2,245.3c1-1.1,2.2-1.2,3.5-0.3c1.3,3.3,1,7.4,1.1,10.9c0.3,11.5-0.8,23.1-5.2,33.9c-1.9,4.7-3.5,9.4-5.4,14.1h-4.6
	c2-5.6,4.1-11.2,6.4-16.8c3.6-8.9,4.3-18.7,4.6-28.2C163.8,254.4,162.6,249.8,163.2,245.3z"/>
<path d="M47.1,262.4c1.2,0.9,2.5,1.8,3.7,2.7c-1.9,12.3-5.7,24.4-10.1,36c0.4,0.9,0.9,1.9,1.4,2.8h-6.7
	C40.4,290.6,45.4,276.6,47.1,262.4z"/>
</svg>
