<?xml version="1.0" encoding="utf-8"?>
<!-- Generator: Adobe Illustrator 19.2.0, SVG Export Plug-In . SVG Version: 6.00 Build 0)  -->
<svg version="1.1" id="Layer_1" xmlns="http://www.w3.org/2000/svg" xmlns:xlink="http://www.w3.org/1999/xlink" x="0px" y="0px"
	 viewBox="0 0 198.2 257.1" style="enable-background:new 0 0 198.2 257.1;" xml:space="preserve">
<style type="text/css">
	.st0{fill:#A94732;}
	.st1{fill:#7C1C09;}
	.st2{fill:#761400;}
	.st3{fill:#7E1C09;}
	.st4{fill:#7F1D09;}
	.st5{fill:#FAE7D0;}
	.st6{fill:#D9C6AF;}
	.st7{fill:#7B1905;}
	.st8{fill:#7D2E24;}
	.st9{fill:#FFFFFF;}
	.st10{fill:#813C2E;}
	.st11{fill:#FEFEFE;}
	.st12{fill:#801E0A;}
	.st13{fill:#7F1C09;}
	.st14{fill:#DECBB4;}
	.st15{fill:#D08B7D;}
	.st16{fill:#5D1714;}
	.st17{fill:#DBC7B1;}
	.st18{fill:#554C45;}
	.st19{fill:#7E1C08;}
	.st20{fill:#FFE74C;}
	.st21{fill:#909090;}
	.st22{fill:#5C6256;}
	.st23{fill:#454B44;}
	.st24{fill:#404640;}
</style>
<path d="M103.6,0.5c4.5-0.6,9.3-0.5,13.8-0.4c5.7,0.2,11,2.3,15.3,5.9c4.1-1.6,8.3-2.3,12.7-1.7c9.2,1.3,17.8,5.9,24.5,12.4
	c6.9,6.5,12.6,14.5,17.3,22.7c7.5,13.2,11.4,28.6,10.8,43.8c-0.5,13.2-6.7,25.2-9.9,37.8c-2.2,7.6-2.9,15.3-3,23.2
	c0.2,6.7,1.2,13.2,4.2,19.2c-3-0.5-5.4-1-7.8-3c-0.2,6.3-2.8,11.5-5.8,16.9c-0.7-5.6-2-10.7-5.7-15.2c-0.9,8-1.4,16.1-1.5,24.1
	c-6.7-1.6-10.9-6-14.3-11.8c-1,4.4-2.4,8.7-4.4,12.8c4.4,4.5,10.2,5.8,13.5,10.9c3.7,5.8,7.1,11.9,9.6,18.3
	c5.4,13.5,10.3,27.2,15.6,40.8H185c-3.9-9.9-7.5-19.9-11.3-29.8c-2.6-6.4-4.4-12.8-8-18.8c-3.5-5.9-5.6-12-12.6-14.5
	c-3.9-1.8-8.7,1.9-11.4-1.8c1.9-0.8,3.8-1.5,5.7-2.3c-3.1-0.9-4.4-3.5-7.1-5.1c-4.3-2.7-8.8-5.2-13.3-7.5
	c-5.4,5.6-11.6,10-19.4,11.3c-9,1.1-18.3,0.5-26.5-3.6c-4.4-2.3-7.8-6.1-8.8-11.1c-0.4-3-0.1-6.2,0-9.2c-9.1-0.4-18.1,1.1-27.2,0.2
	c-4.3,0.8-8,4.2-10,8c-2.7,4.9-5.7,9.9-7.6,15.2c-5.1,14.6-10.3,29.2-15.3,43.9c-1.3,3.9-3.5,7.2-5.1,10.9
	c-2.1,4.5-2.8,9.2-3.9,14.1H0c0.9-5.6,1.9-11,4.4-16.1c1.6-3.7,4-6.9,5.3-10.7c2.9-8.4,5.8-16.8,8.8-25.2c4.6-13,8.3-25.3,16.2-36.8
	c4.2-5.2,10.2-7.8,16.9-6.3c-2.6-5.8-4.8-11.7-6-17.9c-1.4,2.8-2.8,5.5-4.4,8.2c-0.9-6.1-1.8-12-1.3-18.2c0.3-8.6,3.2-16.5,3.8-25
	c1.5-19.1,0.1-36.7,5.2-55.6c5.7-16.8,14.9-33,30.2-42.8C86.6,6.1,95,2.2,103.6,0.5z"/>
<path class="st0" d="M114.1,3.3c-2,2.3-5.2,0.6-7.9,0.8c1.5,3.3,5.4,1.2,7.4,4.4c-7-3.3-15.1-2.1-21.3,2.5c5.3,0.2,9.5-3.6,15.1-2.7
	c4.3,0.4,6.1,3.5,9,6.1c0-3.1-0.8-5.9-1.7-8.8c2.1,1.6,3.1,3.8,4.7,5.9c0.4-3.4-1.2-5.1-3-7.7c1-0.1,2.1-0.1,3.1-0.2
	c3.4,0.5,5.8,1.5,8.6,3.4c-5.1,2.4-9.7,5.1-12.9,9.9c-3.4,3.5-6.7,6.7-8.7,11.3c-1.9,3.6-1.7,7.7-3.8,11.1
	c0.1-6.2,1.5-11.8-0.7-17.9c-1.7-4.3-5.8-8.2-10.8-7.3c3.2,2.3,6.8,2.8,8.6,6.5c2.6,5,1.7,12,1.2,17.5c-1.4-0.3-2.5,0.1-3.4-1.2
	c-2.4-3.8-3.2-8-6.6-11.4c-2.5-2.7-6.2-3.8-9.6-2.4c-6.1,2.5-11.2,8-14.6,13.4c-2.7,4.3-5.5,8.9-7.2,13.7c1.1-0.7,2-1,2.6-2.3
	c4.1-7.5,8-15.7,15.2-20.8c2.8-1.9,6.1-4,9.5-2.7c3.7,1.7,5.2,5,6.6,8.6c-3.2-1.6-6.9-4.8-10.7-3.5c-6,1.6-9.8,5.9-13,11
	c-4.3,6.9-8.1,13.4-8.4,21.7C59.7,68.1,59.8,74,58.7,80c-1.9,11.2-2.3,22.6-4.4,33.8c-3,7.1-8.2,12.6-10.6,20.1
	c-0.2-0.6-0.4-1.2-0.6-1.9c0.6-6.5,2.4-12.5,3.2-18.9c2.2-18.7,0.2-38.9,5.2-57C55.4,44,61.4,32,70.1,22.7
	c7.3-7.8,16.5-13,26.4-16.7C102.2,3.9,108,3.1,114.1,3.3z"/>
<path class="st1" d="M114.1,3.3c1.8-0.1,3.7,0.1,5.5,0.4c-1,0.1-2.1,0.1-3.1,0.2c1.8,2.5,3.5,4.3,3,7.7c-1.6-2.1-2.6-4.3-4.7-5.9
	c0.9,2.9,1.7,5.7,1.7,8.8c-2.9-2.6-4.7-5.7-9-6.1c-5.6-0.8-9.8,3-15.1,2.7c6.1-4.6,14.2-5.8,21.3-2.5c-2-3.2-5.9-1.1-7.4-4.4
	C108.9,3.9,112.1,5.6,114.1,3.3z"/>
<path class="st0" d="M152.3,9.3c6,2.1,11.3,5.7,15.9,10.1c16.9,16.9,27.6,39.5,26.7,63.7c-0.5,11.9-5.6,21.2-8.6,32.8
	c-4,13.1-5.5,26.8-2.9,40.3c-1.6-2.2-3.1-4.4-4.4-6.8c0.3,2,0.4,3.1-0.6,5c0.2,4.4,0.2,8.5-1.1,12.7c-2-5.3-5.2-8.9-9.6-12.3
	c-0.9,8.9-1.6,17.8-2.2,26.7c-3.9-2.7-6.6-6.2-8.5-10.6c-1.3-3-1.8-6-4-8.5c-1.8,6.6-2.5,15.3-6.8,20.9c-1.5-5.6-2.7-11.4-2.3-17.2
	c0.3-8,2.5-15.3,4.5-23c2.7-10.5,4.6-21.2,5.9-32c1.1-8.4,2-16.5,1.1-25c-0.8-6.6-3.3-12.8-5.9-18.8c-1.9-7.1-5.6-13.3-10.1-19.1
	c-2.1-2.7-4.2-5.9-6.9-8.1c-2.5-1.9-6.2-1.9-9.2-2.4c3.8-4.9,10.2-2.7,14.5,0.2c3.2,2,4.5,5.8,7.9,7.5c-2.3-6.9-9.9-12.2-17.1-12.2
	c-5-0.2-6.4,5.1-11.2,6.7c-1.6,0.3-4.7,2.1-4.8-0.7c2.3-6.8,7-14.1,13.6-17.4c4.8-2.5,9.2-1.4,14.2-0.7c-0.3-0.5-0.6-1.1-1-1.6
	c-3.6-0.9-7.2-1.4-10.8-0.3c-5.5,1.5-9.7,5.6-12.8,10.2c-2.1,3-3.4,6.5-5.5,9.5c-0.8,1.2-2,1.7-3.4,1.2c-1.6-1-1-2-0.9-3.6
	c1.1-6.6,4.4-12.3,9.3-16.7c3.7-0.9,4.9-3.9,7.8-6c4-3,8.9-3.8,13.6-5.4C141.7,6.5,147.3,7.6,152.3,9.3z"/>
<path class="st2" d="M91.3,14.1c5-0.9,9.1,3,10.8,7.3c2.3,6.1,0.9,11.7,0.7,17.9c2.1-3.4,1.9-7.5,3.8-11.1c2-4.6,5.4-7.8,8.7-11.3
	l-0.1,2.7c-4.9,4.4-8.3,10.2-9.3,16.7c-0.1,1.6-0.7,2.6,0.9,3.6c1.4,0.5,2.6,0,3.4-1.2c2.1-3,3.4-6.5,5.5-9.5
	c3.2-4.6,7.3-8.7,12.8-10.2c3.7-1.1,7.2-0.5,10.8,0.3c0.3,0.5,0.7,1.1,1,1.6c-5-0.7-9.5-1.7-14.2,0.7c-6.6,3.3-11.2,10.7-13.6,17.4
	c0.1,2.9,3.2,1.1,4.8,0.7c4.8-1.6,6.3-6.9,11.2-6.7c7.2,0,14.8,5.3,17.1,12.2c-3.3-1.7-4.6-5.5-7.9-7.5c-4.3-2.9-10.7-5-14.5-0.2
	c3,0.5,6.8,0.5,9.2,2.4c2.7,2.2,4.8,5.3,6.9,8.1c4.4,5.8,8.1,12,10.1,19.1c-3.1-4.4-6.1-8.5-10.5-11.7c-4.8-3.4-9.9-6.6-15.3-8.8
	c-5.4-2.3-11.1,0.4-17.1-1c-3.8-0.6-6.1-2.9-9.3-4.7c-2.8-0.7-6-0.2-8.9-0.1c-5.6,0.5-11.8,1.1-16.4,4.8c-5.4,4.1-8,10.4-10.6,16.5
	c0.2-8.3,4.1-14.9,8.4-21.7c3.2-5.1,7.1-9.3,13-11c3.8-1.2,7.5,1.9,10.7,3.5c-1.4-3.6-2.9-6.9-6.6-8.6C83.3,23,80,25.1,77.3,27
	c-7,5.3-10.9,13.4-15,21c-0.6,1.2-1.5,1.6-2.6,2.3c1.7-4.8,4.5-9.4,7.2-13.7c3.4-5.5,8.5-11,14.6-13.4c3.5-1.5,7.2-0.4,9.6,2.4
	c3.3,3.4,4.1,7.6,6.6,11.4c0.8,1.3,2,1,3.4,1.2c0.5-5.4,1.5-12.4-1.2-17.5C98.1,16.9,94.5,16.4,91.3,14.1z"/>
<path class="st3" d="M167.5,23c2.6,0.1,3.7,2.1,5.2,3.9c7.1,9,10.9,19.3,13.8,30.2c0.6,2.1,0.8,4.3,1,6.5c-2.1-1.1-2-3-2.6-5
	c-2.1-9.2-5.5-18.4-10.6-26.4C172.2,29,169.5,26.3,167.5,23z"/>
<path class="st4" d="M140.3,29c2.9,0.5,5.2,3.1,7.2,5.1c6.1,6.1,10,14.3,10,23c0,7.7-0.3,15.3-0.1,23c0.2,4.2,0.9,8.2,1,12.4
	c-1.1-0.6-1.7-1.4-1.9-2.4c-1.1-7.6-1.4-15.3-1.1-23c0.1-5.2,0.6-10.6-0.4-15.8c-1.5-6.8-5.2-12.9-10.5-17.4
	C143,32.3,141.1,31.2,140.3,29z"/>
<path class="st4" d="M157.4,32c1.5,0.9,2.7,2,3.8,3.4c4.4,5.7,7.9,12,10.1,18.8c4.1,12,4,25.6,2,37.9c-0.5,2.7-0.5,5.2-2.7,7.2
	c0.1-6.1,2.1-12,2.1-18.2c1-14.9-2.3-29.8-11.1-42.1C160,36.8,157.8,34.8,157.4,32z"/>
<path class="st5" d="M95.6,44.1c2.3,0.8,4.1,2.8,6.4,3.7c4.8,2.1,10.5,1.9,15.6,1.4c3.3-0.5,6.4,1.2,9.3,2.7c4,2.2,8,4.5,11.6,7.4
	c7.5,6.3,11.6,15.6,13.5,25c1.6,9.2,0,19.4-1,28.7c-0.9,5.6-1.3,11.7-3.3,17.1c-4.4,6.1-10.7,9.6-17.8,11.5
	c-0.6-5.6-2.4-10.6-8.2-12.5c-9.3-2.5-19.9-0.4-29.5-2.5c-6.7-1-12.9-4.3-19.3-3.3c-3.6,0.8-4.7,3.5-6.4,6.3
	c-3.6-4.6-5.7-9.8-7.2-15.4c-0.7-3.7,0.5-7.8,0.8-11.6c1.3-8,1.8-16.1,3.1-24.1c0.8-0.4,1.7-0.9,2.5-1.3c2.9-1.5,5.7-2.9,9.1-2.8
	c6-0.3,12.1,3.5,17.9,2.4c2.2-0.3,3.6-3.9,1.8-5.3c-2.9-1-6.1-1.2-9.2-1.7c-5-0.6-11-1-15.8,0.9c-3.2,1.3-4.4,3.9-6.2,6.6
	c0.9-7.1,1.2-14.7,4.7-21c2.5-4.8,5.8-9,11.2-10.6C84.2,44.4,90.2,43.8,95.6,44.1z"/>
<path class="st4" d="M54.4,59.7c-0.1,4.9-1.3,9.5-1.9,14.4c-1,7.3-1.7,14.7-2.1,22c-0.1,1.9-0.4,2.8-1.7,4.2
	c-0.6-4.5,0.1-8.8,0.5-13.2c0.7-8,1.7-16.1,3.2-24C52.7,61.3,53.1,60.9,54.4,59.7z"/>
<path class="st6" d="M95.4,60.3c4.8,0.4,9.3,1.3,14.2,1c-2.2,0.9-4.6,2-7,1.6C100.1,62.5,97.7,61.4,95.4,60.3z"/>
<path class="st7" d="M180.4,60.9c1.9,1.3,2.2,3.2,3,5.3c3.3,10.8,3.2,22.9,1.4,33.9c-1.2,8.3-4.9,15.4-5,23.9
	c-0.5,5.7,1.2,10.8,1.8,16.4c-0.6-0.5-1.2-1.1-1.7-1.7c-1.4-3.7-1.4-8-1.9-11.9c-2.6,7.5-1.8,15.6-0.9,23.3
	c-1.8-0.6-1.6-1.1-2.1-2.7c-1.5-9.8-0.1-19.5,3.1-28.8c4.6-14.4,7.9-28.5,5.5-43.7C183.1,70.2,180.7,65.8,180.4,60.9z"/>
<path class="st8" d="M85,69.9c3,0.4,6.2,0.7,9.2,1.7c1.8,1.4,0.4,5-1.8,5.3c-5.8,1-11.8-2.7-17.9-2.4c-3.4-0.1-6.2,1.3-9.1,2.8
	L63,77.4c1.8-2.7,3-5.3,6.2-6.6C74,68.9,80,69.3,85,69.9z"/>
<path class="st8" d="M112.5,74c3.2-0.4,6.7,0.3,9.9,0.7c5.9,0.9,12.9,2,17.8,5.6c3.5,2.4,3.9,6.9,4.9,10.6c-2.6-3.4-5.3-6.5-9.4-8.1
	c-7-3.1-15.1-0.6-21.9-3.1C111.4,79.1,110.4,75.4,112.5,74z"/>
<path d="M73.5,81.1c6.7-0.4,14.8-0.1,19.4,5.6c3.7,4.7,2.6,10.2,0.4,15.2c-1,2-2.6,3.5-4.8,4c-3.8-0.7-7.3-2.7-11-3.6
	c-3.9-1.2-8.5-1.2-12.1-3C62,97.3,62,92,63,88.7C64.4,84.1,68.7,81.2,73.5,81.1z"/>
<path class="st9" d="M80.9,84.2c-4.4,0.6-8.7,2-9.7,6.9c-0.7,4.5,2.1,7.1,5.5,9.3c-3.3-1.1-6.9-1.2-10.1-2.4
	c-3.6-2.2-2.6-7.1-0.2-9.8C70.2,83.5,75.6,84,80.9,84.2z"/>
<path class="st10" d="M80.9,84.2c0.8,0.1,1.6,0.3,2.4,0.6c1.9,1.5,4.3,3.1,5.2,5.4c1.2,3,0.2,6.6-2.4,8.6c-2.4,1.9-5.2,1.9-8.1,2
	c-0.4-0.1-0.8-0.2-1.2-0.3c-3.4-2.2-6.3-4.8-5.5-9.3C72.2,86.2,76.5,84.8,80.9,84.2z"/>
<path class="st9" d="M83.3,84.8c3.1,1.1,6,1.6,7.8,4.7c2.9,4.3,2.6,12.3-2.6,14.6c-3.6-1-6.9-2.7-10.5-3.5c2.9-0.1,5.7-0.1,8.1-2
	c2.6-1.9,3.7-5.5,2.4-8.6C87.6,87.8,85.2,86.2,83.3,84.8z"/>
<path d="M129.6,87.9c4.7,1.2,9.8,3.5,11.6,8.4c0.6,3.3,0.5,7.3-1.5,10.1c-1.5,2-3.8,2.7-6.2,2.6c-4.7-0.1-9.2-1.2-14-0.8
	c-3,0.2-6.1,0.9-9.1,0.6c-3.8-1.3-5.1-5-5-8.8c-0.3-4.6,1.4-9.1,5.6-11.5C116.9,85.3,123.3,86.5,129.6,87.9z"/>
<path class="st11" d="M78.8,87.2c1.1,1.5,2.1,3.1,0.4,4.6c-1.9,1.5-3.2,0.3-4.7-1C74.9,88,75.7,86.7,78.8,87.2z"/>
<path d="M78.8,87.2c2.4,0.5,5,0.9,6.4,3.2c1.4,2.4,0.2,5.2-2.3,6.1c-3.9,1.6-9.6-0.8-8.4-5.8c1.5,1.3,2.8,2.5,4.7,1
	C80.9,90.3,79.8,88.6,78.8,87.2z"/>
<path class="st9" d="M120.3,89.9c-2.6,2-5.1,3.6-5.6,7.2c-0.6,3.7,1.4,6.4,4.2,8.7l0.6,0.6c-3,0.3-6.1,0.9-9,0.7
	c-4.7-2.2-3.9-10.3-0.6-13.5C112.7,90.1,116.1,89.7,120.3,89.9z"/>
<path class="st10" d="M131.4,91.7c1.9,2.7,3.8,4.9,3.1,8.4c-0.6,3.4-3,5.1-5.6,6.9c-2.9-0.2-5.8-0.3-8.7-0.2c-0.4-0.3-0.8-0.7-1.2-1
	c-2.7-2.3-4.7-4.9-4.2-8.7c0.5-3.5,2.9-5.2,5.6-7.2C124,89.9,127.9,90.3,131.4,91.7z"/>
<path class="st11" d="M123.6,92.7c0.9,1.9,1.7,3.8-0.4,5.2c-2,1.2-3.3-0.1-4.7-1.4c0.3-1.4,0.3-2.9,1.6-3.7
	C121.1,92.2,122.5,92.6,123.6,92.7z"/>
<path class="st9" d="M131.4,91.7c3.6,1.5,6.5,3.7,7.7,7.6c1.2,2.8,0,6.3-2.9,7.6c-2.3,0.6-5,0.2-7.4,0.2c2.6-1.9,5.1-3.5,5.6-6.9
	C135.1,96.6,133.2,94.4,131.4,91.7z"/>
<path d="M123.6,92.7c2.8,0.5,5.2,0.8,6.7,3.5c1.7,3.2-0.6,6.4-3.9,7c-4.2,0.9-9.4-1.8-8-6.8c1.4,1.4,2.7,2.6,4.7,1.4
	C125.4,96.4,124.6,94.6,123.6,92.7z"/>
<path class="st12" d="M162.4,102.9c-0.9,9.8-3,19.9-5.8,29.3c-1.5,4.1-2.8,9.1-6.2,12c0.2-1.7,0.6-3.3,1.3-4.8
	c5.1-10.6,6.7-22.9,8.7-34.3C160.5,104,161.2,103.3,162.4,102.9z"/>
<path class="st13" d="M173.5,104.6c-1.1,7.5-3.3,14.8-5.5,22c-2.4,6.9-4.9,14.1-8.9,20.2c-2.5,0.1-0.4-2-0.2-3.2
	c6.1-11.4,9.5-24,12.4-36.5C171.5,105.9,172.2,105.1,173.5,104.6z"/>
<path class="st14" d="M77.6,110.3c1.9-0.8,3.6-0.5,5.5,0.2C81.3,111.5,79.1,112.1,77.6,110.3z"/>
<path class="st2" d="M54.4,113.9c-0.6,7.1-1.1,13.5,2.2,20.1c5.3,9.9,11.9,19.4,20,27.2c-5.6-0.1-11.2,0.1-16.8-0.1
	c-2.3-6.2-3.3-12.7-5.6-18.8c-0.5,4.6-0.9,9.2-1.4,13.8c-4-7.6-4.4-15.5-4.8-23.9c-1.6,3-3.2,6-5,9c-0.2-3-0.1-6,0.2-9
	c0.2,0.6,0.4,1.2,0.6,1.9C46.2,126.5,51.4,121,54.4,113.9z"/>
<path class="st15" d="M86.3,114.2c1.7,1.6,3.2,3.9,5.4,4.6c2.8,1.1,6.2,0.5,9.1,0.4c-1.2,2-1.7,3.5-4.4,3.5
	C91.9,122.6,87,118.8,86.3,114.2z"/>
<path class="st16" d="M58.9,114.2c1.5,5.5,3.6,10.8,7.2,15.4c1.7-2.9,2.8-5.6,6.4-6.3c6.5-1.1,12.7,2.3,19.3,3.3
	c9.6,2.1,20.2,0,29.5,2.5c5.9,1.9,7.6,6.9,8.2,12.5c7.1-1.9,13.4-5.5,17.8-11.5c-0.2,1.5-0.3,3-0.5,4.5c-3,1.6-5.5,4-8.5,5.6
	c-3.2,1.7-6.6,2.8-10.1,3.8c-1-5.1-0.6-10-5.9-12.8c-8.6-3.5-19.8-0.8-29-2.7c-5.7-0.8-11.1-3-16.8-3.7c-2.2-0.3-5.3,0-6.8,1.8
	c-1.5,2.2-2.4,4.8-3.4,7.2c-3.6-5.1-6.6-10.3-8.9-16.1C57.9,116.5,58.3,115.3,58.9,114.2z"/>
<path class="st17" d="M116.6,115.4c2.2-0.9,4.3-0.6,6.5,0.1C121.1,116.5,118.4,117.1,116.6,115.4z"/>
<path class="st8" d="M57.6,117.7c2.3,5.8,5.4,11,8.9,16.1c1-2.4,1.9-5.1,3.4-7.2c1.5-1.8,4.6-2.1,6.8-1.8c5.7,0.7,11.1,2.9,16.8,3.7
	c9.1,1.9,20.4-0.8,29,2.7c5.3,2.8,4.9,7.6,5.9,12.8c3.5-1,6.9-2.1,10.1-3.8c3.1-1.6,5.5-4,8.5-5.6c-0.9,5.5-2.7,10.8-3.9,16.2
	c-11.6,8.4-25.5,11.6-39.6,12.9c-5.6,0.7-11.1,0.6-16.6-1c-5.2-1.8-9.8-5.4-13.3-9.6c-5.2-6.3-9.9-13.1-13.7-20.3
	C57.3,128,57.1,122.9,57.6,117.7z"/>
<path class="st18" d="M77.2,127.1c-0.2,0.5-0.4,1.1-0.6,1.6l-3.1-0.2c2.8,4.6,9.3,6.3,14.2,7.3c7.3,1.7,14.4,1.4,21.8,1.2
	c3.6-0.5,7.8-0.6,11-2.6c-3.1-1.1-5.9-1.1-9.1-0.7c4.3-0.3,7.9-2.6,11.4,1c2.1,2.2,0.9,3.8-0.6,5.9c0.1-1.4,0.2-2.8,0.3-4.2
	c-9.3,1.8-18.4,3.6-27.8,2.1c-7.6-1-15.8-2.1-21.7-7.5c-0.5,0.5-0.9,1.1-1.4,1.6c0-1.4,0.2-2.8,0.4-4.2
	C72.9,127.1,75.6,127.5,77.2,127.1z"/>
<path class="st5" d="M73.5,128.5l3.1,0.2c5.3,2,11.2,4.6,16.9,5.4c5.9,0.7,12,0.4,17.9-0.3c3.2-0.4,6-0.5,9.1,0.7
	c-3.2,1.9-7.4,2.1-11,2.6c-7.4,0.2-14.5,0.5-21.8-1.2C82.8,134.8,76.2,133.1,73.5,128.5z"/>
<path class="st5" d="M73,131.1c5.9,5.4,14,6.5,21.7,7.5c9.4,1.4,18.6-0.3,27.8-2.1c-0.1,1.4-0.2,2.8-0.3,4.2
	c-4.3,4.7-10.2,7.9-16.7,7.9c-3.8-0.1-7.6-2.3-11.2-3.6c0.9-0.4,1.8-0.9,2.6-1.4c-2.8,0-5.7,0.1-8.5,0.1c-0.9-0.6-1.7-1.2-2.5-1.9
	c0.1,1.3,1.9,1.5,1.3,2.4c-2.1,0.9-3.3,2.3-5.6,1c-4.6-2.1-10.2-7-9.9-12.6C72.1,132.1,72.5,131.6,73,131.1z"/>
<path class="st19" d="M167.6,143.7c-0.9,4.9-2.9,9.4-3.4,14.4c-0.8,4.9-0.5,9.8,0,14.7l-1.6,0.2c-1.3-9.1-0.5-18.4,2.7-27
	C165.6,144.9,166.4,144.2,167.6,143.7z"/>
<path class="st20" d="M141.3,156.3c-1.3,8.2-2.1,16.3-0.4,24.6c-3.3-2.2-6.9-4-10.4-6c-2.8-1.5-5.6-1.8-8.7-2.8
	c0.6-3,1.4-5.9,2.5-8.7c4.9-1.1,9.6-3.1,14-5.4C139.4,157.4,140.4,156.9,141.3,156.3z"/>
<path class="st21" d="M56.3,159.4c0.5,0.7,0.6,1.6,0.1,2.6C55.1,162,54.7,159.1,56.3,159.4z"/>
<path class="st22" d="M45.4,165c9.1,0.8,18.1-0.7,27.2-0.2c-0.1,3-0.4,6.2,0,9.2c0.9,5,4.4,8.8,8.8,11.1c8.2,4.1,17.5,4.7,26.5,3.6
	c7.8-1.3,14-5.7,19.4-11.3c4.6,2.3,9,4.8,13.3,7.5c2.7,1.6,4,4.2,7.1,5.1c-1.9,0.8-3.8,1.6-5.7,2.3c2.6,3.7,7.4,0,11.4,1.8
	c7,2.5,9.1,8.6,12.6,14.5c3.6,5.9,5.4,12.4,8,18.8c3.8,9.9,7.4,19.9,11.3,29.8H183c-8.7-5.8-18.9-6.8-29-5.4
	c-3.5-5.9-7.2-12-9.9-18.3c-2.5-6.2-4.1-12.6-6.4-18.9c-1.1-0.3-2.2-0.6-3.4-0.6c2.4,8,4.9,16.1,8,23.9c-4.2,6.5-9.4,12.1-14.2,18.1
	c-2.8-0.3-4.3-0.5-6.7,1.3H57.6c-3.1-5.7-5.4-12-9.2-17.2c0.8,6,4.1,11.7,6.4,17.2h-14c2.1-13.9,0-29.1-1-43
	c-0.1-10.6,2.8-20.2,6.4-30.1c-1.6-1.6-2.4-2.2-3.7,0.1c-3,6.9-4.8,14.5-5.8,22c-1.1,8.6,0.5,16.6,1,25c0.5,4.1-2.7,7.5-5.8,9.6
	c-1.2,5.6-1.8,11.1-4.1,16.4H3.5c1.1-4.8,1.8-9.5,3.9-14.1c1.7-3.7,3.9-7,5.1-10.9c5-14.7,10.2-29.2,15.3-43.9
	c1.9-5.3,4.9-10.3,7.6-15.2C37.4,169.3,41.2,165.8,45.4,165z"/>
<path class="st5" d="M74.8,165.5c3.8-0.5,8.1-0.8,11.7,0.6c3.2,1,6.6,1.5,10,1.6c8.1-0.2,15.9-1.1,23.8-2.9
	c-0.7,2.9-1.5,5.7-2.2,8.6c2.2,1.3,4.4,2.6,6.6,3.9c-3.8,3.9-8.2,7-13.4,8.6c-5.3,1.8-11.3,1.6-16.8,1.1c-5.7-0.8-12.7-2.7-16.8-7.1
	C74,175.8,73.9,170.7,74.8,165.5z"/>
<path class="st23" d="M71.6,177.2c1.5,2.5,2.9,5.7,5.1,7.6c1.8,1.6,3.9,2.9,5.8,4.4C76.8,188.3,70.7,183.7,71.6,177.2z"/>
<path d="M46.1,184c-3.6,9.9-6.4,19.5-6.4,30.1c1.1,14,3.2,29.1,1,43h-3.6c1-6,1.2-12,1-18c-1.2,1.7-2.6,3.3-3.4,5.1
	c-0.9,4.4-1.6,8.7-3.3,12.8h-3.8c2.3-5.3,2.8-10.8,4.1-16.4c3.2-2.1,6.3-5.5,5.8-9.6c-0.5-8.5-2.1-16.5-1-25c1-7.5,2.8-15.1,5.8-22
	C43.6,181.8,44.5,182.3,46.1,184z"/>
<path d="M134.3,213.9c1.2,0.1,2.3,0.3,3.4,0.6c2.3,6.2,3.9,12.7,6.4,18.9c2.7,6.3,6.4,12.4,9.9,18.3c10.2-1.4,20.3-0.4,29,5.4h-8.6
	c-8.1-3.9-19-2.2-27.4,0h-25.6c2.4-1.8,3.9-1.6,6.7-1.3c4.8-6,10-11.6,14.2-18.1C139.3,230,136.7,221.9,134.3,213.9z"/>
<path class="st20" d="M38.1,239.1c0.2,6,0,12-1,18h-5.7c1.7-4.2,2.4-8.5,3.3-12.8C35.5,242.4,37,240.8,38.1,239.1z"/>
<path class="st24" d="M48.4,239.9c3.7,5.3,6.1,11.5,9.2,17.2h-2.8C52.5,251.5,49.2,245.9,48.4,239.9z"/>
<path class="st20" d="M144.3,241.3c2.1,3.8,4.2,7.5,6.2,11.3c-6,1.2-12.1,2.4-18.1,3.6c3.5-4.1,7.3-8.3,10.4-12.7
	C143.3,242.8,143.8,242,144.3,241.3z"/>
<path class="st22" d="M174.4,257.1H147C155.4,254.9,166.4,253.2,174.4,257.1z"/>
</svg>
