<?xml version="1.0" encoding="utf-8"?>
<!-- Generator: Adobe Illustrator 19.2.0, SVG Export Plug-In . SVG Version: 6.00 Build 0)  -->
<svg version="1.1" id="Layer_1" xmlns="http://www.w3.org/2000/svg" xmlns:xlink="http://www.w3.org/1999/xlink" x="0px" y="0px"
	 viewBox="0 0 711 1000" style="enable-background:new 0 0 711 1000;" xml:space="preserve">
<style type="text/css">
	.st0{fill:#313134;}
</style>
<path class="st0" d="M341,165c41-11,83-16,112-18C401,68,368,18,352,0c0,0-3,61-125,210C249,198,294,177,341,165z"/>
<path class="st0" d="M316,868c-26-68-33-146-33-146l-40,23c0,0-19-65-26-131c-7-64,0-128,0-128l-53,21c0,0-4-77,9-151
	c8-49,23-95,32-120c-1,2-3,4-5,6C92,367,0,491,0,644c0,197,159,356,355,356c10,0,20,0,30-1C369,974,337,923,316,868z"/>
<path class="st0" d="M499,216c-12-18-23-35-33-50c-20,21-49,56-73,93c-35,53-55,111-55,111l78-24c0,0-41,71-61,145
	c-19,64-17,133-17,133l54-25c0,0-24,89-26,193c-2,91,16,173,25,206c179-18,318-169,320-354C712,484,595,359,499,216z"/>
</svg>
