<?xml version="1.0" encoding="utf-8"?>
<!-- Generator: Adobe Illustrator 19.2.0, SVG Export Plug-In . SVG Version: 6.00 Build 0)  -->
<svg version="1.1" id="Layer_1" xmlns="http://www.w3.org/2000/svg" xmlns:xlink="http://www.w3.org/1999/xlink" x="0px" y="0px"
	 viewBox="0 0 273.5 241.4" style="enable-background:new 0 0 273.5 241.4;" xml:space="preserve">
<style type="text/css">
	.st0{fill:url(#SVGID_1_);}
	.st1{fill:url(#SVGID_2_);}
	.st2{fill:#3C3C3B;}
	.st3{fill:url(#SVGID_3_);}
	.st4{fill:url(#SVGID_4_);}
</style>
<linearGradient id="SVGID_1_" gradientUnits="userSpaceOnUse" x1="956.633" y1="-1307.8289" x2="1050.6808" y2="-1307.8289" gradientTransform="matrix(0.986 0.1668 0.1668 -0.986 -686.484 -1302.3071)">
	<stop  offset="0" style="stop-color:#89C442"/>
	<stop  offset="1" style="stop-color:#74B844"/>
</linearGradient>
<path class="st0" d="M38.4,92.4c2.2,2.6,46.1,17.2,61.3,35c15.2,17.8,21.9,33.6,19.8,48.8c-2.2,15.2-11.5,15-15.5,20.5
	c-4.1,5.5-9.7,12.4-20.5,11.7c-14.1-0.9-28.7-8-39.2-32.5c-10.5-24.5-9.7-47.6-8.9-60.3C36.2,102.7,38.4,92.4,38.4,92.4L38.4,92.4z"
	/>
<linearGradient id="SVGID_2_" gradientUnits="userSpaceOnUse" x1="958.756" y1="-1311.645" x2="1039.963" y2="-1311.645" gradientTransform="matrix(0.986 0.1668 0.1668 -0.986 -695.4575 -1307.9933)">
	<stop  offset="0" style="stop-color:#74B844"/>
	<stop  offset="1" style="stop-color:#4A9634"/>
</linearGradient>
<path class="st1" d="M35.8,100.6l65.7,97.9l-3,3.4"/>
<path class="st2" d="M273.5,142c-3.7-2.7-8.7,2-12.1,4.5c-8.7,6.2-25,23.6-35.5,25.9c-10.1,2.2-28.9-0.9-37.9-7.2
	c-14.6,8.5-32.5,12.4-49.3,16.3c-9.3,2.1-18.9,2-26,8c-6.5,5.5-43.4,26.5-65.1,36.2c-3,0.5-1-2.9-1.1-4.6
	c-5.6,14.2-25.1,14.5-46.3,10.6c0,1.1,0,2.2,0,3.4c0,0.5,0,1-0.1,1.5c2.3,0.4,4.6,0.8,6.8,1.1c9.1,1.3,23.5,5,30.5,3.5
	c2.8-0.6,3.6-3.2,6.9-5.2c2.7-1.7,6.1-2.1,8.4-3.2c13.6-6.8,29.6-19.6,42.7-26.6c22.8-12.3,44.6-14.3,67.8-22.2
	c14.6-16,49.8-4.5,73-9.1c4.9-0.8-3.3-3.5,0.9-6.1c9-7,18.1-13.7,26.9-20.9c2.3,0.6,5.5-2.9,7.1,0.1
	C274,148.6,271.1,143.7,273.5,142z"/>
<linearGradient id="SVGID_3_" gradientUnits="userSpaceOnUse" x1="1466.8683" y1="1460.5448" x2="1624.6356" y2="1460.5448" gradientTransform="matrix(-0.9481 0.318 0.318 0.9481 1159.3055 -1765.5203)">
	<stop  offset="0" style="stop-color:#C1EA71"/>
	<stop  offset="1" style="stop-color:#ACDA55"/>
</linearGradient>
<path class="st3" d="M203.5,0c-3,4.9-72.6,40.8-93.5,74.5c-20.9,33.7-26.8,60.2-19.3,85.1c7.6,24.9,22,23.8,30.3,32
	c8.2,8.2,19.4,18.2,37.3,14.2c23.4-5.3,45.9-20.9,57.2-64.6c11.2-43.8,3.9-82.1-0.9-103.2C209.9,16.7,203.5,0,203.5,0L203.5,0z"/>
<linearGradient id="SVGID_4_" gradientUnits="userSpaceOnUse" x1="1470.4584" y1="1451.9684" x2="1607.9373" y2="1451.9684" gradientTransform="matrix(-0.9481 0.318 0.318 0.9481 1159.3127 -1765.3768)">
	<stop  offset="0" style="stop-color:#ACDA55"/>
	<stop  offset="1" style="stop-color:#89C442"/>
</linearGradient>
<path class="st4" d="M202.3,7.4L118,188.3l4.9,5"/>
</svg>
