<?xml version="1.0" encoding="utf-8"?>
<!-- Generator: Adobe Illustrator 19.2.0, SVG Export Plug-In . SVG Version: 6.00 Build 0)  -->
<svg version="1.1" id="Layer_1" xmlns="http://www.w3.org/2000/svg" xmlns:xlink="http://www.w3.org/1999/xlink" x="0px" y="0px"
	 viewBox="0 0 99.2 99.2" style="enable-background:new 0 0 99.2 99.2;" xml:space="preserve">
<style type="text/css">
	.st0{fill:#D161A6;}
	.st1{fill:#F0A5E1;}
	.st2{fill:#B26B9A;}
	.st3{fill:#945C81;}
	.st4{fill:#94587D;}
	.st5{fill:#E9BFEB;}
	.st6{fill:#C86FAD;}
	.st7{fill:#C665B2;}
	.st8{fill:#7B3E6B;}
	.st9{fill:#E8B8EA;}
	.st10{fill:#C570AB;}
	.st11{fill:#BD61AB;}
	.st12{fill:#FFD660;}
	.st13{fill:#7F3D70;}
	.st14{fill:#CB40AB;}
	.st15{fill:#D98E0A;}
	.st16{fill:#CE6CAD;}
	.st17{fill:#7B4464;}
	.st18{fill:#E19A0B;}
	.st19{fill:#FBC335;}
	.st20{fill:#B76619;}
	.st21{fill:#FECA3F;}
	.st22{fill:#B5629A;}
	.st23{fill:#FFD662;}
	.st24{fill:#FAC745;}
	.st25{fill:#F1B323;}
	.st26{fill:#CB71B8;}
	.st27{fill:#9F4E8F;}
	.st28{fill:#754025;}
	.st29{fill:#FFD459;}
	.st30{fill:#F8BF31;}
	.st31{fill:#CA7C12;}
</style>
<path class="st0" d="M81.4,0.1C82.9,0,84.4,0,85.8,0c-0.5,5.1-0.9,11-3.2,15.7c-1.2-1-2.3-2-2.9-3.5C79.5,8.3,80.7,4,81.4,0.1z"/>
<path class="st1" d="M85.8,0c2.3,0,4.6,0,6.9,0c-1.2,5-2.1,10-3.5,15c-0.8,2.8-0.7,5.3-0.9,8.2c-2.1,7-3.6,14.2-5.6,21.2
	C81,51.2,77,56.3,74.2,62.5L72.9,63c-2.1-0.3-3.7-0.7-5.2,1.1c0.8,0.7,1.6,1.4,2.4,2.1c-3.2,3.5-7.1,6.1-10.4,9.5
	c-1.3,1.3-2.6,2.3-4.3,3.2c-1.1-1.4-1.5-2.8-1.9-4.5c3.8-1.9,6-4.9,9.1-7.7c3.5-3.1,7-6.1,10.9-8.7l0.4-1.3l0.1-0.2
	c1.9-3.4,4.5-7,5.1-10.9c2.3-9.2,4.3-18.4,6.4-27.6c-0.9-0.8-1.9-1.6-2.9-2.3C84.9,11,85.3,5.1,85.8,0z"/>
<path class="st2" d="M92.7,0c1.5,0,2.9,0,4.4,0c-2.1,6-2.3,11.6-5.4,17c0.6,0.6,1.1,1.2,1.7,1.9l-0.6-0.1L91,18
	c-1.5,1-1.9,3.6-2.7,5.1c0.2-2.8,0.1-5.4,0.9-8.2C90.7,10.1,91.5,5,92.7,0z"/>
<path class="st3" d="M97.1,0l2,0c0.1,6.1,0,12.2,0,18.3c-1.9,0.4-3.8,0.6-5.8,0.6c-0.6-0.6-1.1-1.3-1.7-1.9C94.8,11.7,95,6,97.1,0z"
	/>
<path class="st4" d="M91,18l1.9,0.7c-2.9,9.2-4.7,18.8-8.3,27.7c-0.9-0.4-1.5-1.1-1.9-2.2c2.1-7,3.6-14.2,5.6-21.2
	C89.1,21.6,89.5,19,91,18z"/>
<path class="st5" d="M51.3,32.3c-7.8,7.8-16,15.1-24.6,22c-0.9-1.4-1.5-2.6-1.6-4.3c3.6-3.4,7.1-6.8,11-9.9c3-3,6.9-5,9.3-8.5
	C47.4,30.5,49.6,31,51.3,32.3z"/>
<path class="st6" d="M45.4,31.6c-2.3,3.4-6.3,5.5-9.3,8.5c-3.8,3.1-7.3,6.5-11,9.9c-0.1-2.6,2.7-4.9,4.2-6.9
	C34.6,39,39.1,34.4,45.4,31.6z"/>
<path class="st7" d="M51.3,32.3c0.6,2.4,0.8,4.2-0.1,6.5l-0.1-1.6c-0.9,0.1-1.7,0.3-2.6,0.5c-3.1,4.2-6.5,8-10.6,11.3
	c-3.3,2.6-5.6,5.6-9.9,6.4l-0.7-0.2l-0.6-0.8C35.3,47.4,43.5,40.1,51.3,32.3z"/>
<path class="st8" d="M48.6,37.7c0.8-0.2,1.7-0.4,2.6-0.5l0.1,1.6c-1.1,2.5-2.5,4.7-4.3,6.7c-2.3,2.6-4.7,5-7.3,7.3
	c-3.6,2.9-7.1,4.3-11.6,2.6c4.3-0.8,6.6-3.8,9.9-6.4C42.1,45.7,45.5,41.9,48.6,37.7z"/>
<path class="st9" d="M72.3,38.4C67.6,41,64.2,45.7,60,49.1c-4.5,3.6-8.2,8-12.9,11.3c-1.1-1.4-1.8-2.6-1.9-4.5
	c5.8-4.8,10.9-10.1,17-14.6c1.4-1.3,3.2-1.8,3.5-3.9C68.2,36.4,70.3,36.4,72.3,38.4z"/>
<path class="st10" d="M65.8,37.5c-0.3,2-2.1,2.6-3.5,3.9c-6.1,4.4-11.2,9.8-17,14.6l0-1.6c0.8-1,1.6-2,2.4-3.1
	C52.6,46,59.3,40.7,65.8,37.5z"/>
<path class="st11" d="M72.3,38.4c0,1.5,0,2.9-0.2,4.4c-3.3,0.9-4.2,3.8-6.5,6.1c-4.4,4.5-9,9.4-14.3,12.8l-2.1,0.1L47.5,61l-0.4-0.5
	c4.7-3.3,8.4-7.7,12.9-11.3C64.2,45.7,67.6,41,72.3,38.4z"/>
<path class="st12" d="M29.4,43.1c-1.5,1.9-4.3,4.3-4.2,6.9c0.1,1.7,0.7,2.9,1.6,4.3l0.6,0.8c-0.4,2.9-0.9,4.2-3.1,6.1
	C16.9,68.3,7.9,71.9,0,78.2c0-2.2,0-4.4,0-6.6c3.6-2.7,6.3-6,9.1-9.5c0.6-0.7,0.8-1.5,0.5-2.6C16.1,53.9,22.6,48.4,29.4,43.1z"/>
<path class="st13" d="M72.1,42.7c-1,3.3-2.7,6.2-5,8.8c-3.7,4-7.5,7.7-12.2,10.5c-2.3,1-3.6,0.6-5.8-0.4l2.1-0.1
	c5.3-3.4,9.9-8.3,14.3-12.8C67.9,46.5,68.8,43.6,72.1,42.7z"/>
<path class="st14" d="M82.7,44.4c0.4,1,1,1.8,1.9,2.2l0,0c-2.1,5.3-4.4,12.7-9.3,16l-1.1-0.1C77,56.3,81,51.2,82.7,44.4z"/>
<path class="st15" d="M47,45.5c0.3,1.9,0.5,3.8,0.7,5.8c-0.8,1-1.6,2.1-2.4,3.1c-2.7,1.6-5,3.6-7.2,5.8c-7,6-14,12-20.7,18.3
	c-0.8,0.6-1.7,1.3-2.6,1.9c-1.7,0.4-3.1,0.8-4.3,2.1C7,85.5,3.6,88.4,0,91.4c0-1.1,0-2.1,0-3.2c8.9-7.4,18.3-13.3,26.2-22
	c3.9-4.9,9.6-7,13.4-12l0.1-1.4C42.2,50.4,44.7,48.1,47,45.5z"/>
<path class="st16" d="M79.1,45.7c-0.6,3.9-3.2,7.5-5.1,10.9C74.1,51.7,75.8,48.9,79.1,45.7z"/>
<path class="st17" d="M84.6,46.5c0.7,2.3,0.7,4.7,0,7c-0.7,2.7-3.3,4.4-4.5,6.8c-0.3,4.3-2.6,7.6-5.1,11c-0.4,0.4-0.8,0.9-1.2,1.3
	c-2.3-0.4-4.5,1.7-4.2,3.9l0,0.5c-3.7,2.4-6.8,5-11.5,3.7l1.9-0.4c3.5-0.6,6.3-4.1,8.9-6.4c2.9-3.1,6.6-6.4,8.2-10.4
	c-0.6-0.3-1.3-0.7-1.9-1C80.2,59.2,82.5,51.8,84.6,46.5z"/>
<path class="st18" d="M67.1,51.6l0.3,1.4c-0.1,2.1-0.4,4-1.8,5.7c-3.8,4.6-8.9,7.8-12.6,12.5C44.2,82.2,33.2,89.9,23,99.2
	c-1.7,0-3.5,0-5.2,0c4.3-3.7,9-6.6,13.4-10.1c7.2-6.6,13.3-14,19.4-21.6c3.2-1.6,6.8-0.6,7.8-5c-1.1-0.1-2.3-0.2-3.4-0.3
	C59.6,59.3,63.4,55.5,67.1,51.6z"/>
<path class="st19" d="M39.7,52.8l-0.1,1.4c-3.8,5-9.5,7.1-13.4,12C18.3,74.9,9,80.8,0,88.2c0-3.3,0-6.6,0-10
	c7.9-6.3,16.9-9.9,24.2-17c2.2-1.9,2.7-3.2,3.1-6.1l0.7,0.2C32.6,57.1,36.1,55.7,39.7,52.8z"/>
<path class="st20" d="M67.5,52.9c0.8,2.9,0.4,5.4-1,8c-4,4.3-10.6,8.1-12.9,13.5C47.9,79.1,43,84.7,37.4,89.4
	c-3.7,3.3-7.3,6.6-11.2,9.8c-1.1,0-2.1,0-3.2,0c10.3-9.3,21.2-17,30.1-28.1c3.7-4.8,8.8-8,12.6-12.5C67.1,57,67.3,55,67.5,52.9z"/>
<path class="st21" d="M45.3,54.3l0,1.6c0.1,1.9,0.7,3,1.9,4.5l0.4,0.5c0.6,1.8,1.5,3.2,0.6,5.1c-1.5,3.3-4.2,6-6.2,9
	c-2.9,4.4-6.7,7.9-11.2,10.8c-4.6,3.1-9.9,4.6-14.6,7.4c-3,1.7-5.8,3.7-8.4,6c-2.6,0-5.2,0-7.8,0c0-1.9,0-3.8,0-5.7
	c4.9-4.4,9.9-8.7,14.8-13.1c0.9-0.6,1.7-1.2,2.6-1.9c0,0.6-0.1,1.2-0.2,1.8c-2.7,3.5-6.2,5.7-8,9.9c1.9-0.3,3.7-0.6,5.3-1.6
	c5.2-3,10.2-6.5,15.3-9.8c5.8-3.7,11.5-7.9,16-13.1c2.2-2.5-0.5-6.2-2.5-8c-1.8,0.7-3.5,1.5-5.3,2.3C40.3,57.9,42.6,56,45.3,54.3z"
	/>
<path class="st22" d="M74,56.8l-0.4,1.3c-3.8,2.6-7.3,5.7-10.9,8.7c-3.2,2.8-5.3,5.8-9.1,7.7c2.3-5.5,8.8-9.3,12.9-13.5
	C68.9,59.4,71.4,58,74,56.8z"/>
<path class="st23" d="M43.3,57.8c2,1.7,4.7,5.4,2.5,8c-4.5,5.1-10.2,9.4-16,13.1c-5.1,3.3-10.1,6.7-15.3,9.8c-1.7,1-3.4,1.4-5.3,1.6
	c1.7-4.2,5.2-6.5,8-9.9c0.1-0.6,0.2-1.2,0.2-1.8C24,72.1,31,66.1,38.1,60.1C39.8,59.3,41.5,58.5,43.3,57.8z"/>
<path class="st24" d="M9.6,59.5c0.3,1.1,0.1,2-0.5,2.6c-2.8,3.5-5.5,6.8-9.1,9.5c0-1.4,0-2.8,0.1-4.2C3.4,65,6.5,62.1,9.6,59.5z"/>
<path class="st25" d="M47.5,61l1.5,0.7c2.2,1,3.5,1.4,5.8,0.4c1.1,0.1,2.3,0.2,3.4,0.3c-0.9,4.4-4.6,3.4-7.8,5
	c-6,7.6-12.1,15.1-19.4,21.6c-4.4,3.5-9.1,6.5-13.4,10.1c-3.3,0-6.7,0-10,0c2.6-2.3,5.4-4.3,8.4-6c4.8-2.8,10-4.3,14.6-7.4
	c4.5-2.8,8.3-6.4,11.2-10.8c1.9-3,4.7-5.7,6.2-9C49.1,64.1,48.1,62.7,47.5,61z"/>
<path class="st26" d="M72.9,63c-0.3,2,0,3.9-1.4,5.4c-3.4,4.2-7.6,7.9-11.4,11.8l-1.9,0.4l-1.9-0.8c-0.2-0.3-0.5-0.6-0.7-0.9
	c1.7-0.9,3-1.9,4.3-3.2c3.3-3.4,7.2-6,10.4-9.5c-0.8-0.7-1.6-1.4-2.4-2.1C69.2,62.4,70.9,62.8,72.9,63z"/>
<path class="st27" d="M74.2,62.5l1.1,0.1c0.6,0.3,1.3,0.7,1.9,1c-1.6,3.9-5.3,7.3-8.2,10.4c-2.6,2.2-5.4,5.8-8.9,6.4
	c3.8-3.9,8-7.6,11.4-11.8c1.4-1.6,1.2-3.5,1.4-5.4L74.2,62.5z"/>
<path class="st18" d="M75,71.2c0.6,2.4,1.1,4.6,0.4,7c-2.7,8.8-8.6,14.2-14.6,20.8c-0.9,0.1-1.9,0.1-2.8,0.1
	c3.7-4.6,8-8.9,11.2-13.8c1.7-2.6,2.2-5.7,0.4-8.4l0-0.5c1.8-0.9,3-2.3,4.2-3.9C74.2,72.1,74.6,71.7,75,71.2z"/>
<path class="st28" d="M73.8,72.6c-1.2,1.6-2.4,3.1-4.2,3.9C69.3,74.2,71.5,72.2,73.8,72.6z"/>
<path class="st29" d="M53.6,74.5c0.4,1.7,0.8,3.1,1.9,4.5c0.2,0.3,0.5,0.6,0.7,0.9c0.9,1.3,2.2,2.7,2.8,4.2c-0.6,6.4-4.2,11-8.9,15
	c-7.9,0.1-15.9,0-23.8,0c3.8-3.2,7.5-6.5,11.2-9.8C43,84.7,47.9,79.1,53.6,74.5z"/>
<path class="st30" d="M69.6,77c1.8,2.7,1.3,5.8-0.4,8.4C66,90.3,61.7,94.6,58,99.2c-2.6,0-5.3-0.1-7.9,0c4.8-4,8.3-8.6,8.9-15
	c-0.5-1.6-1.8-2.9-2.8-4.2l1.9,0.8C62.8,81.9,66,79.3,69.6,77z"/>
<path class="st31" d="M14.8,80.3C9.9,84.7,4.9,89.1,0,93.4l0-2.1c3.5-2.9,7-5.9,10.4-9C11.7,81.1,13,80.7,14.8,80.3z"/>
</svg>
