<svg id="Layer_1" data-name="Layer 1" xmlns="http://www.w3.org/2000/svg" viewBox="0 0 49.77 67.76"><defs><style>.cls-1{fill:#abff4f;}.cls-2{fill:#fd3e81;}.cls-3{fill:#ff006a;}.cls-4{fill:#fff;opacity:0.35;isolation:isolate;}.cls-5{fill:#e43f6f;}</style></defs><title>aliveberry</title><path class="cls-1" d="M24.55,22.2S22.3,6.92,35.59,0c0,0-1.17,6.51-1.39,10.07S24.55,22.2,24.55,22.2Z"/><path class="cls-1" d="M26,22S27.79,6.67,14.31.17c0,0,1.36,6.47,1.7,10S26,22,26,22Z"/><path class="cls-2" d="M40.68,21.17c0,4.67-3.68,9.51-8.23,9.51s-8.23-4.84-8.23-9.51A8.23,8.23,0,1,1,40.68,21.17Z"/><path class="cls-3" d="M36.64,42.36c0,5.28-4.17,10.74-9.29,10.74s-9.29-5.49-9.29-10.74a9.43,9.43,0,0,1,9.29-9.54A9.42,9.42,0,0,1,36.64,42.36Z"/><path class="cls-4" d="M26,39.62a3.16,3.16,0,0,1-3.65,2.24,3.18,3.18,0,0,1-1.7-3.93,2.8,2.8,0,0,1,5.38,1.58Z"/><path class="cls-2" d="M24,49.21c0,4.67-3.68,9.51-8.23,9.51s-8.23-4.85-8.23-9.51a8.34,8.34,0,0,1,8.23-8.45A8.34,8.34,0,0,1,24,49.21Z"/><path class="cls-4" d="M14.6,46.78a2.81,2.81,0,0,1-3.23,2,2.81,2.81,0,0,1-1.5-3.47,2.48,2.48,0,1,1,4.78,1.32v0Z"/><path class="cls-5" d="M18.25,40.19c0,5.11-4,10.42-9,10.42s-9-5.31-9-10.42a9.14,9.14,0,0,1,9-9.25A9.13,9.13,0,0,1,18.25,40.19Z"/><path class="cls-3" d="M17.44,27.79c0,4.95-3.89,10.08-8.72,10.08S0,32.73,0,27.79a8.85,8.85,0,0,1,8.72-9A8.84,8.84,0,0,1,17.44,27.79Z"/><path class="cls-3" d="M29.83,21.26c0,5.2-4.1,10.6-9.17,10.6s-9.17-5.4-9.17-10.6a9.29,9.29,0,0,1,9.17-9.41A9.29,9.29,0,0,1,29.83,21.26Z"/><path class="cls-5" d="M49.77,27.29c0,4.95-3.9,10.08-8.72,10.08s-8.72-5.13-8.72-10.08A8.72,8.72,0,1,1,49.77,27.29Z"/><path class="cls-3" d="M45.52,31.85c0,5.51-4.35,11.23-9.73,11.23s-9.73-5.72-9.73-11.23A9.73,9.73,0,1,1,45.52,31.85Z"/><path class="cls-2" d="M49.71,38.9c0,4.67-3.68,9.51-8.23,9.51s-8.23-4.85-8.23-9.51A8.23,8.23,0,1,1,49.71,38.9Z"/><path class="cls-5" d="M43.86,50.16c0,4.49-3.54,9.14-7.91,9.14S28,54.64,28,50.16A7.91,7.91,0,1,1,43.86,50.16Z"/><path class="cls-2" d="M28.1,34.28c0,4.95-3.9,10.08-8.72,10.08s-8.72-5.14-8.72-10.08a8.83,8.83,0,0,1,8.72-9A8.83,8.83,0,0,1,28.1,34.28Z"/><path class="cls-3" d="M34.55,57c0,5.28-4.17,10.74-9.29,10.74S16,62.29,16,57a9.42,9.42,0,0,1,9.29-9.54A9.42,9.42,0,0,1,34.55,57Z"/></svg>