<svg aria-hidden="true" style="position: absolute; width: 0; height: 0; overflow: hidden;" version="1.1" xmlns="http://www.w3.org/2000/svg" xmlns:xlink="http://www.w3.org/1999/xlink">
<defs>
<symbol id="arrow-left" viewBox="0 0 20 20">
<path d="M2.5 10l6.5-6.5v3.5h8v6h-8v3.5l-6.5-6.5z"></path>
</symbol>
<symbol id="arrow-right" viewBox="0 0 20 20">
<path d="M11 16.5v-3.5h-8v-6h8v-3.5l6.5 6.5-6.5 6.5z"></path>
</symbol>
<symbol id="chevron-up" viewBox="0 0 20 20">
<path d="M15.484 12.452c-0.436 0.446-1.043 0.481-1.576 0l-3.908-3.747-3.908 3.747c-0.533 0.481-1.141 0.446-1.574 0-0.436-0.445-0.408-1.197 0-1.615 0.406-0.418 4.695-4.502 4.695-4.502 0.217-0.223 0.502-0.335 0.787-0.335s0.57 0.112 0.789 0.335c0 0 4.287 4.084 4.695 4.502s0.436 1.17 0 1.615z"></path>
</symbol>
<symbol id="star-outlined" viewBox="0 0 20 20">
<path d="M18.8 8.022h-6.413l-2.387-6.722-2.389 6.722h-6.412l5.232 3.947-1.871 6.929 5.44-4.154 5.438 4.154-1.869-6.929 5.231-3.947zM10 12.783l-3.014 2.5 1.243-3.562-2.851-2.3 3.522 0.101 1.1-4.040 1.099 4.040 3.521-0.101-2.851 2.3 1.243 3.562-3.012-2.5z"></path>
</symbol>
<symbol id="star" viewBox="0 0 20 20">
<path d="M10 1.3l2.388 6.722h6.412l-5.232 3.948 1.871 6.928-5.439-4.154-5.438 4.154 1.87-6.928-5.233-3.948h6.412l2.389-6.722z"></path>
</symbol>
<symbol id="github" viewBox="0 0 20 20">
<path d="M13.18 11.309c-0.718 0-1.3 0.807-1.3 1.799 0 0.994 0.582 1.801 1.3 1.801s1.3-0.807 1.3-1.801c-0.001-0.992-0.582-1.799-1.3-1.799zM17.706 6.626c0.149-0.365 0.155-2.439-0.635-4.426 0 0-1.811 0.199-4.551 2.080-0.575-0.16-1.548-0.238-2.519-0.238-0.973 0-1.945 0.078-2.52 0.238-2.741-1.881-4.552-2.080-4.552-2.080-0.789 1.987-0.781 4.061-0.634 4.426-0.928 1.008-1.495 2.219-1.495 3.871 0 7.186 5.963 7.301 7.467 7.301 0.342 0 1.018 0.002 1.734 0.002s1.392-0.002 1.732-0.002c1.506 0 7.467-0.115 7.467-7.301 0-1.652-0.566-2.863-1.494-3.871zM10.028 16.915h-0.056c-3.771 0-6.709-0.449-6.709-4.115 0-0.879 0.31-1.693 1.047-2.369 1.227-1.127 3.305-0.531 5.662-0.531 0.010 0 0.020 0 0.029 0s0.018 0 0.027 0c2.357 0 4.436-0.596 5.664 0.531 0.735 0.676 1.045 1.49 1.045 2.369 0 3.666-2.937 4.115-6.709 4.115zM6.821 11.309c-0.718 0-1.3 0.807-1.3 1.799 0 0.994 0.582 1.801 1.3 1.801s1.301-0.807 1.301-1.801c0-0.992-0.582-1.799-1.301-1.799z"></path>
</symbol>
<symbol id="mail" viewBox="0 0 20 20">
<path d="M1.574 5.286c0.488 0.262 7.248 3.894 7.5 4.029s0.578 0.199 0.906 0.199c0.328 0 0.654-0.064 0.906-0.199s7.012-3.767 7.5-4.029c0.489-0.263 0.951-1.286 0.054-1.286h-16.919c-0.897 0-0.435 1.023 0.053 1.286zM18.613 7.489c-0.555 0.289-7.387 3.849-7.727 4.027s-0.578 0.199-0.906 0.199-0.566-0.021-0.906-0.199-7.133-3.739-7.688-4.028c-0.39-0.204-0.386 0.035-0.386 0.219s0 7.293 0 7.293c0 0.42 0.566 1 1 1h16c0.434 0 1-0.58 1-1 0 0 0-7.108 0-7.292s0.004-0.423-0.387-0.219z"></path>
</symbol>
<symbol id="linkedin" viewBox="0 0 20 20">
<path d="M5 3c0 1.062-0.71 1.976-2.001 1.976-1.215 0-1.999-0.862-1.999-1.924 0-1.090 0.76-2.052 2-2.052s1.976 0.91 2 2zM1 19v-13h4v13h-4z"></path>
<path d="M7 10.444c0-1.545-0.051-2.836-0.102-3.951h3.594l0.178 1.723h0.076c0.506-0.811 1.746-2 3.822-2 2.532 0 4.432 1.695 4.432 5.342v7.442h-4v-6.861c0-1.594-0.607-2.81-2-2.81-1.062 0-1.594 0.86-1.873 1.569-0.102 0.254-0.127 0.608-0.127 0.963v7.139h-4v-8.556z"></path>
</symbol>
<symbol id="leftside-arrow" viewBox="0 0 32 32">
<path d="M16.105 28.598c-0.173-0.231-0.462-0.231-0.635 0-0.289 0.346-0.173 0.751-0.173 1.213 0 0.577-0.058 1.155-0.173 1.732-0.115 0.462 0.577 0.635 0.751 0.231 0.173-0.462 0.289-0.982 0.347-1.501 0.058-0.577 0.231-1.212-0.116-1.674z"></path>
<path d="M16.163 26.173c-0.115-0.346-0.173-0.635-0.231-0.981 0-0.173 0.058-0.346 0-0.52s-0.058-0.289-0.173-0.462c-0.115-0.231-0.52-0.231-0.635 0-0.173 0.404-0.173 0.693-0.058 1.097s0.173 0.751 0.404 1.155c0.231 0.346 0.808 0.115 0.693-0.289z"></path>
<path d="M15.759 19.071c-0.115-0.173-0.404-0.173-0.577 0-0.231 0.289-0.173 0.52-0.173 0.866s0.058 0.635 0.058 0.982c0.058 0.462 0.693 0.462 0.693 0 0-0.289 0.058-0.577 0.058-0.866 0.115-0.346 0.231-0.635-0.058-0.981z"></path>
<path d="M15.816 16.473c-0.231-0.635-0.115-1.27-0.289-1.905-0.115-0.346-0.635-0.346-0.751 0-0.231 0.693 0 1.501 0.404 2.136 0.173 0.346 0.751 0.115 0.635-0.231z"></path>
<path d="M15.412 9.083c-0.115-0.115-0.346-0.115-0.462 0-0.346 0.346-0.231 0.808-0.231 1.27 0 0.404 0 0.866 0.058 1.27 0.058 0.346 0.635 0.346 0.693 0 0.058-0.404 0.058-0.751 0.058-1.155 0.115-0.462 0.231-0.982-0.115-1.386z"></path>
<path d="M14.835 4.117c-0.346 0-0.577 0.346-0.462 0.635 0.115 0.462 0.115 1.039 0.173 1.501 0.058 0.289 0.577 0.289 0.635 0 0.058-0.52 0-1.039 0.173-1.501 0.058-0.289-0.173-0.635-0.52-0.635z"></path>
<path d="M20.32 3.886c-1.328-1.443-2.771-2.887-4.561-3.811-0.231-0.115-0.52-0.115-0.693 0.115-1.212 1.443-2.136 3.060-3.406 4.446-0.462 0.462 0.289 1.155 0.693 0.693 1.155-1.27 2.021-2.771 3.176-4.042 1.501 0.924 2.541 2.252 3.868 3.464 0.635 0.577 1.443-0.289 0.924-0.866z"></path>
</symbol>
<symbol id="emoji-star" viewBox="0 0 32 32">
<path fill="#ffd93b" style="fill: var(--color1, #ffd93b)" d="M26.715 19.396c-0.676 0.653-0.986 1.606-0.82 2.536l1.041 6.081c0.399 2.326-2.049 4.109-4.153 3.013l-5.46-2.88c-0.831-0.432-1.828-0.432-2.658 0l-5.46 2.88c-2.093 1.096-4.552-0.687-4.142-3.013l1.041-6.081c0.155-0.93-0.155-1.883-0.82-2.536l-4.419-4.308c-1.695-1.65-0.764-4.53 1.584-4.873l6.103-0.886c0.93-0.133 1.739-0.72 2.149-1.562l2.736-5.538c1.041-2.115 4.076-2.115 5.128 0l2.725 5.538c0.421 0.842 1.218 1.429 2.149 1.562l6.114 0.886c2.337 0.343 3.278 3.223 1.584 4.873l-4.422 4.308z"></path>
<path fill="#fff" style="fill: var(--color2, #fff)" d="M14.96 15.13c0 2.021-1.344 3.663-2.992 3.663-1.66 0-3.003-1.643-3.003-3.663s1.344-3.663 3.003-3.663c1.648-0.001 2.992 1.642 2.992 3.663z"></path>
<path fill="#3e4347" style="fill: var(--color3, #3e4347)" d="M13.849 16.16c0 0.837-0.681 1.516-1.52 1.516s-1.52-0.679-1.52-1.516c0-0.837 0.681-1.516 1.52-1.516s1.52 0.679 1.52 1.516z"></path>
<path fill="#fff" style="fill: var(--color2, #fff)" d="M12.596 15.274c0.121-0.121 0.359-0.080 0.531 0.093s0.214 0.41 0.093 0.531c-0.121 0.121-0.359 0.080-0.531-0.093s-0.214-0.41-0.093-0.531z"></path>
<path fill="#fff" style="fill: var(--color2, #fff)" d="M17.038 15.13c0 2.021 1.344 3.663 2.992 3.663 1.66 0 3.003-1.643 3.003-3.663s-1.344-3.663-3.003-3.663c-1.648-0.001-2.992 1.642-2.992 3.663z"></path>
<path fill="#3e4347" style="fill: var(--color3, #3e4347)" d="M21.188 16.16c0 0.837-0.68 1.516-1.52 1.516s-1.52-0.679-1.52-1.516c0-0.837 0.68-1.516 1.52-1.516s1.52 0.679 1.52 1.516z"></path>
<path fill="#fff" style="fill: var(--color2, #fff)" d="M19.936 15.274c0.121-0.121 0.359-0.080 0.531 0.093s0.214 0.41 0.093 0.531c-0.121 0.121-0.359 0.080-0.531-0.093s-0.214-0.41-0.093-0.531z"></path>
<path fill="#3e4347" style="fill: var(--color3, #3e4347)" d="M21.412 21.434c-1.749 2.074-2.792 3.232-5.413 3.232-2.63 0-3.666-1.158-5.415-3.232-0.38-0.445 0.037-1.123 0.612-0.993 3.201 0.733 6.411 0.742 9.602 0.009 0.576-0.13 0.993 0.538 0.613 0.984z"></path>
<path fill="#fff" style="fill: var(--color2, #fff)" d="M20.759 20.458c-3.168 0.721-6.355 0.712-9.531-0.011 1.169 1.41 1.596 1.739 4.776 1.739 3.162 0 3.595-0.328 4.756-1.728z"></path>
</symbol>
<symbol id="emoji-happy" viewBox="0 0 32 32">
<path fill="#ffd93b" style="fill: var(--color1, #ffd93b)" d="M32 16c0 8.837-7.163 16-16 16s-16-7.163-16-16c0-8.837 7.163-16 16-16s16 7.163 16 16z"></path>
<path fill="#f4c534" style="fill: var(--color4, #f4c534)" d="M32 16c0 8.84-7.165 16-16 16-5.030 0-9.52-2.32-12.455-5.955 2.745 2.22 6.24 3.545 10.045 3.545 8.835 0 16-7.16 16-16 0-3.805-1.325-7.3-3.545-10.045 3.63 2.935 5.955 7.425 5.955 12.455z"></path>
<path fill="#3e4347" style="fill: var(--color3, #3e4347)" d="M24.397 14.1c0 1.387-1.124 2.511-2.511 2.511s-2.511-1.124-2.511-2.511c0-1.387 1.124-2.511 2.511-2.511s2.511 1.124 2.511 2.511z"></path>
<path fill="#5a5f63" style="fill: var(--color5, #5a5f63)" d="M21.904 12.679c0.11-0.248 0.511-0.312 0.894-0.142s0.605 0.509 0.495 0.758c-0.11 0.248-0.511 0.312-0.894 0.142s-0.605-0.509-0.495-0.758z"></path>
<path fill="#3e4347" style="fill: var(--color3, #3e4347)" d="M12.625 14.1c0 1.387-1.124 2.511-2.511 2.511s-2.511-1.124-2.511-2.511c0-1.387 1.124-2.511 2.511-2.511s2.511 1.124 2.511 2.511z"></path>
<path fill="#5a5f63" style="fill: var(--color5, #5a5f63)" d="M10.131 12.679c0.11-0.248 0.511-0.312 0.894-0.142s0.605 0.509 0.495 0.758c-0.11 0.248-0.511 0.312-0.894 0.142s-0.605-0.509-0.495-0.758z"></path>
<path fill="#3e4347" style="fill: var(--color3, #3e4347)" d="M9.446 22.316c-0.302-0.284-0.316-0.759-0.032-1.060s0.758-0.316 1.060-0.032c3.099 2.917 7.953 2.917 11.052 0 0.302-0.284 0.776-0.269 1.060 0.032 0.284 0.302 0.27 0.776-0.032 1.060-3.675 3.46-9.433 3.46-13.108 0z"></path>
</symbol>
<symbol id="emoji-grad" viewBox="0 0 32 32">
<path fill="#3e4347" style="fill: var(--color3, #3e4347)" d="M25.923 9.672c0.116-0.28 0.294-0.848 0.376-1.074-0.226-0.11-0.376-0.349-0.376-0.623v-0.006c0.007-0.294 0.246-0.52 0.534-0.554v-3.536h0.417v3.543c0.267 0.054 0.479 0.273 0.479 0.547v0.007c0 0.246-0.123 0.479-0.322 0.609 0.082 0.232 0.28 0.8 0.397 1.087h-1.505z"></path>
<path fill="#ffd93b" style="fill: var(--color1, #ffd93b)" d="M28.467 19.533c0 6.885-5.582 12.467-12.467 12.467s-12.467-5.582-12.467-12.467c0-6.885 5.582-12.467 12.467-12.467s12.467 5.582 12.467 12.467z"></path>
<path fill="#f4c534" style="fill: var(--color4, #f4c534)" d="M28.467 19.533c0 6.888-5.583 12.467-12.467 12.467-3.919 0-7.418-1.808-9.705-4.64 2.139 1.73 4.862 2.762 7.827 2.762 6.884 0 12.467-5.579 12.467-12.467 0-2.965-1.032-5.688-2.762-7.827 2.828 2.288 4.64 5.786 4.64 9.705z"></path>
<path fill="#fff" style="fill: var(--color2, #fff)" d="M14.998 17.858c0 2.137-1.73 3.869-3.865 3.869s-3.865-1.732-3.865-3.869c0-2.137 1.73-3.869 3.865-3.869s3.865 1.732 3.865 3.869z"></path>
<path fill="#fff" style="fill: var(--color2, #fff)" d="M24.736 17.858c0 2.137-1.731 3.869-3.866 3.869s-3.866-1.732-3.866-3.869c0-2.137 1.731-3.869 3.866-3.869s3.866 1.732 3.866 3.869z"></path>
<path fill="#3e4347" style="fill: var(--color3, #3e4347)" d="M27.164 17.271h-1.924c-0.288-2.159-2.138-3.83-4.371-3.83-1.653 0-3.095 0.916-3.849 2.267-0.205 0.367-0.592 0.581-1.012 0.578-0.002 0-0.005 0-0.007 0-0.004 0-0.007 0-0.011 0-0.418 0.003-0.804-0.212-1.008-0.577-0.754-1.352-2.196-2.269-3.849-2.269-2.233 0-4.079 1.672-4.367 3.83h-1.93v1.169h1.944c0.271 2.017 1.91 3.639 3.974 3.814 2.612 0.221 4.843-1.862 4.787-4.487 0.045-0.22 0.229-0.388 0.461-0.388 0.237 0 0.457 0.171 0.457 0.481 0 2.546 2.17 4.596 4.758 4.398 2.071-0.159 3.741-1.779 4.011-3.817h1.937v-1.169h-0.001zM11.133 21.179c-1.831 0-3.32-1.49-3.32-3.319 0-1.834 1.489-3.326 3.32-3.326s3.319 1.492 3.319 3.326c0.001 1.829-1.488 3.319-3.319 3.319zM20.87 21.179c-1.831 0-3.32-1.49-3.32-3.319 0-1.834 1.489-3.326 3.32-3.326s3.319 1.492 3.319 3.326c0 1.829-1.489 3.319-3.319 3.319z"></path>
<path fill="#3e4347" style="fill: var(--color3, #3e4347)" d="M21.374 18.481c0 0.812-0.654 1.482-1.477 1.482-0.813 0-1.477-0.669-1.477-1.482 0-0.818 0.664-1.487 1.477-1.487 0.823 0 1.477 0.669 1.477 1.487z"></path>
<path fill="#fff" style="fill: var(--color2, #fff)" d="M20.066 17.621c0.132-0.132 0.392-0.084 0.583 0.106s0.238 0.451 0.106 0.583c-0.132 0.132-0.392 0.084-0.583-0.106s-0.238-0.451-0.106-0.583z"></path>
<path fill="#3e4347" style="fill: var(--color3, #3e4347)" d="M13.582 18.481c0 0.812-0.654 1.482-1.477 1.482-0.813 0-1.477-0.669-1.477-1.482 0-0.818 0.664-1.487 1.477-1.487 0.823 0 1.477 0.669 1.477 1.487z"></path>
<path fill="#fff" style="fill: var(--color2, #fff)" d="M12.272 17.62c0.132-0.132 0.392-0.084 0.583 0.106s0.238 0.451 0.106 0.583c-0.132 0.132-0.392 0.084-0.583-0.106s-0.238-0.451-0.106-0.583z"></path>
<path fill="#3e4347" style="fill: var(--color3, #3e4347)" d="M11.877 24.406c0.396 1.457 2.13 2.514 4.123 2.514s3.727-1.057 4.123-2.514c0.071-0.26 0.337-0.409 0.598-0.342 0.259 0.071 0.413 0.339 0.342 0.598-0.509 1.873-2.638 3.232-5.063 3.232-2.424 0-4.554-1.36-5.062-3.232-0.071-0.26 0.083-0.527 0.342-0.598 0.26-0.069 0.527 0.083 0.597 0.342z"></path>
<path fill="#3e4347" style="fill: var(--color3, #3e4347)" d="M22.501 4.186v5.541c0 0.209-0.153 0.391-0.362 0.429-4.234 0.772-8.325 0.744-12.283 0.009-0.21-0.047-0.362-0.229-0.362-0.439v-5.54c0-0.238 0.2-0.429 0.439-0.429h12.14c0.238 0 0.428 0.191 0.428 0.429z"></path>
<path fill="#5a5f63" style="fill: var(--color5, #5a5f63)" d="M28.621 4.232l-12.496 3.269c-0.080 0.023-0.171 0.023-0.251 0l-12.495-3.269c-0.49-0.125-0.49-0.82 0-0.946l12.496-3.269c0.080-0.023 0.171-0.023 0.251 0l12.496 3.269c0.489 0.125 0.489 0.821-0.001 0.946z"></path>
</symbol>
<symbol id="emoji-3d" viewBox="0 0 32 32">
<path fill="#ffd93b" style="fill: var(--color1, #ffd93b)" d="M31.998 16c0 8.835-7.163 15.998-15.998 15.998s-15.998-7.163-15.998-15.998c0-8.835 7.163-15.998 15.998-15.998s15.998 7.163 15.998 15.998z"></path>
<path fill="#ffd93b" style="fill: var(--color1, #ffd93b)" d="M31.998 16c0 8.839-7.164 15.998-15.998 15.998-5.029 0-9.519-2.32-12.453-5.954 2.745 2.22 6.239 3.545 10.044 3.545 8.834 0 15.998-7.159 15.998-15.998 0-3.805-1.325-7.299-3.545-10.044 3.629 2.934 5.954 7.424 5.954 12.453z"></path>
<path fill="#e9eff4" style="fill: var(--color6, #e9eff4)" d="M32 6.213v10.321c0 0.685-0.554 1.239-1.23 1.239h-11.69c-0.811 0-1.468-0.657-1.468-1.468v-1.329c0-0.805-0.554-1.548-1.349-1.671-1.012-0.156-1.874 0.625-1.874 1.596v1.404c0 0.811-0.657 1.468-1.468 1.468h-11.691c-0.679 0-1.23-0.551-1.23-1.23v-10.33c0-0.679 0.551-1.23 1.23-1.23h29.54c0.676 0 1.23 0.545 1.23 1.23z"></path>
<path fill="#45cbea" style="fill: var(--color7, #45cbea)" d="M12.789 8.62v5.516c0 0.799-0.641 1.44-1.441 1.44h-7.711c-0.799 0-1.441-0.641-1.441-1.44v-5.516c0-0.799 0.641-1.441 1.441-1.441h7.712c0.799 0 1.44 0.641 1.44 1.441z"></path>
<path fill="#e84d88" style="fill: var(--color8, #e84d88)" d="M29.804 8.62v5.516c0 0.799-0.641 1.44-1.441 1.44h-7.712c-0.799 0-1.441-0.641-1.441-1.44v-5.516c0-0.799 0.641-1.441 1.441-1.441h7.712c0.8 0 1.441 0.641 1.441 1.441z"></path>
<path fill="#38c0dc" style="fill: var(--color9, #38c0dc)" d="M5.949 7.179l-3.753 3.753v0.951l4.705-4.704z"></path>
<path fill="#38c0dc" style="fill: var(--color9, #38c0dc)" d="M7.706 7.179l-5.51 5.51v1.447c0 0.117 0.018 0.23 0.044 0.339l7.296-7.296c0 0-1.83 0-1.83 0z"></path>
<path fill="#d23f77" style="fill: var(--color10, #d23f77)" d="M23.334 7.179l-4.123 4.123v0.952l5.074-5.075z"></path>
<path fill="#d23f77" style="fill: var(--color10, #d23f77)" d="M25.091 7.179l-5.88 5.88v1.077c0 0.221 0.053 0.427 0.14 0.613l7.57-7.57c0 0-1.83 0-1.83 0z"></path>
<path fill="#3e4347" style="fill: var(--color3, #3e4347)" d="M20.593 24.701c0 2.793-2.057 5.062-4.589 5.062-2.542 0-4.589-2.269-4.589-5.062s2.047-5.062 4.589-5.062c2.532 0 4.589 2.269 4.589 5.062z"></path>
<path fill="#e24b4b" style="fill: var(--color11, #e24b4b)" d="M16.004 29.763c1.313 0 2.49-0.618 3.326-1.594-0.012-1.185-0.978-2.137-2.157-2.137-0.571 0-1.080 0.214-1.463 0.58-0.268-0.125-0.562-0.188-0.874-0.188-1.068 0-1.946 0.786-2.113 1.808 0.831 0.942 1.991 1.531 3.281 1.531z"></path>
<path fill="#fff" style="fill: var(--color2, #fff)" opacity="0.2" d="M18.141 27.178c-0.060 0.21-0.36 0.32-0.68 0.24s-0.53-0.32-0.47-0.54c0.050-0.21 0.36-0.32 0.67-0.24 0.32 0.090 0.53 0.33 0.48 0.54z"></path>
</symbol>
<symbol id="emoji-cheer" viewBox="0 0 32 32">
<path fill="#65b1ef" style="fill: var(--color12, #65b1ef)" d="M16.745 0l-0.453 11.121-0.99-11.121z"></path>
<path fill="#5a5f63" style="fill: var(--color5, #5a5f63)" d="M15.302 31.628l0.453-11.12 0.99 11.12z"></path>
<path fill="#65b1ef" style="fill: var(--color12, #65b1ef)" d="M31.612 1.518l-10.913 10.102 9.62-11.395z"></path>
<path fill="#65b1ef" style="fill: var(--color12, #65b1ef)" d="M0.434 30.11l10.913-10.102-9.62 11.395z"></path>
<path fill="#5a5f63" style="fill: var(--color5, #5a5f63)" d="M31.838 16.538l-11.121-0.454 11.121-0.993z"></path>
<path fill="#8cc63e" style="fill: var(--color13, #8cc63e)" d="M0.209 15.091l11.121 0.454-11.121 0.992z"></path>
<path fill="#f29a2e" style="fill: var(--color14, #f29a2e)" d="M30.319 31.403l-10.102-10.913 11.395 9.62z"></path>
<path fill="#5a5f63" style="fill: var(--color5, #5a5f63)" d="M1.728 0.225l10.102 10.913-11.395-9.62z"></path>
<path fill="#f29a2e" style="fill: var(--color14, #f29a2e)" d="M10.26 0l4.104 11.1-5.448-10.543z"></path>
<path fill="#8cc63e" style="fill: var(--color13, #8cc63e)" d="M21.786 31.628l-4.103-11.099 5.448 10.542z"></path>
<path fill="#8cc63e" style="fill: var(--color13, #8cc63e)" d="M23.131 0.557l-4.947 10.75 3.602-11.307z"></path>
<path fill="#e84d88" style="fill: var(--color8, #e84d88)" d="M8.916 31.071l4.947-10.75-3.603 11.307z"></path>
<path fill="#f29a2e" style="fill: var(--color14, #f29a2e)" d="M31.837 10.051l-11.099 4.104 10.543-5.448z"></path>
<path fill="#5a5f63" style="fill: var(--color5, #5a5f63)" d="M0.209 21.577l11.1-4.103-10.543 5.447z"></path>
<path fill="#e84d88" style="fill: var(--color8, #e84d88)" d="M31.28 22.921l-10.75-4.947 11.307 3.603z"></path>
<path fill="#e84d88" style="fill: var(--color8, #e84d88)" d="M0.766 8.707l10.75 4.947-11.307-3.603z"></path>
<path fill="#ffd93b" style="fill: var(--color1, #ffd93b)" d="M28.886 15.814c0 7.106-5.761 12.867-12.867 12.867s-12.867-5.761-12.867-12.867c0-7.106 5.761-12.867 12.867-12.867s12.867 5.761 12.867 12.867z"></path>
<path fill="#3e4347" style="fill: var(--color3, #3e4347)" d="M25.169 19.281c-1.394 3.691-4.962 6.315-9.145 6.315-4.172 0-7.74-2.614-9.134-6.294-0.236-0.615 0.359-1.22 0.974-0.964 5.269 2.204 10.703 2.266 16.341-0.031 0.605-0.246 1.19 0.359 0.964 0.974z"></path>
<path fill="#f4c534" style="fill: var(--color4, #f4c534)" d="M28.89 15.814c0 7.109-5.762 12.867-12.867 12.867-4.045 0-7.656-1.866-10.016-4.789 2.207 1.785 5.018 2.851 8.078 2.851 7.105 0 12.867-5.758 12.867-12.867 0-3.060-1.066-5.87-2.851-8.078 2.919 2.36 4.789 5.971 4.789 10.016z"></path>
<path fill="#e84d88" style="fill: var(--color8, #e84d88)" d="M3.825 4.674c-0.019 0.019-0.028 0.044-0.025 0.073l0.166 0.969c0.013 0.066-0.056 0.116-0.116 0.084l-0.872-0.458c-0.025-0.013-0.053-0.013-0.075 0l-0.872 0.458c-0.060 0.031-0.129-0.019-0.119-0.085l0.166-0.969c0.006-0.028-0.003-0.053-0.022-0.072l-0.705-0.686c-0.047-0.047-0.022-0.129 0.047-0.142l0.972-0.141c0.028-0.003 0.050-0.019 0.063-0.044l0.436-0.881c0.028-0.063 0.116-0.063 0.144 0l0.436 0.881c0.013 0.025 0.034 0.041 0.060 0.044l0.975 0.141c0.066 0.013 0.094 0.094 0.047 0.141l-0.706 0.687z"></path>
<path fill="#9a795f" style="fill: var(--color15, #9a795f)" d="M7.737 29.542c-0.008 0.008-0.012 0.018-0.010 0.030l0.068 0.398c0.005 0.027-0.023 0.048-0.048 0.035l-0.358-0.188c-0.010-0.005-0.022-0.005-0.031 0l-0.358 0.188c-0.024 0.013-0.053-0.008-0.049-0.035l0.068-0.398c0.003-0.012-0.001-0.022-0.009-0.030l-0.29-0.282c-0.019-0.019-0.009-0.053 0.019-0.058l0.399-0.058c0.012-0.001 0.021-0.008 0.026-0.018l0.179-0.362c0.012-0.026 0.048-0.026 0.059 0l0.179 0.362c0.005 0.010 0.014 0.017 0.024 0.018l0.4 0.058c0.027 0.005 0.039 0.039 0.019 0.058l-0.287 0.282z"></path>
<path fill="#f29a2e" style="fill: var(--color14, #f29a2e)" d="M7.074 26.653c-0.008 0.008-0.012 0.018-0.010 0.030l0.068 0.398c0.005 0.027-0.023 0.048-0.048 0.035l-0.358-0.188c-0.010-0.005-0.022-0.005-0.031 0l-0.358 0.188c-0.024 0.013-0.053-0.008-0.049-0.035l0.068-0.398c0.003-0.012-0.001-0.022-0.009-0.030l-0.29-0.282c-0.019-0.019-0.009-0.053 0.019-0.058l0.399-0.058c0.012-0.001 0.021-0.008 0.026-0.018l0.179-0.362c0.012-0.026 0.048-0.026 0.059 0l0.179 0.362c0.005 0.010 0.014 0.017 0.024 0.018l0.4 0.058c0.027 0.005 0.039 0.039 0.019 0.058l-0.287 0.282z"></path>
<path fill="#45cbea" style="fill: var(--color7, #45cbea)" d="M14.065 30.399c-0.008 0.008-0.012 0.018-0.010 0.030l0.068 0.398c0.005 0.027-0.023 0.048-0.048 0.035l-0.358-0.188c-0.010-0.005-0.022-0.005-0.031 0l-0.358 0.188c-0.024 0.013-0.053-0.008-0.049-0.035l0.068-0.398c0.003-0.012-0.001-0.022-0.009-0.030l-0.29-0.282c-0.019-0.019-0.009-0.053 0.019-0.058l0.399-0.058c0.012-0.001 0.021-0.008 0.026-0.018l0.179-0.362c0.012-0.026 0.048-0.026 0.059 0l0.179 0.362c0.005 0.010 0.014 0.017 0.024 0.018l0.4 0.058c0.027 0.005 0.039 0.039 0.019 0.058l-0.287 0.282z"></path>
<path fill="#5a5f63" style="fill: var(--color5, #5a5f63)" d="M27.186 3.735c-0.026 0.007-0.046 0.024-0.058 0.050l-0.334 0.925c-0.022 0.063-0.106 0.073-0.143 0.016l-0.531-0.829c-0.016-0.023-0.040-0.037-0.065-0.037l-0.984-0.033c-0.067-0.002-0.103-0.080-0.062-0.133l0.624-0.76c0.019-0.021 0.024-0.048 0.017-0.074l-0.274-0.946c-0.018-0.064 0.045-0.123 0.111-0.099l0.915 0.358c0.026 0.011 0.053 0.008 0.076-0.007l0.815-0.55c0.056-0.041 0.132 0.003 0.125 0.071l-0.057 0.982c-0.002 0.028 0.010 0.052 0.030 0.068l0.778 0.605c0.051 0.044 0.035 0.128-0.029 0.146l-0.954 0.247z"></path>
<path fill="#8cc63e" style="fill: var(--color13, #8cc63e)" d="M29.585 7.471c-0.011 0.009-0.018 0.023-0.017 0.038l0.042 0.54c0.004 0.037-0.037 0.061-0.068 0.040l-0.453-0.296c-0.013-0.008-0.029-0.010-0.041-0.004l-0.499 0.205c-0.034 0.014-0.069-0.017-0.061-0.053l0.14-0.523c0.005-0.015 0.001-0.029-0.008-0.041l-0.351-0.414c-0.023-0.028-0.006-0.072 0.033-0.075l0.538-0.026c0.016 0 0.028-0.008 0.036-0.021l0.282-0.46c0.019-0.033 0.067-0.028 0.079 0.008l0.194 0.506c0.006 0.014 0.017 0.024 0.030 0.027l0.526 0.129c0.035 0.010 0.047 0.057 0.019 0.080l-0.421 0.34z"></path>
<path fill="#5a5f63" style="fill: var(--color5, #5a5f63)" d="M2.217 13.675c-0.017 0.014-0.027 0.035-0.027 0.059l0.065 0.836c0.005 0.057-0.057 0.094-0.105 0.062l-0.702-0.46c-0.020-0.013-0.044-0.015-0.064-0.006l-0.773 0.318c-0.053 0.022-0.107-0.026-0.094-0.082l0.216-0.809c0.008-0.023 0.001-0.046-0.013-0.063l-0.542-0.64c-0.036-0.044-0.009-0.111 0.051-0.116l0.833-0.040c0.024 0 0.044-0.012 0.056-0.032l0.437-0.713c0.029-0.052 0.104-0.044 0.123 0.011l0.3 0.784c0.009 0.022 0.026 0.037 0.047 0.042l0.814 0.199c0.055 0.016 0.072 0.088 0.029 0.124l-0.651 0.526z"></path>
<path fill="#f29a2e" style="fill: var(--color14, #f29a2e)" d="M1.058 18.046c-0.008 0.006-0.012 0.016-0.012 0.026l0.029 0.371c0.002 0.025-0.025 0.042-0.046 0.028l-0.311-0.204c-0.009-0.006-0.020-0.007-0.028-0.003l-0.343 0.141c-0.023 0.010-0.048-0.012-0.042-0.036l0.096-0.359c0.003-0.010 0.001-0.020-0.006-0.028l-0.241-0.284c-0.016-0.019-0.004-0.049 0.023-0.051l0.37-0.018c0.011 0 0.019-0.005 0.025-0.014l0.194-0.316c0.013-0.023 0.046-0.019 0.054 0.005l0.133 0.348c0.004 0.010 0.012 0.017 0.021 0.019l0.361 0.088c0.024 0.007 0.032 0.039 0.013 0.055l-0.29 0.232z"></path>
<path fill="#e84d88" style="fill: var(--color8, #e84d88)" d="M2.271 19.891c-0.008 0.006-0.012 0.016-0.012 0.026l0.029 0.371c0.002 0.025-0.025 0.042-0.046 0.028l-0.312-0.204c-0.009-0.006-0.020-0.007-0.028-0.003l-0.344 0.141c-0.023 0.010-0.048-0.012-0.042-0.036l0.096-0.359c0.003-0.010 0.001-0.020-0.006-0.028l-0.241-0.284c-0.016-0.019-0.004-0.049 0.023-0.051l0.37-0.018c0.011 0 0.019-0.005 0.025-0.014l0.194-0.316c0.013-0.023 0.046-0.019 0.054 0.005l0.133 0.348c0.004 0.010 0.012 0.017 0.021 0.019l0.361 0.088c0.024 0.007 0.032 0.039 0.013 0.055l-0.288 0.232z"></path>
<path fill="#fc97b2" style="fill: var(--color16, #fc97b2)" d="M20.713 31.57c-0.008 0.006-0.012 0.016-0.012 0.026l0.029 0.371c0.002 0.025-0.025 0.042-0.046 0.028l-0.311-0.204c-0.009-0.006-0.020-0.007-0.028-0.003l-0.343 0.141c-0.023 0.010-0.048-0.012-0.042-0.036l0.096-0.359c0.003-0.010 0.001-0.020-0.006-0.028l-0.241-0.284c-0.016-0.019-0.004-0.049 0.023-0.051l0.37-0.018c0.011 0 0.019-0.005 0.025-0.014l0.194-0.316c0.013-0.023 0.046-0.019 0.054 0.005l0.133 0.348c0.004 0.010 0.012 0.017 0.021 0.019l0.361 0.088c0.024 0.007 0.032 0.039 0.013 0.055l-0.29 0.232z"></path>
<path fill="#89664c" style="fill: var(--color17, #89664c)" d="M18.595 29.803c-0.008 0.006-0.012 0.016-0.012 0.026l0.029 0.371c0.002 0.025-0.025 0.042-0.046 0.028l-0.311-0.204c-0.009-0.006-0.020-0.007-0.028-0.003l-0.343 0.141c-0.023 0.010-0.048-0.012-0.042-0.036l0.096-0.359c0.003-0.010 0.001-0.020-0.006-0.028l-0.241-0.284c-0.016-0.019-0.004-0.049 0.023-0.051l0.37-0.018c0.011 0 0.019-0.005 0.025-0.014l0.194-0.316c0.013-0.023 0.046-0.019 0.054 0.005l0.133 0.348c0.004 0.010 0.012 0.017 0.021 0.019l0.361 0.088c0.024 0.007 0.032 0.039 0.013 0.055l-0.29 0.232z"></path>
<path fill="#8cc63e" style="fill: var(--color13, #8cc63e)" d="M24.965 27.882c-0.008 0.006-0.012 0.016-0.012 0.026l0.029 0.371c0.002 0.025-0.025 0.042-0.046 0.028l-0.311-0.204c-0.009-0.006-0.020-0.007-0.028-0.003l-0.343 0.141c-0.023 0.010-0.048-0.012-0.042-0.036l0.096-0.359c0.003-0.010 0.001-0.020-0.006-0.028l-0.241-0.284c-0.016-0.019-0.004-0.049 0.023-0.051l0.37-0.018c0.011 0 0.019-0.005 0.025-0.014l0.194-0.316c0.013-0.023 0.046-0.019 0.054 0.005l0.133 0.348c0.004 0.010 0.012 0.017 0.021 0.019l0.361 0.088c0.024 0.007 0.032 0.039 0.013 0.055l-0.29 0.232z"></path>
<path fill="#65b1ef" style="fill: var(--color12, #65b1ef)" d="M28.505 23.427c-0.008 0.006-0.012 0.016-0.012 0.026l0.029 0.371c0.002 0.025-0.025 0.042-0.046 0.028l-0.311-0.204c-0.009-0.006-0.020-0.007-0.028-0.003l-0.343 0.141c-0.023 0.010-0.048-0.012-0.042-0.036l0.096-0.359c0.003-0.010 0.001-0.020-0.006-0.028l-0.241-0.284c-0.016-0.019-0.004-0.049 0.023-0.051l0.37-0.018c0.011 0 0.019-0.005 0.025-0.014l0.194-0.316c0.013-0.023 0.046-0.019 0.054 0.005l0.133 0.348c0.004 0.010 0.012 0.017 0.021 0.019l0.361 0.088c0.024 0.007 0.032 0.039 0.013 0.055l-0.29 0.232z"></path>
<path fill="#e24b4b" style="fill: var(--color11, #e24b4b)" d="M26.901 30.4c-0.008 0.006-0.012 0.016-0.012 0.026l0.029 0.371c0.002 0.025-0.025 0.042-0.046 0.028l-0.311-0.204c-0.009-0.006-0.020-0.007-0.028-0.003l-0.343 0.141c-0.023 0.010-0.048-0.012-0.042-0.036l0.096-0.359c0.003-0.010 0.001-0.020-0.006-0.028l-0.241-0.284c-0.016-0.019-0.004-0.049 0.023-0.051l0.37-0.018c0.011 0 0.019-0.005 0.025-0.014l0.194-0.316c0.013-0.023 0.046-0.019 0.054 0.005l0.133 0.348c0.004 0.010 0.012 0.017 0.021 0.019l0.361 0.088c0.024 0.007 0.032 0.039 0.013 0.055l-0.29 0.232z"></path>
<path fill="#e84d88" style="fill: var(--color8, #e84d88)" d="M31.518 5.406c-0.009 0.004-0.015 0.011-0.017 0.021l-0.059 0.346c-0.004 0.024-0.033 0.032-0.049 0.015l-0.238-0.259c-0.007-0.007-0.016-0.011-0.025-0.009l-0.346 0.050c-0.024 0.003-0.041-0.022-0.030-0.043l0.171-0.306c0.005-0.009 0.005-0.018 0.001-0.027l-0.155-0.316c-0.010-0.021 0.008-0.046 0.033-0.042l0.342 0.069c0.010 0.002 0.019 0 0.026-0.007l0.251-0.244c0.017-0.018 0.046-0.007 0.048 0.017l0.041 0.349c0.001 0.010 0.007 0.018 0.015 0.022l0.31 0.165c0.021 0.012 0.020 0.043-0.001 0.053l-0.318 0.146z"></path>
<path fill="#5a5f63" style="fill: var(--color5, #5a5f63)" d="M4.841 1.096c0.947-0.211 2.441-0.167 3.236 0.403 0.619 0.459 0.649 1.256 0.235 1.745-0.845 1.055-2.384 0.158-1.944-0.842 0.347-0.88 1.641-0.502 1.411 0.323-0.090 0.299-0.286 0.36-0.274 0.362l-0.010-0.017c-0.010 0 0.164-0.088 0.207-0.362 0.093-0.724-0.885-0.899-1.145-0.23-0.351 0.833 0.94 1.52 1.673 0.694 0.434-0.466 0.39-1.23-0.213-1.585-0.713-0.411-2.377-0.54-3.173-0.471l-0.003-0.020z"></path>
<path fill="#65b1ef" style="fill: var(--color12, #65b1ef)" d="M30.017 12.391c-0.092 0.362-0.162 0.612-0.181 0.998-0.013 0.294 0.052 0.652 0.279 0.917 0.623 0.778 1.631-0.146 1.039-0.64-0.229-0.232-0.636-0.037-0.682 0.224-0.059 0.268 0.208 0.447 0.371 0.455 0.177 0.018 0.26-0.078 0.259-0.070-0.001-0.009-0.065 0.101-0.261 0.112-0.569 0.013-0.712-0.688-0.174-0.963 0.179-0.1 0.453-0.081 0.626 0.076 0.647 0.548 0.014 1.539-0.8 1.302-0.511-0.14-0.887-0.63-0.798-1.424 0.044-0.347 0.184-0.658 0.322-0.987z"></path>
<path fill="#e84d88" style="fill: var(--color8, #e84d88)" d="M17.87 0.317c-0.411 0.9 0.161 1.87 1.042 1.755 0.425-0.046 0.844-0.431 0.848-0.884 0.034-0.514-0.459-0.793-0.819-0.643-0.447 0.17-0.545 0.675-0.311 0.883 0.245 0.22 0.564 0.051 0.584-0.258 0.008-0.233 0.012-0.366 0.012-0.366 0.050 0.324 0.129 0.562-0.112 0.784-0.149 0.133-0.414 0.14-0.607-0.008-0.423-0.318-0.252-1.11 0.324-1.319 0.596-0.249 1.324 0.228 1.279 0.942-0.035 0.643-0.605 1.129-1.171 1.17-1.12 0.099-1.703-1.241-1.069-2.056z"></path>
<path fill="#e84d88" style="fill: var(--color8, #e84d88)" d="M2.186 26.487l-0.256-0.984c0.144-0.123 0.359-0.164 0.605-0.277 1.117-0.533 1.732-1.65 1.671-2.799 1.168 1.723-0.995 4.050-2.020 4.060z"></path>
<path fill="#f29a2e" style="fill: var(--color14, #f29a2e)" d="M30.874 19.473c-0.26 0.13-0.41 0.31-0.52 0.49-0.39-0.35-0.2-0.93-0.090-1.49-0.233 0.609-0.544 1.186-0.020 1.67-0.175 0.39-0.21 0.65-0.19 0.89 0 0 0.020-0.37 0.3-0.8 0.28 0.2 0.73 0.26 1.050-0.010 0.4-0.37 0-0.98-0.53-0.75zM31.234 20.043c-0.19 0.18-0.53 0.16-0.75 0.010 0.12-0.15 0.28-0.3 0.47-0.38 0.29-0.12 0.51 0.18 0.28 0.37z"></path>
<path fill="#e24b4b" style="fill: var(--color11, #e24b4b)" d="M16.024 25.596c1.499 0 2.917-0.342 4.186-0.944-0.051-0.45-0.173-0.905-0.395-1.351-0.526-1.056-1.83-1.397-2.899-0.887-0.694 0.317-1.461 0.381-2.185 0.239-1.209-0.252-2.445 0.371-2.698 1.581-0.035 0.163-0.039 0.322-0.054 0.483 1.235 0.56 2.602 0.879 4.045 0.879z"></path>
<path fill="#f4c534" style="fill: var(--color4, #f4c534)" d="M14.977 12.854c0 2.468-1.669 4.467-3.729 4.467s-3.728-1.999-3.728-4.467c0-2.46 1.669-4.459 3.728-4.459 2.060 0 3.729 1.999 3.729 4.459z"></path>
<path fill="#3e4347" style="fill: var(--color3, #3e4347)" d="M14.932 13.504c-0.695-0.801-2.078-1.347-3.684-1.347s-2.989 0.546-3.683 1.347c0.001-1.677 1.641-2.817 3.683-2.817s3.682 1.14 3.684 2.817z"></path>
<path fill="#f4c534" style="fill: var(--color4, #f4c534)" d="M24.527 12.854c0 2.468-1.669 4.467-3.729 4.467s-3.728-1.999-3.728-4.467c0-2.46 1.669-4.459 3.728-4.459 2.061 0 3.729 1.999 3.729 4.459z"></path>
<path fill="#3e4347" style="fill: var(--color3, #3e4347)" d="M24.482 13.504c-0.695-0.801-2.078-1.347-3.684-1.347s-2.989 0.546-3.683 1.347c0.001-1.677 1.641-2.817 3.683-2.817s3.683 1.14 3.684 2.817z"></path>
<path fill="#3e4347" style="fill: var(--color3, #3e4347)" d="M24.808 9.321c-0.206 0-0.408-0.102-0.527-0.289-1.867-2.92-5.098-3.197-5.13-3.199-0.345-0.026-0.603-0.326-0.576-0.67 0.025-0.346 0.349-0.608 0.67-0.576 0.158 0.012 3.89 0.332 6.089 3.772 0.187 0.291 0.102 0.677-0.189 0.863-0.105 0.067-0.221 0.099-0.337 0.099z"></path>
<path fill="#3e4347" style="fill: var(--color3, #3e4347)" d="M7.239 9.321c-0.115 0-0.231-0.032-0.336-0.099-0.291-0.185-0.376-0.572-0.189-0.862 2.199-3.441 5.93-3.761 6.088-3.772 0.315-0.024 0.643 0.23 0.669 0.574s-0.229 0.644-0.573 0.672c-0.032 0.003-3.275 0.298-5.131 3.199-0.12 0.186-0.322 0.288-0.528 0.288z"></path>
<path fill="#fff" style="fill: var(--color2, #fff)" d="M8.113 18.429c1.844 3.521 3.647 3.494 7.911 3.494 4.277 0 6.084 0.019 7.931-3.527-5.46 2.158-10.728 2.104-15.842 0.033z"></path>
</symbol>
<symbol id="search" viewBox="0 0 20 20">
<path d="M17.545 15.467l-3.779-3.779c0.57-0.935 0.898-2.035 0.898-3.21 0-3.417-2.961-6.377-6.378-6.377s-6.186 2.769-6.186 6.186c0 3.416 2.961 6.377 6.377 6.377 1.137 0 2.2-0.309 3.115-0.844l3.799 3.801c0.372 0.371 0.975 0.371 1.346 0l0.943-0.943c0.371-0.371 0.236-0.84-0.135-1.211zM4.004 8.287c0-2.366 1.917-4.283 4.282-4.283s4.474 2.107 4.474 4.474c0 2.365-1.918 4.283-4.283 4.283s-4.473-2.109-4.473-4.474z"></path>
</symbol>
<symbol id="arrow-back" viewBox="0 0 20 20">
<path d="M10 2.5v3.5h7v8h-7v3.5l-7.5-7.5 7.5-7.5z"></path>
</symbol>
<symbol id="arrow-forward" viewBox="0 0 20 20">
<path d="M17.5 10l-7.5 7.5v-3.5h-7v-8h7v-3.5l7.5 7.5z"></path>
</symbol>
</defs>
</svg>
